<?xml version="1.0" encoding="utf-8"?>
<!-- Generator: Adobe Illustrator 27.6.1, SVG Export Plug-In . SVG Version: 6.00 Build 0)  -->
<svg version="1.1" xmlns="http://www.w3.org/2000/svg" xmlns:xlink="http://www.w3.org/1999/xlink" x="0px" y="0px"
	 viewBox="0 0 279.5 159.5" style="enable-background:new 0 0 279.5 159.5;" xml:space="preserve">
<style type="text/css">
	.st0{fill:#FFD4F0;}
	.st1{fill:#E93032;}
	.st2{opacity:0.4984;}
	.st3{fill:#0033CC;}
	.st4{fill:#FFFFFF;}
	.st5{fill:#6380C5;}
	.st6{fill:#333333;}
	.st7{fill:#FFDD67;}
	.st8{fill:#664E27;}
	.st9{fill:#917524;}
	.st10{fill:none;stroke:#0033CB;stroke-width:34.4361;stroke-linecap:round;stroke-miterlimit:10;stroke-dasharray:0,65.5242,0,0;}
	.st11{opacity:0.5;enable-background:new    ;}
	.st12{fill:#494949;}
	.st13{fill:#EA3032;}
	.st14{fill:none;stroke:#FFFFFF;stroke-width:1.0081;stroke-miterlimit:10;}
	.st15{fill:#0033CB;}
	.st16{fill:#E93032;stroke:#E93032;stroke-width:0.4783;stroke-miterlimit:10;}
	.st17{clip-path:url(#SVGID_00000150791282802187898290000005076113894219932034_);}
	.st18{opacity:0.36;fill:#E93032;}
	.st19{fill:none;stroke:#FFD4F0;stroke-width:5.0782;stroke-miterlimit:10;}
	.st20{enable-background:new    ;}
	.st21{clip-path:url(#SVGID_00000159432966833889702470000004915703152186149250_);}
	.st22{clip-path:url(#SVGID_00000098194822699653965090000018373706782457294239_);}
	.st23{clip-path:url(#SVGID_00000078765891875282091260000002384001630671804346_);fill:#E93032;}
	.st24{clip-path:url(#SVGID_00000173875061160361586660000016552488676537857194_);}
	.st25{clip-path:url(#SVGID_00000130645230014986177330000004268048123681800614_);}
	.st26{clip-path:url(#SVGID_00000158014202112536397880000006325635997123353761_);fill:#E93032;}
	.st27{clip-path:url(#SVGID_00000088836785279390517090000001300954664133529237_);}
	.st28{clip-path:url(#SVGID_00000129189816041673479980000006940072538884906390_);}
	.st29{clip-path:url(#SVGID_00000150823436565410041470000012579861322195211446_);}
	.st30{clip-path:url(#SVGID_00000022550284932296293370000002801220000780765576_);fill:#0033CC;}
	.st31{clip-path:url(#SVGID_00000022550284932296293370000002801220000780765576_);fill:#FFD4F0;}
	.st32{clip-path:url(#SVGID_00000067942049985152618800000015156901586766245025_);}
	.st33{clip-path:url(#SVGID_00000171681385977147521730000014610762844192577688_);}
	.st34{clip-path:url(#SVGID_00000067941499237921280370000013157373459729112741_);fill:#E93032;}
	.st35{clip-path:url(#SVGID_00000069387356647363095900000001045873231736912051_);}
	.st36{clip-path:url(#SVGID_00000134963896069727979480000013101074791495779205_);}
	.st37{clip-path:url(#SVGID_00000165216057429697805260000015204789895802428298_);fill:#E93032;}
	.st38{clip-path:url(#SVGID_00000057843345515613023220000004724228580641524871_);}
	.st39{clip-path:url(#SVGID_00000158723514543811964070000008449899963925019009_);}
	.st40{clip-path:url(#SVGID_00000101807144113871637570000015203413840897323438_);fill:#E93032;}
	.st41{clip-path:url(#SVGID_00000069355435661843700370000012697164219096560256_);}
	.st42{clip-path:url(#SVGID_00000170246031690871376530000011664557316958822027_);}
	.st43{clip-path:url(#SVGID_00000116921681022008400830000011968064278249818509_);fill:#E93032;}
	.st44{clip-path:url(#SVGID_00000103256126518623584120000008526170865921527188_);}
	.st45{clip-path:url(#SVGID_00000076575084337000028810000003542146742122850439_);}
	.st46{clip-path:url(#SVGID_00000042716182159605451380000005897075925405576870_);fill:#E93032;}
	.st47{clip-path:url(#SVGID_00000010989142194256600360000005046609924029282204_);}
	.st48{clip-path:url(#SVGID_00000159447779190242213290000000809308779951245961_);}
	.st49{clip-path:url(#SVGID_00000067221577407802391230000012075238848431872406_);fill:#E93032;}
	.st50{clip-path:url(#SVGID_00000083793724700748126200000013037987040921786512_);}
	.st51{clip-path:url(#SVGID_00000008113564176191066580000012115349305696192650_);}
	.st52{clip-path:url(#SVGID_00000062912622310133847050000007179978407953631655_);fill:#E93032;}
	.st53{clip-path:url(#SVGID_00000043426845035983395080000001889188148855080880_);}
	.st54{clip-path:url(#SVGID_00000104696199033678723560000007026120107738544819_);}
	.st55{clip-path:url(#SVGID_00000065754649156718897330000000394193950303537073_);fill:#E93032;}
	.st56{clip-path:url(#SVGID_00000132069758386827888780000005339397497248607672_);}
	.st57{clip-path:url(#SVGID_00000060000210175009903710000002093043164175517587_);}
	.st58{fill:none;stroke:#FFD4F0;stroke-width:1.019;stroke-miterlimit:10;}
	.st59{clip-path:url(#SVGID_00000120545327388692358890000008184395047374273433_);}
	.st60{clip-path:url(#SVGID_00000057118073395679643960000005289798675613002884_);}
	.st61{clip-path:url(#SVGID_00000019660556791095771660000009679664298563552648_);fill:#E93032;}
	.st62{clip-path:url(#SVGID_00000044167774676590939290000008698952492434794148_);}
	.st63{clip-path:url(#SVGID_00000121273938488133077890000011679518530109354421_);}
	.st64{clip-path:url(#SVGID_00000029045203113894923150000000642631201855090578_);fill:#E93032;}
	.st65{clip-path:url(#SVGID_00000003787908143704463820000003696173066792778161_);}
	.st66{clip-path:url(#SVGID_00000123435787614605846700000009172351228276546731_);}
	.st67{clip-path:url(#SVGID_00000062160159320112792620000000782891505025653639_);}
	.st68{clip-path:url(#SVGID_00000168082668170999972040000000217920168143992987_);fill:#0033CC;}
	.st69{clip-path:url(#SVGID_00000168082668170999972040000000217920168143992987_);fill:#FFD4F0;}
	.st70{clip-path:url(#SVGID_00000157276376161839945230000004425200432494819717_);}
	.st71{clip-path:url(#SVGID_00000052089613586702996090000001431135186753877130_);}
	.st72{clip-path:url(#SVGID_00000075163433900277652360000011015710955614372277_);fill:#E93032;}
	.st73{clip-path:url(#SVGID_00000109719830796396677040000016143465885385209219_);}
	.st74{clip-path:url(#SVGID_00000074441102414887083730000006488892952650781079_);}
	.st75{clip-path:url(#SVGID_00000180353366228234422020000010364373105579354031_);fill:#E93032;}
	.st76{clip-path:url(#SVGID_00000114034950032785794920000002041001577088163493_);}
	.st77{clip-path:url(#SVGID_00000023279906714251891420000002061854301286933430_);}
	.st78{clip-path:url(#SVGID_00000072243259050110290510000002091733075339979420_);fill:#E93032;}
	.st79{clip-path:url(#SVGID_00000021100114150864932600000001033919593981346189_);}
	.st80{clip-path:url(#SVGID_00000115509514532290848220000006669132063598808214_);}
	.st81{clip-path:url(#SVGID_00000166670190062002013360000011991959192415650192_);fill:#E93032;}
	.st82{clip-path:url(#SVGID_00000123414408804552542390000001286026480215968685_);}
	.st83{clip-path:url(#SVGID_00000041287456000685908550000018444821132125535672_);}
	.st84{clip-path:url(#SVGID_00000008145430972921491930000006771492409072083639_);fill:#E93032;}
	.st85{clip-path:url(#SVGID_00000085972757869950266330000000568661355334040494_);}
	.st86{clip-path:url(#SVGID_00000135685078611909757810000003348007017930607254_);}
	.st87{clip-path:url(#SVGID_00000169532721164044772700000017878867808811050421_);fill:#E93032;}
	.st88{clip-path:url(#SVGID_00000089562884044314548110000005583856602328406446_);}
	.st89{clip-path:url(#SVGID_00000078028499629988121390000009517512317736944047_);}
	.st90{clip-path:url(#SVGID_00000089551648048073892350000004937864388841370034_);fill:#E93032;}
	.st91{clip-path:url(#SVGID_00000026131617688629738070000014117271121589928836_);}
	.st92{clip-path:url(#SVGID_00000053543737178606128440000002163024727280327341_);}
	.st93{clip-path:url(#SVGID_00000181077331149140555590000003955505969874870656_);fill:#E93032;}
	.st94{clip-path:url(#SVGID_00000001654237282180444570000013509410127249180827_);}
	.st95{fill:#606060;}
	.st96{clip-path:url(#SVGID_00000114777487864051555140000015560502280244128919_);}
	.st97{clip-path:url(#SVGID_00000114032437082807537210000016090020755837850042_);}
	.st98{opacity:0.84;fill:#E93032;}
	.st99{opacity:0.84;}
	.st100{clip-path:url(#SVGID_00000147928127269194751650000016533444648544808601_);}
	.st101{clip-path:url(#SVGID_00000148656570440563505620000001030624998068834204_);}
	.st102{display:none;}
	.st103{display:inline;fill:#FFEFD9;}
	.st104{display:inline;opacity:0.46;fill:#FFEFD9;}
	.st105{display:inline;opacity:0.36;}
	.st106{opacity:0.36;}
</style>
<g id="artwork">
	<g>
		<g>
			<path class="st15" d="M137.5,78.5c-1.2-2.4-1.8-5-1.7-7.6l0,0c0-6.4,3.6-12.5,9.7-15.5l0,0c8.6-4.2,18.9-0.6,23,8l0,0
				c1.2,2.4,1.7,5,1.7,7.6l0,0c0,6.4-3.6,12.5-9.7,15.5l0,0l0,0l0,0c-2.4,1.2-5,1.7-7.5,1.7l0,0C146.6,88.2,140.5,84.6,137.5,78.5z
				 M91.6,43.3c0-9.5,7.7-17.2,17.2-17.2l0,0c9.5,0,17.2,7.7,17.2,17.2l0,0c0,9.5-7.7,17.2-17.2,17.2l0,0
				C99.3,60.5,91.6,52.8,91.6,43.3z M146.8,31.8c-5.2-3.3-8.1-8.9-8.1-14.6l0,0c0-3.1,0.9-6.3,2.6-9.1l0,0c5.1-8,15.7-10.5,23.7-5.4
				l0,0c5.2,3.3,8.1,8.9,8.1,14.6l0,0c0,3.1-0.9,6.3-2.6,9.1l0,0c-3.3,5.2-8.9,8.1-14.6,8.1l0,0C152.8,34.4,149.6,33.6,146.8,31.8z"
				/>
		</g>
		<g>
			<path class="st16" d="M0.2,117.5c0.1-2.1,0.6-16.3,1-23.5c0-0.2,0.1-0.3,0.3-0.3l2.1-0.2c0.1,0,0.3,0.1,0.3,0.2
				c0.8,1.3,5.5,8.8,9.2,14.9c0.2,0.3,0.6,0.2,0.6-0.1c1.2-4.9,3.6-14.1,3.9-15.5c0-0.1,0.1-0.2,0.2-0.2l2.7-0.7
				c0.2,0,0.4,0.1,0.4,0.2c0.7,2.5,4.8,17.8,5.8,21.4c0,0.2,0,0.3-0.2,0.4c-0.4,0.2-1.1,0.4-1.5,0.5c-0.2,0.1-0.4,0-0.4-0.2
				c-0.6-2-3.8-12.4-5-15.9c-0.1-0.3-0.6-0.3-0.7,0c-2,7.3-4.1,13.4-4.8,15.4c-0.1,0.3-0.5,0.3-0.6,0.1c-1.6-2.4-7.8-11.8-9.7-15.1
				c-0.2-0.3-0.6-0.2-0.6,0.2c-0.5,8.9-0.9,16.9-1,18.5c0,0.2-0.1,0.3-0.3,0.3c-0.4,0-1,0.1-1.7-0.1C0.3,117.8,0.2,117.6,0.2,117.5z
				"/>
			<path class="st16" d="M55.7,110.7c-0.1,0.9-0.6,3.5-3.3,4.2c-2.5,0.7-4.5,0-5.4-1.5c-0.1-0.2-0.4-0.2-0.6,0
				c-1.2,1.6-3.4,3.2-6.3,3.5c-4.5,0.5-6.2-2.9-6.2-5.8c0-3.4,3-5.6,5.3-6.7c2.7-1.3,5.7-2.1,5.7-3.7c0,0,0,0,0-0.1
				c-0.1-0.5-0.1-0.8-0.2-1.2c-0.4-2.4-2.1-2.9-3.9-2.3c-0.9,0.3-2.2,2.2-2.4,3.8c0,0.2-0.2,0.3-0.3,0.3c-0.5,0-1.5,0.1-2.7-0.2
				c-0.2,0-0.3-0.3-0.3-0.5c0.6-1.9,2-4.6,6-5.7c4.6-1.2,7.6,0.3,8.6,5.3c1.1,4.9,1.2,10.5,2.1,11.4c0.9,0.8,1.8-0.2,1.9-1.3
				c0-0.2,0.2-0.3,0.4-0.3l1.2,0.1C55.6,110.4,55.7,110.5,55.7,110.7z M46.2,109.8c-0.2-1.5-0.4-3.4-0.7-5.2c0-0.3-0.3-0.4-0.6-0.2
				c-0.4,0.3-1,0.7-1.7,1.1c-1.8,1.1-3.6,3.5-3.4,5c0.2,1.5,0.9,2.5,2.9,2.3c1.4-0.2,2.7-1.8,3.4-2.7
				C46.2,110,46.2,109.9,46.2,109.8z"/>
			<path class="st16" d="M61.9,95.9c3.4-0.4,4.8,4.5,0.9,5.1S59.6,96.2,61.9,95.9z M64.9,103.8c0.2,1.7,1.6,11.2,1.8,12.6
				c0,0.1-0.1,0.2-0.2,0.2l-3.7,0.5c-0.1,0-0.2-0.1-0.2-0.1c-0.3-1.9-1-11.3-1.2-12.6c0-0.1,0-0.2,0.1-0.2c0.4-0.1,1.6-0.4,3.1-0.4
				C64.8,103.7,64.9,103.8,64.9,103.8z"/>
			<path class="st16" d="M82.8,119.5c-3.6,0.4-7-1-8.2-5.4c-0.1-0.2,0.1-0.4,0.2-0.4c2-0.6,4.5-1.1,5.4-1.3c0.2,0,0.4,0.1,0.4,0.3
				c0.1,0.6,0.3,1.8,1.4,1.7c1.5-0.1,1.4-2.1,0-3.6c-1.4-1.5-8-5.6-8.8-10.3c-0.7-4,2-7.5,5.9-8c3.8-0.5,6.6,2.7,7.1,5.1
				c0,0.2-0.1,0.4-0.3,0.4L81,99c-0.2,0-0.4-0.1-0.4-0.3c-0.1-0.5-0.2-1.2-0.9-1.1c-0.7,0-1.4,1.5,1.7,3.7s6.5,3.7,7.4,8.7
				C89.6,114.9,86.5,119,82.8,119.5z"/>
			<path class="st16" d="M135.7,112.6c0.1,0.5-0.3,0.9-0.7,0.9l-4.5,0.5c-0.5,0.1-0.9-0.3-0.9-0.7s0.3-0.9,0.7-0.9l1.4-0.2
				l-1.3-10.8c-0.4-3.1-1-3.9-2.8-3.7c-2.3,0.3-3.9,3.5-4.3,4.9l1.3,10.5l1.4-0.2c0.5-0.1,0.9,0.3,0.9,0.7c0.1,0.5-0.3,0.9-0.7,0.9
				l-4.5,0.5c-0.5,0.1-0.9-0.3-0.9-0.7s0.3-0.9,0.7-0.9l1.4-0.2l-1.3-10.8c-0.4-3.1-1-3.9-2.8-3.7c-2.3,0.3-3.9,3.5-4.3,5l1.3,10.5
				l1.3-0.2c0.5-0.1,0.9,0.3,0.9,0.7s-0.3,0.9-0.7,0.9l-4.5,0.5c-0.5,0.1-0.9-0.3-0.9-0.7c-0.1-0.5,0.3-0.9,0.7-0.9l1.5-0.2
				l-1.9-15.1l-1.5,0.2c-0.5,0.1-0.9-0.3-0.9-0.7c-0.1-0.5,0.3-0.9,0.7-0.9l2.4-0.3c0.5-0.1,0.9,0.3,0.9,0.7l0.3,2.3
				c0.1-0.2,0.3-0.4,0.4-0.6c1.2-1.7,2.6-2.6,4.1-2.8c2.5-0.3,3.6,1.1,4.1,2.6c1-1.7,2.6-3.5,4.7-3.7c4-0.5,4.4,3.3,4.7,5.2
				l1.3,10.8l1.4-0.2C135.3,111.8,135.7,112.1,135.7,112.6z"/>
			<path class="st16" d="M158.9,104.8c0.6,4.6-2.9,8.8-7.8,9.4s-9.2-2.6-9.8-7.2s2.9-8.8,7.8-9.4C153.9,97,158.3,100.2,158.9,104.8z
				 M156.4,105.1c-0.5-3.9-3.7-6.8-7.2-6.4c-3.5,0.4-5.9,4-5.4,7.9s3.7,6.8,7.2,6.4C154.5,112.6,156.9,109.1,156.4,105.1z"/>
			<path class="st16" d="M175.9,113.9c0.1,0,0.2,0.1,0.2,0.2l0.2,2.3c0,0.1,0,0.2-0.1,0.2c-5.9,2.2-10.4-5.6-10.8-11.1
				c-0.4-5.6-0.5-11.9,2.9-12.8s4.8,2,4.3,7.7c-0.4,4.1-2,8.7-2.8,10.9c0,0.1,0,0.1,0,0.2C171.2,113.9,173.3,114.1,175.9,113.9z
				 M168.3,107.2C168.3,107.2,168.3,107.2,168.3,107.2c0,0.2,0.3,0.2,0.4,0c1.1-3.9,1.7-11.2,0.2-10.6
				C167.2,97.5,167.3,101.4,168.3,107.2z"/>
			<path class="st16" d="M184.2,106.7c-0.2,0-0.3,0.2-0.3,0.4c0.7,5.7,5.5,7.4,8.2,6.7c2.2-0.5,3.4-2.6,3.8-3.5
				c0.1-0.2,0.3-0.3,0.5-0.1l0.7,0.5c0.1,0.1,0.2,0.3,0.1,0.4c-0.4,0.8-1.7,3.2-5.1,4c-4.1,1-8.3-2-9.3-6.8
				c-1-4.8,1.6-10.1,6.7-10.8c5-0.7,7.6,2.3,8,6.2c0,0.2-0.1,0.3-0.3,0.4c-3.4,0.8-11.5,2.3-11.5,2.3L184.2,106.7z M183.9,105.1
				c0,0.2,0.2,0.4,0.4,0.4c2-0.4,6.8-1.4,11.6-2.3c0.2,0,0.3-0.3,0.3-0.5c-1.1-3.3-4.1-4.2-5.9-3.9
				C188.6,99,184.3,100.1,183.9,105.1z"/>
			<path class="st16" d="M219.8,101.7c-0.4-3.6,2.1-6.8,5.7-7.2c3.6-0.4,6.8,2.1,7.2,5.7s-2.1,6.8-5.7,7.2
				C223.4,107.8,220.2,105.3,219.8,101.7z M233.6,93.5l2.8,22.4l-1.7,0.2l-2.8-22.4L233.6,93.5z"/>
			<path class="st16" d="M245,97.8c0.2,0,0.3,0.1,0.3,0.3c0,1.3,0.2,6.7,0.6,9.6c0.4,3.3,0.8,5.9,3.6,5.6c2.8-0.3,4.1-4.5,3.9-6.2
				c-0.2-1.7-0.2-3.9-0.8-8.8c0-0.2,0.1-0.3,0.2-0.3l1.9-0.3c0.2,0,0.3,0.1,0.3,0.3c0.1,1.3,0.6,6.5,1.2,10.7
				c0.6,4.5,1.2,5.2,2.9,5.5c0.2,0,0.3,0.2,0.2,0.4l-0.5,1.3c0,0.1-0.1,0.1-0.2,0.2c-1.1,0.4-3.4-0.4-4-2.8
				c-0.1-0.2-0.4-0.3-0.5-0.1c-0.9,1.3-2.6,2.9-5.6,3.3c-3.5,0.4-5.3-3.4-5.6-6.8c-0.2-2.9-0.7-9.9-0.7-11.5c0-0.2,0.1-0.3,0.3-0.3
				L245,97.8z"/>
			<path class="st16" d="M265.9,106.7c-0.2,0-0.3,0.2-0.3,0.4c0.7,5.7,5.5,7.4,8.2,6.7c2.2-0.5,3.4-2.6,3.8-3.5
				c0.1-0.2,0.3-0.3,0.5-0.1l0.7,0.5c0.1,0.1,0.2,0.3,0.1,0.4c-0.4,0.8-1.7,3.2-5.1,4c-4.1,1-8.3-2-9.3-6.8
				c-1-4.8,1.6-10.1,6.7-10.8c5-0.7,7.6,2.3,8,6.2c0,0.2-0.1,0.3-0.3,0.4c-3.4,0.8-11.5,2.3-11.5,2.3L265.9,106.7z M265.6,105.1
				c0,0.2,0.2,0.4,0.4,0.4c2-0.4,6.8-1.4,11.6-2.3c0.2,0,0.3-0.3,0.3-0.5c-1.1-3.3-4.1-4.2-5.9-3.9
				C270.3,99,265.9,100.1,265.6,105.1z"/>
			<path class="st16" d="M50.7,153.9c0.1,0.5-0.3,0.9-0.7,0.9l-4.5,0.5c-0.5,0.1-0.9-0.3-0.9-0.7s0.3-0.9,0.7-0.9l1.4-0.2l-1.3-10.8
				c-0.4-3.1-1-3.9-2.8-3.7c-2.3,0.3-3.9,3.5-4.3,4.9l1.3,10.5l1.4-0.2c0.5-0.1,0.9,0.3,0.9,0.7s-0.3,0.9-0.7,0.9l-4.5,0.5
				c-0.5,0.1-0.9-0.3-0.9-0.7s0.3-0.9,0.7-0.9l1.4-0.2l-1.3-10.8c-0.4-3.1-1-3.9-2.8-3.7c-2.3,0.3-3.9,3.5-4.3,4.9l1.3,10.5l1.3-0.2
				c0.5-0.1,0.9,0.3,0.9,0.7c0.1,0.5-0.3,0.9-0.7,0.9l-4.5,0.5c-0.5,0.1-0.9-0.3-0.9-0.7c-0.1-0.5,0.3-0.9,0.7-0.9l1.5-0.2
				l-1.9-15.1l-1.5,0.2c-0.5,0.1-0.9-0.3-0.9-0.7c-0.1-0.5,0.3-0.9,0.7-0.9l2.4-0.3c0.5-0.1,0.9,0.3,0.9,0.7l0.3,2.3
				c0.1-0.2,0.3-0.4,0.4-0.6c1.2-1.7,2.6-2.6,4.1-2.8c2.5-0.3,3.6,1.1,4.1,2.6c1-1.7,2.6-3.5,4.7-3.7c4-0.5,4.4,3.3,4.7,5.2
				l1.3,10.8l1.4-0.2C50.2,153.1,50.6,153.4,50.7,153.9z"/>
			<path class="st16" d="M79.6,152c-0.1,0.9-0.6,3.5-3.3,4.2c-2.5,0.7-4.5,0-5.4-1.5c-0.1-0.2-0.4-0.2-0.6,0
				c-1.2,1.6-3.4,3.2-6.3,3.5c-4.5,0.5-6.2-2.9-6.2-5.8c0-3.4,3-5.6,5.3-6.7c2.7-1.3,5.7-2.1,5.7-3.7c0,0,0,0,0-0.1
				c-0.1-0.5-0.1-0.8-0.2-1.2c-0.4-2.4-2.1-2.9-3.9-2.3c-0.9,0.3-2.2,2.2-2.4,3.8c0,0.2-0.2,0.3-0.3,0.3c-0.5,0-1.5,0.1-2.7-0.2
				c-0.2,0-0.3-0.3-0.3-0.5c0.6-1.9,2-4.6,6-5.7c4.6-1.2,7.6,0.3,8.6,5.3s1.2,10.5,2.1,11.5c0.9,0.8,1.8-0.2,1.9-1.3
				c0-0.2,0.2-0.3,0.4-0.3l1.2,0.1C79.5,151.7,79.6,151.9,79.6,152z M70.1,151.1c-0.2-1.5-0.4-3.4-0.7-5.2c0-0.3-0.3-0.4-0.6-0.2
				c-0.4,0.3-1,0.7-1.7,1.1c-1.8,1.1-3.6,3.5-3.4,5s0.9,2.5,2.9,2.3c1.4-0.2,2.7-1.8,3.4-2.7C70.1,151.3,70.1,151.2,70.1,151.1z"/>
			<path class="st16" d="M103.2,137.1c0.2,1.4-0.7,2.8-2.5,3c-2.2,0.3-2.5-1.6-4.4-1.4c-1.4,0.2-3.2,2.2-4.6,4.1
				c0.6,4.9,1.3,10.8,1.5,12c0.2,2,2.3,2.8,3.6,2.6l0.1,0.6l-10.5,1.3l-0.1-0.8c1.5-0.2,3.4-0.8,3.1-3.2s-1.4-11-1.7-13.8
				c-0.3-2.8-3.7-1.3-3.7-1.3l-0.1-0.5l7-3.8c0,0,0.3,2.5,0.7,5.6c1.7-2.3,5.3-6.4,8.2-6.7C101.8,134.6,103,135.6,103.2,137.1z"/>
			<path class="st16" d="M111.4,137.2c3.4-0.4,4.8,4.5,0.9,5.1C108.6,142.8,109.1,137.5,111.4,137.2z M114.4,145.2
				c0.2,1.7,1.6,11.2,1.8,12.6c0,0.1-0.1,0.2-0.2,0.2l-3.7,0.5c-0.1,0-0.2-0.1-0.2-0.1c-0.3-1.9-1-11.3-1.2-12.6
				c0-0.1,0-0.2,0.1-0.2c0.4-0.1,1.6-0.4,3.1-0.4C114.3,145,114.4,145.1,114.4,145.2z"/>
			<path class="st16" d="M145.5,152c-0.1,0.9-0.6,3.5-3.3,4.2c-2.5,0.7-4.5,0-5.4-1.5c-0.1-0.2-0.4-0.2-0.6,0
				c-1.2,1.6-3.4,3.2-6.3,3.5c-4.5,0.5-6.2-2.9-6.2-5.8c0-3.4,3-5.6,5.3-6.7c2.7-1.3,5.7-2.1,5.7-3.7c0,0,0,0,0-0.1
				c-0.1-0.5-0.1-0.8-0.2-1.2c-0.4-2.4-2.1-2.9-3.9-2.3c-0.9,0.3-2.2,2.2-2.4,3.8c0,0.2-0.2,0.3-0.3,0.3c-0.5,0-1.5,0.1-2.7-0.2
				c-0.2,0-0.3-0.3-0.3-0.5c0.6-1.9,2-4.6,6-5.7c4.6-1.2,7.6,0.3,8.6,5.3s1.2,10.5,2.1,11.5c0.9,0.8,1.8-0.2,1.9-1.3
				c0-0.2,0.2-0.3,0.4-0.3l1.2,0.1C145.4,151.7,145.5,151.9,145.5,152z M136,151.1c-0.2-1.5-0.4-3.4-0.7-5.2c0-0.3-0.3-0.4-0.6-0.2
				c-0.4,0.3-1,0.7-1.7,1.1c-1.8,1.1-3.6,3.5-3.4,5s0.9,2.5,2.9,2.3c1.4-0.2,2.7-1.8,3.4-2.7C136,151.3,136,151.2,136,151.1z"/>
			<path class="st16" d="M158.2,147.7c0,0.2-0.3,0.4-0.5,0.4c-2.1-0.1-4.3,0.3-6.2,1.1c-0.5,0.2-0.9-0.6-0.3-0.8
				c2.1-0.8,4.4-1.2,6.7-1.1C158.1,147.2,158.3,147.4,158.2,147.7z"/>
			<path class="st16" d="M190.7,153.9c0.1,0.5-0.3,0.9-0.7,0.9l-4.5,0.5c-0.5,0.1-0.9-0.3-0.9-0.7s0.3-0.9,0.7-0.9l1.4-0.2
				l-1.3-10.8c-0.4-3.1-1-3.9-2.8-3.7c-2.3,0.3-3.9,3.5-4.3,4.9l1.3,10.5l1.4-0.2c0.5-0.1,0.9,0.3,0.9,0.7s-0.3,0.9-0.7,0.9
				l-4.5,0.5c-0.5,0.1-0.9-0.3-0.9-0.7s0.3-0.9,0.7-0.9l1.4-0.2l-1.3-10.8c-0.4-3.1-1-3.9-2.8-3.7c-2.3,0.3-3.9,3.5-4.3,4.9
				l1.3,10.5l1.3-0.2c0.5-0.1,0.9,0.3,0.9,0.7c0.1,0.5-0.3,0.9-0.7,0.9l-4.5,0.5c-0.5,0.1-0.9-0.3-0.9-0.7c-0.1-0.5,0.3-0.9,0.7-0.9
				l1.5-0.2l-1.9-15.1l-1.5,0.2c-0.5,0.1-0.9-0.3-0.9-0.7c-0.1-0.5,0.3-0.9,0.7-0.9l2.4-0.3c0.5-0.1,0.9,0.3,0.9,0.7l0.3,2.3
				c0.1-0.2,0.3-0.4,0.4-0.6c1.2-1.7,2.6-2.6,4.1-2.8c2.5-0.3,3.6,1.1,4.1,2.6c1-1.7,2.6-3.5,4.7-3.7c4-0.5,4.4,3.3,4.7,5.2
				l1.3,10.8l1.4-0.2C190.2,153.1,190.6,153.4,190.7,153.9z"/>
			<path class="st16" d="M213.8,146.1c0.6,4.6-2.9,8.8-7.8,9.4c-4.9,0.6-9.2-2.6-9.8-7.2s2.9-8.8,7.8-9.4
				C208.9,138.3,213.3,141.6,213.8,146.1z M211.3,146.4c-0.5-3.9-3.7-6.8-7.2-6.4c-3.5,0.4-5.9,4-5.4,7.9c0.5,3.9,3.7,6.8,7.2,6.4
				C209.4,153.9,211.8,150.4,211.3,146.4z"/>
			<path class="st16" d="M230.9,155.3c0.1,0,0.2,0.1,0.2,0.2l0.2,2.3c0,0.1,0,0.2-0.1,0.2c-5.9,2.2-10.4-5.6-10.8-11.1
				c-0.4-5.6-0.5-11.9,2.9-12.8s4.8,2,4.3,7.7c-0.4,4.1-2,8.7-2.8,10.9c0,0.1,0,0.1,0,0.2C226.1,155.2,228.2,155.4,230.9,155.3z
				 M223.3,148.5C223.3,148.5,223.3,148.5,223.3,148.5c0,0.2,0.3,0.2,0.4,0c1.1-3.9,1.7-11.2,0.2-10.6
				C222.2,138.8,222.3,142.7,223.3,148.5z"/>
			<path class="st16" d="M239.1,148c-0.2,0-0.3,0.2-0.3,0.4c0.7,5.7,5.5,7.4,8.2,6.7c2.2-0.5,3.4-2.6,3.8-3.5
				c0.1-0.2,0.3-0.3,0.5-0.1l0.7,0.5c0.1,0.1,0.2,0.3,0.1,0.4c-0.4,0.8-1.7,3.2-5.1,4c-4.1,1-8.3-2-9.3-6.8s1.6-10.1,6.7-10.8
				c5-0.7,7.6,2.3,8,6.2c0,0.2-0.1,0.3-0.3,0.4c-3.4,0.8-11.5,2.3-11.5,2.3L239.1,148z M238.8,146.4c0,0.2,0.2,0.4,0.4,0.4
				c2-0.4,6.8-1.4,11.6-2.3c0.2,0,0.3-0.3,0.3-0.5c-1.1-3.3-4.1-4.2-5.9-3.9C243.5,140.3,239.2,141.5,238.8,146.4z"/>
		</g>
		<g>
			<path class="st1" d="M144.7,21.4l5.5,44.9l-11.3,1.4l-4.3-35.2l-7.9,1l6.7-10.6L144.7,21.4z"/>
		</g>
	</g>
</g>
<g id="Layer_4">
</g>
<g id="Layer_3">
</g>
<g id="Layer_5">
</g>
<g id="default_x5F_grid" class="st102">
</g>
</svg>
