<?xml version="1.0" encoding="utf-8"?>
<!-- Generator: Adobe Illustrator 27.6.1, SVG Export Plug-In . SVG Version: 6.00 Build 0)  -->
<svg version="1.1" xmlns="http://www.w3.org/2000/svg" xmlns:xlink="http://www.w3.org/1999/xlink" x="0px" y="0px"
	 viewBox="0 0 302.8 226.5" style="enable-background:new 0 0 302.8 226.5;" xml:space="preserve">
<style type="text/css">
	.st0{fill:#FFD4F0;}
	.st1{fill:#E93032;}
	.st2{opacity:0.4984;}
	.st3{fill:#0033CC;}
	.st4{fill:#FFFFFF;}
	.st5{fill:#6380C5;}
	.st6{fill:#333333;}
	.st7{fill:#FFDD67;}
	.st8{fill:#664E27;}
	.st9{fill:#917524;}
	.st10{fill:none;stroke:#0033CB;stroke-width:34.4361;stroke-linecap:round;stroke-miterlimit:10;stroke-dasharray:0,65.5242,0,0;}
	.st11{opacity:0.5;enable-background:new    ;}
	.st12{fill:#494949;}
	.st13{fill:#EA3032;}
	.st14{fill:#E93032;stroke:#E93032;stroke-width:0.5;stroke-miterlimit:10;}
	.st15{fill:none;stroke:#FFFFFF;stroke-width:1.0081;stroke-miterlimit:10;}
	.st16{fill:#0033CB;}
	.st17{fill:#E93032;stroke:#E93032;stroke-width:0.4783;stroke-miterlimit:10;}
	.st18{clip-path:url(#SVGID_00000119834156466095611260000013155851435764489117_);}
	.st19{opacity:0.36;fill:#E93032;}
	.st20{fill:none;stroke:#FFD4F0;stroke-width:5.0782;stroke-miterlimit:10;}
	.st21{enable-background:new    ;}
	.st22{clip-path:url(#SVGID_00000124871506803860830720000008253523509636987818_);}
	.st23{clip-path:url(#SVGID_00000127020366966323391400000012171272190344062655_);}
	.st24{clip-path:url(#SVGID_00000028305252772819543580000001541246885956931505_);fill:#E93032;}
	.st25{clip-path:url(#SVGID_00000124883277855422365590000002074354009023442305_);}
	.st26{clip-path:url(#SVGID_00000134229117159441431840000011170494537350720401_);}
	.st27{clip-path:url(#SVGID_00000098191246989984699820000001164867768923739059_);fill:#E93032;}
	.st28{clip-path:url(#SVGID_00000040558080994508035920000009681712203690823297_);}
	.st29{clip-path:url(#SVGID_00000163052368345777541890000002949485631688872871_);}
	.st30{clip-path:url(#SVGID_00000042716589069403434920000013783427324640772022_);}
	.st31{clip-path:url(#SVGID_00000024701226521529492090000002364959515282264985_);fill:#0033CC;}
	.st32{clip-path:url(#SVGID_00000024701226521529492090000002364959515282264985_);fill:#FFD4F0;}
	.st33{clip-path:url(#SVGID_00000012432407910424403920000017693249885309339574_);}
	.st34{clip-path:url(#SVGID_00000021836162294781547580000008546131449982066316_);}
	.st35{clip-path:url(#SVGID_00000034079814110635818270000006932364200462926777_);fill:#E93032;}
	.st36{clip-path:url(#SVGID_00000136378243151146885500000003879465092374046381_);}
	.st37{clip-path:url(#SVGID_00000087404937290953075300000012702261941340702891_);}
	.st38{clip-path:url(#SVGID_00000154400418857278853630000010618464876075372433_);fill:#E93032;}
	.st39{clip-path:url(#SVGID_00000065782880020331186160000002517899057737848995_);}
	.st40{clip-path:url(#SVGID_00000145754237445304776600000000488187963955826358_);}
	.st41{clip-path:url(#SVGID_00000001635699537766274160000010805886295471724944_);fill:#E93032;}
	.st42{clip-path:url(#SVGID_00000113343486973507801650000015388005021102443681_);}
	.st43{clip-path:url(#SVGID_00000183240458579713337570000014816611759725255866_);}
	.st44{clip-path:url(#SVGID_00000069389100906012592710000007704644300201454746_);fill:#E93032;}
	.st45{clip-path:url(#SVGID_00000011028700908929045090000013257754688706196617_);}
	.st46{clip-path:url(#SVGID_00000119097034665869335550000004149410713333229964_);}
	.st47{clip-path:url(#SVGID_00000045577851194728965170000001319664959682854332_);fill:#E93032;}
	.st48{clip-path:url(#SVGID_00000136410038583928422420000018015126534386195373_);}
	.st49{clip-path:url(#SVGID_00000015355870781338670240000012686670965268867260_);}
	.st50{clip-path:url(#SVGID_00000153695550751222515310000005919880703318787203_);fill:#E93032;}
	.st51{clip-path:url(#SVGID_00000009570075713946280220000014598209793345757097_);}
	.st52{clip-path:url(#SVGID_00000110450503059484170360000014486015914594477473_);}
	.st53{clip-path:url(#SVGID_00000158751787910345192670000012404581931640608430_);fill:#E93032;}
	.st54{clip-path:url(#SVGID_00000065785711203384745920000016433364918402977954_);}
	.st55{clip-path:url(#SVGID_00000099659102506911215520000002871943298315122334_);}
	.st56{clip-path:url(#SVGID_00000080208078146564884580000014330981549905847447_);fill:#E93032;}
	.st57{clip-path:url(#SVGID_00000089549616828663405430000009185708855286102714_);}
	.st58{clip-path:url(#SVGID_00000180353046026099175240000011253900179945136311_);}
	.st59{fill:none;stroke:#FFD4F0;stroke-width:1.019;stroke-miterlimit:10;}
	.st60{clip-path:url(#SVGID_00000006690445723478153790000007549096493538569108_);}
	.st61{clip-path:url(#SVGID_00000176003607356522473880000016972472890551620226_);}
	.st62{clip-path:url(#SVGID_00000011006251087675191320000017352118364104494211_);fill:#E93032;}
	.st63{clip-path:url(#SVGID_00000155851250197757545280000010798639615592028038_);}
	.st64{clip-path:url(#SVGID_00000096770461340353528530000012783216766279077007_);}
	.st65{clip-path:url(#SVGID_00000047776297795823693640000018226380795366803874_);fill:#E93032;}
	.st66{clip-path:url(#SVGID_00000042695136318125565180000010552130222396464281_);}
	.st67{clip-path:url(#SVGID_00000008838930824781783530000006863913378934614951_);}
	.st68{clip-path:url(#SVGID_00000070831645940155580830000000332739596060690614_);}
	.st69{clip-path:url(#SVGID_00000147214756449827719050000002047878404823391120_);fill:#0033CC;}
	.st70{clip-path:url(#SVGID_00000147214756449827719050000002047878404823391120_);fill:#FFD4F0;}
	.st71{clip-path:url(#SVGID_00000094578830887728024720000016702563827239203474_);}
	.st72{clip-path:url(#SVGID_00000179622045762385017130000017488060060364244892_);}
	.st73{clip-path:url(#SVGID_00000118363584250117321890000004144509926318417338_);fill:#E93032;}
	.st74{clip-path:url(#SVGID_00000147912741702190163360000006177949882354274230_);}
	.st75{clip-path:url(#SVGID_00000157302831871682177270000014981307275434457480_);}
	.st76{clip-path:url(#SVGID_00000009562515294665181110000000753094460272318365_);fill:#E93032;}
	.st77{clip-path:url(#SVGID_00000021835086769061185010000008262092691200401852_);}
	.st78{clip-path:url(#SVGID_00000029765358571125264320000002251109021693453758_);}
	.st79{clip-path:url(#SVGID_00000147922850429025066690000007464836691452121501_);fill:#E93032;}
	.st80{clip-path:url(#SVGID_00000114039643119807200720000001288165175228861110_);}
	.st81{clip-path:url(#SVGID_00000140723634218724231740000012648559015871390112_);}
	.st82{clip-path:url(#SVGID_00000043418389214350663520000001754478354135814841_);fill:#E93032;}
	.st83{clip-path:url(#SVGID_00000037681364480619274710000009168889633541886368_);}
	.st84{clip-path:url(#SVGID_00000038389417202779307540000003443091556099416246_);}
	.st85{clip-path:url(#SVGID_00000034057240011357493060000011679356023297203860_);fill:#E93032;}
	.st86{clip-path:url(#SVGID_00000046302297789746562430000009592940458730149565_);}
	.st87{clip-path:url(#SVGID_00000087370620525351260470000006033784920540208313_);}
	.st88{clip-path:url(#SVGID_00000029007641018461277960000016413655020340036238_);fill:#E93032;}
	.st89{clip-path:url(#SVGID_00000173125295782490417300000008796124107075336633_);}
	.st90{clip-path:url(#SVGID_00000054233476665404913760000004573708501586816173_);}
	.st91{clip-path:url(#SVGID_00000004527546476869017890000011075490029354508420_);fill:#E93032;}
	.st92{clip-path:url(#SVGID_00000155112000257674415620000000432455864940504248_);}
	.st93{clip-path:url(#SVGID_00000031892519148936987960000001308314517138271125_);}
	.st94{clip-path:url(#SVGID_00000157295981479027122860000009728656210325046712_);fill:#E93032;}
	.st95{clip-path:url(#SVGID_00000029019974372483295780000013556739831903124102_);}
	.st96{fill:#606060;}
	.st97{clip-path:url(#SVGID_00000170261604832367398980000010706479090969629605_);}
	.st98{clip-path:url(#SVGID_00000112624522568484222880000015596582239392320948_);}
	.st99{opacity:0.84;fill:#E93032;}
	.st100{opacity:0.84;}
	.st101{clip-path:url(#SVGID_00000134218706144711582140000017248237859298877584_);}
	.st102{clip-path:url(#SVGID_00000024717594784385381230000000149328659994736771_);}
	.st103{display:none;}
	.st104{display:inline;fill:#FFEFD9;}
	.st105{display:inline;opacity:0.46;fill:#FFEFD9;}
	.st106{display:inline;opacity:0.36;}
	.st107{opacity:0.36;}
</style>
<g id="artwork">
	<g>
		<g>
			<g>
				<g>
					<g>
						<path class="st3" d="M139.1,76.3C139.1,76.2,139.1,76.2,139.1,76.3c0.1-0.2,0.1-0.2,0.1-0.3c-0.1-0.2-0.1-0.3,0.1-0.3
							c0-0.1,0.1-0.3,0.1-0.4c0-0.1,0-0.1,0-0.2c0-0.1,0-0.2,0.1-0.3c0,0,0-0.1,0.1-0.1c0-0.1,0-0.2,0-0.3c-0.1,0-0.1,0-0.2,0
							c0-0.3,0-0.6,0-0.8c0,0,0-0.1,0-0.1c-0.1,0-0.2,0-0.3,0c0,0,0-0.1,0.1-0.1c-0.2-0.3-0.5-0.5-0.7-0.8c0-0.1,0.1-0.2,0.1-0.3
							c-0.2-0.2-0.4-0.4-0.6-0.5c-0.2,0.2-0.2,0-0.2-0.2c-0.1-0.1-0.2-0.2-0.4-0.3c0,0.1-0.1,0.1-0.1,0.2c0-0.1-0.1-0.2-0.1-0.3
							c-0.2-0.1-0.4-0.2-0.6-0.3c-0.1-0.1-0.2-0.1-0.3-0.2c0,0-0.1,0-0.1,0c-0.1-0.1-0.2-0.1-0.3-0.2c0,0-0.1,0-0.1,0
							c-0.1-0.1-0.4,0.2-0.4-0.2c-0.1-0.1-0.3-0.1-0.4-0.2c0,0-0.1,0-0.1-0.1c-0.1,0-0.2-0.1-0.4-0.1c-0.3,0.2-0.6,0.1-0.8-0.3
							c-0.1-0.1-0.3-0.1-0.4-0.2c0,0,0,0.1-0.1,0.1c0-0.1-0.1-0.1-0.1-0.2c-0.1,0-0.2-0.1-0.3-0.1c-0.1,0.1-0.1,0.2-0.2,0.4
							c-0.1-0.2-0.1-0.3-0.1-0.5c-0.1,0-0.1,0-0.2-0.1c0,0,0,0,0,0.1c0-0.3,0-0.5,0.1-0.8c0,0,0,0,0,0c-0.1,0-0.1-0.1-0.2-0.1
							c-0.2,0-0.4-0.1-0.6-0.1c-0.1,0-0.2,0-0.2,0c0-0.3,0.1-0.6,0.1-1c0,0,0-0.1,0.1-0.1c0.2-0.3,0.3-0.6,0.5-1l0,0
							c0,0,0-0.1,0.1-0.1l0,0c0.2-0.1,0.4-0.3,0.6-0.4l0,0c0.4-0.2,0.8-0.3,1.2-0.5c0.1,0,0.2,0,0.3-0.1c0.8-0.1,1.5-0.1,2.3-0.2
							c0.1,0,0.2,0,0.3,0c0,0,0.1,0,0.1,0c1.3,0.2,2.5,0.4,3.8,0.6c0.3,0.1,0.7,0.2,1,0.3c0.2,0,0.4,0.1,0.6,0.2
							c0.6,0.1,1.1,0.2,1.5,0.4c3.8,1.1,9.4,2.9,15.4,6.1l0,0c3.8,1.6,8,3.5,12.1,5.6c1.9-2.4,5.2-8.6,1-18.9
							c-1-2.5-2.9-4.5-5.4-5.7c-2.4-1.2-5.8-2.3-9.1-2c-7.3,3.2-11.1,8.8-11.1,8.8c-0.1,0.1-0.2,0.2-0.3,0.3
							c-3.8,2.8-10.6,6.5-8.2-3.9c0,0,7.5-23.3,31.7-14.8c0,0-31-27.3-21.3-31.9c0,0,10.1-2.2,30.8,26.9c0,0-8.3-29.7-8.1-33
							c0,0,4.7-20.5,21.2,33.7c0,0,5.3-29.9,10.5-24.5c0,0,5.4,2.6,0.3,33.4c0,0-1.2,11.3-1.2,19.3c0,0,0.1,0.1,0.1,0.1
							c3.3,5.7,29.5,32.9,29.5,32.9L205,128.2c0,0-10.1-12.5-15-16.8c-9.9-8.6-21.4-15.2-21.5-15.4c0,0,0,0,0,0l0,0l-20.3-13.4
							c-0.4-0.3-0.9-0.5-1.3-0.8c0,0-0.1,0-0.1,0c-0.3-0.2-0.7-0.4-1-0.6c-1.6-0.6-5.7-2.8-5.9-4c0,0,0-0.1,0-0.1l-0.7-0.5
							c0,0,0,0,0,0C139.1,76.4,139.1,76.3,139.1,76.3z"/>
					</g>
				</g>
			</g>
			<g>
				<g>
					<g>
						<path class="st3" d="M139.2,74.5C139.2,74.5,139.2,74.5,139.2,74.5c0-0.1,0-0.2,0-0.2c0,0,0,0,0.1,0
							C139.3,74.4,139.3,74.5,139.2,74.5z"/>
					</g>
				</g>
			</g>
			<g>
				<g>
					<g>
						<path class="st3" d="M134.5,73.1C134.5,73.1,134.5,73.1,134.5,73.1c0,0.1,0,0.1,0,0.1C134.4,73.2,134.4,73.1,134.5,73.1
							C134.4,73.1,134.4,73.1,134.5,73.1z"/>
					</g>
				</g>
			</g>
			<g>
				<g>
					<g>
						<path class="st3" d="M132.2,69.6C132.2,69.6,132.2,69.7,132.2,69.6C132.2,69.7,132.2,69.7,132.2,69.6
							C132.1,69.7,132.1,69.7,132.2,69.6C132.1,69.6,132.2,69.6,132.2,69.6z"/>
					</g>
				</g>
			</g>
			<g>
				<g>
					<g>
						<path class="st3" d="M132.9,72c0.1,0.1,0.2,0.3,0.2,0.4c-0.2-0.3-0.4-0.6-0.6-0.9c0-0.1,0.1-0.1,0.1-0.2
							C132.7,71.5,132.8,71.8,132.9,72z"/>
					</g>
				</g>
			</g>
			<g>
				<g>
					<g>
						<path class="st3" d="M135.4,70.6c0,0,0,0.1,0,0.1c-0.1,0-0.2,0-0.3,0c0-0.1,0-0.1,0-0.2C135.2,70.5,135.3,70.5,135.4,70.6z"/>
					</g>
				</g>
			</g>
			<g>
				<g>
					<g>
						<path class="st3" d="M136.7,74.7c0,0.1,0,0.2,0,0.2l-0.4-0.3c0,0,0,0,0,0C136.3,74.7,136.5,74.7,136.7,74.7z"/>
					</g>
				</g>
			</g>
			<g>
				<g>
					<g>
						<path class="st3" d="M134.1,72.9c0.1,0.1,0.2,0.3,0.2,0.5l-0.2-0.1c-0.2-0.1-0.3-0.3-0.5-0.4C133.8,72.6,134,72.7,134.1,72.9z
							"/>
					</g>
				</g>
			</g>
			<g>
				<g>
					<g>
						<path class="st3" d="M137.6,75.6l-0.1-0.1c0,0,0,0,0-0.1C137.6,75.5,137.6,75.6,137.6,75.6z"/>
					</g>
				</g>
			</g>
			<g>
				<g>
					<g>
						<path class="st3" d="M135.5,74c-0.1,0-0.1,0.1-0.2,0.1l-0.4-0.3C135.1,73.7,135.3,73.7,135.5,74z"/>
					</g>
				</g>
			</g>
			<g>
				<g>
					<g>
						<path class="st4" d="M132.1,70.8c0.1,0.3,0.1,0.5,0.1,0.8c0,0,0.1,0.1,0.1,0.1c0-0.1,0.1-0.1,0.1-0.2c0-0.1,0.1-0.1,0.1-0.2
							c0.1,0.2,0.2,0.5,0.3,0.7c0.1,0.1,0.2,0.3,0.2,0.4c0,0,0,0,0,0.1c0,0,0,0,0.1,0.1c0,0,0.1,0.1,0.1,0.1
							c0.1,0.1,0.2,0.2,0.4,0.3c0,0,0,0,0,0c0.1-0.3,0.3-0.2,0.5,0c0.1,0.1,0.2,0.3,0.2,0.5c0,0,0,0.1,0,0.1
							c0.1,0.1,0.3,0.2,0.4,0.3c0,0,0.1-0.1,0.1-0.1c0.2-0.1,0.4-0.1,0.6,0.1c-0.1,0-0.1,0.1-0.2,0.1c0,0-0.1,0.1-0.1,0.1
							c0,0,0.1,0.1,0.1,0.1c0.1,0,0.1,0.1,0.2,0.1c0,0,0.1,0.1,0.1,0.1c0,0,0,0,0.1,0c0,0,0.1,0.1,0.1,0.1c0,0,0.1,0.1,0.1,0.1
							c0.1,0,0.2-0.1,0.3-0.1c0,0,0,0,0,0c0.2,0,0.3,0,0.5,0.1c0,0.1,0,0.2,0,0.2c0,0.1,0,0.2-0.1,0.3c0.2,0.1,0.3,0.2,0.5,0.3
							c0,0,0.1,0.1,0.1,0.1c0.1,0,0.1,0.1,0.2,0.1c0-0.1,0.1-0.2,0.1-0.3c0,0,0,0,0-0.1c0,0.1,0,0.1,0.1,0.2
							c0.1,0.2,0.2,0.4,0.2,0.5c0,0,0.1,0.1,0.1,0.1c0,0,0.1,0.1,0.1,0.1c0,0,0.1,0,0.1,0c0,0,0.1,0.1,0.1,0.1
							c0.1,0,0.1,0.1,0.2,0.1c0.1,0,0.1,0.1,0.2,0.1c0,0,0,0,0.1,0c0.1-0.1,0.1-0.1,0.2-0.2c0,0,0,0,0,0c0-0.1,0-0.2,0-0.2
							c0,0,0-0.1,0.1-0.1c0-0.1,0-0.1,0-0.2c-0.1-0.2-0.1-0.3,0.1-0.3c0-0.1,0.1-0.3,0.1-0.4c0-0.1,0-0.1,0-0.2c0-0.1,0-0.2,0.1-0.3
							c0,0,0-0.1,0.1-0.1c0-0.1,0-0.2,0-0.3c-0.1,0-0.1,0-0.2,0c0,0,0,0,0.1,0c0,0.1-0.1,0.1-0.1,0.2c0,0,0,0-0.1,0
							c0-0.1,0-0.1,0.1-0.2c0-0.3,0-0.6,0-0.8c0,0,0-0.1,0-0.1c-0.1,0-0.2,0-0.3,0c0,0,0-0.1,0.1-0.1c-0.2-0.3-0.5-0.5-0.7-0.8
							c0-0.1,0.1-0.2,0.1-0.3c-0.2-0.2-0.4-0.4-0.6-0.5c-0.2,0.2-0.2,0-0.2-0.2c-0.1-0.1-0.2-0.2-0.4-0.3c0,0.1-0.1,0.1-0.1,0.2
							c0-0.1-0.1-0.2-0.1-0.3c-0.2-0.1-0.4-0.2-0.6-0.3c-0.1-0.1-0.2-0.1-0.3-0.2c0,0-0.1,0-0.1,0c-0.1-0.1-0.2-0.1-0.3-0.2
							c0,0-0.1,0-0.1,0c-0.1-0.1-0.4,0.2-0.4-0.2c-0.1-0.1-0.3-0.1-0.4-0.2c0,0-0.1,0-0.1-0.1c-0.1,0-0.2-0.1-0.4-0.1
							c-0.3,0.2-0.6,0.1-0.8-0.3c-0.1-0.1-0.3-0.1-0.4-0.2c0,0,0,0.1-0.1,0.1c0-0.1-0.1-0.1-0.1-0.2c-0.1,0-0.2-0.1-0.3-0.1
							c-0.1,0.1-0.1,0.2-0.2,0.4c-0.1-0.2-0.1-0.3-0.1-0.5c-0.1,0-0.1,0-0.2-0.1c0,0,0,0,0,0.1c-0.1,0.2-0.3,0.1-0.5-0.2
							c-0.1,0-0.2-0.1-0.3-0.1c-0.1,0-0.1,0-0.2,0c0,0.1,0,0.2,0.1,0.4c0,0.1,0,0.1,0.1,0.2c0,0,0,0,0,0.1c0.2,0.1,0.4,0.3,0.5,0.4
							c0,0,0,0.1,0,0.1c-0.1,0-0.2,0.1-0.3,0.1c0.1,0.1,0.1,0.3,0.2,0.4C131.7,70.4,132,70.2,132.1,70.8z M135.1,70.7
							c0-0.1,0-0.1,0-0.2c0.1,0,0.2,0,0.3,0.1c0,0,0,0.1,0,0.1C135.3,70.7,135.2,70.7,135.1,70.7z M134.4,73.2
							C134.4,73.2,134.4,73.1,134.4,73.2c0-0.1,0-0.1,0-0.1C134.5,73.1,134.5,73.1,134.4,73.2C134.5,73.2,134.4,73.2,134.4,73.2z
							 M132.1,69.7C132.1,69.7,132.1,69.7,132.1,69.7C132.1,69.6,132.2,69.6,132.1,69.7C132.2,69.6,132.2,69.7,132.1,69.7
							C132.2,69.7,132.2,69.7,132.1,69.7z"/>
					</g>
				</g>
			</g>
			<g>
				<g>
					<g>
						<polygon class="st4" points="135.2,74.2 135.2,74.2 135.2,74.2 						"/>
					</g>
				</g>
			</g>
		</g>
		<g>
			<g>
				<g>
					<path class="st13" d="M169.5,78.6l-0.6-3.2l-0.4,0.1l-0.9-4.6l0.4-0.1l-0.9-4.6l-0.4,0.1l-0.9-4.6l0.4-0.1l-0.9-4.6l-0.4,0.1
						l-0.9-4.6l0.4-0.1l-0.6-3.2c-2.4,0.4-4.8-0.8-5.7-2.9l-67.6,12c-0.1,2.3-1.8,4.3-4.2,4.7c0,0,0,0,0,0l0.6,3.2l0.4-0.1l0.9,4.6
						L87.7,71l0.9,4.6l0.4-0.1l0.9,4.6l-0.4,0.1l0.9,4.6l0.4-0.1l0.9,4.6l-0.4,0.1l0.6,3.2c0,0,0,0,0,0c0.1,0,0.3,0,0.4,0
						c2.3-0.2,4.5,1,5.4,3l67.6-12C165.3,81.1,167,79.1,169.5,78.6z"/>
				</g>
			</g>
		</g>
		<g>
			<g>
				<g>
					<path class="st4" d="M100.7,93c-1.1,0.1-2.2-0.6-2.4-1.7l-5.7-27.1c-0.1-0.5,0-1.1,0.3-1.6c0.3-0.5,0.8-0.8,1.4-0.9l62.6-11.9
						c0.6-0.1,1.2,0,1.6,0.3c0.5,0.3,0.8,0.8,0.9,1.3l5.7,27.1c0.1,0.5,0,1.1-0.3,1.6c-0.3,0.5-0.8,0.8-1.4,0.9L100.9,93
						C100.8,93,100.7,93,100.7,93z M157.2,50.5c0,0-0.1,0-0.1,0L94.5,62.4c-0.4,0.1-0.8,0.3-1,0.6c-0.2,0.3-0.3,0.7-0.2,1.1
						l5.7,27.1c0.2,0.8,1,1.3,1.8,1.2l62.6-11.9c0.4-0.1,0.8-0.3,1-0.6c0.2-0.3,0.3-0.7,0.2-1.1l-5.7-27.1c-0.1-0.4-0.3-0.7-0.7-0.9
						C157.9,50.6,157.5,50.5,157.2,50.5z"/>
				</g>
			</g>
		</g>
		<g>
			<g>
				<g>
					<g>
						<path class="st3" d="M139.1,76.3C139.1,76.2,139.1,76.2,139.1,76.3c0.1-0.2,0.1-0.2,0.1-0.3c-0.1-0.2-0.1-0.3,0.1-0.3
							c0-0.1,0.1-0.3,0.1-0.4c0-0.1,0-0.1,0-0.2c0-0.1,0-0.2,0.1-0.3c0,0,0-0.1,0.1-0.1c0-0.1,0-0.2,0-0.3c-0.1,0-0.1,0-0.2,0
							c0-0.3,0-0.6,0-0.8c0,0,0-0.1,0-0.1c-0.1,0-0.2,0-0.3,0c0,0,0-0.1,0.1-0.1c-0.2-0.3-0.5-0.5-0.7-0.8c0-0.1,0.1-0.2,0.1-0.3
							c-0.2-0.2-0.4-0.4-0.6-0.5c-0.2,0.2-0.2,0-0.2-0.2c-0.1-0.1-0.2-0.2-0.4-0.3c0,0.1-0.1,0.1-0.1,0.2c0-0.1-0.1-0.2-0.1-0.3
							c-0.2-0.1-0.4-0.2-0.6-0.3c-0.1-0.1-0.2-0.1-0.3-0.2c0,0-0.1,0-0.1,0c-0.1-0.1-0.2-0.1-0.3-0.2c0,0-0.1,0-0.1,0
							c-0.1-0.1-0.4,0.2-0.4-0.2c-0.1-0.1-0.3-0.1-0.4-0.2c0,0-0.1,0-0.1-0.1c-0.1,0-0.2-0.1-0.4-0.1c-0.3,0.2-0.6,0.1-0.8-0.3
							c-0.1-0.1-0.3-0.1-0.4-0.2c0,0,0,0.1-0.1,0.1c0-0.1-0.1-0.1-0.1-0.2c-0.1,0-0.2-0.1-0.3-0.1c-0.1,0.1-0.1,0.2-0.2,0.4
							c-0.1-0.2-0.1-0.3-0.1-0.5c-0.1,0-0.1,0-0.2-0.1c0,0,0,0,0,0.1c0-0.3,0-0.5,0.1-0.8c0,0,0,0,0,0c-0.1,0-0.1-0.1-0.2-0.1
							c-0.2,0-0.4-0.1-0.6-0.1c-0.1,0-0.2,0-0.2,0c0-0.3,0.1-0.6,0.1-1c0,0,0-0.1,0.1-0.1c0.2-0.3,0.3-0.6,0.5-1l0,0
							c0,0,0-0.1,0.1-0.1l0,0c0.2-0.1,0.4-0.3,0.6-0.4l0,0c0.4-0.2,0.8-0.3,1.2-0.5c0.1,0,0.2,0,0.3-0.1c0.8-0.1,1.5-0.1,2.3-0.2
							c0.1,0,0.2,0,0.3,0c0,0,0.1,0,0.1,0c1.3,0.2,2.5,0.4,3.8,0.6c0.3,0.1,0.7,0.2,1,0.3c0.2,0,0.4,0.1,0.6,0.2
							c0.6,0.1,1.1,0.2,1.5,0.4c3.8,1.1,9.4,2.9,15.4,6.1l0,0c4.9,2.1,10.4,4.6,15.6,7.4l-5.9,16.1l-20.3-13.4
							c-0.4-0.3-0.9-0.5-1.3-0.8c0,0-0.1,0-0.1,0c-0.5-0.3-1-0.6-1.6-0.9c-0.1-0.1-0.2-0.1-0.3-0.2c-0.4-0.3-0.8-0.5-1.2-0.8
							c0,0-0.1-0.1-0.1-0.1c0,0,0,0,0,0c0,0,0,0-0.1,0c-0.4-0.2-0.8-0.5-1.2-0.7c-0.1-0.1-0.2-0.1-0.3-0.2c-0.5-0.3-1-0.7-1.6-1
							c-0.2-0.1-0.3-0.2-0.5-0.3c-0.1-0.2-0.1-0.3-0.2-0.5l-0.7-0.5c0,0,0,0,0,0C139.1,76.4,139.1,76.3,139.1,76.3z"/>
					</g>
				</g>
			</g>
			<g>
				<g>
					<g>
						<path class="st3" d="M139.2,74.5C139.2,74.5,139.2,74.5,139.2,74.5c0-0.1,0-0.2,0-0.2c0,0,0,0,0.1,0
							C139.3,74.4,139.3,74.5,139.2,74.5z"/>
					</g>
				</g>
			</g>
			<g>
				<g>
					<g>
						<path class="st3" d="M134.4,73.2C134.4,73.2,134.4,73.1,134.4,73.2c0-0.1,0-0.1,0-0.1C134.5,73.1,134.5,73.1,134.4,73.2
							C134.5,73.2,134.4,73.2,134.4,73.2z"/>
					</g>
				</g>
			</g>
			<g>
				<g>
					<g>
						<path class="st3" d="M132.1,69.7C132.1,69.7,132.1,69.7,132.1,69.7C132.1,69.6,132.2,69.6,132.1,69.7
							C132.2,69.6,132.2,69.7,132.1,69.7C132.2,69.7,132.2,69.7,132.1,69.7z"/>
					</g>
				</g>
			</g>
			<g>
				<g>
					<g>
						<path class="st3" d="M132.9,72c0.1,0.1,0.2,0.3,0.2,0.4c-0.2-0.3-0.4-0.6-0.6-0.9c0-0.1,0.1-0.1,0.1-0.2
							C132.7,71.5,132.8,71.8,132.9,72z"/>
					</g>
				</g>
			</g>
			<g>
				<g>
					<g>
						<path class="st3" d="M135.1,70.7c0-0.1,0-0.1,0-0.2c0.1,0,0.2,0,0.3,0.1c0,0,0,0.1,0,0.1C135.3,70.7,135.2,70.7,135.1,70.7z"
							/>
					</g>
				</g>
			</g>
			<g>
				<g>
					<g>
						<path class="st3" d="M136.7,74.7c0,0.1,0,0.2,0,0.2l-0.4-0.3c0,0,0,0,0,0C136.3,74.7,136.5,74.7,136.7,74.7z"/>
					</g>
				</g>
			</g>
			<g>
				<g>
					<g>
						<path class="st3" d="M134.1,72.9c0.1,0.1,0.2,0.3,0.2,0.5l-0.2-0.1c-0.2-0.1-0.3-0.3-0.5-0.4C133.8,72.6,134,72.7,134.1,72.9z
							"/>
					</g>
				</g>
			</g>
			<g>
				<g>
					<g>
						<path class="st3" d="M137.6,75.6l-0.1-0.1c0,0,0,0,0-0.1C137.6,75.5,137.6,75.6,137.6,75.6z"/>
					</g>
				</g>
			</g>
			<g>
				<g>
					<g>
						<path class="st3" d="M135.5,74c-0.1,0-0.1,0.1-0.2,0.1l-0.4-0.3C135.1,73.7,135.3,73.7,135.5,74z"/>
					</g>
				</g>
			</g>
			<g>
				<g>
					<g>
						<path class="st4" d="M132.1,70.8c0.1,0.3,0.1,0.5,0.1,0.8c0,0,0.1,0.1,0.1,0.1c0-0.1,0.1-0.1,0.1-0.2c0-0.1,0.1-0.1,0.1-0.2
							c0.1,0.2,0.2,0.5,0.3,0.7c0.1,0.1,0.2,0.3,0.2,0.4c0,0,0,0,0,0.1c0,0,0,0,0.1,0.1c0,0,0.1,0.1,0.1,0.1
							c0.1,0.1,0.2,0.2,0.4,0.3c0,0,0,0,0,0c0.1-0.3,0.3-0.2,0.5,0c0.1,0.1,0.2,0.3,0.2,0.5c0,0,0,0.1,0,0.1
							c0.1,0.1,0.3,0.2,0.4,0.3c0,0,0.1-0.1,0.1-0.1c0.2-0.1,0.4-0.1,0.6,0.1c-0.1,0-0.1,0.1-0.2,0.1c0,0-0.1,0.1-0.1,0.1
							c0,0,0.1,0.1,0.1,0.1c0.1,0,0.1,0.1,0.2,0.1c0,0,0.1,0.1,0.1,0.1c0,0,0,0,0.1,0c0,0,0.1,0.1,0.1,0.1c0,0,0.1,0.1,0.1,0.1
							c0.1,0,0.2-0.1,0.3-0.1c0,0,0,0,0,0c0.2,0,0.3,0,0.5,0.1c0,0.1,0,0.2,0,0.2c0,0.1,0,0.2-0.1,0.3c0.2,0.1,0.3,0.2,0.5,0.3
							c0,0,0.1,0.1,0.1,0.1c0.1,0,0.1,0.1,0.2,0.1c0-0.1,0.1-0.2,0.1-0.3c0,0,0,0,0-0.1c0,0.1,0,0.1,0.1,0.2
							c0.1,0.2,0.2,0.4,0.2,0.5c0,0,0.1,0.1,0.1,0.1c0,0,0.1,0.1,0.1,0.1c0,0,0.1,0,0.1,0c0,0,0.1,0.1,0.1,0.1
							c0.1,0,0.1,0.1,0.2,0.1c0.1,0,0.1,0.1,0.2,0.1c0,0,0,0,0.1,0c0.1-0.1,0.1-0.1,0.2-0.2c0,0,0,0,0,0c0-0.1,0-0.2,0-0.2
							c0,0,0-0.1,0.1-0.1c0-0.1,0-0.1,0-0.2c-0.1-0.2-0.1-0.3,0.1-0.3c0-0.1,0.1-0.3,0.1-0.4c0-0.1,0-0.1,0-0.2c0-0.1,0-0.2,0.1-0.3
							c0,0,0-0.1,0.1-0.1c0-0.1,0-0.2,0-0.3c-0.1,0-0.1,0-0.2,0c0,0,0,0,0.1,0c0,0.1-0.1,0.1-0.1,0.2c0,0,0,0-0.1,0
							c0-0.1,0-0.1,0.1-0.2c0-0.3,0-0.6,0-0.8c0,0,0-0.1,0-0.1c-0.1,0-0.2,0-0.3,0c0,0,0-0.1,0.1-0.1c-0.2-0.3-0.5-0.5-0.7-0.8
							c0-0.1,0.1-0.2,0.1-0.3c-0.2-0.2-0.4-0.4-0.6-0.5c-0.2,0.2-0.2,0-0.2-0.2c-0.1-0.1-0.2-0.2-0.4-0.3c0,0.1-0.1,0.1-0.1,0.2
							c0-0.1-0.1-0.2-0.1-0.3c-0.2-0.1-0.4-0.2-0.6-0.3c-0.1-0.1-0.2-0.1-0.3-0.2c0,0-0.1,0-0.1,0c-0.1-0.1-0.2-0.1-0.3-0.2
							c0,0-0.1,0-0.1,0c-0.1-0.1-0.4,0.2-0.4-0.2c-0.1-0.1-0.3-0.1-0.4-0.2c0,0-0.1,0-0.1-0.1c-0.1,0-0.2-0.1-0.4-0.1
							c-0.3,0.2-0.6,0.1-0.8-0.3c-0.1-0.1-0.3-0.1-0.4-0.2c0,0,0,0.1-0.1,0.1c0-0.1-0.1-0.1-0.1-0.2c-0.1,0-0.2-0.1-0.3-0.1
							c-0.1,0.1-0.1,0.2-0.2,0.4c-0.1-0.2-0.1-0.3-0.1-0.5c-0.1,0-0.1,0-0.2-0.1c0,0,0,0,0,0.1c-0.1,0.2-0.3,0.1-0.5-0.2
							c-0.1,0-0.2-0.1-0.3-0.1c-0.1,0-0.1,0-0.2,0c0,0.1,0,0.2,0.1,0.4c0,0.1,0,0.1,0.1,0.2c0,0,0,0,0,0.1c0.2,0.1,0.4,0.3,0.5,0.4
							c0,0,0,0.1,0,0.1c-0.1,0-0.2,0.1-0.3,0.1c0.1,0.1,0.1,0.3,0.2,0.4C131.7,70.4,132,70.2,132.1,70.8z M135.4,70.6
							c0,0,0,0.1,0,0.1c-0.1,0-0.2,0-0.3,0c0-0.1,0-0.1,0-0.2C135.2,70.5,135.3,70.5,135.4,70.6z M134.5,73.1
							C134.5,73.1,134.5,73.1,134.5,73.1c0,0.1,0,0.1,0,0.1C134.4,73.2,134.4,73.1,134.5,73.1C134.4,73.1,134.4,73.1,134.5,73.1z
							 M132.2,69.6C132.2,69.6,132.2,69.7,132.2,69.6C132.2,69.7,132.2,69.7,132.2,69.6C132.1,69.7,132.1,69.7,132.2,69.6
							C132.1,69.6,132.2,69.6,132.2,69.6z"/>
					</g>
				</g>
			</g>
			<g>
				<g>
					<g>
						<polygon class="st4" points="135.2,74.2 135.2,74.2 135.2,74.2 						"/>
					</g>
				</g>
			</g>
		</g>
		<g>
			<path class="st4" d="M182.8,50.9c-0.3-0.2-8.3-5.6-10.4-7.2c-1.9-1.5-7.3-3.5-10-3.8l0.1-1c2.8,0.3,8.4,2.5,10.4,4
				c2.1,1.5,10.2,7.1,10.3,7.1L182.8,50.9z"/>
		</g>
		<g>
			<path class="st4" d="M182.6,43.3c-0.9-1.2-2.6-4-4.4-6.7c-1.7-2.7-3.5-5.5-4.3-6.6l0.8-0.6c0.9,1.2,2.6,4,4.4,6.7
				c1.7,2.7,3.5,5.5,4.3,6.6L182.6,43.3z"/>
		</g>
		<g>
			<path class="st4" d="M192.3,42.2l-0.1-0.5c-0.8-6.4-1.8-11-2.9-13.7l0.9-0.4c1.1,2.8,2.1,7.5,3,13.9l0.1,0.4L192.3,42.2z"/>
		</g>
		<g>
			<path class="st4" d="M101.4,69.4c-3,0.6-4.5-0.4-4.8-1.7c-0.2-1.3,0.8-2.7,3.9-3.2c3-0.6,4.5,0.4,4.8,1.7
				C105.5,67.4,104.4,68.8,101.4,69.4z M97.3,67.5c0.1,0.5,0.9,0.8,3.8,0.2c2.9-0.5,3.6-1.1,3.5-1.6c-0.1-0.5-0.9-0.7-3.8-0.2
				C97.9,66.5,97.2,67,97.3,67.5z"/>
			<path class="st4" d="M102.6,75.8c-3,0.6-4.5-0.4-4.8-1.7c-0.2-1.3,0.8-2.7,3.9-3.2c3-0.6,4.5,0.4,4.8,1.7
				C106.7,73.8,105.6,75.2,102.6,75.8z M98.5,74c0.1,0.5,0.9,0.8,3.8,0.2c2.9-0.5,3.6-1.1,3.5-1.6c-0.1-0.5-0.9-0.7-3.8-0.2
				C99.1,73,98.4,73.5,98.5,74z"/>
			<path class="st4" d="M103.8,82.2c-3,0.6-4.5-0.4-4.8-1.7c-0.2-1.3,0.8-2.7,3.9-3.2c3-0.6,4.5,0.4,4.8,1.7
				C107.9,80.3,106.8,81.7,103.8,82.2z M99.7,80.4c0.1,0.5,0.9,0.8,3.8,0.2c2.9-0.5,3.6-1.1,3.5-1.6c-0.1-0.5-0.9-0.7-3.8-0.2
				C100.2,79.4,99.6,79.9,99.7,80.4z"/>
			<path class="st4" d="M101.4,89l-0.6,0.1l-0.8-4.2l0.6-0.1l0.6,1.3l0.3,1.6L101.4,89z M108.9,86.2l-0.1,0.2l-1.9,0.3l-3.7,0.7
				c-0.9,0.2-1.8,0.3-2.7,0.5l-0.3-1.8c0.9-0.1,1.8-0.3,2.7-0.5l4.3-0.8l-0.3-1l0.8-0.1L108.9,86.2z"/>
		</g>
		<g>
			<path class="st14" d="M85.9,112.8l2,16.3c0.6,5-2.9,9.5-7.9,10.1c-5,0.6-9.5-2.9-10.1-7.9c-0.6-5,2.9-9.5,7.9-10.1
				c2.1-0.3,4.1,0.2,5.8,1.3l-1.1-9.2L85.9,112.8z M84.5,129.5c-0.4-3.1-3.2-5.3-6.3-4.9c-3.1,0.4-5.3,3.2-4.9,6.3
				c0.4,3.1,3.2,5.3,6.3,4.9C82.7,135.4,84.9,132.6,84.5,129.5z"/>
			<path class="st14" d="M96.6,117.3c3.6-0.4,5,4.8,1,5.3C93.5,123.2,94.1,117.6,96.6,117.3z M99.7,125.6c0.2,1.7,1.7,11.7,1.9,13.2
				c0,0.1-0.1,0.2-0.2,0.2l-3.9,0.5c-0.1,0-0.2-0.1-0.2-0.2c-0.3-2-1.1-11.8-1.2-13.2c0-0.1,0.1-0.2,0.1-0.2
				c0.4-0.1,1.7-0.4,3.2-0.5C99.6,125.5,99.7,125.5,99.7,125.6z"/>
			<path class="st14" d="M128.9,136.7c0.1,4-3.4,5.7-9.5,6.6c-5.2,0.8-10.1-0.9-11.4-1.4c-0.2-0.1-0.3-0.3-0.2-0.5l0.7-1.6
				c0.1-0.2,0.3-0.3,0.5-0.2c4.3,1.8,12.8,1.2,15.5,0c2.7-1.3,2.4-4.4-1.2-4.1c-2.9,0.3-7.3,1.3-8.9,1.7c-0.3,0.1-0.5-0.2-0.4-0.5
				l1.1-3.7c0.1-0.2-0.1-0.4-0.3-0.5c-2.8-0.5-4.9-2.4-5.1-6.4c-0.2-5.5,4-7.9,6.8-8.4c1.3-0.2,2.6-0.2,3.7,0.1
				c0.2,0.1,0.4,0,0.4-0.2l1.1-2.6c0.1-0.2,0.3-0.3,0.5-0.2l1.3,0.8c0.2,0.1,0.2,0.3,0.1,0.5l-1.4,2.2c-0.1,0.2-0.1,0.4,0.1,0.5
				c1.5,1.1,2.5,2.9,2.5,5.4c0.1,5-2.6,7.9-6.9,8.4c-0.1,0-0.2,0-0.3,0c-0.1,0-0.2,0.1-0.3,0.2l-0.4,0.9c-0.1,0.3,0.1,0.6,0.4,0.5
				c0.9-0.3,2.5-0.7,4.9-1.1C125.9,132.5,128.9,132.7,128.9,136.7z M118.8,129.6c2.4-0.4,3.4-3.5,3-5.5c-0.4-2.1-2-4.4-5.2-3.8
				c-1.7,0.3-4.2,3.4-3.8,6.1C113.3,129.2,116.4,130.1,118.8,129.6z"/>
			<path class="st14" d="M135.2,117.3c3.6-0.4,5,4.8,1,5.3C132.1,123.2,132.7,117.6,135.2,117.3z M138.3,125.6
				c0.2,1.7,1.7,11.7,1.9,13.2c0,0.1-0.1,0.2-0.2,0.2l-3.9,0.5c-0.1,0-0.2-0.1-0.2-0.2c-0.3-2-1.1-11.8-1.2-13.2
				c0-0.1,0.1-0.2,0.1-0.2c0.4-0.1,1.7-0.4,3.2-0.5C138.2,125.5,138.3,125.5,138.3,125.6z"/>
			<path class="st14" d="M166.4,115.3c0.2,1.8,0.6,6.4,0.7,7.6c0,0.2-0.1,0.3-0.3,0.4c-1.3,0.4-6.5,2-11.3,3.3
				c0.1,1.6,0.1,3.1,0.2,4.3c0.3,5.5,3.4,6.2,5.5,5.8c1.8-0.3,2.6-3.3,2.9-4.3c0-0.2,0.2-0.3,0.4-0.3l1.5,0.4c0.2,0,0.3,0.2,0.3,0.4
				c-0.3,1.2-1.4,5.1-4.9,5.5c-4.2,0.5-7.4-2.3-7.7-7c-0.1-1.1-0.1-2.6-0.1-4.3c-2.5,0.6-4.6,1.1-5.6,1.1c-0.2,0-0.3-0.1-0.4-0.3
				c-0.6-2-1-5.8-1.1-6.9c0-0.2,0.1-0.3,0.2-0.4c1.3-0.4,3.8-1.2,6.7-2.1c0-1.9-0.1-3.5-0.1-4c0-0.2,0.1-0.3,0.2-0.3l0.9-0.3
				c0.2-0.1,0.5,0.1,0.5,0.3c0,0.7,0.1,2.1,0.2,3.9c4.5-1.3,9.2-2.7,10.8-3.2C166.2,114.9,166.4,115.1,166.4,115.3z"/>
			<path class="st14" d="M177.3,128.6c-0.2,0-0.3,0.2-0.3,0.4c0.7,6,5.8,7.7,8.5,7.1c2.2-0.5,3.5-2.8,4-3.7c0.1-0.2,0.3-0.3,0.5-0.1
				l0.8,0.5c0.2,0.1,0.2,0.3,0.1,0.5c-0.4,0.9-1.8,3.3-5.3,4.2c-4.2,1-8.7-2.1-9.7-7.1c-1-5,1.7-10.5,7-11.3
				c5.2-0.7,7.9,2.4,8.4,6.4c0,0.2-0.1,0.3-0.3,0.4c-3.6,0.8-12.1,2.4-12.1,2.4L177.3,128.6z M177,126.9c0,0.2,0.2,0.4,0.4,0.4
				c2.1-0.5,7.1-1.5,12.1-2.4c0.2,0,0.4-0.3,0.3-0.5c-1.2-3.4-4.2-4.4-6.1-4.1C181.9,120.6,177.4,121.7,177,126.9z"/>
			<path class="st14" d="M232.5,126.6c0.6,4.8-3,9.2-8.1,9.8c-5.1,0.6-9.7-2.8-10.2-7.5c-0.6-4.8,3-9.2,8.1-9.8
				S231.9,121.8,232.5,126.6z M229.8,127c-0.5-4.1-3.9-7.1-7.5-6.6c-3.6,0.4-6.2,4.1-5.6,8.3c0.5,4.1,3.9,7.1,7.5,6.6
				C227.8,134.8,230.3,131.1,229.8,127z"/>
			<path class="st14" d="M19.6,164.7c0.4,4.6,1.5,16.4,1.5,16.4l-3,0.5c0,0-0.5-5.9-0.8-10.7c-0.3-4.7-0.7-11.1-6.2-10.4
				c-5.5,0.7-6.4,7.7-6.2,13.2c0.3,5.7,0.6,9,0.6,9l-3,0.4l-2.2-23.4l3-0.4c0,0,0.3,3,0.6,6.8c0.8-4.1,2.9-7.9,7.3-8.4
				C16.4,157.2,19.2,160.1,19.6,164.7z"/>
			<path class="st14" d="M41.6,174.7c0,0.1-0.6,2.6-2.7,2.8c-1.3,0.2-2.5-1-3-3.1c0-0.1,0-0.1,0-0.2c-1,1.8-2.3,2.9-3.9,3.1
				c-1,0.1-1.8-0.1-2.4-0.7c-1.4-1.4-1.9-4.7-1.3-10c0-0.1,0.2-0.3,0.3-0.2c0.1,0,0.3,0.2,0.2,0.3c-0.6,5.1-0.2,8.3,1.1,9.6
				c0.5,0.5,1.1,0.7,1.9,0.5c1.6-0.2,2.8-1.4,3.8-3.5c-0.6-4,0.7-7.7,1.5-8.3c0.2-0.2,0.4-0.1,0.5-0.1c0.2,0.1,0.4,0.4,0.2,1.5
				c-0.4,2.9-0.9,5.2-1.7,6.9c0,0.3,0.1,0.6,0.2,0.9c0.4,1.8,1.3,2.8,2.4,2.7c1.6-0.2,2.2-2.4,2.2-2.4c0-0.1,0.2-0.2,0.3-0.2
				S41.6,174.5,41.6,174.7z M30.9,162.8c-0.1-0.1-0.1-0.3,0-0.4c0.1-0.1,3.2-3.3,5.1-4.7c0.1-0.1,0.3-0.1,0.4,0.1
				c0.1,0.1,0.1,0.3-0.1,0.4c-1.8,1.3-5,4.6-5,4.6c0,0-0.1,0.1-0.2,0.1C31.1,162.9,31,162.9,30.9,162.8z M36.2,172.3
				c0.6-1.6,1-3.5,1.3-5.8c0.1-0.5,0-0.7,0-0.9C37,166.1,36,168.9,36.2,172.3z"/>
			<path class="st14" d="M75.1,178c0.1,0.5-0.3,0.9-0.8,1l-4.7,0.6c-0.5,0.1-0.9-0.3-1-0.8s0.3-0.9,0.8-1l1.5-0.2l-1.4-11.3
				c-0.4-3.2-1.1-4.1-2.9-3.9c-2.4,0.3-4.1,3.7-4.5,5.2l1.3,10.9l1.5-0.2c0.5-0.1,0.9,0.3,1,0.8c0.1,0.5-0.3,0.9-0.8,1l-4.7,0.6
				c-0.5,0.1-0.9-0.3-1-0.8c-0.1-0.5,0.3-0.9,0.8-1l1.5-0.2l-1.4-11.3c-0.4-3.2-1.1-4.1-2.9-3.9c-2.4,0.3-4.1,3.7-4.5,5.2l1.3,10.9
				l1.3-0.2c0.5-0.1,0.9,0.3,1,0.8s-0.3,0.9-0.8,1l-4.7,0.6c-0.5,0.1-0.9-0.3-1-0.8c-0.1-0.5,0.3-0.9,0.8-1l1.6-0.2l-1.9-15.8
				l-1.6,0.2c-0.5,0.1-0.9-0.3-1-0.8s0.3-0.9,0.8-1l2.5-0.3c0.5-0.1,0.9,0.3,1,0.8l0.3,2.4c0.1-0.2,0.3-0.4,0.4-0.6
				c1.2-1.7,2.7-2.8,4.3-3c2.6-0.3,3.8,1.2,4.3,2.8c1-1.8,2.7-3.6,4.9-3.9c4.1-0.5,4.6,3.5,4.9,5.4l1.4,11.3l1.5-0.2
				C74.6,177.1,75,177.5,75.1,178z"/>
			<path class="st14" d="M83.6,171.8c-0.2,0-0.3,0.2-0.3,0.4c0.7,6,5.8,7.7,8.5,7.1c2.2-0.5,3.5-2.8,4-3.7c0.1-0.2,0.3-0.3,0.5-0.1
				l0.8,0.5c0.2,0.1,0.2,0.3,0.1,0.5c-0.4,0.9-1.8,3.3-5.3,4.2c-4.2,1-8.7-2.1-9.7-7.1s1.7-10.5,7-11.3c5.2-0.7,7.9,2.4,8.4,6.4
				c0,0.2-0.1,0.3-0.3,0.4c-3.6,0.8-12.1,2.4-12.1,2.4L83.6,171.8z M83.3,170.1c0,0.2,0.2,0.4,0.4,0.4c2.1-0.5,7.1-1.5,12.1-2.4
				c0.2,0,0.4-0.3,0.3-0.5c-1.2-3.4-4.2-4.4-6.1-4.1C88.2,163.8,83.7,164.9,83.3,170.1z"/>
			<path class="st14" d="M124.8,160.3c0.2,1.5-0.7,2.9-2.6,3.1c-2.3,0.3-2.6-1.7-4.6-1.5c-1.5,0.2-3.4,2.3-4.8,4.3
				c0.6,5.1,1.4,11.3,1.5,12.5c0.3,2.1,2.4,2.9,3.8,2.7l0.1,0.6l-11,1.4l-0.1-0.8c1.5-0.2,3.5-0.8,3.2-3.3s-1.4-11.5-1.8-14.4
				c-0.4-2.9-3.9-1.4-3.9-1.4l-0.1-0.5l7.3-4c0,0,0.3,2.6,0.7,5.9c1.8-2.4,5.6-6.6,8.6-7C123.4,157.7,124.6,158.9,124.8,160.3z"/>
			<path class="st14" d="M149.8,169.8c0.6,4.8-3,9.2-8.1,9.8c-5.1,0.6-9.7-2.8-10.2-7.5c-0.6-4.8,3-9.2,8.1-9.8
				S149.2,165,149.8,169.8z M147.2,170.2c-0.5-4.1-3.9-7.1-7.5-6.6c-3.6,0.4-6.2,4.1-5.6,8.3c0.5,4.1,3.9,7.1,7.5,6.6
				C145.1,178,147.7,174.3,147.2,170.2z"/>
			<path class="st14" d="M188.7,156l2,16.3c0.6,5-2.9,9.5-7.9,10.1c-5,0.6-9.5-2.9-10.1-7.9s2.9-9.5,7.9-10.1
				c2.1-0.3,4.1,0.2,5.8,1.3l-1.1-9.2L188.7,156z M187.3,172.7c-0.4-3.1-3.2-5.3-6.3-4.9c-3.1,0.4-5.3,3.2-4.9,6.3
				c0.4,3.1,3.2,5.3,6.3,4.9C185.5,178.6,187.7,175.8,187.3,172.7z"/>
			<path class="st14" d="M215.7,169.8c0.6,4.8-3,9.2-8.1,9.8c-5.1,0.6-9.7-2.8-10.2-7.5c-0.6-4.8,3-9.2,8.1-9.8
				S215.1,165,215.7,169.8z M213.1,170.2c-0.5-4.1-3.9-7.1-7.5-6.6c-3.6,0.4-6.2,4.1-5.6,8.3c0.5,4.1,3.9,7.1,7.5,6.6
				C211,178,213.6,174.3,213.1,170.2z"/>
			<path class="st14" d="M247.8,185.1c-3.8,0.5-7.3-1.1-8.6-5.6c-0.1-0.2,0.1-0.4,0.2-0.5c2.1-0.6,4.7-1.1,5.7-1.3
				c0.2,0,0.4,0.1,0.4,0.3c0.1,0.7,0.3,1.9,1.5,1.8c1.6-0.1,1.5-2.2,0-3.8s-8.3-5.8-9.2-10.8c-0.7-4.2,2.1-7.8,6.2-8.4
				c4-0.5,6.9,2.8,7.4,5.3c0,0.2-0.1,0.4-0.3,0.4l-5.4,1c-0.2,0-0.4-0.1-0.4-0.3c-0.1-0.5-0.3-1.2-0.9-1.2c-0.7,0.1-1.5,1.5,1.8,3.9
				c3.3,2.4,6.8,3.9,7.7,9.1C255,180.4,251.7,184.7,247.8,185.1z"/>
			<path class="st14" d="M263,171.8c-0.2,0-0.3,0.2-0.3,0.4c0.7,6,5.8,7.7,8.5,7.1c2.2-0.5,3.5-2.8,4-3.7c0.1-0.2,0.3-0.3,0.5-0.1
				l0.8,0.5c0.2,0.1,0.2,0.3,0.1,0.5c-0.4,0.9-1.8,3.3-5.3,4.2c-4.2,1-8.7-2.1-9.7-7.1s1.7-10.5,7-11.3c5.2-0.7,7.9,2.4,8.4,6.4
				c0,0.2-0.1,0.3-0.3,0.4c-3.6,0.8-12.1,2.4-12.1,2.4L263,171.8z M262.7,170.1c0,0.2,0.2,0.4,0.4,0.4c2.1-0.5,7.1-1.5,12.1-2.4
				c0.2,0,0.4-0.3,0.3-0.5c-1.2-3.4-4.2-4.4-6.1-4.1C267.6,163.8,263.1,164.9,262.7,170.1z"/>
			<path class="st14" d="M287.7,162.5c0.2,0,0.3,0.1,0.3,0.3c0,1.3,0.2,7,0.6,10c0.4,3.5,0.8,6.2,3.7,5.8c2.9-0.4,4.3-4.7,4.1-6.5
				c-0.2-1.8-0.2-4.1-0.8-9.2c0-0.2,0.1-0.3,0.2-0.3l2-0.3c0.2,0,0.3,0.1,0.3,0.3c0.1,1.4,0.7,6.8,1.2,11.2c0.6,4.7,1.2,5.5,3,5.8
				c0.2,0,0.3,0.2,0.2,0.4l-0.5,1.3c0,0.1-0.1,0.2-0.2,0.2c-1.2,0.4-3.6-0.4-4.2-3c-0.1-0.3-0.4-0.3-0.5-0.1c-1,1.4-2.7,3.1-5.8,3.4
				c-3.6,0.4-5.6-3.6-5.8-7.1c-0.2-3.1-0.7-10.4-0.8-12c0-0.2,0.1-0.3,0.3-0.3L287.7,162.5z"/>
			<path class="st14" d="M105.6,201.7c0.2,1.8,0.6,6.4,0.7,7.6c0,0.2-0.1,0.3-0.3,0.4c-1.3,0.4-6.5,2-11.3,3.3
				c0.1,1.6,0.1,3.1,0.2,4.3c0.3,5.5,3.4,6.2,5.5,5.8c1.8-0.3,2.6-3.3,2.9-4.3c0-0.2,0.2-0.3,0.4-0.3l1.5,0.4c0.2,0,0.3,0.2,0.3,0.4
				c-0.3,1.2-1.4,5.1-4.9,5.5c-4.2,0.5-7.4-2.3-7.7-7c-0.1-1.1-0.1-2.6-0.1-4.3c-2.5,0.6-4.6,1.1-5.6,1.1c-0.2,0-0.3-0.1-0.4-0.3
				c-0.6-2-1-5.8-1.1-6.9c0-0.2,0.1-0.3,0.2-0.4c1.3-0.4,3.8-1.2,6.7-2.1c0-1.9-0.1-3.5-0.1-4c0-0.2,0.1-0.3,0.2-0.3l0.9-0.3
				c0.2-0.1,0.5,0.1,0.5,0.3c0,0.7,0.1,2.1,0.2,3.9c4.5-1.3,9.2-2.7,10.8-3.2C105.3,201.3,105.6,201.5,105.6,201.7z"/>
			<path class="st14" d="M115.9,203.7c3.6-0.4,5,4.8,1,5.3C112.9,209.6,113.5,204,115.9,203.7z M119,212c0.2,1.7,1.7,11.7,1.9,13.2
				c0,0.1-0.1,0.2-0.2,0.2l-3.9,0.5c-0.1,0-0.2-0.1-0.2-0.2c-0.3-2-1.1-11.8-1.2-13.2c0-0.1,0.1-0.2,0.1-0.2
				c0.4-0.1,1.7-0.4,3.2-0.5C118.9,211.9,119,211.9,119,212z"/>
			<path class="st14" d="M141.2,224.9c-6.4,0.8-12.2-3.8-13-10.2c-0.8-6.4,3.8-12.2,10.2-13l0.3,2.6c-4.9,0.6-8.5,5.1-7.9,10.1
				c0.6,4.9,5.1,8.5,10.1,7.9L141.2,224.9z"/>
			<path class="st14" d="M163.1,223.6l-11.6-5.1c-0.2-0.1-0.5,0.1-0.5,0.3c0.1,2.8,0.3,5.4,0.5,7c0,0.2-0.1,0.4-0.4,0.4l-1.8-0.1
				c-0.2,0-0.3-0.2-0.3-0.3c-0.2-2.2-1-14.9-0.2-20.5c0.9-6.1,7.2-6.7,6.6,0c-0.2,2-0.7,3.7-1.3,5.2c-0.1,0.2,0.1,0.3,0.3,0.2
				c0.8-0.5,1.7-1,2.4-1.2c3.1-1,4.1,2.9,2.5,5c-1.2,1.6-3.3,2.3-4.2,2.5c-0.2,0-0.2,0.3,0,0.3l8.9,4.6c0.2,0.1,0.3,0.3,0.1,0.5
				l-0.6,0.9C163.5,223.6,163.3,223.6,163.1,223.6z M150.9,211.3c0,0.2,0.3,0.3,0.3,0.1c1-2.4,2.2-5.5,2.3-6.7
				c0.1-2-1.5-2.4-2.2-0.4C151,205.1,150.9,207.9,150.9,211.3z M156.3,211.9c-1,0.4-2.8,1.9-4.2,3.2c-0.1,0.1,0,0.3,0.1,0.3
				c1.4-0.1,3.7-0.5,4.7-1.3C158.6,213,158.1,211.2,156.3,211.9z"/>
			<path class="st14" d="M172,215c-0.2,0-0.3,0.2-0.3,0.4c0.7,6,5.8,7.7,8.5,7.1c2.2-0.5,3.5-2.8,4-3.7c0.1-0.2,0.3-0.3,0.5-0.1
				l0.8,0.5c0.2,0.1,0.2,0.3,0.1,0.5c-0.4,0.9-1.8,3.3-5.3,4.2c-4.2,1-8.7-2.1-9.7-7.1s1.7-10.5,7-11.3c5.2-0.7,7.9,2.4,8.4,6.4
				c0,0.2-0.1,0.3-0.3,0.4c-3.6,0.8-12.1,2.4-12.1,2.4L172,215z M171.6,213.3c0,0.2,0.2,0.4,0.4,0.4c2.1-0.5,7.1-1.5,12.1-2.4
				c0.2,0,0.4-0.3,0.3-0.5c-1.2-3.4-4.2-4.4-6.1-4.1C176.5,207,172,208.1,171.6,213.3z"/>
			<path class="st14" d="M213,201.7c0.2,1.8,0.6,6.4,0.7,7.6c0,0.2-0.1,0.3-0.3,0.4c-1.3,0.4-6.5,2-11.3,3.3
				c0.1,1.6,0.1,3.1,0.2,4.3c0.3,5.5,3.4,6.2,5.5,5.8c1.8-0.3,2.6-3.3,2.9-4.3c0-0.2,0.2-0.3,0.4-0.3l1.5,0.4c0.2,0,0.3,0.2,0.3,0.4
				c-0.3,1.2-1.4,5.1-4.9,5.5c-4.2,0.5-7.4-2.3-7.7-7c-0.1-1.1-0.1-2.6-0.1-4.3c-2.5,0.6-4.6,1.1-5.6,1.1c-0.2,0-0.3-0.1-0.4-0.3
				c-0.6-2-1-5.8-1.1-6.9c0-0.2,0.1-0.3,0.2-0.4c1.3-0.4,3.8-1.2,6.7-2.1c0-1.9-0.1-3.5-0.1-4c0-0.2,0.1-0.3,0.2-0.3l0.9-0.3
				c0.2-0.1,0.5,0.1,0.5,0.3c0,0.7,0.1,2.1,0.2,3.9c4.5-1.3,9.2-2.7,10.8-3.2C212.8,201.3,213,201.5,213,201.7z"/>
		</g>
	</g>
</g>
<g id="Layer_4">
</g>
<g id="Layer_3">
</g>
<g id="Layer_5">
</g>
<g id="default_x5F_grid" class="st103">
</g>
</svg>
