<?xml version="1.0" encoding="utf-8"?>
<!-- Generator: Adobe Illustrator 27.6.1, SVG Export Plug-In . SVG Version: 6.00 Build 0)  -->
<svg version="1.1" xmlns="http://www.w3.org/2000/svg" xmlns:xlink="http://www.w3.org/1999/xlink" x="0px" y="0px"
	 viewBox="0 0 242.5 202.4" style="enable-background:new 0 0 242.5 202.4;" xml:space="preserve">
<style type="text/css">
	.st0{fill:#FFD4F0;}
	.st1{fill:#E93032;}
	.st2{opacity:0.4984;}
	.st3{fill:#0033CC;}
	.st4{fill:#FFFFFF;}
	.st5{fill:#6380C5;}
	.st6{fill:#333333;}
	.st7{fill:#FFDD67;}
	.st8{fill:#664E27;}
	.st9{fill:#917524;}
	.st10{fill:none;stroke:#0033CB;stroke-width:34.4361;stroke-linecap:round;stroke-miterlimit:10;stroke-dasharray:0,65.5242,0,0;}
	.st11{opacity:0.5;enable-background:new    ;}
	.st12{fill:#494949;}
	.st13{fill:#EA3032;}
	.st14{fill:none;stroke:#FFFFFF;stroke-width:1.0081;stroke-miterlimit:10;}
	.st15{fill:#0033CB;}
	.st16{fill:#E93032;stroke:#E93032;stroke-width:0.4783;stroke-miterlimit:10;}
	.st17{clip-path:url(#SVGID_00000080206802328563303500000006248708606820861070_);}
	.st18{opacity:0.36;fill:#E93032;}
	.st19{fill:none;stroke:#FFD4F0;stroke-width:5.0782;stroke-miterlimit:10;}
	.st20{enable-background:new    ;}
	.st21{clip-path:url(#SVGID_00000151537452393178660280000015322582161425150119_);}
	.st22{clip-path:url(#SVGID_00000026132973640638410610000009435284618098835902_);}
	.st23{clip-path:url(#SVGID_00000183230294439215057400000008838661993853660832_);fill:#E93032;}
	.st24{clip-path:url(#SVGID_00000073707454509486646540000002480646523045390735_);}
	.st25{clip-path:url(#SVGID_00000132064030852116083760000008575134819638691486_);}
	.st26{clip-path:url(#SVGID_00000173125370086827673740000003240790008374949532_);fill:#E93032;}
	.st27{clip-path:url(#SVGID_00000007404616515706580510000015669597220211158429_);}
	.st28{clip-path:url(#SVGID_00000109006690778285113060000000390140178269171623_);}
	.st29{clip-path:url(#SVGID_00000051341556059013448640000017467849428699287221_);}
	.st30{clip-path:url(#SVGID_00000040571851541477996290000017743298745278517657_);fill:#0033CC;}
	.st31{clip-path:url(#SVGID_00000040571851541477996290000017743298745278517657_);fill:#FFD4F0;}
	.st32{clip-path:url(#SVGID_00000103246554517755335250000005713143248053243311_);}
	.st33{clip-path:url(#SVGID_00000031925427521005696430000003954371129685682591_);}
	.st34{clip-path:url(#SVGID_00000052807790904930746000000002537134957474439080_);fill:#E93032;}
	.st35{clip-path:url(#SVGID_00000021813566088703842110000006144716989987356591_);}
	.st36{clip-path:url(#SVGID_00000091005031120994141100000010565066776507955868_);}
	.st37{clip-path:url(#SVGID_00000001656280793863886050000015368151533991484303_);fill:#E93032;}
	.st38{clip-path:url(#SVGID_00000022541385077173693480000009927850401990043310_);}
	.st39{clip-path:url(#SVGID_00000127007557893305679420000015488704402242482598_);}
	.st40{clip-path:url(#SVGID_00000068642454638680900150000004945954507255377598_);fill:#E93032;}
	.st41{clip-path:url(#SVGID_00000013903474793720045870000015873523646978379652_);}
	.st42{clip-path:url(#SVGID_00000018922026145926562260000002229852784692667287_);}
	.st43{clip-path:url(#SVGID_00000077287934364149499420000013370239134876465079_);fill:#E93032;}
	.st44{clip-path:url(#SVGID_00000082330295928669286570000011497864091852966332_);}
	.st45{clip-path:url(#SVGID_00000124134428383363970610000005243863878249536952_);}
	.st46{clip-path:url(#SVGID_00000003784121801807749660000002325927693149619605_);fill:#E93032;}
	.st47{clip-path:url(#SVGID_00000147209447484602211890000013224377142243192481_);}
	.st48{clip-path:url(#SVGID_00000119828916114124995310000017742527981043300010_);}
	.st49{clip-path:url(#SVGID_00000062153746243340528370000015198787391061056692_);fill:#E93032;}
	.st50{clip-path:url(#SVGID_00000062157438591107139640000014327398453162809490_);}
	.st51{clip-path:url(#SVGID_00000112606891195683586760000007173347936221685383_);}
	.st52{clip-path:url(#SVGID_00000041268430575988574740000017670831903787172792_);fill:#E93032;}
	.st53{clip-path:url(#SVGID_00000115498417513427218000000007814401040895112585_);}
	.st54{clip-path:url(#SVGID_00000000195891557110059840000001714313567159090356_);}
	.st55{clip-path:url(#SVGID_00000158735822851925927050000000562498563764789417_);fill:#E93032;}
	.st56{clip-path:url(#SVGID_00000077320939613866323650000011382358990902952096_);}
	.st57{clip-path:url(#SVGID_00000125564797433677622980000007359052491705543102_);}
	.st58{fill:none;stroke:#FFD4F0;stroke-width:1.019;stroke-miterlimit:10;}
	.st59{clip-path:url(#SVGID_00000057142201888628767980000004703371871106537142_);}
	.st60{clip-path:url(#SVGID_00000086692585802767334560000000461230523179711675_);}
	.st61{clip-path:url(#SVGID_00000120561266724275010330000008789571351568209080_);fill:#E93032;}
	.st62{clip-path:url(#SVGID_00000028308965684224655280000008626343969020024972_);}
	.st63{clip-path:url(#SVGID_00000052104319185455388720000011029460444853311629_);}
	.st64{clip-path:url(#SVGID_00000116913468596248362010000001008767394868528023_);fill:#E93032;}
	.st65{clip-path:url(#SVGID_00000036236825103419277900000013226478002520309394_);}
	.st66{clip-path:url(#SVGID_00000063600650496906199060000016093709254422707384_);}
	.st67{clip-path:url(#SVGID_00000103224947307006171960000010258321254171427002_);}
	.st68{clip-path:url(#SVGID_00000010299094914483575990000002353008302915370393_);fill:#0033CC;}
	.st69{clip-path:url(#SVGID_00000010299094914483575990000002353008302915370393_);fill:#FFD4F0;}
	.st70{clip-path:url(#SVGID_00000110456183739175457470000014291408819973058476_);}
	.st71{clip-path:url(#SVGID_00000101795907839074184100000005755457246104684188_);}
	.st72{clip-path:url(#SVGID_00000141443981093773222590000000972584035734579134_);fill:#E93032;}
	.st73{clip-path:url(#SVGID_00000001644869454048528680000014165347122360855452_);}
	.st74{clip-path:url(#SVGID_00000152945980015136380050000004887746515120585631_);}
	.st75{clip-path:url(#SVGID_00000145770186594678704250000000902767499985062569_);fill:#E93032;}
	.st76{clip-path:url(#SVGID_00000175317117382462033210000002103724809908986803_);}
	.st77{clip-path:url(#SVGID_00000157293925972874980570000007821623966718162878_);}
	.st78{clip-path:url(#SVGID_00000052084602839674763120000000967879484130454171_);fill:#E93032;}
	.st79{clip-path:url(#SVGID_00000043422663759386762460000000760339935329742772_);}
	.st80{clip-path:url(#SVGID_00000165204276518862928300000006807453289298690491_);}
	.st81{clip-path:url(#SVGID_00000135668179129984373770000002135126200298231485_);fill:#E93032;}
	.st82{clip-path:url(#SVGID_00000087388229197476278530000004213209769246484897_);}
	.st83{clip-path:url(#SVGID_00000136392795058366265710000009972982834643648165_);}
	.st84{clip-path:url(#SVGID_00000180331188735607410360000015828544192579815605_);fill:#E93032;}
	.st85{clip-path:url(#SVGID_00000023243805380091476320000000138040178005629326_);}
	.st86{clip-path:url(#SVGID_00000094594979305999928320000014805816732370944687_);}
	.st87{clip-path:url(#SVGID_00000177447657770510201360000000273577907209292720_);fill:#E93032;}
	.st88{clip-path:url(#SVGID_00000036942522122746819040000011505701034035791493_);}
	.st89{clip-path:url(#SVGID_00000011728989870909178230000001999318450576790974_);}
	.st90{clip-path:url(#SVGID_00000174584793141712225120000013889126507649820848_);fill:#E93032;}
	.st91{clip-path:url(#SVGID_00000049192288246452823740000005503231580807511987_);}
	.st92{clip-path:url(#SVGID_00000121962830804333863560000014896260357377120150_);}
	.st93{clip-path:url(#SVGID_00000181788566140043300380000011334235947033679527_);fill:#E93032;}
	.st94{clip-path:url(#SVGID_00000111878257657603038370000016073987436595033771_);}
	.st95{fill:#606060;}
	.st96{clip-path:url(#SVGID_00000138565597584534023280000013557266795191725756_);}
	.st97{clip-path:url(#SVGID_00000008840626730170607100000009284376306667373721_);}
	.st98{opacity:0.84;fill:#E93032;}
	.st99{opacity:0.84;}
	.st100{clip-path:url(#SVGID_00000127750462843534797910000013051767814078908069_);}
	.st101{clip-path:url(#SVGID_00000169558484933438210950000001212631094113227691_);}
	.st102{display:none;}
	.st103{display:inline;fill:#FFEFD9;}
	.st104{display:inline;opacity:0.46;fill:#FFEFD9;}
	.st105{display:inline;opacity:0.36;}
	.st106{opacity:0.36;}
</style>
<g id="artwork">
	<g>
		<g>
			<path class="st15" d="M118.9,78.5c-1.2-2.4-1.8-5-1.7-7.6l0,0c0-6.4,3.6-12.5,9.7-15.5l0,0c8.5-4.1,18.9-0.6,23,8l0,0
				c1.2,2.4,1.7,4.9,1.7,7.4l0,0c0,6.4-3.6,12.6-9.7,15.6l0,0c-2.4,1.2-5,1.7-7.5,1.7l0,0C128,88.2,121.9,84.6,118.9,78.5z M73,43.3
				c0-9.5,7.7-17.2,17.2-17.2l0,0c9.5,0,17.2,7.7,17.2,17.2l0,0c0,9.5-7.7,17.2-17.2,17.2l0,0C80.7,60.5,73,52.8,73,43.3z
				 M128.2,31.8c-5.2-3.3-8.1-8.9-8.1-14.7l0,0c0-3.1,0.9-6.3,2.6-9.1l0,0c5.1-8,15.7-10.5,23.7-5.4l0,0c5.2,3.3,8.1,8.9,8.1,14.6
				l0,0c0,3.1-0.9,6.3-2.6,9.1l0,0c-3.3,5.2-8.9,8.1-14.6,8.1l0,0C134.2,34.4,131,33.6,128.2,31.8z"/>
		</g>
		<g>
			<path class="st16" d="M15.9,119.5c-3.6,0.4-7-1-8.2-5.4c-0.1-0.2,0.1-0.4,0.2-0.4c2-0.6,4.5-1.1,5.4-1.3c0.2,0,0.4,0.1,0.4,0.3
				c0.1,0.6,0.3,1.8,1.4,1.7c1.5-0.1,1.4-2.1,0-3.6c-1.4-1.5-8-5.6-8.8-10.3c-0.7-4,2-7.5,5.9-8c3.8-0.5,6.6,2.7,7.1,5.1
				c0,0.2-0.1,0.4-0.3,0.4L14,99c-0.2,0-0.4-0.1-0.4-0.3c-0.1-0.5-0.2-1.2-0.9-1.1c-0.7,0-1.4,1.5,1.7,3.7s6.5,3.7,7.4,8.7
				S19.6,119,15.9,119.5z"/>
			<path class="st16" d="M45.4,104.8c0.6,4.6-2.9,8.8-7.8,9.4s-9.2-2.6-9.8-7.2c-0.6-4.6,2.9-8.8,7.8-9.4
				C40.5,97,44.8,100.2,45.4,104.8z M42.9,105.1c-0.5-3.9-3.7-6.8-7.2-6.4c-3.5,0.4-5.9,4-5.4,7.9c0.5,3.9,3.7,6.8,7.2,6.4
				C41,112.6,43.4,109.1,42.9,105.1z"/>
			<path class="st16" d="M77,112.6c0.1,0.5-0.3,0.9-0.7,0.9l-4.5,0.5c-0.5,0.1-0.9-0.3-0.9-0.7c-0.1-0.5,0.3-0.9,0.7-0.9l1.4-0.2
				l-1.3-10.8c-0.4-3.1-1-3.9-2.8-3.7c-2.3,0.3-3.9,3.5-4.3,4.9l1.3,10.5l1.4-0.2c0.5-0.1,0.9,0.3,0.9,0.7c0.1,0.5-0.3,0.9-0.7,0.9
				l-4.5,0.5c-0.5,0.1-0.9-0.3-0.9-0.7c-0.1-0.5,0.3-0.9,0.7-0.9l1.4-0.2l-1.3-10.8c-0.4-3.1-1-3.9-2.8-3.7c-2.3,0.3-3.9,3.5-4.3,5
				l1.3,10.5l1.3-0.2c0.5-0.1,0.9,0.3,0.9,0.7c0.1,0.5-0.3,0.9-0.7,0.9l-4.5,0.5c-0.5,0.1-0.9-0.3-0.9-0.7s0.3-0.9,0.7-0.9l1.5-0.2
				l-1.9-15.1l-1.5,0.2c-0.5,0.1-0.9-0.3-0.9-0.7c-0.1-0.5,0.3-0.9,0.7-0.9l2.4-0.3c0.5-0.1,0.9,0.3,0.9,0.7l0.3,2.3
				c0.1-0.2,0.3-0.4,0.4-0.6c1.2-1.7,2.6-2.6,4.1-2.8c2.5-0.3,3.6,1.1,4.1,2.6c1-1.7,2.6-3.5,4.7-3.7c4-0.5,4.4,3.3,4.7,5.2
				l1.3,10.8l1.4-0.2C76.5,111.8,76.9,112.1,77,112.6z"/>
			<path class="st16" d="M100.1,104.8c0.6,4.6-2.9,8.8-7.8,9.4s-9.2-2.6-9.8-7.2c-0.6-4.6,2.9-8.8,7.8-9.4
				C95.2,97,99.5,100.2,100.1,104.8z M97.6,105.1c-0.5-3.9-3.7-6.8-7.2-6.4c-3.5,0.4-5.9,4-5.4,7.9c0.5,3.9,3.7,6.8,7.2,6.4
				C95.7,112.6,98.1,109.1,97.6,105.1z"/>
			<path class="st16" d="M115.9,119.5c-3.6,0.4-7-1-8.2-5.4c-0.1-0.2,0.1-0.4,0.2-0.4c2-0.6,4.5-1.1,5.4-1.3c0.2,0,0.4,0.1,0.4,0.3
				c0.1,0.6,0.3,1.8,1.4,1.7c1.5-0.1,1.4-2.1,0-3.6c-1.4-1.5-8-5.6-8.8-10.3c-0.7-4,2-7.5,5.9-8c3.8-0.5,6.6,2.7,7.1,5.1
				c0,0.2-0.1,0.4-0.3,0.4l-5.1,1c-0.2,0-0.4-0.1-0.4-0.3c-0.1-0.5-0.2-1.2-0.9-1.1c-0.7,0-1.4,1.5,1.7,3.7s6.5,3.7,7.4,8.7
				C122.7,114.9,119.5,119,115.9,119.5z"/>
			<path class="st16" d="M162,94c0.2,1.7,0.5,6.1,0.6,7.3c0,0.2-0.1,0.3-0.2,0.4c-1.2,0.4-6.2,1.9-10.8,3.2c0.1,1.5,0.1,2.9,0.2,4.1
				c0.2,5.2,3.2,5.9,5.3,5.5c1.7-0.3,2.5-3.1,2.7-4.1c0-0.2,0.2-0.3,0.4-0.3l1.4,0.4c0.2,0,0.3,0.2,0.3,0.4
				c-0.2,1.1-1.3,4.9-4.7,5.3c-4,0.5-7.1-2.2-7.3-6.7c-0.1-1-0.1-2.5-0.1-4.1c-2.4,0.6-4.4,1.1-5.4,1.1c-0.2,0-0.3-0.1-0.3-0.2
				c-0.6-1.9-1-5.6-1.1-6.6c0-0.2,0.1-0.3,0.2-0.4c1.2-0.4,3.7-1.2,6.4-2c0-1.8-0.1-3.3-0.1-3.9c0-0.1,0.1-0.3,0.2-0.3l0.9-0.3
				c0.2-0.1,0.5,0.1,0.5,0.3c0,0.7,0.1,2,0.2,3.7c4.3-1.3,8.8-2.6,10.3-3C161.8,93.6,162,93.8,162,94z"/>
			<path class="st16" d="M187.5,104.8c0.6,4.6-2.9,8.8-7.8,9.4s-9.2-2.6-9.8-7.2c-0.6-4.6,2.9-8.8,7.8-9.4
				C182.5,97,186.9,100.2,187.5,104.8z M185,105.1c-0.5-3.9-3.7-6.8-7.2-6.4c-3.5,0.4-5.9,4-5.4,7.9c0.5,3.9,3.7,6.8,7.2,6.4
				C183,112.6,185.5,109.1,185,105.1z"/>
			<path class="st16" d="M209.7,91.6l1.9,15.6c0.6,4.8-2.8,9.1-7.6,9.7c-4.8,0.6-9.1-2.8-9.7-7.6c-0.6-4.8,2.8-9.1,7.6-9.7
				c2-0.2,4,0.2,5.6,1.2l-1.1-8.8L209.7,91.6z M208.3,107.6c-0.4-2.9-3-5-6-4.7s-5,3.1-4.7,6c0.4,2.9,3.1,5,6,4.7
				S208.7,110.5,208.3,107.6z"/>
			<path class="st16" d="M235.5,104.8c0.6,4.6-2.9,8.8-7.8,9.4s-9.2-2.6-9.8-7.2c-0.6-4.6,2.9-8.8,7.8-9.4
				C230.5,97,234.9,100.2,235.5,104.8z M233,105.1c-0.5-3.9-3.7-6.8-7.2-6.4c-3.5,0.4-5.9,4-5.4,7.9c0.5,3.9,3.7,6.8,7.2,6.4
				C231,112.6,233.5,109.1,233,105.1z"/>
			<path class="st16" d="M17.9,146.1c0.6,4.6-2.9,8.8-7.8,9.4s-9.2-2.6-9.8-7.2c-0.6-4.6,2.9-8.8,7.8-9.4
				C12.9,138.3,17.3,141.6,17.9,146.1z M15.4,146.4c-0.5-3.9-3.7-6.8-7.2-6.4c-3.5,0.4-5.9,4-5.4,7.9c0.5,3.9,3.7,6.8,7.2,6.4
				C13.4,153.9,15.8,150.4,15.4,146.4z"/>
			<path class="st16" d="M26.9,139.1c0.2,0,0.3,0.1,0.3,0.3c0,1.3,0.2,6.7,0.6,9.6c0.4,3.3,0.8,5.9,3.6,5.6c2.8-0.3,4.1-4.5,3.9-6.2
				c-0.2-1.7-0.2-3.9-0.8-8.8c0-0.2,0.1-0.3,0.2-0.3l1.9-0.3c0.2,0,0.3,0.1,0.3,0.3c0.1,1.3,0.6,6.5,1.2,10.7
				c0.6,4.5,1.2,5.2,2.9,5.5c0.2,0,0.3,0.2,0.2,0.4l-0.5,1.3c0,0.1-0.1,0.1-0.2,0.2c-1.1,0.4-3.4-0.4-4-2.8
				c-0.1-0.2-0.4-0.3-0.5-0.1c-0.9,1.3-2.6,2.9-5.6,3.3c-3.5,0.4-5.3-3.4-5.6-6.8c-0.2-2.9-0.7-9.9-0.7-11.5c0-0.2,0.1-0.3,0.3-0.3
				L26.9,139.1z"/>
			<path class="st16" d="M61.9,140.9c-0.8,2.9-3.8,14.4-3.8,14.4l-5.4,0.7l-7.3-14.6l5.5-0.7l6.6,13.4c0.4-1.7,1.7-6.9,2.3-9.2
				c0.7-2.6-1.3-3.2-0.8-5.1C59.6,138.1,62.7,138,61.9,140.9z"/>
			<path class="st16" d="M71.4,137.2c3.4-0.4,4.8,4.5,0.9,5.1C68.5,142.8,69,137.5,71.4,137.2z M74.3,145.2
				c0.2,1.7,1.6,11.2,1.8,12.6c0,0.1-0.1,0.2-0.2,0.2l-3.7,0.5c-0.1,0-0.2-0.1-0.2-0.1c-0.3-1.9-1-11.3-1.2-12.6
				c0-0.1,0-0.2,0.1-0.2c0.4-0.1,1.6-0.4,3.1-0.4C74.3,145,74.3,145.1,74.3,145.2z"/>
			<path class="st16" d="M98.7,132.9l1.9,15.6c0.6,4.8-2.8,9.1-7.6,9.7c-4.8,0.6-9.1-2.8-9.7-7.6c-0.6-4.8,2.8-9.1,7.6-9.7
				c2-0.2,4,0.2,5.6,1.2l-1.1-8.8L98.7,132.9z M97.3,148.9c-0.4-2.9-3-5-6-4.7c-2.9,0.4-5,3.1-4.7,6s3,5,6,4.7
				C95.6,154.5,97.7,151.8,97.3,148.9z"/>
			<path class="st16" d="M124.5,146.1c0.6,4.6-2.9,8.8-7.8,9.4s-9.2-2.6-9.8-7.2c-0.6-4.6,2.9-8.8,7.8-9.4
				C119.5,138.3,123.9,141.6,124.5,146.1z M122,146.4c-0.5-3.9-3.7-6.8-7.2-6.4c-3.5,0.4-5.9,4-5.4,7.9c0.5,3.9,3.7,6.8,7.2,6.4
				C120,153.9,122.4,150.4,122,146.4z"/>
			<path class="st16" d="M140.2,160.8c-3.6,0.4-7-1-8.2-5.4c-0.1-0.2,0.1-0.4,0.2-0.4c2-0.6,4.5-1.1,5.4-1.3c0.2,0,0.4,0.1,0.4,0.3
				c0.1,0.6,0.3,1.8,1.4,1.7c1.5-0.1,1.4-2.1,0-3.6c-1.4-1.5-8-5.6-8.8-10.3c-0.7-4,2-7.5,5.9-8c3.8-0.5,6.6,2.7,7.1,5.1
				c0,0.2-0.1,0.4-0.3,0.4l-5.1,1c-0.2,0-0.4-0.1-0.4-0.3c-0.1-0.5-0.2-1.2-0.9-1.1c-0.7,0-1.4,1.5,1.7,3.7s6.5,3.7,7.4,8.7
				C147,156.3,143.9,160.3,140.2,160.8z"/>
			<path class="st16" d="M186.3,143.2c0.1,5.6-2.5,9.2-7.3,9.8c-3.8,0.5-6.9-1.3-8.4-4.4c0.2,4.2,0.4,8.4,0.6,10.5
				c-1.7-0.4-1.7-0.4-1.7-0.4l-1.5-22.3l2-0.3c0,0,0.1,2.2,0.2,5.4c1.1-3.2,3.8-5.8,7.9-6.1C181.8,135.1,186.2,137.6,186.3,143.2z
				 M177.7,138.2c-1.8,0.2-5.9,2.8-5,7c0.9,4.2,2.6,5.1,6,4.7s4.7-3.5,4.4-6.2C182.9,140.9,181.2,137.8,177.7,138.2z"/>
			<path class="st16" d="M212.6,137.1c0.2,1.4-0.7,2.8-2.5,3c-2.2,0.3-2.5-1.6-4.4-1.4c-1.4,0.2-3.2,2.2-4.6,4.1
				c0.6,4.9,1.3,10.8,1.5,12c0.2,2,2.3,2.8,3.6,2.6l0.1,0.6l-10.5,1.3l-0.1-0.8c1.5-0.2,3.4-0.8,3.1-3.2c-0.3-2.4-1.4-11-1.7-13.8
				s-3.7-1.3-3.7-1.3l-0.1-0.5l7-3.8c0,0,0.3,2.5,0.7,5.6c1.7-2.3,5.3-6.4,8.2-6.7C211.3,134.6,212.4,135.6,212.6,137.1z"/>
			<path class="st16" d="M242.2,152c-0.1,0.9-0.6,3.5-3.3,4.2c-2.5,0.7-4.5,0-5.4-1.5c-0.1-0.2-0.4-0.2-0.6,0
				c-1.2,1.6-3.4,3.2-6.3,3.5c-4.5,0.5-6.2-2.9-6.2-5.8c0-3.4,3-5.6,5.3-6.7c2.7-1.3,5.7-2.1,5.8-3.7c0,0,0,0,0-0.1
				c-0.1-0.5-0.1-0.8-0.2-1.2c-0.4-2.4-2.1-2.9-3.9-2.3c-0.9,0.3-2.2,2.2-2.4,3.8c0,0.2-0.2,0.3-0.3,0.3c-0.5,0-1.5,0.1-2.7-0.2
				c-0.2,0-0.3-0.3-0.3-0.5c0.6-1.8,2-4.6,6-5.7c4.6-1.2,7.6,0.3,8.6,5.3c1.1,4.9,1.2,10.5,2.1,11.5c0.9,0.8,1.8-0.2,1.9-1.3
				c0-0.2,0.2-0.3,0.4-0.3l1.2,0.1C242.1,151.7,242.2,151.9,242.2,152z M232.7,151.1c-0.2-1.5-0.4-3.4-0.7-5.2
				c0-0.3-0.3-0.4-0.6-0.2c-0.4,0.3-1,0.7-1.7,1.1c-1.8,1.1-3.6,3.5-3.4,5c0.2,1.5,0.9,2.5,2.9,2.3c1.4-0.2,2.7-1.8,3.4-2.7
				C232.7,151.3,232.8,151.2,232.7,151.1z"/>
			<path class="st16" d="M27.4,176.6c0.2,1.7,0.5,6.1,0.6,7.3c0,0.2-0.1,0.3-0.2,0.4c-1.2,0.4-6.2,1.9-10.8,3.2
				c0.1,1.5,0.1,2.9,0.2,4.1c0.2,5.2,3.2,5.9,5.3,5.5c1.7-0.3,2.5-3.1,2.7-4.1c0-0.2,0.2-0.3,0.4-0.3l1.4,0.4c0.2,0,0.3,0.2,0.3,0.4
				c-0.2,1.1-1.3,4.9-4.7,5.3c-4,0.5-7.1-2.2-7.3-6.7c-0.1-1-0.1-2.5-0.1-4.1c-2.4,0.6-4.4,1.1-5.4,1.1c-0.2,0-0.3-0.1-0.3-0.2
				c-0.6-1.9-1-5.6-1.1-6.6c0-0.2,0.1-0.3,0.2-0.4c1.2-0.4,3.7-1.2,6.4-2c0-1.8-0.1-3.3-0.1-3.9c0-0.1,0.1-0.3,0.2-0.3l0.9-0.3
				c0.2-0.1,0.5,0.1,0.5,0.3c0,0.7,0.1,2,0.2,3.7c4.3-1.3,8.8-2.6,10.3-3C27.2,176.3,27.4,176.4,27.4,176.6z"/>
			<path class="st16" d="M37.9,189.3c-0.2,0-0.3,0.2-0.3,0.4c0.7,5.7,5.5,7.4,8.2,6.7c2.2-0.5,3.4-2.6,3.8-3.5
				c0.1-0.2,0.3-0.3,0.5-0.1l0.7,0.5c0.1,0.1,0.2,0.3,0.1,0.4c-0.4,0.8-1.7,3.2-5.1,4c-4.1,1-8.3-2-9.3-6.8
				c-1-4.8,1.6-10.1,6.7-10.8c5-0.7,7.6,2.3,8,6.2c0,0.2-0.1,0.3-0.3,0.4c-3.4,0.8-11.5,2.3-11.5,2.3L37.9,189.3z M37.6,187.7
				c0,0.2,0.2,0.4,0.4,0.4c2-0.4,6.8-1.4,11.6-2.3c0.2,0,0.3-0.3,0.3-0.5c-1.1-3.3-4.1-4.2-5.9-3.9
				C42.3,181.6,37.9,182.8,37.6,187.7z"/>
			<path class="st16" d="M75.6,189.3c-0.2,0-0.3,0.2-0.3,0.4c0.7,5.7,5.5,7.4,8.2,6.7c2.2-0.5,3.4-2.6,3.8-3.5
				c0.1-0.2,0.3-0.3,0.5-0.1l0.7,0.5c0.1,0.1,0.2,0.3,0.1,0.4c-0.4,0.8-1.7,3.2-5.1,4c-4.1,1-8.3-2-9.3-6.8
				c-1-4.8,1.6-10.1,6.7-10.8c5-0.7,7.6,2.3,8,6.2c0,0.2-0.1,0.3-0.3,0.4c-3.4,0.8-11.5,2.3-11.5,2.3L75.6,189.3z M75.3,187.7
				c0,0.2,0.2,0.4,0.4,0.4c2-0.4,6.8-1.4,11.6-2.3c0.2,0,0.3-0.3,0.3-0.5c-1.1-3.3-4.1-4.2-5.9-3.9C80,181.6,75.7,182.8,75.3,187.7z
				"/>
			<path class="st16" d="M105.9,202.1c-3.6,0.4-7-1-8.2-5.4c-0.1-0.2,0.1-0.4,0.2-0.4c2-0.6,4.5-1.1,5.4-1.3c0.2,0,0.4,0.1,0.4,0.3
				c0.1,0.6,0.3,1.8,1.4,1.7c1.5-0.1,1.4-2.1,0-3.6c-1.4-1.5-8-5.6-8.8-10.3c-0.7-4,2-7.5,5.9-8c3.8-0.5,6.6,2.7,7.1,5.1
				c0,0.2-0.1,0.4-0.3,0.4l-5.1,1c-0.2,0-0.4-0.1-0.4-0.3c-0.1-0.5-0.2-1.2-0.9-1.1c-0.7,0-1.4,1.5,1.7,3.7s6.5,3.7,7.4,8.7
				C112.7,197.6,109.6,201.6,105.9,202.1z"/>
			<path class="st16" d="M131.3,198.8c-6.1,0.8-11.7-3.6-12.4-9.7c-0.8-6.1,3.6-11.7,9.7-12.4l0.3,2.5c-4.7,0.6-8.1,4.9-7.5,9.6
				s4.9,8.1,9.6,7.5L131.3,198.8z"/>
			<path class="st16" d="M140,180.4c0.2,0,0.3,0.1,0.3,0.3c0,1.3,0.2,6.7,0.6,9.6c0.4,3.3,0.8,5.9,3.6,5.6c2.8-0.3,4.1-4.5,3.9-6.2
				c-0.2-1.7-0.2-3.9-0.8-8.8c0-0.2,0.1-0.3,0.2-0.3l1.9-0.3c0.2,0,0.3,0.1,0.3,0.3c0.1,1.3,0.6,6.5,1.2,10.7
				c0.6,4.5,1.2,5.2,2.9,5.5c0.2,0,0.3,0.2,0.2,0.4l-0.5,1.3c0,0.1-0.1,0.1-0.2,0.2c-1.1,0.4-3.4-0.4-4-2.8
				c-0.1-0.2-0.4-0.3-0.5-0.1c-0.9,1.3-2.6,2.9-5.6,3.3c-3.5,0.4-5.3-3.4-5.6-6.8c-0.2-2.9-0.7-9.9-0.7-11.5c0-0.2,0.1-0.3,0.3-0.3
				L140,180.4z"/>
			<path class="st16" d="M177.5,176.6c0.2,1.7,0.5,6.1,0.6,7.3c0,0.2-0.1,0.3-0.2,0.4c-1.2,0.4-6.2,1.9-10.8,3.2
				c0.1,1.5,0.1,2.9,0.2,4.1c0.2,5.2,3.2,5.9,5.3,5.5c1.7-0.3,2.5-3.1,2.7-4.1c0-0.2,0.2-0.3,0.4-0.3l1.4,0.4c0.2,0,0.3,0.2,0.3,0.4
				c-0.2,1.1-1.3,4.9-4.7,5.3c-4,0.5-7.1-2.2-7.3-6.7c-0.1-1-0.1-2.5-0.1-4.1c-2.4,0.6-4.4,1.1-5.4,1.1c-0.2,0-0.3-0.1-0.3-0.2
				c-0.6-1.9-1-5.6-1.1-6.6c0-0.2,0.1-0.3,0.2-0.4c1.2-0.4,3.7-1.2,6.4-2c0-1.8-0.1-3.3-0.1-3.9c0-0.1,0.1-0.3,0.2-0.3l0.9-0.3
				c0.2-0.1,0.5,0.1,0.5,0.3c0,0.7,0.1,2,0.2,3.7c4.3-1.3,8.8-2.6,10.3-3C177.2,176.3,177.4,176.4,177.5,176.6z"/>
			<path class="st16" d="M208.7,193.4c-0.1,0.9-0.6,3.5-3.3,4.2c-2.5,0.7-4.5,0-5.4-1.5c-0.1-0.2-0.4-0.2-0.6,0
				c-1.2,1.6-3.4,3.2-6.3,3.5c-4.5,0.5-6.2-2.9-6.2-5.8c0-3.4,3-5.6,5.3-6.7c2.7-1.3,5.7-2.1,5.7-3.7c0,0,0,0,0-0.1
				c-0.1-0.5-0.1-0.8-0.2-1.2c-0.4-2.4-2.1-2.9-3.9-2.3c-0.9,0.3-2.2,2.2-2.4,3.8c0,0.2-0.2,0.3-0.3,0.3c-0.5,0-1.5,0.1-2.7-0.2
				c-0.2,0-0.3-0.3-0.3-0.5c0.6-1.8,2-4.6,6-5.7c4.6-1.2,7.6,0.3,8.6,5.3c1.1,4.9,1.2,10.5,2.1,11.5c0.9,0.8,1.8-0.2,1.9-1.3
				c0-0.2,0.2-0.3,0.4-0.3l1.2,0.1C208.5,193,208.7,193.2,208.7,193.4z M199.2,192.4c-0.2-1.5-0.4-3.4-0.7-5.2
				c0-0.3-0.3-0.4-0.6-0.2c-0.4,0.3-1,0.7-1.7,1.1c-1.8,1.1-3.6,3.5-3.4,5c0.2,1.5,0.9,2.5,2.9,2.3c1.4-0.2,2.7-1.8,3.4-2.7
				C199.2,192.6,199.2,192.5,199.2,192.4z"/>
			<path class="st16" d="M232.2,178.4c0.2,1.4-0.7,2.8-2.5,3c-2.2,0.3-2.5-1.6-4.4-1.4c-1.4,0.2-3.2,2.2-4.6,4.1
				c0.6,4.9,1.3,10.8,1.5,12c0.2,2,2.3,2.8,3.6,2.6l0.1,0.6l-10.5,1.3l-0.1-0.8c1.5-0.2,3.4-0.8,3.1-3.2c-0.3-2.4-1.4-11-1.7-13.8
				s-3.7-1.3-3.7-1.3l-0.1-0.5l7-3.8c0,0,0.3,2.5,0.7,5.6c1.7-2.3,5.3-6.4,8.2-6.7C230.9,175.9,232,177,232.2,178.4z"/>
		</g>
		<g>
			<path class="st1" d="M138.3,49.4c1.3,10.2-5.8,16.7-16.9,18.1c-11.1,1.4-18-2.1-18-2.1l-1.1-8.4l0.3,0c1,2.4,9.6,11.2,18.7,10.1
				c7.4-0.9,13.1-6.3,11.8-17.1c-1.3-10.3-8.1-14.5-17.4-13.4l8.9-14.8l-9.5,1.2c-4.9,0.6-11.9,4.8-14.2,10l-0.3,0l2-8.8l28.6-3.5
				l-9.3,15.4c7.6,0.2,14.9,4,16.3,12.5C138.2,49,138.3,49.2,138.3,49.4z"/>
		</g>
	</g>
</g>
<g id="Layer_4">
</g>
<g id="Layer_3">
</g>
<g id="Layer_5">
</g>
<g id="default_x5F_grid" class="st102">
</g>
</svg>
