<?xml version="1.0" encoding="utf-8"?>
<!-- Generator: Adobe Illustrator 27.6.1, SVG Export Plug-In . SVG Version: 6.00 Build 0)  -->
<svg version="1.1" xmlns="http://www.w3.org/2000/svg" xmlns:xlink="http://www.w3.org/1999/xlink" x="0px" y="0px"
	 viewBox="0 0 94.8 122.8" style="enable-background:new 0 0 94.8 122.8;" xml:space="preserve">
<style type="text/css">
	.st0{fill:#FFD4F0;}
	.st1{fill:#E93032;}
	.st2{opacity:0.4984;}
	.st3{fill:#0033CC;}
	.st4{fill:#FFFFFF;}
	.st5{fill:#6380C5;}
	.st6{fill:#333333;}
	.st7{fill:#FFDD67;}
	.st8{fill:#664E27;}
	.st9{fill:#917524;}
	.st10{fill:none;stroke:#0033CB;stroke-width:34.4361;stroke-linecap:round;stroke-miterlimit:10;stroke-dasharray:0,65.5242,0,0;}
	.st11{opacity:0.5;enable-background:new    ;}
	.st12{fill:#494949;}
	.st13{fill:#EA3032;}
	.st14{fill:none;stroke:#FFFFFF;stroke-width:1.0081;stroke-miterlimit:10;}
	.st15{fill:#0033CB;}
	.st16{fill:#E93032;stroke:#E93032;stroke-width:0.4783;stroke-miterlimit:10;}
	.st17{clip-path:url(#SVGID_00000134937447745654585830000014274877262174112695_);}
	.st18{opacity:0.36;fill:#E93032;}
	.st19{fill:none;stroke:#FFD4F0;stroke-width:5.0782;stroke-miterlimit:10;}
	.st20{enable-background:new    ;}
	.st21{clip-path:url(#SVGID_00000158724740828308383610000004256878866106134152_);}
	.st22{clip-path:url(#SVGID_00000036238096471000457730000014746445147436679851_);}
	.st23{clip-path:url(#SVGID_00000150062504943631434760000014574934004849351325_);fill:#E93032;}
	.st24{clip-path:url(#SVGID_00000036209657655651591950000012969499629949190071_);}
	.st25{clip-path:url(#SVGID_00000152950194309511117300000000282081182840637874_);}
	.st26{clip-path:url(#SVGID_00000064323370222666350160000018111976374447354289_);fill:#E93032;}
	.st27{clip-path:url(#SVGID_00000071553351030318152210000014829400266483809471_);}
	.st28{clip-path:url(#SVGID_00000022531932984107229860000015247558637433259676_);}
	.st29{clip-path:url(#SVGID_00000093866841404587906860000017623970846398219170_);}
	.st30{clip-path:url(#SVGID_00000173864357719774492400000006902894469693933234_);fill:#0033CC;}
	.st31{clip-path:url(#SVGID_00000173864357719774492400000006902894469693933234_);fill:#FFD4F0;}
	.st32{clip-path:url(#SVGID_00000048476242207817837680000007643959233368908202_);}
	.st33{clip-path:url(#SVGID_00000080182223224068022340000009307339020341874853_);}
	.st34{clip-path:url(#SVGID_00000110467963736293678970000017489921339850975112_);fill:#E93032;}
	.st35{clip-path:url(#SVGID_00000008829533092876433240000004224579421983258292_);}
	.st36{clip-path:url(#SVGID_00000007413462530950425700000000295342036933830294_);}
	.st37{clip-path:url(#SVGID_00000150064039778902063770000001974073148216422331_);fill:#E93032;}
	.st38{clip-path:url(#SVGID_00000023260813490543122620000015091249109709277827_);}
	.st39{clip-path:url(#SVGID_00000109025562265674322140000003530801205187480726_);}
	.st40{clip-path:url(#SVGID_00000106843055504286394590000006537831687072801168_);fill:#E93032;}
	.st41{clip-path:url(#SVGID_00000080169751516576947580000013507715553500861592_);}
	.st42{clip-path:url(#SVGID_00000011018270253940450360000006659140621025205685_);}
	.st43{clip-path:url(#SVGID_00000076582580516517259870000016303269435721461428_);fill:#E93032;}
	.st44{clip-path:url(#SVGID_00000003083071779590396180000001127402995620948910_);}
	.st45{clip-path:url(#SVGID_00000111884121873979053690000002102985976914547072_);}
	.st46{clip-path:url(#SVGID_00000100373843925502978000000006569412108140956561_);fill:#E93032;}
	.st47{clip-path:url(#SVGID_00000106838280952996623940000009965357364850876817_);}
	.st48{clip-path:url(#SVGID_00000181781263387895735000000013208525760454240953_);}
	.st49{clip-path:url(#SVGID_00000060028587876690170530000000819988437036510851_);fill:#E93032;}
	.st50{clip-path:url(#SVGID_00000162337936539810743290000016446423962695902095_);}
	.st51{clip-path:url(#SVGID_00000176725546258717295570000007810362353357510030_);}
	.st52{clip-path:url(#SVGID_00000060016332439386187330000002184172911552202137_);fill:#E93032;}
	.st53{clip-path:url(#SVGID_00000072989789173318373850000003969172173091532976_);}
	.st54{clip-path:url(#SVGID_00000082351133136547360130000005173685682869632406_);}
	.st55{clip-path:url(#SVGID_00000093861451255570377960000013788397967855418521_);fill:#E93032;}
	.st56{clip-path:url(#SVGID_00000158709648274947827410000017729928815682702507_);}
	.st57{clip-path:url(#SVGID_00000054229557861439840630000015374691205192888495_);}
	.st58{fill:none;stroke:#FFD4F0;stroke-width:1.019;stroke-miterlimit:10;}
	.st59{clip-path:url(#SVGID_00000136378644867578499720000011915264890138470813_);}
	.st60{clip-path:url(#SVGID_00000102529474620247694240000011085871386821505189_);}
	.st61{clip-path:url(#SVGID_00000041256536422347141210000001249273149435561369_);fill:#E93032;}
	.st62{clip-path:url(#SVGID_00000058570417248093587590000015597790677477200011_);}
	.st63{clip-path:url(#SVGID_00000168082719113519423930000006342130446735738030_);}
	.st64{clip-path:url(#SVGID_00000039101178309540299550000004137029436947641022_);fill:#E93032;}
	.st65{clip-path:url(#SVGID_00000070798509345865908630000017963571085764350908_);}
	.st66{clip-path:url(#SVGID_00000178886640515466995090000006610815262091745153_);}
	.st67{clip-path:url(#SVGID_00000162342973218212258710000000287167029151223945_);}
	.st68{clip-path:url(#SVGID_00000171683409660260105950000010416241578921846438_);fill:#0033CC;}
	.st69{clip-path:url(#SVGID_00000171683409660260105950000010416241578921846438_);fill:#FFD4F0;}
	.st70{clip-path:url(#SVGID_00000064336479920683644270000014072973895286378892_);}
	.st71{clip-path:url(#SVGID_00000044137756160191070020000008414490916529115285_);}
	.st72{clip-path:url(#SVGID_00000026881330060091201260000014123658432013125794_);fill:#E93032;}
	.st73{clip-path:url(#SVGID_00000068653436376290659370000001069204360718572685_);}
	.st74{clip-path:url(#SVGID_00000182527728684007402180000004736040649266836142_);}
	.st75{clip-path:url(#SVGID_00000052066672722476871400000015116225915427906477_);fill:#E93032;}
	.st76{clip-path:url(#SVGID_00000150099144022242618260000002286449065908169869_);}
	.st77{clip-path:url(#SVGID_00000000914458606611722030000016456814195594031792_);}
	.st78{clip-path:url(#SVGID_00000125585446958905341880000007105296284714018954_);fill:#E93032;}
	.st79{clip-path:url(#SVGID_00000011012988121447361690000003650337860822698430_);}
	.st80{clip-path:url(#SVGID_00000116916275722084793600000013707867222935446716_);}
	.st81{clip-path:url(#SVGID_00000145025020145638376190000007474724356791594138_);fill:#E93032;}
	.st82{clip-path:url(#SVGID_00000044148224316546891920000006162214008937198763_);}
	.st83{clip-path:url(#SVGID_00000012447607716962996980000006462146185564262791_);}
	.st84{clip-path:url(#SVGID_00000052094598638451973620000007181699911027451030_);fill:#E93032;}
	.st85{clip-path:url(#SVGID_00000119107819998195282460000008000829479251062920_);}
	.st86{clip-path:url(#SVGID_00000003812940702712899470000012780342648372470410_);}
	.st87{clip-path:url(#SVGID_00000001631333070515433320000016077772819462449580_);fill:#E93032;}
	.st88{clip-path:url(#SVGID_00000145017520593063560590000000325319887548244895_);}
	.st89{clip-path:url(#SVGID_00000124877609742961786830000016476866095752094352_);}
	.st90{clip-path:url(#SVGID_00000137842950822794152370000009252943411133115581_);fill:#E93032;}
	.st91{clip-path:url(#SVGID_00000158738501299295470160000018016387169386917261_);}
	.st92{clip-path:url(#SVGID_00000078030276376187192160000013574296272943644821_);}
	.st93{clip-path:url(#SVGID_00000062166513780278299770000010353367808471874480_);fill:#E93032;}
	.st94{clip-path:url(#SVGID_00000082353386989182157460000011642968001096365220_);}
	.st95{fill:#606060;}
	.st96{clip-path:url(#SVGID_00000009556363265782332220000009536468480028651910_);}
	.st97{clip-path:url(#SVGID_00000075872306490124330500000011155833406374261130_);}
	.st98{opacity:0.84;fill:#E93032;}
	.st99{opacity:0.84;}
	.st100{clip-path:url(#SVGID_00000074433852724378229400000005444456526033348281_);}
	.st101{clip-path:url(#SVGID_00000118397131406708033740000002108258489102773378_);}
	.st102{display:none;}
	.st103{display:inline;fill:#FFEFD9;}
	.st104{display:inline;opacity:0.46;fill:#FFEFD9;}
	.st105{display:inline;opacity:0.36;}
	.st106{opacity:0.36;}
</style>
<g id="artwork">
	<g>
		<g>
			<g id="BQV1KC_00000036935509761792646970000018238457487820198819_">
				<path class="st4" d="M77.7,57.2c-0.4,0.3-0.4,0.4-0.1,0.6C77.6,57.5,77.6,57.4,77.7,57.2z M83.9,45.4c0.1-0.2,0.1-0.3,0.2-0.6
					C83.7,45.1,83.7,45.1,83.9,45.4z M17.3,87.8c0.4-0.2,0.4-0.2,0.2-0.5C17.4,87.4,17.4,87.6,17.3,87.8z M48.3,74.4
					c-0.1,0-0.1,0-0.2-0.1c0,0.1-0.1,0.3-0.1,0.4c0,0,0.1,0,0.1,0.1C48.2,74.7,48.2,74.6,48.3,74.4z M46,32.5c0,0,0,0.1,0,0.1
					c0.1,0,0.3,0,0.4-0.1c0-0.1,0-0.1,0-0.2C46.2,32.4,46.1,32.4,46,32.5z M37.5,71.7c0.1,0,0.1,0.1,0.1,0.1c0,0,0.1-0.1,0.1-0.1
					c0,0-0.1-0.1-0.1-0.1C37.6,71.6,37.6,71.6,37.5,71.7z M27.8,68.2C27.8,68.3,27.8,68.3,27.8,68.2c0.1,0.1,0.1,0.1,0.2,0
					C27.9,68.2,27.9,68.2,27.8,68.2C27.9,68.2,27.8,68.2,27.8,68.2z M32.1,59.4c0,0.1,0.1,0.1,0.1,0.1c0,0,0.1-0.1,0.1-0.1
					C32.3,59.4,32.2,59.3,32.1,59.4C32.2,59.3,32.2,59.4,32.1,59.4z M38,89.7c0,0,0,0.1,0.1,0.1c0,0,0.1-0.1,0.1-0.1
					C38.2,89.7,38.1,89.7,38,89.7C38.1,89.7,38,89.7,38,89.7z M40.3,85.8C40.4,85.8,40.4,85.8,40.3,85.8
					C40.4,85.7,40.3,85.7,40.3,85.8C40.3,85.7,40.3,85.8,40.3,85.8C40.3,85.8,40.3,85.8,40.3,85.8z M21.5,99.3
					C21.5,99.3,21.5,99.3,21.5,99.3C21.5,99.3,21.5,99.3,21.5,99.3C21.5,99.3,21.5,99.3,21.5,99.3C21.5,99.3,21.5,99.3,21.5,99.3z
					 M32.1,40.8C32.1,40.8,32.1,40.9,32.1,40.8C32.1,40.9,32.1,40.9,32.1,40.8C32.2,40.9,32.2,40.9,32.1,40.8
					C32.2,40.8,32.1,40.8,32.1,40.8z M31.4,91.4C31.3,91.4,31.3,91.4,31.4,91.4C31.3,91.4,31.3,91.4,31.4,91.4
					C31.3,91.4,31.3,91.5,31.4,91.4C31.3,91.4,31.4,91.4,31.4,91.4z"/>
				<path class="st4" d="M38.4,91c-0.1,0-0.2,0-0.3-0.1c-0.2-0.3-0.1-0.6,0.1-0.9c0.5-0.9,1-1.8,1.6-2.8c0.1-0.1,0.1-0.3,0.2-0.4
					c0-0.1,0.1-0.1,0.1-0.2c0.1-0.1,0.1-0.2,0.2-0.4c0.3-0.5,0.6-1,0.9-1.4c0,0,0-0.1,0.1-0.1c0,0,0-0.1,0.1-0.1c0,0,0-0.1,0.1-0.1
					c0,0,0,0,0-0.1c0-0.1,0.1-0.1,0.1-0.2c0.1-0.2,0.2-0.4,0.3-0.5c0-0.1,0.1-0.1,0.1-0.2c0.3-0.5,0.6-1,0.9-1.5
					c0.1-0.2,0.2-0.3,0.3-0.5c0.4-0.7,0.8-1.4,1.2-2.1c0.2-0.4,0.4-0.8,0.6-1.1c0,0,0,0,0-0.1c0.2-0.4,0.5-0.8,0.7-1.3
					c0-0.1,0.1-0.1,0.1-0.2c0,0,0,0,0-0.1c0,0,0.1-0.1,0.1-0.1c0-0.1,0.1-0.2,0.1-0.2c0-0.1,0.1-0.2,0.1-0.2
					c0.1-0.1,0.1-0.2,0.2-0.3c0,0,0-0.1,0.1-0.1c0.4-0.7,0.7-1.4,1.1-2.1c0-0.1,0.1-0.2,0.1-0.3c0.1-0.1,0.1-0.2,0.2-0.3
					c0,0,0-0.1,0.1-0.1c0.1-0.2,0.2-0.4,0.3-0.6c0.2-0.3,0.5-0.5,0.7-0.4c0.2,0.2,0.2,0.5,0,0.8c-0.3,0.7-0.7,1.4-1,2.1
					c-0.1,0.1-0.2,0.2-0.2,0.4c-0.1,0.2-0.2,0.3-0.3,0.5c-0.1,0.1-0.1,0.2-0.2,0.3c-0.1,0.2-0.1,0.3-0.2,0.5c-0.4,0.7-0.7,1.4-1.1,2
					c-0.2,0.4-0.5,0.8-0.7,1.3c-0.3,0.5-0.6,1-0.9,1.5c0,0,0,0.1-0.1,0.1c-0.1,0.1-0.2,0.3-0.2,0.4c0,0,0,0.1-0.1,0.1
					c0,0,0,0.1-0.1,0.1c0,0.1-0.1,0.1-0.1,0.2c0,0,0,0.1,0,0.1c0,0,0,0.1-0.1,0.1c-0.1,0.2-0.2,0.4-0.3,0.6
					c-0.1,0.2-0.2,0.3-0.2,0.5c-0.3,0.4-0.5,0.9-0.8,1.3c-0.7,1.2-1.4,2.3-2,3.5c-0.3,0.6-0.6,1.2-0.9,1.8c-0.1,0.1-0.2,0.3-0.3,0.4
					c0,0,0,0,0,0c0,0,0,0.1-0.1,0.1C38.7,90.8,38.5,90.9,38.4,91z"/>
				<path class="st4" d="M28.6,87.7C28.6,87.7,28.6,87.7,28.6,87.7c-0.1-0.1-0.2-0.1-0.2-0.2c0-0.1,0-0.1-0.1-0.2
					c0.1-0.3,0.1-0.5,0.2-0.8c0,0,0-0.1,0.1-0.1c0,0,0,0,0,0c0.1-0.1,0.2-0.3,0.3-0.4c0.1-0.1,0.1-0.2,0.2-0.4c0,0,0-0.1,0-0.1
					c0.1-0.2,0.2-0.5,0.4-0.7c0,0,0-0.1,0.1-0.1c0,0,0,0,0,0c0.1-0.2,0.3-0.5,0.4-0.7c0-0.1,0.1-0.2,0.1-0.3c0-0.1,0.1-0.1,0.1-0.2
					c0.3-0.7,0.7-1.3,1-2c0.2-0.3,0.3-0.6,0.5-0.9c0.1-0.1,0.1-0.2,0.2-0.3c0.6-1.1,1.1-2.1,1.7-3.2c0,0,0-0.1,0.1-0.1
					c0-0.1,0.1-0.1,0.1-0.2c0-0.1,0.1-0.1,0.1-0.2c0.1-0.2,0.2-0.5,0.4-0.7c0,0,0-0.1,0.1-0.1c0.3-0.5,0.6-1.1,0.9-1.6
					c0.1-0.2,0.2-0.4,0.3-0.7c0,0,0-0.1,0-0.1l0,0c0.1-0.1,0.2-0.3,0.3-0.4c0-0.1,0.1-0.2,0.1-0.2l0,0c0,0,0,0,0,0
					c0.1-0.2,0.2-0.3,0.3-0.5c0,0,0-0.1,0-0.1c0.1-0.1,0.1-0.2,0.2-0.4c0.4-0.9,0.9-1.8,1.3-2.6c0.1-0.2,0.5-0.5,0.6-0.3
					c0.1,0.2,0.2,0.6,0.1,0.7c-0.3,0.6-0.6,1.1-0.9,1.7c0,0.1-0.1,0.2-0.1,0.3c0,0,0,0.1-0.1,0.1c0,0,0,0.1-0.1,0.1
					c0,0.1-0.1,0.1-0.1,0.2c-0.1,0.1-0.1,0.2-0.2,0.3c0,0,0,0.1-0.1,0.1c-1.1,2.1-2.2,4.1-3.2,6.2c0,0.1-0.1,0.2-0.1,0.3
					c-0.5,1-1,1.9-1.5,2.9c0,0.1-0.1,0.2-0.1,0.3c-0.4,0.8-0.9,1.6-1.3,2.4c0,0,0,0.1-0.1,0.1c-0.1,0.2-0.2,0.4-0.3,0.6
					c-0.1,0.2-0.2,0.4-0.3,0.7c0,0.1-0.1,0.1-0.1,0.2c0,0.1-0.1,0.1-0.1,0.2c-0.2,0.3-0.3,0.7-0.5,1C29,87.5,28.8,87.6,28.6,87.7z"
					/>
				<path class="st4" d="M49.5,92.8c-0.1,0-0.1,0-0.2,0c0-0.1-0.1-0.1-0.1-0.2c0,0,0-0.1-0.1-0.1c0-0.1,0-0.2,0-0.3c0,0,0-0.1,0-0.1
					c0,0,0-0.1,0.1-0.1c0-0.1,0.1-0.1,0.1-0.2c0,0,0,0,0,0s0,0,0,0c0-0.1,0-0.1,0.1-0.2c0.2-0.4,0.5-0.7,0.7-1.1
					c0.1-0.1,0.1-0.2,0.2-0.3c0.9-1.6,1.8-3.2,2.7-4.9c1.6-3.1,3.1-6.2,4.7-9.2c0.1-0.1,0.1-0.2,0.2-0.3c0.1-0.3,0.3-0.4,0.5-0.2
					c0.3,0.2,0.2,0.4,0.1,0.7c-0.6,1.2-1.2,2.3-1.7,3.5c-1.9,3.8-3.9,7.6-6,11.3c-0.2,0.3-0.3,0.5-0.5,0.8c0,0.1-0.1,0.1-0.1,0.2
					c-0.1,0.1-0.2,0.3-0.3,0.4c0,0,0,0,0,0.1c0,0,0,0,0,0c0,0,0,0,0,0.1C49.6,92.7,49.5,92.8,49.5,92.8z"/>
				<path class="st4" d="M15.7,50.4c0.1-0.5,0.3-0.4,0.6-0.3c0.1,0.3,0.3,0.7,0.4,1c0.1,0.4,0.2,0.9,0.3,1.3c0,0.1,0,0.3,0,0.4
					c-0.1,0.4-0.3,0.7-0.4,1.1c-0.1,0.2-0.3,0.5-0.4,0.7c-0.1,0.1-0.2,0.2-0.3,0.3c0,0-0.1,0.1-0.1,0.1c0,0,0,0,0,0
					c0,0-0.1,0.1-0.1,0.1c-0.1,0.1-0.2,0.2-0.3,0.3c0,0,0,0-0.1,0c-0.3,0.2-0.7,0.5-1,0.7c-0.1,0.1-0.2,0.1-0.3,0.2
					c-0.2,0.1-0.5,0.3-0.7,0.4c0,0-0.1,0-0.1,0.1c-0.2,0.1-0.5,0.2-0.7,0.3c-0.1,0-0.3,0.1-0.4,0.1c-0.8,0.2-1.5,0.4-2.3,0.6
					c-0.1,0-0.1,0.1-0.2,0.1c-0.2,0-0.4,0-0.6,0.1c-0.2-0.2-0.2-0.4,0-0.7c0.1,0,0.2,0,0.3-0.1c0.2,0,0.3-0.1,0.5-0.1
					c0.1,0,0.1,0,0.2-0.1c0.1,0,0.2-0.1,0.4-0.1c0.1,0,0.2-0.1,0.3-0.1c0,0,0.1,0,0.1,0c0.1,0,0.3-0.1,0.4-0.1
					c0.3-0.1,0.5-0.2,0.8-0.3c0.1,0,0.2-0.1,0.3-0.1c0,0,0.1,0,0.1-0.1c0.1,0,0.2-0.1,0.4-0.1c0.1-0.1,0.3-0.1,0.4-0.2
					c0,0,0.1,0,0.1,0c0.1-0.1,0.2-0.1,0.3-0.2c0,0,0.1,0,0.1,0c0.1-0.1,0.2-0.1,0.3-0.2c0.2-0.1,0.4-0.2,0.6-0.3
					c0.1,0,0.1-0.1,0.2-0.1c0.1-0.1,0.2-0.2,0.3-0.2c0.1-0.1,0.1-0.1,0.2-0.2c0.2-0.2,0.4-0.3,0.5-0.5c0.3-0.4,0.5-0.7,0.8-1.1
					c0,0,0,0,0-0.1c0.1-0.3,0.1-0.6,0.2-0.8c0-0.1,0-0.2,0-0.3c0,0,0-0.1-0.1-0.1c0-0.1-0.1-0.2-0.1-0.3c0-0.1,0-0.1,0-0.2
					c0-0.1-0.1-0.3-0.1-0.4c0-0.1-0.1-0.2-0.1-0.3c0-0.1,0-0.1,0-0.2c0,0,0-0.1-0.1-0.1C15.8,50.6,15.7,50.5,15.7,50.4z"/>
				<path class="st4" d="M50,92.1c0-0.1,0.1-0.1,0.1-0.2C50.1,92,50.1,92.1,50,92.1z"/>
				<path class="st4" d="M49.4,91.7c0,0.1,0,0.1-0.1,0.2C49.3,91.9,49.4,91.8,49.4,91.7z"/>
				<path class="st4" d="M49.7,92.6C49.7,92.6,49.8,92.6,49.7,92.6C49.8,92.6,49.7,92.6,49.7,92.6z"/>
				<path class="st4" d="M49.1,92.6C49.1,92.6,49.1,92.6,49.1,92.6C49.1,92.6,49.1,92.6,49.1,92.6C49.1,92.6,49.1,92.6,49.1,92.6
					L49.1,92.6L49.1,92.6z"/>
				<path class="st4" d="M49.7,92.7C49.7,92.7,49.7,92.7,49.7,92.7C49.7,92.7,49.7,92.7,49.7,92.7z"/>
				<path class="st4" d="M8.6,57.5c-0.1,0-0.1,0-0.2,0c0-0.1,0-0.2,0-0.3c0-0.1,0-0.1,0.1-0.2c0,0,0,0,0-0.1
					c0.2-0.1,0.3-0.2,0.5-0.4c0,0,0-0.1,0-0.1c-0.1,0-0.2-0.1-0.3-0.1c0.1-0.1,0.1-0.2,0.2-0.4c0.2,0,0.6,0.3,0.6-0.3
					c0-0.2,0-0.5,0-0.7c0,0,0.1-0.1,0.1-0.1c0.1,0.1,0.2,0.3,0.2,0.4c0.1-0.2,0.1-0.5,0.3-0.6c0.2-0.1,0.2-0.3,0.1-0.5
					c0,0,0,0,0.1-0.1c0,0,0.1-0.1,0.1-0.1c0.1-0.1,0.2-0.2,0.3-0.3c0.1,0.3,0.3,0.2,0.5,0c0.1-0.2,0.1-0.4,0.2-0.6
					c0.1-0.1,0.3-0.2,0.4-0.3c0.2,0.2,0.5,0.2,0.7,0c-0.1-0.1-0.2-0.2-0.3-0.2c0,0,0,0,0,0c0,0,0.1-0.1,0.1-0.1
					c0.1,0,0.1-0.1,0.2-0.1c0,0,0.1-0.1,0.1-0.1c0,0,0,0,0.1,0c0,0,0.1,0,0.1-0.1c0,0,0.1-0.1,0.1-0.1c0.1,0,0.2,0.1,0.3,0.1
					c0.1,0,0.3,0,0.5,0c0-0.2-0.1-0.3-0.1-0.5c0.2-0.1,0.3-0.2,0.5-0.3c0,0,0.1-0.1,0.1-0.1c0.1,0,0.1-0.1,0.2-0.1
					c0.1,0.1,0.1,0.2,0.2,0.3c0.1-0.3,0.2-0.5,0.3-0.6c0,0,0.1-0.1,0.1-0.1c0,0,0.1,0,0.1-0.1c0,0,0.1,0,0.1,0c0,0,0.1-0.1,0.1-0.1
					c0.1,0,0.1-0.1,0.2-0.1c0.1,0,0.1-0.1,0.2-0.1c0,0,0,0,0.1,0c0.1,0.1,0.2,0.2,0.3,0.3c0,0.1,0,0.2,0.1,0.2c0,0,0,0.1,0.1,0.1
					c0,0.1,0,0.1,0,0.2c-0.1,0.2-0.1,0.3,0.1,0.3c0,0.1,0.1,0.3,0.1,0.4c0,0.1,0,0.1,0,0.2c0,0.1,0.1,0.2,0.1,0.3c0,0,0,0.1,0.1,0.1
					c0,0.1,0,0.2,0,0.3c-0.1,0-0.1,0-0.2,0c0,0,0,0,0,0c0-0.1-0.1-0.1-0.1-0.2c0,0,0,0-0.1,0c0,0.1,0.1,0.1,0.1,0.2
					c0,0.3,0,0.5,0,0.8c0,0,0,0,0,0.1c-0.1,0-0.2,0-0.3-0.1c0,0,0,0.1,0.1,0.1c-0.2,0.3-0.4,0.5-0.7,0.8c0,0.1,0.1,0.2,0.1,0.2
					c-0.2,0.2-0.4,0.3-0.5,0.5c-0.2-0.2-0.2,0-0.2,0.2c-0.1,0.1-0.2,0.2-0.3,0.2c0-0.1-0.1-0.1-0.1-0.2c0,0.1,0,0.2-0.1,0.3
					c-0.2,0.1-0.4,0.2-0.6,0.3c-0.1,0.1-0.2,0.1-0.3,0.2c0,0-0.1,0-0.1,0c-0.1,0.1-0.2,0.1-0.3,0.2c0,0-0.1,0-0.1,0
					c-0.1,0.1-0.4-0.2-0.4,0.2c-0.1,0-0.2,0.1-0.4,0.1c0,0-0.1,0-0.1,0.1c-0.1,0-0.2,0.1-0.3,0.1c-0.3-0.2-0.6-0.1-0.8,0.3
					c-0.1,0-0.3,0.1-0.4,0.1c0,0,0-0.1-0.1-0.1c0,0,0,0.1-0.1,0.1c-0.1,0-0.2,0.1-0.3,0.1c-0.1-0.1-0.1-0.2-0.3-0.4
					c0,0.2-0.1,0.3-0.1,0.4c-0.1,0-0.1,0-0.2,0.1c-0.2-0.3-0.3-0.3-0.5,0.1C8.8,57.5,8.7,57.5,8.6,57.5z M12.3,55.9
					c0,0.1,0,0.1,0,0.2c0.1,0,0.2,0,0.3-0.1c0,0,0-0.1,0-0.1C12.5,55.9,12.4,55.9,12.3,55.9z M9.6,56.7C9.6,56.7,9.5,56.7,9.6,56.7
					C9.5,56.7,9.5,56.7,9.6,56.7C9.5,56.8,9.5,56.8,9.6,56.7C9.6,56.8,9.6,56.7,9.6,56.7z M11.5,53.6C11.5,53.5,11.5,53.5,11.5,53.6
					C11.5,53.5,11.5,53.5,11.5,53.6C11.4,53.5,11.4,53.5,11.5,53.6C11.4,53.5,11.5,53.5,11.5,53.6z"/>
			</g>
			<g id="BQV1KC_00000084507137880520955290000003435008943312544906_">
				<g>
					<path class="st3" d="M22.7,96.2C22.7,96.2,22.7,96.2,22.7,96.2c-0.1,0.1-0.1,0.2-0.2,0.2c0,0,0,0.1-0.1,0.1
						c-0.1,0.1-0.2,0.3-0.3,0.4c0,0,0,0.1-0.1,0.1c-0.1,0.1-0.2,0.3-0.3,0.4c0,0,0,0-0.1-0.1c0,0,0,0,0.1,0.1c0,0.1,0,0.1-0.1,0.2
						c0,0.1-0.1,0.1-0.1,0.2c-0.1,0.2-0.2,0.4-0.3,0.5c0,0,0,0.1-0.1,0.1c-0.1,0.1-0.1,0.2-0.2,0.3c0,0-0.1,0.1-0.1,0.1c0,0,0,0,0,0
						c0,0.1-0.1,0.2-0.1,0.3c-0.2,0.3-0.3,0.5-0.5,0.8c-0.2,0-0.3,0.2-0.3,0.4c0,0,0,0,0,0c-0.1,0-0.1,0-0.2,0.1c0,0,0,0.1,0.1,0.1
						c0,0,0,0.1-0.1,0.1c0,0.1-0.1,0.1-0.1,0.2c0,0,0,0-0.1,0.1c-0.4,0.1-0.4,0.1-0.3,0.4c-0.1,0.1-0.1,0.2-0.2,0.2
						c0,0,0,0.1-0.1,0.1c0,0,0,0.1-0.1,0.1c0,0.1-0.1,0.1-0.1,0.2c-0.1,0.1-0.1,0.1-0.2,0.2c0,0.1-0.1,0.1-0.1,0.2l0,0
						c-0.1,0.1-0.1,0.2-0.2,0.3c-0.2,0.3-0.4,0.6-0.6,0.8c-0.4,0.5-0.8,1-1.3,1.6c0-0.4,0.1-0.8-0.3-1.1c0.4-0.9,0.6-1.9,0.1-2.8
						c0,0-0.1-0.1-0.1-0.1l0,0c0.1-0.4-0.1-0.4-0.3-0.4c0,0,0,0,0,0c0-0.2,0-0.3-0.2-0.3c-0.1-0.1-0.2-0.2-0.3-0.3
						c-0.3-0.3-0.7-0.5-1.1-0.8c0,0,0.1-0.1,0.1-0.1c0,0,0,0,0,0c0,0.1,0,0.1-0.1,0.2c-0.1,0-0.2-0.1-0.3-0.1
						c-0.3-0.1-0.7-0.2-1-0.1c-0.4,0.1-0.8,0.4-1,0.9c-0.3,0.6-0.7,1.1-1,1.7c0,0-0.1-0.1-0.1-0.1c0,0.1,0,0.2,0,0.3l0,0
						c-0.3,0.1-0.5,0.2-0.8,0.2c0.1-0.2,0.1-0.5,0.2-0.7c0,0,0,0,0-0.1c0.1-0.1,0.1-0.2,0.2-0.3c0.2-0.5,0.3-1,0.5-1.5
						c0.4-0.9,0.7-1.9,1.1-2.8c0-0.1,0-0.1,0.1-0.2c0.3-0.8,0.6-1.6,0.9-2.3c0-0.1,0-0.1,0.1-0.2c0.4-0.6,0.6-1.4,0.9-2.1
						c0,0,0-0.1,0-0.1c0.1-0.1,0.1-0.2,0.2-0.3c0.5-1,0.9-1.9,1.4-2.9c0,0,0-0.1,0.1-0.1l0,0c0.3-0.1,0.3-0.1,0.2-0.3c0,0,0,0,0,0
						c0-0.1,0.1-0.1,0.1-0.2c0.1-0.3,0.3-0.6,0.4-0.9c0,0,0-0.1,0.1-0.1c0-0.1,0.1-0.1,0.1-0.2c0.1-0.3,0.3-0.6,0.4-0.9
						c0-0.1,0.1-0.1,0.1-0.2c0.1-0.3,0.3-0.7,0.4-1c0,0,0-0.1,0.1-0.1c0.1-0.1,0.1-0.1,0.2-0.2c0.2-0.4,0.4-0.8,0.6-1.2
						c0.1,0,0.2,0,0.3,0c0-0.1-0.1-0.2-0.1-0.3c0.3-0.6,0.6-1.2,0.9-1.8c0,0,0,0,0-0.1c0.2-0.3,0.4-0.7,0.6-1c0.2,0,0.2-0.2,0.2-0.4
						c0,0,0.1-0.1,0.1-0.1c0.3,0,0.3-0.3,0.3-0.5c0,0,0-0.1,0.1-0.1c0,0,0-0.1,0.1-0.1c0.1-0.1,0.2-0.3,0.3-0.4
						c0.3-0.5,0.5-1,0.8-1.5c0.1-0.1,0.1-0.1,0.2-0.2c0.1-0.2,0.3-0.4,0.4-0.6c0-0.1,0.1-0.1,0.1-0.2c0-0.1,0.1-0.2,0.1-0.3
						c0-0.1,0.1-0.1,0.1-0.2c0.1-0.1,0.2-0.3,0.2-0.4c0,0,0-0.1,0.1-0.1c0,0,0,0,0,0c0-0.1,0.1-0.2,0.1-0.3c0.2-0.5,0.5-0.9,0.7-1.4
						c0,0,0-0.1,0.1-0.1c0,0,0.1-0.1,0.1-0.1c0,0,0-0.1,0.1-0.1l0,0c0.1,0,0.1,0,0.2-0.1c0,0-0.1-0.1-0.1-0.1
						c0.1-0.1,0.1-0.2,0.2-0.3c0-0.1,0.1-0.1,0.1-0.2c0-0.1,0.1-0.2,0.1-0.3c0.3,0,0.3-0.2,0.2-0.5c0-0.1,0.1-0.1,0.1-0.2
						c0.1-0.1,0.1-0.2,0.2-0.3c0.2-0.5,0.5-0.9,0.7-1.4c0-0.1,0.1-0.1,0.1-0.2c0.1-0.1,0.1-0.2,0.2-0.3c0.2-0.4,0.4-0.7,0.6-1.1
						c0,0,0-0.1,0.1-0.1c0.2-0.4,0.4-0.7,0.6-1.1c0.2,0,0.2-0.2,0.2-0.4c0,0,0-0.1,0-0.1c0,0,0,0,0-0.1c0.1-0.2,0.2-0.4,0.4-0.6
						c0.1,0,0.3-0.1,0.4-0.2c-0.1-0.1-0.1-0.2-0.2-0.3c0.2-0.3,0.4-0.7,0.5-1c0.2-0.4,0.4-0.9,0.6-1.3c0,0,0,0,0,0
						c0,0,0-0.1,0.1-0.1c0,0,0,0,0,0c0.2-0.4,0.4-0.7,0.6-1.1c0.2-0.3,0.3-0.7,0.4-1c0,0,0,0,0,0c0.1-0.1,0.2-0.3,0.2-0.4
						c0.2,0,0.2,0,0.1-0.2c0-0.1,0-0.1,0-0.2c0,0,0,0,0,0c0,0,0-0.1,0.1-0.1c0,0,0,0,0,0c0.2-0.3,0.3-0.6,0.5-0.8
						c0-0.1,0-0.1,0.1-0.2c0,0,0-0.1,0.1-0.1c0-0.1,0.1-0.2,0.1-0.3l0,0c0,0,0-0.1,0.1-0.1c0.4-0.7,0.7-1.5,1.1-2.2
						c0.4,0.1,0.4-0.4,0.5-0.6c0,0-0.1-0.1-0.1-0.1c0.1-0.2,0.1-0.4,0.2-0.6c0,0,0-0.1,0-0.1c-0.4,0.2-0.8,0.5-1.2,0.7
						c-0.2,0.1-0.3,0.2-0.5,0.2c-0.1,0-0.3,0.1-0.4,0.1c0,0-0.1,0.1-0.1,0.1c-0.1,0-0.2,0.1-0.3,0.1c-0.3,0.1-0.6,0.1-0.9,0.2
						c-0.1,0-0.1,0.2-0.2,0.3c0,0-0.1,0-0.1,0c0,0-0.1,0-0.1,0.1c-0.4,0.2-0.7,0.4-1.1,0.6c-0.1,0-0.1,0-0.2,0.1c0,0-0.1,0-0.1,0.1
						c-0.1,0-0.1,0-0.2,0c0,0-0.1,0-0.1,0.1c0,0-0.1,0-0.1,0c-0.5,0.2-1,0.3-1.5,0.5c-0.1,0-0.1,0.1-0.1,0.2c0,0-0.1,0-0.1,0
						c0,0-0.1,0-0.1,0.1c-0.1,0-0.1,0-0.2,0c-0.5,0.2-0.9,0.3-1.4,0.5c-0.2,0.1-0.3,0.2-0.5,0.3c-0.1,0-0.2,0.1-0.3,0.1
						C23.1,59,23,59,23,59.1c-0.1,0-0.3,0.1-0.4,0.1c-0.2,0-0.4,0-0.6,0.1c-0.4,0.1-0.8,0.3-1.1,0.4c0,0-0.1,0.1-0.1,0.1
						c-0.1,0-0.2,0.1-0.3,0.1c0,0-0.1,0-0.1,0.1c-0.1,0-0.3,0.1-0.4,0.1c0,0-0.1,0-0.1,0.1c-0.1,0-0.2,0-0.3,0.1
						c-1,0.3-2.1,0.5-3.1,0.8c-1.2,0.2-2.4,0.3-3.6,0.5c0,0-0.1,0-0.1,0c-0.1,0-0.2,0-0.3,0c-0.7-0.1-1.5-0.2-2.2-0.2
						c-0.1,0-0.2,0-0.3-0.1c-0.4-0.2-0.8-0.4-1.3-0.5c0,0,0,0,0,0c-0.2-0.1-0.4-0.3-0.6-0.4c0,0,0,0,0,0c0,0-0.1-0.1-0.1-0.1
						c0,0,0,0,0,0c-0.2-0.3-0.4-0.6-0.6-0.9c0,0,0-0.1-0.1-0.1c-0.1-0.3-0.1-0.6-0.2-0.9c0.1,0,0.1,0,0.2,0c0.2,0,0.4,0,0.6-0.1
						c0.1,0,0.1-0.1,0.2-0.1c0.8-0.2,1.5-0.4,2.3-0.6c0.2,0.2,0.4,0.2,0.4-0.1c0.2-0.1,0.5-0.2,0.7-0.3c0,0,0.1,0,0.1-0.1
						c0.2-0.1,0.5-0.3,0.7-0.4c0.3,0.2,0.3,0.2,0.3-0.2c0.3-0.2,0.7-0.5,1-0.7c0,0,0,0.1,0,0.1c0,0,0-0.1,0-0.1
						c0.1-0.1,0.2-0.2,0.3-0.3c0,0,0.1-0.1,0.1-0.1l0,0c0,0,0.1-0.1,0.1-0.1c0.1-0.1,0.2-0.2,0.3-0.3c0,0.1,0,0.1,0.1,0.3
						c0.1-0.4,0.2-0.7,0.4-1c0.1-0.4,0.3-0.7,0.4-1.1c0.1,0,0.2,0.1,0.3,0.1c0,0,0.1-0.1,0.1-0.1c-0.1-0.2-0.2-0.3-0.3-0.5
						c-0.1-0.4-0.1-0.9-0.3-1.3c-0.1-0.4-0.2-0.7-0.4-1c0.1-0.2,0.1-0.4,0.2-0.7c0.2-0.1,0.3-0.2,0.5-0.3c0.5-0.3,1-0.6,1.4-0.9
						c0.1,0,0.2-0.1,0.3-0.1c0.4-0.2,0.8-0.4,1.2-0.6c0,0,0,0,0.1,0c0,0,0,0,0,0c0,0,0.1-0.1,0.1-0.1c0.4-0.2,0.7-0.5,1.1-0.7
						c0.1,0,0.2-0.1,0.3-0.1c0.5-0.3,1-0.6,1.4-0.8c0,0,0.1,0,0.1,0c0.5-0.3,0.9-0.5,1.4-0.8c0.1,0,0.2-0.1,0.3-0.1c0,0,0,0,0.1-0.1
						c0,0,0,0,0,0c0.3-0.2,0.6-0.3,0.9-0.5c0,0,0.1,0,0.1-0.1c0,0,0.1-0.1,0.1-0.1c0.1,0,0.2,0,0.2,0c0,0,0.1-0.1,0.1-0.1
						c0,0,0,0,0,0s0,0,0,0c0,0,0.1,0,0.1-0.1c0,0,0,0,0.1,0c0,0,0.1-0.1,0.1-0.1c0.1,0,0.1-0.1,0.2-0.1c0,0,0,0,0.1,0
						c0.3-0.2,0.6-0.4,1-0.6c0,0,0,0,0.1,0c0.9-0.5,1.8-0.9,2.6-1.4c0.1,0,0.1-0.1,0.2-0.1c0,0,0,0,0,0c0.1,0,0.2,0.1,0.3,0.2
						c0-0.1,0-0.2,0-0.3c0.4-0.2,0.8-0.5,1.2-0.7c0,0,0.1,0,0.1,0c0,0,0,0,0.1-0.1c0,0,0,0,0,0c0.2-0.1,0.4-0.2,0.6-0.3
						c0,0,0.1-0.1,0.1-0.1c0.1-0.1,0.2-0.2,0.3-0.3c0.1,0,0.2-0.1,0.3-0.1c0,0,0.1-0.1,0.1-0.1c0,0,0.1,0,0.1,0
						c0.2-0.1,0.4-0.2,0.7-0.3c0.1,0,0.1-0.1,0.2-0.1c0,0,0.1-0.1,0.1-0.1c0,0,0,0,0.1-0.1c0,0,0.1-0.1,0.1-0.1c0,0,0,0,0,0s0,0,0,0
						c0.4-0.2,0.8-0.4,1.2-0.7c0,0,0.1,0.1,0.1,0.1c0-0.1,0-0.1,0.1-0.2c0,0,0.1-0.1,0.1-0.1c0.1,0,0.1-0.1,0.2-0.1
						c0.4-0.2,0.7-0.5,1.1-0.7c0.1-0.1,0.3-0.1,0.4-0.2c0,0,0,0,0,0c0,0,0,0,0,0c0.3-0.2,0.6-0.3,0.9-0.5c0,0,0.1,0,0.1,0
						c0,0,0,0.1,0,0.1c0,0,0.1,0,0.1,0c0,0-0.1-0.1-0.1-0.1c0,0,0,0,0-0.1c0,0,0.1-0.1,0.1-0.1c0.1,0,0.1-0.1,0.2-0.1
						c0,0,0.1,0,0.1-0.1l0,0c0,0,0,0,0,0c0.5-0.3,1-0.5,1.5-0.8c0.3-0.2,0.6-0.2,0.8-0.5c0,0,0.1,0,0.1,0c0,0,0.1-0.1,0.1-0.1
						c0.1-0.1,0.1-0.1,0.2-0.2c0,0,0.1,0,0.1,0c0,0,0.1,0.1,0.1,0.1c0-0.1,0.1-0.2,0.1-0.2c0.3-0.2,0.6-0.4,0.9-0.6
						c0,0.1,0,0.2,0,0.3c0.2,0,0.3,0,0.5-0.1c-0.1-0.1-0.2-0.3-0.3-0.4c0.3-0.3,0.8-0.3,1.1-0.8c0.1-0.1,0.2-0.1,0.3-0.2
						c0.1,0,0.2-0.1,0.3-0.1c0,0,0.1-0.1,0.1-0.1c0.1-0.1,0.3-0.2,0.4-0.3c0,0,0.1-0.1,0.1-0.1c0,0,0,0,0.1,0c0,0,0.1,0,0.1-0.1
						c0.6-0.5,1.3-1,1.9-1.4c0.1-0.1,0.2-0.1,0.3-0.2c0.7-0.6,1.4-1.3,2.1-1.9c0.4-0.4,0.8-0.7,1.1-1.1c0.3-0.3,0.5-0.6,0.7-0.9
						c0,0,0-0.1,0.1-0.1c0.2-0.3,0.5-0.5,0.7-0.8c0.3-0.1,0.5-0.2,0.5-0.6c0.5-0.7,1-1.5,1.5-2.2c0.1-0.1,0.2-0.2,0.3-0.3
						c0.2-0.3,0.3-0.7,0.5-1c0.1,0,0.1,0,0.2,0c0-0.1,0-0.1-0.1-0.2c0-0.1,0-0.1,0-0.2c0.3-0.5,0.7-1,1-1.6c0.3-0.5,0.6-1.1,0.8-1.6
						c0.2,0,0.3-0.1,0.2-0.4c0,0,0,0,0,0c0-0.1,0-0.1,0.1-0.2c0-0.1,0.1-0.1,0.1-0.2c0-0.1,0.1-0.2,0.1-0.3c0.1-0.2,0.3-0.5,0.4-0.7
						c0,0,0.1,0,0.1,0c0,0,0,0,0,0c0-0.1,0.1-0.2,0.1-0.3c0.2-0.1,0.3-0.2,0.2-0.5c0.2-0.4,0.4-0.8,0.6-1.2c0.3-0.1,0.3-0.3,0.3-0.6
						c0.2-0.5,0.5-0.9,0.7-1.4c0-0.1,0.1-0.1,0.1-0.2c0.1-0.2,0.3-0.4,0.4-0.7c0.1,0,0.2,0,0.4,0c0-0.2-0.1-0.4-0.1-0.5
						c0-0.1,0.1-0.2,0.1-0.2c0.3-0.1,0.3-0.1,0.2-0.4c0,0,0-0.1,0-0.1c0,0,0,0,0,0c0,0,0.1-0.1,0.1-0.1C61,10.1,61,10.1,61,9.7
						c0-0.1,0-0.1,0.1-0.2c0.5-0.1,0.5-0.1,0.4-0.7c0.1-0.1,0.1-0.2,0.2-0.4C62,8.4,62,8.1,62,7.8c0-0.1,0-0.2,0.1-0.3c0,0,0,0,0,0
						c0,0,0.1,0,0.1,0c0.3,0,0.3-0.3,0.3-0.6c0-0.1,0.1-0.2,0.1-0.3c0,0,0-0.1,0-0.1c0.3-0.5,0.5-0.9,0.8-1.4c0,0,0-0.1,0.1-0.1l0,0
						c0-0.1,0-0.1,0.1-0.2l0,0c0,0,0-0.1,0.1-0.1c0,0,0-0.1,0-0.1c0-0.1,0.1-0.2,0.1-0.3l0,0C64,4.4,64,4.4,63.9,4.2
						c0,0,0-0.1,0-0.1c0,0,0-0.1,0.1-0.1l0,0c0.3-0.1,0.5-0.4,0.5-0.9c0.5-0.9,0.9-1.8,1.4-2.8C66,0.1,66.1,0,66.3,0
						c0,0,0.1,0,0.1,0.1c0,0,0,0,0,0c0,0,0.1,0,0.1,0.1c0,0,0,0,0,0c0,0,0.1,0,0.1,0.1c0.2,0.1,0.3,0.2,0.5,0.4c0,0,0,0,0,0
						c0,0,0.1,0,0.1,0.1c0,0,0,0,0,0c0.1,0.1,0.3,0.3,0.4,0.4c0,0,0.1,0,0.1,0.1c0,0,0,0,0.1,0.1c0.1,0.3,0.2,0.5,0.5,0.4
						c0,0,0.1,0.1,0.1,0.1c0,0,0.1,0.1,0.1,0.1c0.1,0.1,0.1,0.1,0.2,0.2c0,0,0.1,0.1,0.1,0.1c0.1,0.1,0.3,0.2,0.4,0.4
						c0,0,0.1,0.1,0.1,0.1c0,0,0,0,0.1,0.1c0,0,0.1,0.1,0.1,0.1l0,0c0,0,0.1,0.1,0.1,0.1c0,0,0,0,0,0c0,0,0.1,0,0.1,0.1
						c0.3,0.3,0.7,0.6,1,0.8c0,0,0.1,0,0.1,0.1c0,0,0,0,0,0c0,0,0.1,0.1,0.1,0.1c0,0,0,0,0,0c0,0,0.1,0.1,0.1,0.1c0,0,0,0,0.1,0.1
						C71,4,71.1,4,71.2,4.1c0.2,0.1,0.3,0.3,0.5,0.4c0,0,0.1,0.1,0.1,0.1c0,0,0.1,0.1,0.1,0.1C72,4.9,72.1,5,72.2,5.2
						c0,0,0.1-0.1,0.1-0.1c0.1,0,0.1,0.1,0.2,0.1c0,0,0.1,0.1,0.1,0.1l0,0c0.1,0.1,0.1,0.1,0.2,0.2l0,0c0,0,0.1,0.1,0.1,0.1
						c0,0,0,0,0.1,0.1C73,5.8,73.1,6,73.2,6.2c0.3,0.2,0.5,0.6,1,0.5c0,0,0,0,0,0c0,0.4,0.2,0.5,0.5,0.4c0.1,0,0.2,0.1,0.2,0.1
						c0,0,0.1,0.1,0.1,0.1c0,0,0.1,0.1,0.1,0.1c0,0,0,0,0,0c0.1,0.1,0.2,0.2,0.3,0.4c0,0,0.1,0.1,0.1,0.1l0,0c0,0,0.1,0.1,0.1,0.1
						c0,0,0,0,0,0.1c0,0.1-0.1,0.1-0.1,0.2c0.1,0.4,0.4,0.3,0.6,0.3c0.1,0.1,0.2,0.2,0.4,0.3c0,0,0.1,0.1,0.1,0.1
						c0,0.2,0.1,0.3,0.2,0.2c0.3,0.3,0.7,0.6,1,0.8c0,0,0.1,0.1,0.1,0.1l0,0c0,0.1,0,0.1,0,0.2c0,0,0.1-0.1,0.1-0.1
						c0.1,0.1,0.2,0.1,0.3,0.2c0,0,0,0,0.1,0.1c0,0,0,0,0,0c0,0,0,0,0.1,0.1c0.2,0.1,0.3,0.3,0.5,0.4c0,0,0,0,0,0
						c0,0,0.1,0.1,0.1,0.1c0,0,0,0,0,0c0.3,0.2,0.5,0.5,0.8,0.7c0.5,0.4,0.9,0.8,1.4,1.1c0.1,0.1,0.1,0.1,0.2,0.2
						c0.4,0.3,0.7,0.6,1.1,0.9c0,0,0,0,0.1,0.1c0,0,0,0,0,0c0,0,0.1,0,0.1,0.1c0,0,0,0,0,0c0,0,0.1,0.1,0.1,0.1
						c0.4,0.3,0.8,0.6,1.1,1c0,0,0.1,0.1,0.1,0.1c0,0,0,0,0,0c0,0,0.1,0.1,0.1,0.1c0,0,0.1,0,0.1,0.1c0,0.3,0.2,0.3,0.3,0.3
						c0.5,0.5,1.1,0.9,1.6,1.4c0,0.4,0,0.4,0.2,0.2c0.1,0.1,0.2,0.2,0.4,0.2c0.1,0.1,0.1,0.1,0.2,0.2c0,0,0.1,0.1,0.1,0.1
						c0.3,0.3,0.7,0.6,1,0.9c0,0,0,0.1,0,0.1c0,0,0,0,0-0.1c0.1,0.1,0.3,0.2,0.4,0.3c0.1,0.1,0.1,0.3,0.2,0.4
						c0.1-0.1,0.1-0.1,0.2-0.2c0,0,0.1,0,0.1,0.1c0,0,0.1,0.1,0.1,0.1c0,0,0,0,0,0c0.1,0.3,0.3,0.5,0.4,0.8c0,0,0.1,0,0.1,0
						c0-0.1,0-0.2,0-0.3c0.1,0.1,0.2,0.1,0.3,0.2c0.2,0.1,0.3,0.3,0.5,0.4c0,0,0,0,0,0c0.2,0.2,0.4,0.4,0.7,0.5c0,0,0,0,0,0.1
						c0,0.1,0.1,0.2,0.1,0.2c0.6,0.5,1.3,1,1.9,1.6c0,0,0,0,0.1,0.1c0.3,0.2,0.6,0.5,0.9,0.7c0,0,0,0,0.1,0.1
						c0.1,0.1,0.3,0.3,0.4,0.4c0,0,0,0,0,0.1c0,0,0,0.1,0,0.1c-0.1,0.2-0.2,0.5-0.2,0.7l0,0c-0.2,0-0.2,0.2-0.2,0.3c0,0,0,0,0,0
						c-0.1,0.1-0.1,0.2-0.2,0.3c0,0,0,0,0,0c0,0,0,0.1-0.1,0.1c0,0,0,0,0,0c-0.1,0-0.1,0-0.2,0c0,0.1,0.1,0.1,0.1,0.2
						c0,0.1-0.1,0.1-0.1,0.2c-0.2,0-0.3,0.1-0.2,0.4c-0.1,0.2-0.2,0.3-0.3,0.5c0,0.1-0.1,0.1-0.1,0.2c-0.5,0.8-1,1.7-1.5,2.5
						c-0.3,0-0.4,0.2-0.4,0.7c-0.2,0.3-0.3,0.7-0.5,1c0,0,0,0,0,0.1c0,0,0,0-0.1,0c0,0.1-0.1,0.1-0.1,0.2c-0.1,0.2-0.2,0.3-0.2,0.5
						c0,0,0,0,0,0c0,0,0,0,0,0.1c0,0,0,0.1,0,0.1c-0.1,0.2-0.2,0.3-0.3,0.5c0,0.1-0.1,0.1-0.1,0.2c0,0,0,0.1,0,0.1
						c-0.1,0.1-0.2,0.2-0.3,0.4c-0.4,0.6-0.7,1.3-1.1,1.9c-0.4,0.7-0.7,1.3-1.1,2c0,0,0,0.1-0.1,0.1c-0.3,0.5-0.6,0.9-0.9,1.4
						c-0.1,0.1-0.1,0.2-0.2,0.4c0,0,0,0.1-0.1,0.1c0,0.1-0.1,0.2-0.1,0.3c-0.3,0.5-0.5,1-0.8,1.5c0,0,0,0.1,0,0.1
						c-0.1,0.2-0.3,0.4-0.4,0.7c0,0,0,0,0,0.1c-0.3,0.5-0.6,0.9-0.9,1.4c-0.2,0-0.3,0-0.1,0.3c-0.2,0.4-0.5,0.8-0.7,1.3
						c-0.2,0.4-0.4,0.8-0.7,1.3c0,0.1-0.1,0.1-0.1,0.2c-0.2,0.3-0.3,0.5-0.5,0.8c-0.3,0.6-0.7,1.3-1,1.9c0,0,0,0.1-0.1,0.1
						c-0.1,0.3-0.3,0.5-0.4,0.8c0,0,0,0.1-0.1,0.1c0,0.1-0.1,0.1-0.1,0.2c-0.4,0.8-0.8,1.6-1.2,2.4c-0.2,0.1-0.3,0.1-0.2,0.3
						c-0.4,0.9-0.9,1.8-1.3,2.7c-0.5,1-1,2-1.4,3c0,0,0,0-0.1,0c0,0,0,0.1-0.1,0.1c0,0,0,0,0,0c0,0,0,0.1-0.1,0.1
						c-0.1,0.1-0.1,0.3-0.2,0.4c-0.2,0.6-0.5,1.1-0.7,1.7l0,0c-0.3,0.7-0.6,1.4-0.9,2.1c0,0,0,0.1,0,0.1c-0.3,0.7-0.6,1.3-0.9,1.9
						c0,0,0,0,0,0.1c0,0,0,0,0,0.1c0,0,0,0.1,0,0.1c-0.3,0.7-0.6,1.3-0.9,2c0,0.1-0.1,0.1-0.1,0.2c-0.3,0.6-0.6,1.3-0.9,1.9
						c0,0.1-0.1,0.1-0.1,0.2c-0.3,0.7-0.6,1.4-1,2.1c0,0,0,0,0,0.1c-0.3,0.5-0.5,1.1-0.8,1.6c-0.5,1.1-1.1,2.3-1.6,3.4
						c0,0,0,0.1-0.1,0.1c-0.5,0.9-0.9,1.9-1.4,2.8c0,0,0,0.1-0.1,0.1c-0.2,0.3-0.4,0.6-0.6,1c-0.4,0.8-0.9,1.6-1.3,2.4
						c0,0,0,0.1-0.1,0.1c-0.1,0.2-0.3,0.5-0.4,0.7C64,83.9,64,84,63.9,84c-0.4,0.7-0.8,1.4-1.3,2c-0.9,1.3-1.8,2.5-2.6,3.7
						c0,0.1-0.1,0.1-0.1,0.2c-0.6,0.7-1.3,1.4-1.9,2.1c0,0,0,0-0.1,0c-1,0.9-2,1.6-3.1,2.3c0,0-0.1,0-0.1,0c0,0-0.1,0-0.1,0.1
						c0,0-0.1,0-0.1,0c-0.1,0-0.1,0.1-0.2,0.1c0,0-0.1,0-0.1,0c-0.9,0.3-1.9,0.5-2.9,0.3c0,0-0.1,0-0.1,0c0,0-0.1,0-0.1-0.1
						c0,0,0,0-0.1,0c-0.1,0-0.1-0.1-0.2-0.1c-0.8-0.3-1.5-0.7-2.1-1.4c-0.2-0.2-0.4-0.4-0.6-0.6c0.1,0,0.1-0.1,0.2-0.1
						c0,0,0,0,0-0.1l0,0c0,0,0,0,0-0.1c0.1-0.1,0.2-0.3,0.3-0.4c0-0.1,0.1-0.1,0.1-0.2c0.2-0.3,0.4-0.5,0.5-0.8
						c2.1-3.7,4.1-7.5,6-11.3c0.6-1.2,1.2-2.3,1.7-3.5c0.1-0.3,0.2-0.5-0.1-0.7c-0.2-0.2-0.4,0-0.5,0.2c-0.1,0.1-0.1,0.2-0.2,0.3
						c-1.6,3.1-3.1,6.2-4.7,9.2c-0.9,1.7-1.8,3.3-2.7,4.9c-0.1,0-0.1,0-0.2,0c0,0.1,0,0.2-0.1,0.3c-0.2,0.4-0.5,0.7-0.7,1.1
						c0,0.1,0,0.1-0.1,0.2c0,0,0,0,0,0s0,0,0,0c0,0.1-0.1,0.1-0.1,0.2c0,0,0,0.1-0.1,0.1c0,0,0,0,0,0c0,0,0,0,0,0.1
						c0,0.1,0,0.2,0,0.3l0,0l0,0c0,0,0,0.1,0,0.1c0,0,0,0,0.1,0c0,0.1,0.1,0.1,0.1,0.2c-0.1,0.1-0.2,0.3-0.3,0.4c0,0,0,0,0,0
						c-0.1,0-0.1,0.1-0.2,0.1c0,0-0.1,0.1-0.1,0.1c0,0,0,0.1-0.1,0.1c0,0,0-0.1-0.1-0.1c0,0.1,0,0.1-0.1,0.2c0,0,0,0,0,0
						c0,0-0.1,0.1-0.1,0.1c0,0,0,0-0.1,0.1c0,0-0.1,0.1-0.1,0.1c0,0,0,0,0,0c0,0-0.1,0.1-0.1,0.1c0,0,0,0,0,0c0,0,0,0-0.1,0.1
						c-0.3,0.2-0.7,0.4-1,0.7c0,0,0,0-0.1,0c-0.2,0.1-0.3,0.1-0.5,0.2c-0.3,0.1-0.5,0.2-0.8,0.4c-0.1,0-0.1,0.1-0.2,0.1
						c-0.2,0-0.4,0.1-0.6,0.1c-0.1,0-0.1,0-0.2,0c-0.4,0-0.8-0.1-1.2-0.1c-0.4-0.1-0.8-0.2-1.3-0.3c0,0-0.1,0-0.1-0.1
						c-0.5-0.3-1-0.6-1.5-0.9c-0.1-0.1-0.1-0.2-0.2-0.3l0,0c0-0.4-0.2-0.2-0.4-0.2c0-0.1-0.1-0.2-0.1-0.2c0,0,0,0,0-0.1
						c0,0,0,0.1-0.1,0.1l0,0l0,0c0-0.2,0-0.4-0.3-0.3c-0.1-0.2-0.3-0.3-0.4-0.5c0,0,0,0,0-0.1c0,0-0.1-0.1-0.1-0.1c0,0,0,0,0-0.1
						c-0.2-0.5-0.3-0.9-0.5-1.4c0.1-0.1,0.3-0.3,0.4-0.4c0,0,0-0.1,0-0.1l0,0c0.1,0,0.2,0,0.3,0c0-0.2,0-0.3,0-0.5
						c0.3-0.6,0.6-1.2,0.9-1.8c0.7-1.2,1.3-2.3,2-3.5c0.3-0.4,0.5-0.9,0.8-1.3c0.2,0.2,0.3,0.1,0.3-0.1c0-0.1,0-0.2,0-0.4
						c0.1-0.2,0.2-0.4,0.3-0.6c0.1,0,0.1,0.1,0.2,0.1c0-0.1-0.1-0.1-0.1-0.2c0,0,0-0.1,0-0.1c0-0.1,0.1-0.1,0.1-0.2
						c0,0,0-0.1,0.1-0.1c0,0,0-0.1,0.1-0.1c0.1-0.1,0.2-0.3,0.2-0.4c0,0,0-0.1,0.1-0.1c0.3-0.5,0.6-1,0.9-1.5
						c0.2-0.4,0.5-0.8,0.7-1.3c0.4-0.7,0.7-1.4,1.1-2c0.4-0.1,0.4-0.2,0.2-0.5c0.1-0.1,0.1-0.2,0.2-0.3c0.4,0,0.4-0.1,0.3-0.5
						c0.1-0.1,0.2-0.2,0.2-0.4c0.3-0.7,0.7-1.4,1-2.1c0.2-0.4,0.2-0.7,0-0.8c-0.2-0.1-0.5,0-0.7,0.4c-0.1,0.2-0.2,0.4-0.3,0.6
						c0-0.1-0.1-0.2-0.1-0.2c0,0-0.1,0-0.1,0c0,0.1,0.1,0.2,0.1,0.4c-0.1,0.1-0.1,0.2-0.2,0.3c0,0.1-0.1,0.2-0.1,0.3
						c-0.4,0.7-0.7,1.4-1.1,2.1c0,0-0.1,0-0.1,0c0,0,0,0.1,0.1,0.1c-0.1,0.1-0.1,0.2-0.2,0.3c-0.1-0.1-0.1-0.1-0.2-0.2
						c0,0-0.1,0-0.1,0.1c0,0.1,0.1,0.3,0.1,0.4c0,0.1-0.1,0.2-0.1,0.2c0,0-0.1,0.1-0.1,0.1c0,0,0,0.1,0,0.1c-0.1,0-0.2,0-0.3-0.1
						c0,0,0,0.1,0,0.1c0.1,0,0.1,0.1,0.2,0.1c-0.2,0.4-0.5,0.8-0.7,1.3c0,0,0,0,0,0.1c-0.2,0.4-0.4,0.8-0.6,1.1
						c-0.4,0.7-0.8,1.4-1.2,2.1c-0.1-0.1-0.1-0.2-0.2-0.3c0,0-0.1,0-0.1,0c0,0.3,0,0.5,0,0.8c-0.3,0.5-0.6,1-0.9,1.5
						c-0.1,0-0.1,0.1-0.2,0.1c0,0,0,0.1,0.1,0.1c-0.1,0.2-0.2,0.4-0.3,0.5c-0.1,0-0.2,0-0.3,0.1c0,0,0,0.1,0,0.1
						c0.1,0,0.1,0,0.2,0.1c0,0,0,0,0,0.1c0,0,0,0.1-0.1,0.1c0,0,0,0.1-0.1,0.1c0,0,0,0.1-0.1,0.1c-0.3,0.5-0.6,1-0.9,1.4
						c-0.3,0.1-0.3,0.1-0.2,0.4c0,0.1-0.1,0.1-0.1,0.2c-0.4,0.1-0.4,0.1-0.2,0.4c-0.5,0.9-1,1.8-1.6,2.8c-0.2,0.3-0.3,0.6-0.1,0.9
						c-0.3,0.3-0.6,0.5-0.9,0.8c0,0,0,0-0.1,0c-0.5,0.2-1,0.5-1.5,0.6c-0.5,0.1-0.9,0.1-1.4,0.2c-0.1-0.1-0.1-0.2-0.2-0.3
						c-0.1,0.1-0.1,0.2-0.2,0.4c-0.7,0-1.3-0.3-2-0.5c0,0,0,0-0.1,0c-0.2-0.2-0.5-0.3-0.7-0.5c-0.1-0.1-0.1-0.2-0.2-0.3
						c-0.1-0.1-0.2-0.1-0.2-0.2c-0.1-0.5-0.4-0.4-0.6-0.5l0,0c-0.1-0.1-0.2-0.2-0.2-0.3c-0.7-0.7-1-1.6-1.2-2.6
						c0.2-0.1,0.4-0.2,0.5-0.3c0.2-0.3,0.3-0.7,0.5-1c0.1,0,0.1-0.1,0.2-0.1c0,0-0.1-0.1-0.1-0.1c0-0.1,0.1-0.1,0.1-0.2
						c0.4-0.2,0.5-0.3,0.3-0.7c0.1-0.2,0.2-0.4,0.3-0.6c0,0,0-0.1,0.1-0.1c0.4-0.8,0.9-1.6,1.3-2.4c0-0.1,0.1-0.2,0.1-0.3
						c0.5-1,1-1.9,1.5-2.9c0,0.1,0.1,0.1,0.1,0.2c0,0,0.1,0,0.1,0c0-0.2,0-0.3-0.1-0.5c1.1-2.1,2.2-4.1,3.2-6.2c0,0,0-0.1,0.1-0.1
						c0.1-0.1,0.1-0.2,0.2-0.3c0,0,0.1,0.1,0.2,0.2c0-0.2-0.1-0.3-0.1-0.4c0,0,0-0.1,0.1-0.1c0,0,0-0.1,0.1-0.1
						c0-0.1,0.1-0.2,0.1-0.3c0.3-0.6,0.6-1.1,0.9-1.7c0.1-0.2,0-0.5-0.1-0.7c-0.1-0.2-0.5,0.1-0.6,0.3c-0.4,0.9-0.9,1.8-1.3,2.6
						c-0.3,0.1-0.3,0.1-0.2,0.4c0,0,0,0.1,0,0.1c-0.3,0-0.3,0.2-0.3,0.5l0,0c0,0,0,0,0,0c0,0.1-0.1,0.2-0.1,0.2
						c-0.1,0.1-0.2,0.3-0.3,0.4c0-0.1,0-0.3,0-0.5c-0.2,0.3-0.2,0.3,0,0.5c0,0,0,0.1,0,0.1c-0.5,0.1-0.5,0.1-0.3,0.7
						c-0.3,0.5-0.6,1.1-0.9,1.6c0,0,0,0.1-0.1,0.1c-0.1,0.2-0.2,0.5-0.4,0.7c0,0.1-0.1,0.1-0.1,0.2c0,0.1-0.1,0.1-0.1,0.2
						c0,0-0.1,0-0.1-0.1c0,0.1,0.1,0.1,0.1,0.2c-0.6,1.1-1.1,2.1-1.7,3.2c-0.1,0-0.3,0-0.4-0.1c0,0.1,0,0.1,0,0.2
						c0.1,0.1,0.2,0.1,0.3,0.2c-0.2,0.3-0.3,0.6-0.5,0.9c-0.3,0.7-0.7,1.3-1,2c-0.1-0.1-0.2-0.1-0.3-0.2c0,0,0,0.1-0.1,0.1
						c0.1,0.1,0.2,0.1,0.3,0.2c0,0.1-0.1,0.2-0.1,0.3c-0.2,0.1-0.4,0.1-0.6,0.2c0.1,0.2,0.2,0.4,0.2,0.5l0,0c0,0,0,0.1-0.1,0.1
						c-0.1,0.2-0.2,0.5-0.4,0.7c0,0-0.1-0.1-0.2-0.1c0,0,0,0.1-0.1,0.1c0.1,0,0.1,0.1,0.2,0.1c-0.1,0.1-0.1,0.2-0.2,0.4
						c-0.2,0-0.4,0-0.3,0.4c0,0,0,0,0,0c0,0,0,0.1-0.1,0.1c-0.1,0.3-0.1,0.5-0.2,0.8c0,0.1,0,0.1,0.1,0.2c0,0,0.1,0.1,0.1,0.1
						c-0.3,0.6-0.6,1.1-0.9,1.7c-0.4,0.8-0.8,1.6-1.3,2.4c-0.1,0-0.1,0-0.2,0.1c0,0,0,0.1,0.1,0.1c-0.1,0.2-0.2,0.4-0.3,0.5
						c-0.1,0.1-0.1,0.2-0.2,0.4c0,0,0,0.1,0,0.1c0,0-0.1,0.1-0.1,0.1l0,0c-0.2,0-0.3,0.1-0.2,0.4c-0.1,0.2-0.2,0.4-0.3,0.6
						c-0.2,0.4-0.4,0.8-0.7,1.2c-0.2,0.2-0.4,0.5-0.6,0.7c0,0,0,0.1,0.1,0.1C22.7,96.1,22.7,96.1,22.7,96.2z M76.4,57.2
						c-0.4,0.3-0.4,0.4-0.1,0.6C76.3,57.5,76.3,57.4,76.4,57.2z M82.6,45.4c0.1-0.2,0.1-0.3,0.2-0.6C82.4,45.1,82.4,45.1,82.6,45.4z
						 M16,87.8c0.4-0.2,0.4-0.2,0.2-0.5C16.1,87.4,16.1,87.6,16,87.8z M47,74.4c-0.1,0-0.1,0-0.2-0.1c0,0.1-0.1,0.3-0.1,0.4
						c0,0,0.1,0,0.1,0.1C46.9,74.7,46.9,74.6,47,74.4z M44.7,32.5c0,0,0,0.1,0,0.1c0.1,0,0.3,0,0.4-0.1c0-0.1,0-0.1,0-0.2
						C45,32.4,44.8,32.4,44.7,32.5z M36.3,71.7c0.1,0,0.1,0.1,0.1,0.1c0,0,0.1-0.1,0.1-0.1c0,0-0.1-0.1-0.1-0.1
						C36.3,71.6,36.3,71.6,36.3,71.7z M26.5,68.2C26.5,68.3,26.5,68.3,26.5,68.2c0.1,0.1,0.1,0.1,0.2,0
						C26.6,68.2,26.6,68.2,26.5,68.2C26.6,68.2,26.5,68.2,26.5,68.2z M30.8,59.4c0,0.1,0.1,0.1,0.1,0.1c0,0,0.1-0.1,0.1-0.1
						C31,59.4,31,59.3,30.8,59.4C30.9,59.3,30.9,59.4,30.8,59.4z M36.7,89.7c0,0,0,0.1,0.1,0.1c0,0,0.1-0.1,0.1-0.1
						C36.9,89.7,36.8,89.7,36.7,89.7C36.8,89.7,36.8,89.7,36.7,89.7z M39.1,85.8C39.1,85.8,39.1,85.8,39.1,85.8
						C39.1,85.7,39,85.7,39.1,85.8C39,85.7,39,85.8,39.1,85.8C39,85.8,39,85.8,39.1,85.8z M20.2,99.3C20.2,99.3,20.3,99.3,20.2,99.3
						C20.2,99.3,20.2,99.3,20.2,99.3C20.2,99.3,20.2,99.3,20.2,99.3C20.2,99.3,20.2,99.3,20.2,99.3z M30.8,40.8
						C30.8,40.8,30.8,40.9,30.8,40.8C30.8,40.9,30.8,40.9,30.8,40.8C30.9,40.9,30.9,40.9,30.8,40.8C30.9,40.8,30.8,40.8,30.8,40.8z
						 M30.1,91.4C30.1,91.4,30,91.4,30.1,91.4C30,91.4,30,91.4,30.1,91.4C30,91.4,30,91.5,30.1,91.4C30.1,91.4,30.1,91.4,30.1,91.4z
						"/>
					<path class="st3" d="M16.2,103.9c0.4,0.3,0.2,0.7,0.3,1.1c0,0,0,0,0,0c0,0.1-0.1,0.1-0.1,0.2c-0.4,0.4-0.7,0.9-1.1,1.3
						c0,0-0.1,0.1-0.1,0.1c0,0,0,0.1-0.1,0.1c0,0,0,0.1-0.1,0.1c-0.5,0.5-1,0.9-1.5,1.4c0,0,0,0-0.1,0c-0.4,0.2-0.7,0.5-1.1,0.7
						c-0.1,0-0.1,0-0.2,0.1c0,0-0.1,0.1-0.1,0.1c-0.4,0-0.8,0.1-1.2,0.1c-0.4-0.3-0.8-0.6-1.2-0.9c0,0,0,0,0-0.1c0,0,0-0.1-0.1-0.1
						c0,0,0,0,0-0.1c-0.1-0.5-0.3-1-0.4-1.5c0-0.6,0.1-1.2,0.1-1.8c0-0.2,0.1-0.4,0.1-0.7c0.1-0.2,0.1-0.3,0.2-0.5
						c0.2-0.6,0.3-1.1,0.5-1.7c0.3-0.1,0.5-0.2,0.8-0.2c-0.5,1.2-1,2.4-1.5,3.6c-0.1,0.3-0.2,0.7,0.1,0.8c0.3,0.1,0.3-0.3,0.4-0.5
						c0.6-1.9,1.4-3.7,2.5-5.2c0.5-0.7,0.9-0.8,1.6-0.5c0.1,0.1,0.3,0.1,0.4,0.2c0.5,0.5,1,1.1,1.5,1.6c0.2,0.2,0.2,0.6,0.2,0.9
						c0,0.3-0.1,0.6-0.2,0.8c-0.4,0.8-0.8,1.6-1.3,2.4c-0.4,0.6-0.9,1.2-1.4,1.7c-0.1,0.2-0.3,0.4-0.1,0.6c0.2,0.3,0.4,0.1,0.5-0.1
						c0.1-0.1,0.1-0.1,0.2-0.2C14.6,106.5,15.5,105.3,16.2,103.9z"/>
					<path class="st3" d="M10.1,120.5c0-0.1,0-0.3,0.1-0.4c0.1-0.4,0.1-0.7,0.2-1.1c0-0.2,0.1-0.3,0.1-0.5c0,0,0-0.1,0-0.1
						c0-0.3,0.1-0.6,0.1-1c0-0.1,0-0.2,0-0.3c0-0.1,0-0.3,0.1-0.4c0-0.2,0.1-0.4,0.1-0.5c0-0.2,0.1-0.4,0.1-0.6
						c0-0.2,0.1-0.4,0.1-0.6c0-0.2,0.1-0.3,0.1-0.5c0-0.1,0-0.2,0.1-0.4c0-0.3,0.1-0.6,0.1-0.9c0.2-0.5,0.4-0.5,0.7-0.2
						c0,0.2,0,0.3,0,0.5c0,0.3-0.1,0.5-0.1,0.8c0,0.1,0,0.3-0.1,0.4c0,0.1,0,0.1,0,0.2c-0.1,0.3-0.1,0.6-0.2,1
						c0,0.2-0.1,0.3-0.1,0.5c0,0.1,0,0.2-0.1,0.3c0,0.1,0,0.3,0,0.4c-0.1,0.3-0.1,0.6-0.2,1c0,0.1,0,0.3-0.1,0.4
						c0,0.2-0.1,0.4-0.1,0.6c0,0.1,0,0.2,0,0.3c0,0.1,0,0.1,0,0.2c0,0.1,0,0.2,0,0.3c-0.1,0.4-0.2,0.8-0.2,1.2
						c-0.1,0.4-0.1,0.8-0.2,1.1c-0.1,0.2-0.2,0.3-0.3,0.5c0,0-0.1,0-0.1,0c0,0,0,0-0.1,0c-0.1-0.1-0.2-0.2-0.2-0.3
						c0-0.3,0-0.6,0.1-1c0-0.2,0.1-0.5,0.1-0.7C10.1,120.7,10.1,120.6,10.1,120.5z"/>
					<path class="st3" d="M0.8,94.7c0-0.1,0-0.2,0-0.3c0.3-0.2,0.5-0.2,0.7,0.1c0.8,1,1.7,2,2.6,3c0,0,0,0,0.1,0.1
						c0.1,0.1,0.2,0.3,0.4,0.4c0.1,0.1,0.2,0.2,0.3,0.3c0.1,0.1,0.2,0.2,0.3,0.4c0.1,0.1,0.2,0.2,0.3,0.4c0.1,0.1,0.2,0.2,0.2,0.3
						c0,0,0.1,0.1,0.1,0.1c0.2,0.2,0.4,0.5,0.6,0.7l0,0c0.1,0.2,0.2,0.3,0.3,0.5c0,0.1,0,0.2,0,0.3c0,0.1-0.1,0.1-0.1,0.2
						c-0.1,0-0.3,0.1-0.4,0.1c-0.3-0.3-0.6-0.6-0.8-0.8c-0.1-0.1-0.1-0.2-0.2-0.2c-0.1-0.2-0.3-0.3-0.4-0.5c0-0.1-0.1-0.1-0.1-0.2
						c-0.1-0.1-0.2-0.3-0.4-0.4c-0.1-0.1-0.2-0.2-0.3-0.4c-0.1-0.1-0.3-0.3-0.4-0.4c0,0,0,0,0,0c-0.4-0.4-0.8-0.9-1.2-1.3l0,0
						c-0.5-0.6-1-1.1-1.4-1.7C1,95.1,0.9,94.9,0.8,94.7z"/>
					<path class="st3" d="M6,110.8c0,0,0.1,0,0.1,0c0.1,0,0.1-0.1,0.2-0.1c0.1,0,0.1,0,0.2,0c0.2,0.1,0.5,0.1,0.4,0.5
						c0,0.2-0.3,0.3-0.4,0.4c-0.1,0.1-0.2,0.1-0.3,0.1c-0.4,0.1-0.8,0.2-1.2,0.4c-0.3,0.1-0.6,0.2-0.9,0.2c-0.3,0.1-0.6,0.2-0.9,0.3
						c-0.1,0-0.2,0-0.3,0.1c0,0-0.1,0.1-0.1,0.1c-0.6,0.2-1.3,0.3-1.9,0.5c-0.1,0-0.3,0-0.4,0c-0.2,0-0.4,0-0.4-0.2
						c-0.1-0.2,0-0.4,0.2-0.6c0.1,0,0.2,0,0.3,0c0.1,0,0.1-0.1,0.2-0.1c0,0,0.1,0,0.1,0c0.1,0,0.1-0.1,0.2-0.1
						c0.2,0,0.4-0.1,0.6-0.1c0.1,0,0.3-0.1,0.4-0.1c0.5-0.1,1-0.3,1.5-0.4c0,0,0.1,0,0.1-0.1c0.2-0.1,0.4-0.1,0.5-0.2
						c0.4-0.1,0.9-0.3,1.3-0.4c0.1,0,0.1,0,0.2,0C5.8,110.8,5.9,110.8,6,110.8z"/>
					<path class="st3" d="M20.5,116.9c0-0.1,0-0.2-0.1-0.2c0,0,0-0.1-0.1-0.1c-0.1-0.1-0.1-0.2-0.2-0.3c-0.2-0.4-0.3-0.7-0.5-1.1
						c0-0.1-0.1-0.1-0.1-0.2c-0.4-0.8-0.8-1.6-1.2-2.4c-0.1-0.1-0.1-0.3-0.2-0.4c-0.1-0.2-0.2-0.4-0.2-0.5c0-0.2,0-0.4,0-0.6
						c0.2,0,0.3,0,0.5,0c0,0.1,0.1,0.2,0.1,0.3c0.2,0.4,0.3,0.7,0.5,1.1c0,0.1,0.1,0.2,0.1,0.2c0.2,0.4,0.4,0.8,0.6,1.1
						c0,0.1,0,0.2,0.1,0.2c0.1,0.2,0.2,0.4,0.3,0.6c0,0.1,0.1,0.2,0.1,0.3c0,0,0,0.1,0.1,0.1c0,0.1,0.1,0.2,0.1,0.2
						c0.1,0.4,0.3,0.7,0.4,1.1c0,0.1,0.1,0.2,0.1,0.2c0,0.1,0.1,0.2,0.1,0.3c0,0,0,0.1,0,0.1c0.2,0.6,0.1,0.7-0.4,0.8
						C20.7,117.3,20.6,117.1,20.5,116.9z"/>
					<path class="st3" d="M27.6,105.5c-0.1,0-0.1,0.1-0.2,0.1c-0.2,0-0.4,0-0.6,0.1c-1,0.2-2,0.4-3,0.6c-0.1,0-0.3,0-0.4,0
						c0,0-0.1-0.1-0.1-0.1c0-0.1,0-0.3,0-0.4c0.1-0.1,0.3-0.2,0.4-0.2c0.3-0.1,0.5-0.1,0.8-0.2c0,0,0.1,0,0.1-0.1
						c0.4-0.1,0.9-0.2,1.3-0.2c0.7-0.2,1.4-0.3,2.1-0.5c0.4-0.1,0.8-0.2,1.2-0.3c0.1,0.1,0.3,0.2,0.4,0.2c0,0.1,0,0.2,0,0.3
						c0,0,0,0.1-0.1,0.1C28.8,105.1,28.2,105.3,27.6,105.5z"/>
					<path class="st4" d="M37.1,91c-0.1,0-0.2,0-0.3-0.1c-0.2-0.3-0.1-0.6,0.1-0.9c0.5-0.9,1-1.8,1.6-2.8c0.1-0.1,0.1-0.3,0.2-0.4
						c0-0.1,0.1-0.1,0.1-0.2c0.1-0.1,0.1-0.2,0.2-0.4c0.3-0.5,0.6-1,0.9-1.4c0,0,0-0.1,0.1-0.1c0,0,0-0.1,0.1-0.1c0,0,0-0.1,0.1-0.1
						c0,0,0,0,0-0.1c0-0.1,0.1-0.1,0.1-0.2c0.1-0.2,0.2-0.4,0.3-0.5c0-0.1,0.1-0.1,0.1-0.2c0.3-0.5,0.6-1,0.9-1.5
						c0.1-0.2,0.2-0.3,0.3-0.5c0.4-0.7,0.8-1.4,1.2-2.1c0.2-0.4,0.4-0.8,0.6-1.1c0,0,0,0,0-0.1c0.2-0.4,0.5-0.8,0.7-1.3
						c0-0.1,0.1-0.1,0.1-0.2c0,0,0,0,0-0.1c0,0,0.1-0.1,0.1-0.1c0-0.1,0.1-0.2,0.1-0.2c0-0.1,0.1-0.2,0.1-0.2
						c0.1-0.1,0.1-0.2,0.2-0.3c0,0,0-0.1,0.1-0.1c0.4-0.7,0.7-1.4,1.1-2.1c0-0.1,0.1-0.2,0.1-0.3c0.1-0.1,0.1-0.2,0.2-0.3
						c0,0,0-0.1,0.1-0.1c0.1-0.2,0.2-0.4,0.3-0.6c0.2-0.3,0.5-0.5,0.7-0.4c0.2,0.2,0.2,0.5,0,0.8c-0.3,0.7-0.7,1.4-1,2.1
						c-0.1,0.1-0.2,0.2-0.2,0.4c-0.1,0.2-0.2,0.3-0.3,0.5c-0.1,0.1-0.1,0.2-0.2,0.3c-0.1,0.2-0.1,0.3-0.2,0.5
						c-0.4,0.7-0.7,1.4-1.1,2c-0.2,0.4-0.5,0.8-0.7,1.3c-0.3,0.5-0.6,1-0.9,1.5c0,0,0,0.1-0.1,0.1c-0.1,0.1-0.2,0.3-0.2,0.4
						c0,0,0,0.1-0.1,0.1c0,0,0,0.1-0.1,0.1c0,0.1-0.1,0.1-0.1,0.2c0,0,0,0.1,0,0.1c0,0,0,0.1-0.1,0.1c-0.1,0.2-0.2,0.4-0.3,0.6
						c-0.1,0.2-0.2,0.3-0.2,0.5c-0.3,0.4-0.5,0.9-0.8,1.3c-0.7,1.2-1.4,2.3-2,3.5c-0.3,0.6-0.6,1.2-0.9,1.8
						c-0.1,0.1-0.2,0.3-0.3,0.4c0,0,0,0,0,0c0,0,0,0.1-0.1,0.1C37.4,90.8,37.3,90.9,37.1,91z"/>
					<path class="st4" d="M27.3,87.7C27.3,87.7,27.3,87.7,27.3,87.7c-0.1-0.1-0.2-0.1-0.2-0.2c0-0.1,0-0.1-0.1-0.2
						c0.1-0.3,0.1-0.5,0.2-0.8c0,0,0-0.1,0.1-0.1c0,0,0,0,0,0c0.1-0.1,0.2-0.3,0.3-0.4c0.1-0.1,0.1-0.2,0.2-0.4c0,0,0-0.1,0-0.1
						c0.1-0.2,0.2-0.5,0.4-0.7c0,0,0-0.1,0.1-0.1c0,0,0,0,0,0c0.1-0.2,0.3-0.5,0.4-0.7c0-0.1,0.1-0.2,0.1-0.3c0-0.1,0.1-0.1,0.1-0.2
						c0.3-0.7,0.7-1.3,1-2c0.2-0.3,0.3-0.6,0.5-0.9c0.1-0.1,0.1-0.2,0.2-0.3c0.6-1.1,1.1-2.1,1.7-3.2c0,0,0-0.1,0.1-0.1
						c0-0.1,0.1-0.1,0.1-0.2c0-0.1,0.1-0.1,0.1-0.2c0.1-0.2,0.2-0.5,0.4-0.7c0,0,0-0.1,0.1-0.1c0.3-0.5,0.6-1.1,0.9-1.6
						c0.1-0.2,0.2-0.4,0.3-0.7c0,0,0-0.1,0-0.1l0,0c0.1-0.1,0.2-0.3,0.3-0.4c0-0.1,0.1-0.2,0.1-0.2l0,0c0,0,0,0,0,0
						c0.1-0.2,0.2-0.3,0.3-0.5c0,0,0-0.1,0-0.1c0.1-0.1,0.1-0.2,0.2-0.4c0.4-0.9,0.9-1.8,1.3-2.6c0.1-0.2,0.5-0.5,0.6-0.3
						c0.1,0.2,0.2,0.6,0.1,0.7c-0.3,0.6-0.6,1.1-0.9,1.7c0,0.1-0.1,0.2-0.1,0.3c0,0,0,0.1-0.1,0.1c0,0,0,0.1-0.1,0.1
						c0,0.1-0.1,0.1-0.1,0.2c-0.1,0.1-0.1,0.2-0.2,0.3c0,0,0,0.1-0.1,0.1c-1.1,2.1-2.2,4.1-3.2,6.2c0,0.1-0.1,0.2-0.1,0.3
						c-0.5,1-1,1.9-1.5,2.9c0,0.1-0.1,0.2-0.1,0.3c-0.4,0.8-0.9,1.6-1.3,2.4c0,0,0,0.1-0.1,0.1c-0.1,0.2-0.2,0.4-0.3,0.6
						c-0.1,0.2-0.2,0.4-0.3,0.7c0,0.1-0.1,0.1-0.1,0.2c0,0.1-0.1,0.1-0.1,0.2c-0.2,0.3-0.3,0.7-0.5,1C27.7,87.5,27.5,87.6,27.3,87.7
						z"/>
					<path class="st4" d="M48.2,92.8c-0.1,0-0.1,0-0.2,0c0-0.1-0.1-0.1-0.1-0.2c0,0,0-0.1-0.1-0.1c0-0.1,0-0.2,0-0.3
						c0,0,0-0.1,0-0.1c0,0,0-0.1,0.1-0.1c0-0.1,0.1-0.1,0.1-0.2c0,0,0,0,0,0s0,0,0,0c0-0.1,0-0.1,0.1-0.2c0.2-0.4,0.5-0.7,0.7-1.1
						c0.1-0.1,0.1-0.2,0.2-0.3c0.9-1.6,1.8-3.2,2.7-4.9c1.6-3.1,3.1-6.2,4.7-9.2c0.1-0.1,0.1-0.2,0.2-0.3c0.1-0.3,0.3-0.4,0.5-0.2
						c0.3,0.2,0.2,0.4,0.1,0.7c-0.6,1.2-1.2,2.3-1.7,3.5c-1.9,3.8-3.9,7.6-6,11.3c-0.2,0.3-0.3,0.5-0.5,0.8c0,0.1-0.1,0.1-0.1,0.2
						c-0.1,0.1-0.2,0.3-0.3,0.4c0,0,0,0,0,0.1c0,0,0,0,0,0c0,0,0,0,0,0.1C48.3,92.7,48.2,92.8,48.2,92.8z"/>
					<path class="st3" d="M16.2,103.9c-0.7,1.4-1.6,2.6-2.6,3.8c-0.1,0.1-0.1,0.1-0.2,0.2c-0.2,0.2-0.3,0.3-0.5,0.1
						c-0.2-0.2,0-0.4,0.1-0.6c0.5-0.6,1-1.1,1.4-1.7c0.5-0.7,0.9-1.6,1.3-2.4c0.1-0.2,0.2-0.5,0.2-0.8c0-0.3,0-0.6-0.2-0.9
						c-0.5-0.5-1-1.1-1.5-1.6c-0.1-0.1-0.3-0.2-0.4-0.2c-0.7-0.4-1.1-0.3-1.6,0.5c-1.1,1.6-1.9,3.3-2.5,5.2
						c-0.1,0.3-0.1,0.7-0.4,0.5c-0.3-0.1-0.2-0.5-0.1-0.8c0.5-1.2,1-2.4,1.5-3.6c0,0,0,0,0,0c0-0.1,0.1-0.1,0.1-0.2
						c0.3-0.5,0.7-1.1,1-1.7c0.3-0.5,0.6-0.7,1-0.9c0.3-0.1,0.6,0.1,1,0.1c0.1,0,0.2,0.1,0.3,0.1c0,0,0,0,0,0
						c0.4,0.3,0.7,0.5,1.1,0.8c0.1,0.1,0.2,0.2,0.3,0.3c0.1,0.1,0.2,0.2,0.2,0.3c0,0,0,0,0,0c0.1,0.1,0.2,0.3,0.3,0.4c0,0,0,0,0,0
						c0,0,0.1,0.1,0.1,0.1C16.8,102,16.6,103,16.2,103.9z"/>
					<path class="st3" d="M14.4,50.4c0.1-0.5,0.3-0.4,0.6-0.3c0.1,0.3,0.3,0.7,0.4,1c0.1,0.4,0.2,0.9,0.3,1.3c0,0.1,0,0.3,0,0.4
						c-0.1,0.4-0.3,0.7-0.4,1.1c-0.1,0.2-0.3,0.5-0.4,0.7c-0.1,0.1-0.2,0.2-0.3,0.3c0,0-0.1,0.1-0.1,0.1c0,0,0,0,0,0
						c0,0-0.1,0.1-0.1,0.1c-0.1,0.1-0.2,0.2-0.3,0.3c0,0,0,0-0.1,0c-0.3,0.2-0.7,0.5-1,0.7c-0.1,0.1-0.2,0.1-0.3,0.2
						c-0.2,0.1-0.5,0.3-0.7,0.4c0,0-0.1,0-0.1,0.1c-0.2,0.1-0.5,0.2-0.7,0.3c-0.1,0-0.3,0.1-0.4,0.1c-0.8,0.2-1.5,0.4-2.3,0.6
						c-0.1,0-0.1,0.1-0.2,0.1c-0.2,0-0.4,0-0.6,0.1c-0.2-0.2-0.2-0.4,0-0.7c0.1,0,0.2,0,0.3-0.1c0.2,0,0.3-0.1,0.5-0.1
						c0.1,0,0.1,0,0.2-0.1c0.1,0,0.2-0.1,0.4-0.1c0.1,0,0.2-0.1,0.3-0.1c0,0,0.1,0,0.1,0c0.1,0,0.3-0.1,0.4-0.1
						c0.3-0.1,0.5-0.2,0.8-0.3c0.1,0,0.2-0.1,0.3-0.1c0,0,0.1,0,0.1-0.1c0.1,0,0.2-0.1,0.4-0.1c0.1-0.1,0.3-0.1,0.4-0.2
						c0,0,0.1,0,0.1,0c0.1-0.1,0.2-0.1,0.3-0.2c0,0,0.1,0,0.1,0c0.1-0.1,0.2-0.1,0.3-0.2c0.2-0.1,0.4-0.2,0.6-0.3
						c0.1,0,0.1-0.1,0.2-0.1c0.1-0.1,0.2-0.2,0.3-0.2c0.1-0.1,0.1-0.1,0.2-0.2c0.2-0.2,0.4-0.3,0.5-0.5c0.3-0.4,0.5-0.7,0.8-1.1
						c0,0,0,0,0-0.1c0.1-0.3,0.1-0.6,0.2-0.8c0-0.1,0-0.2,0-0.3c0,0,0-0.1-0.1-0.1c0-0.1-0.1-0.2-0.1-0.3c0-0.1,0-0.1,0-0.2
						c0-0.1-0.1-0.3-0.1-0.4c0-0.1-0.1-0.2-0.1-0.3c0-0.1,0-0.1,0-0.2c0,0,0-0.1-0.1-0.1C14.5,50.6,14.4,50.5,14.4,50.4z"/>
					<path class="st5" d="M48.8,92.1c0-0.1,0.1-0.1,0.1-0.2C48.8,92,48.8,92.1,48.8,92.1z"/>
					<path class="st5" d="M48.1,91.7c0,0.1,0,0.1-0.1,0.2C48.1,91.9,48.1,91.8,48.1,91.7z"/>
					<path class="st5" d="M48.4,92.6C48.5,92.6,48.5,92.6,48.4,92.6C48.5,92.6,48.5,92.6,48.4,92.6z"/>
					<path class="st5" d="M47.8,92.6C47.8,92.6,47.9,92.6,47.8,92.6C47.9,92.6,47.8,92.6,47.8,92.6C47.8,92.6,47.8,92.6,47.8,92.6
						L47.8,92.6L47.8,92.6z"/>
					<path class="st5" d="M48.4,92.7C48.4,92.7,48.4,92.7,48.4,92.7C48.4,92.7,48.4,92.7,48.4,92.7z"/>
					<path class="st4" d="M7.3,57.5c-0.1,0-0.1,0-0.2,0c0-0.1,0-0.2,0-0.3c0-0.1,0-0.1,0.1-0.2c0,0,0,0,0-0.1
						c0.2-0.1,0.3-0.2,0.5-0.4c0,0,0-0.1,0-0.1c-0.1,0-0.2-0.1-0.3-0.1c0.1-0.1,0.1-0.2,0.2-0.4c0.2,0,0.6,0.3,0.6-0.3
						c0-0.2,0-0.5,0-0.7c0,0,0.1-0.1,0.1-0.1c0.1,0.1,0.2,0.3,0.2,0.4c0.1-0.2,0.1-0.5,0.3-0.6C9,54.4,9,54.3,9,54.1
						c0,0,0,0,0.1-0.1C9,54,9.1,54,9.1,54c0.1-0.1,0.2-0.2,0.3-0.3c0.1,0.3,0.3,0.2,0.5,0c0.1-0.2,0.1-0.4,0.2-0.6
						c0.1-0.1,0.3-0.2,0.4-0.3c0.2,0.2,0.5,0.2,0.7,0c-0.1-0.1-0.2-0.2-0.3-0.2c0,0,0,0,0,0c0,0,0.1-0.1,0.1-0.1
						c0.1,0,0.1-0.1,0.2-0.1c0,0,0.1-0.1,0.1-0.1c0,0,0,0,0.1,0c0,0,0.1,0,0.1-0.1c0,0,0.1-0.1,0.1-0.1c0.1,0,0.2,0.1,0.3,0.1
						c0.1,0,0.3,0,0.5,0c0-0.2-0.1-0.3-0.1-0.5c0.2-0.1,0.3-0.2,0.5-0.3c0,0,0.1-0.1,0.1-0.1c0.1,0,0.1-0.1,0.2-0.1
						c0.1,0.1,0.1,0.2,0.2,0.3c0.1-0.3,0.2-0.5,0.3-0.6c0,0,0.1-0.1,0.1-0.1c0,0,0.1,0,0.1-0.1c0,0,0.1,0,0.1,0c0,0,0.1-0.1,0.1-0.1
						c0.1,0,0.1-0.1,0.2-0.1c0.1,0,0.1-0.1,0.2-0.1c0,0,0,0,0.1,0c0.1,0.1,0.2,0.2,0.3,0.3c0,0.1,0,0.2,0.1,0.2c0,0,0,0.1,0.1,0.1
						c0,0.1,0,0.1,0,0.2c-0.1,0.2-0.1,0.3,0.1,0.3c0,0.1,0.1,0.3,0.1,0.4c0,0.1,0,0.1,0,0.2c0,0.1,0.1,0.2,0.1,0.3
						c0,0,0,0.1,0.1,0.1c0,0.1,0,0.2,0,0.3c-0.1,0-0.1,0-0.2,0c0,0,0,0,0,0c0-0.1-0.1-0.1-0.1-0.2c0,0,0,0-0.1,0
						c0,0.1,0.1,0.1,0.1,0.2c0,0.3,0,0.5,0,0.8c0,0,0,0,0,0.1c-0.1,0-0.2,0-0.3-0.1c0,0,0,0.1,0.1,0.1c-0.2,0.3-0.4,0.5-0.7,0.8
						c0,0.1,0.1,0.2,0.1,0.2c-0.2,0.2-0.4,0.3-0.5,0.5c-0.2-0.2-0.2,0-0.2,0.2c-0.1,0.1-0.2,0.2-0.3,0.2c0-0.1-0.1-0.1-0.1-0.2
						c0,0.1,0,0.2-0.1,0.3c-0.2,0.1-0.4,0.2-0.6,0.3c-0.1,0.1-0.2,0.1-0.3,0.2c0,0-0.1,0-0.1,0c-0.1,0.1-0.2,0.1-0.3,0.2
						c0,0-0.1,0-0.1,0c-0.1,0.1-0.4-0.2-0.4,0.2c-0.1,0-0.2,0.1-0.4,0.1c0,0-0.1,0-0.1,0.1c-0.1,0-0.2,0.1-0.3,0.1
						c-0.3-0.2-0.6-0.1-0.8,0.3c-0.1,0-0.3,0.1-0.4,0.1c0,0,0-0.1-0.1-0.1c0,0,0,0.1-0.1,0.1c-0.1,0-0.2,0.1-0.3,0.1
						c-0.1-0.1-0.1-0.2-0.3-0.4c0,0.2-0.1,0.3-0.1,0.4c-0.1,0-0.1,0-0.2,0.1c-0.2-0.3-0.3-0.3-0.5,0.1C7.5,57.5,7.4,57.5,7.3,57.5z
						 M11,55.9c0,0.1,0,0.1,0,0.2c0.1,0,0.2,0,0.3-0.1c0,0,0-0.1,0-0.1C11.2,55.9,11.1,55.9,11,55.9z M8.3,56.7
						C8.3,56.7,8.2,56.7,8.3,56.7C8.2,56.7,8.2,56.7,8.3,56.7C8.2,56.8,8.3,56.8,8.3,56.7C8.3,56.8,8.3,56.7,8.3,56.7z M10.2,53.6
						C10.2,53.5,10.2,53.5,10.2,53.6C10.2,53.5,10.2,53.5,10.2,53.6C10.2,53.5,10.1,53.5,10.2,53.6C10.2,53.5,10.2,53.5,10.2,53.6z"
						/>
				</g>
			</g>
		</g>
		<polygon class="st3" points="9.6,107.8 9.3,105.5 9.9,103.4 10.5,101.6 11.7,99.7 13.7,98 16.4,98.7 17.4,102 15.9,105.6 
			13.6,107.9 11.8,109.1 9.9,108.3 		"/>
		<polygon class="st3" points="8.4,60.2 7.3,59.6 7.4,59.2 7.7,58.8 10.8,58.2 13.1,56.7 14.5,55.7 15,54.8 15.3,53.7 14.7,52.2 
			15.2,51.4 15.5,50.8 17.5,51.9 17.3,58.2 15,60.6 11.6,61.8 		"/>
	</g>
</g>
<g id="Layer_4">
</g>
<g id="Layer_3">
</g>
<g id="Layer_5">
</g>
<g id="default_x5F_grid" class="st102">
</g>
</svg>
