<?xml version="1.0" encoding="utf-8"?>
<!-- Generator: Adobe Illustrator 27.6.1, SVG Export Plug-In . SVG Version: 6.00 Build 0)  -->
<svg version="1.1" xmlns="http://www.w3.org/2000/svg" xmlns:xlink="http://www.w3.org/1999/xlink" x="0px" y="0px"
	 viewBox="0 0 278.7 285.1" style="enable-background:new 0 0 278.7 285.1;" xml:space="preserve">
<style type="text/css">
	.st0{fill:#FFD4F0;}
	.st1{fill:#E93032;}
	.st2{opacity:0.4984;}
	.st3{fill:#0033CC;}
	.st4{fill:#FFFFFF;}
	.st5{fill:#6380C5;}
	.st6{fill:#333333;}
	.st7{fill:#FFDD67;}
	.st8{fill:#664E27;}
	.st9{fill:#917524;}
	.st10{fill:none;stroke:#0033CB;stroke-width:34.4361;stroke-linecap:round;stroke-miterlimit:10;stroke-dasharray:0,65.5242,0,0;}
	.st11{opacity:0.5;enable-background:new    ;}
	.st12{fill:#494949;}
	.st13{fill:#EA3032;}
	.st14{fill:none;stroke:#FFFFFF;stroke-width:1.0081;stroke-miterlimit:10;}
	.st15{fill:#0033CB;}
	.st16{fill:#E93032;stroke:#E93032;stroke-width:0.4783;stroke-miterlimit:10;}
	.st17{clip-path:url(#SVGID_00000135656907738837466740000003691857235415764407_);}
	.st18{opacity:0.36;fill:#E93032;}
	.st19{fill:none;stroke:#FFD4F0;stroke-width:5.0782;stroke-miterlimit:10;}
	.st20{enable-background:new    ;}
	.st21{clip-path:url(#SVGID_00000000915634198589740110000005511317155992941992_);}
	.st22{clip-path:url(#SVGID_00000011715634612379621110000009910636400517044905_);}
	.st23{clip-path:url(#SVGID_00000177486567758648819010000009356823607431809958_);fill:#E93032;}
	.st24{clip-path:url(#SVGID_00000054977724189452010750000011118295622422176137_);}
	.st25{clip-path:url(#SVGID_00000101788081350838054480000010634221935464104869_);}
	.st26{clip-path:url(#SVGID_00000167359530882681256960000007915512885994168200_);fill:#E93032;}
	.st27{clip-path:url(#SVGID_00000171697951617318651950000017881523395799336123_);}
	.st28{clip-path:url(#SVGID_00000102526372924941018980000015068354415048642447_);}
	.st29{clip-path:url(#SVGID_00000000941313730794382920000007849130136036143030_);}
	.st30{clip-path:url(#SVGID_00000027597987418613684220000012796229743347502727_);fill:#0033CC;}
	.st31{clip-path:url(#SVGID_00000027597987418613684220000012796229743347502727_);fill:#FFD4F0;}
	.st32{clip-path:url(#SVGID_00000005983048844277996800000013795007836319076016_);}
	.st33{clip-path:url(#SVGID_00000124859530657379719410000012244904874845417103_);}
	.st34{clip-path:url(#SVGID_00000140700275992081986810000005724127912355100309_);fill:#E93032;}
	.st35{clip-path:url(#SVGID_00000001652421725800830350000007476145849169716143_);}
	.st36{clip-path:url(#SVGID_00000164510285496399842070000014650719239785955974_);}
	.st37{clip-path:url(#SVGID_00000096050970068150864430000003116269803299297946_);fill:#E93032;}
	.st38{clip-path:url(#SVGID_00000103970270098141982230000016996968082555365517_);}
	.st39{clip-path:url(#SVGID_00000178170751586280050460000007188304853470744464_);}
	.st40{clip-path:url(#SVGID_00000101092011904693541690000018265574034385943477_);fill:#E93032;}
	.st41{clip-path:url(#SVGID_00000061435524398927483720000012470955617214746500_);}
	.st42{clip-path:url(#SVGID_00000124124113124230456480000009002217516400667264_);}
	.st43{clip-path:url(#SVGID_00000030453850304707066580000017299831485703598720_);fill:#E93032;}
	.st44{clip-path:url(#SVGID_00000076568158857325709910000004631819296888049829_);}
	.st45{clip-path:url(#SVGID_00000166641452933422111110000010541094637899565189_);}
	.st46{clip-path:url(#SVGID_00000181075151731392125410000015480182501059754666_);fill:#E93032;}
	.st47{clip-path:url(#SVGID_00000007419821003954164520000006457776656733970332_);}
	.st48{clip-path:url(#SVGID_00000008115511704028172190000007286512909580129435_);}
	.st49{clip-path:url(#SVGID_00000042005172954783862700000011136293528198644645_);fill:#E93032;}
	.st50{clip-path:url(#SVGID_00000003067025977313876030000017709792522015881138_);}
	.st51{clip-path:url(#SVGID_00000108268661657489909740000003260544644517810841_);}
	.st52{clip-path:url(#SVGID_00000132069280283263595990000017980197302977946016_);fill:#E93032;}
	.st53{clip-path:url(#SVGID_00000011008206181548269880000012944419625766160783_);}
	.st54{clip-path:url(#SVGID_00000033365526023699225600000016069919549169309103_);}
	.st55{clip-path:url(#SVGID_00000088112407864819252720000001750167179899712669_);fill:#E93032;}
	.st56{clip-path:url(#SVGID_00000102508859206924518730000014976138063003169922_);}
	.st57{clip-path:url(#SVGID_00000007407902632597613100000005389021924240209801_);}
	.st58{fill:none;stroke:#FFD4F0;stroke-width:1.019;stroke-miterlimit:10;}
	.st59{clip-path:url(#SVGID_00000074426966318129925800000000906150771097187509_);}
	.st60{clip-path:url(#SVGID_00000138567295264645962910000001542526516840569246_);}
	.st61{clip-path:url(#SVGID_00000020399299466070514880000006925408532265116551_);fill:#E93032;}
	.st62{clip-path:url(#SVGID_00000087388744186598985800000002504640274710155674_);}
	.st63{clip-path:url(#SVGID_00000155862736630825280900000001886039707747864965_);}
	.st64{clip-path:url(#SVGID_00000067224126096990408700000000730986184317430144_);fill:#E93032;}
	.st65{clip-path:url(#SVGID_00000070809305180992072290000008333518591204970685_);}
	.st66{clip-path:url(#SVGID_00000057130838557017677870000010138870840894551189_);}
	.st67{clip-path:url(#SVGID_00000016075793499337990320000015988970151064321154_);}
	.st68{clip-path:url(#SVGID_00000170271374158813593810000004495281478673422219_);fill:#0033CC;}
	.st69{clip-path:url(#SVGID_00000170271374158813593810000004495281478673422219_);fill:#FFD4F0;}
	.st70{clip-path:url(#SVGID_00000072987573479250918060000009541630216417830328_);}
	.st71{clip-path:url(#SVGID_00000040533106251964552080000000046100463659729840_);}
	.st72{clip-path:url(#SVGID_00000049927379064984965610000004882007201529475004_);fill:#E93032;}
	.st73{clip-path:url(#SVGID_00000017513739289712855060000004669901328590236316_);}
	.st74{clip-path:url(#SVGID_00000052089562416615513570000015913158176605678507_);}
	.st75{clip-path:url(#SVGID_00000073705022281134246620000002886373727428682894_);fill:#E93032;}
	.st76{clip-path:url(#SVGID_00000173840861906140992200000004425122918085403277_);}
	.st77{clip-path:url(#SVGID_00000119097040570402791490000008333564926015281286_);}
	.st78{clip-path:url(#SVGID_00000180338594465607904080000015717400248246711978_);fill:#E93032;}
	.st79{clip-path:url(#SVGID_00000137835349330629458340000001148340691332993185_);}
	.st80{clip-path:url(#SVGID_00000115502198660997590090000006228775343926026928_);}
	.st81{clip-path:url(#SVGID_00000063600782123504188160000006085151743703744680_);fill:#E93032;}
	.st82{clip-path:url(#SVGID_00000145058577832778922240000008021067888441216141_);}
	.st83{clip-path:url(#SVGID_00000062901380439748550950000016200548670202684550_);}
	.st84{clip-path:url(#SVGID_00000094587696550489775060000011036936571575262109_);fill:#E93032;}
	.st85{clip-path:url(#SVGID_00000167368283198473474040000012448704464001071294_);}
	.st86{clip-path:url(#SVGID_00000106134997129492096290000001732368053614623672_);}
	.st87{clip-path:url(#SVGID_00000154407431239255037000000016245654790070983313_);fill:#E93032;}
	.st88{clip-path:url(#SVGID_00000106112663093983183570000006314071685040232628_);}
	.st89{clip-path:url(#SVGID_00000011721345340654105040000010295569137409096125_);}
	.st90{clip-path:url(#SVGID_00000091002195165089378680000016775068622346432428_);fill:#E93032;}
	.st91{clip-path:url(#SVGID_00000018214622181755202530000001116049801843341956_);}
	.st92{clip-path:url(#SVGID_00000183929281372168044490000000582785550246019201_);}
	.st93{clip-path:url(#SVGID_00000149368326035716223580000006225770172527168689_);fill:#E93032;}
	.st94{clip-path:url(#SVGID_00000000216525588624248250000002499334949718089139_);}
	.st95{fill:#606060;}
	.st96{clip-path:url(#SVGID_00000148648210359131159850000012632718606287442604_);}
	.st97{clip-path:url(#SVGID_00000098921513940775741650000012436324391916576693_);}
	.st98{opacity:0.84;fill:#E93032;}
	.st99{opacity:0.84;}
	.st100{clip-path:url(#SVGID_00000101074169476201498420000011471102187347536572_);}
	.st101{clip-path:url(#SVGID_00000122718759638619441880000003693311294240763528_);}
	.st102{display:none;}
	.st103{display:inline;fill:#FFEFD9;}
	.st104{display:inline;opacity:0.46;fill:#FFEFD9;}
	.st105{display:inline;opacity:0.36;}
	.st106{opacity:0.36;}
</style>
<g id="artwork">
	<g>
		<g>
			<path class="st15" d="M137.7,78.5c-1.2-2.4-1.8-5-1.7-7.6l0,0c0-6.4,3.6-12.5,9.7-15.5l0,0c8.6-4.2,18.9-0.6,23,8l0,0
				c1.2,2.4,1.7,5,1.7,7.6l0,0c0,6.4-3.6,12.5-9.7,15.5l0,0c-2.4,1.2-5,1.7-7.5,1.7l0,0C146.8,88.2,140.6,84.6,137.7,78.5z
				 M91.8,43.3c0-9.5,7.7-17.2,17.2-17.2l0,0c9.5,0,17.2,7.7,17.2,17.2l0,0c0,9.5-7.7,17.2-17.2,17.2l0,0
				C99.5,60.5,91.8,52.8,91.8,43.3z M146.9,31.8L146.9,31.8c-5.2-3.3-8.1-8.9-8.1-14.6l0,0c0-3.1,0.9-6.3,2.6-9.1l0,0
				c5.1-8,15.7-10.5,23.7-5.4l0,0l0,0l0,0c5.2,3.3,8.1,8.9,8.1,14.6l0,0c0,3.1-0.9,6.3-2.6,9.1l0,0c-3.3,5.2-8.9,8.1-14.6,8.1l0,0
				C152.9,34.4,149.7,33.6,146.9,31.8z"/>
		</g>
		<g>
			<path class="st16" d="M18.5,101.9c0.1,5.6-2.5,9.2-7.3,9.8c-3.8,0.5-6.9-1.3-8.4-4.4c0.2,4.2,0.4,8.4,0.6,10.5
				c-1.7-0.4-1.7-0.4-1.7-0.4L0.3,95l2-0.3c0,0,0.1,2.2,0.2,5.4c1.1-3.2,3.8-5.8,7.9-6.1C14.1,93.8,18.4,96.3,18.5,101.9z M10,96.9
				c-1.8,0.2-5.9,2.8-5,7c0.9,4.2,2.6,5.1,6,4.7s4.7-3.5,4.4-6.2C15.2,99.6,13.5,96.4,10,96.9z"/>
			<path class="st16" d="M44.8,95.7c0.2,1.4-0.7,2.8-2.5,3c-2.2,0.3-2.5-1.6-4.4-1.4c-1.4,0.2-3.2,2.2-4.6,4.1
				c0.6,4.9,1.3,10.8,1.5,12c0.2,2,2.3,2.8,3.6,2.6l0.1,0.6L28,117.9l-0.1-0.8c1.5-0.2,3.4-0.8,3.1-3.2s-1.4-11-1.7-13.8
				c-0.3-2.8-3.7-1.3-3.7-1.3l-0.1-0.5l7-3.8c0,0,0.3,2.5,0.7,5.6c1.7-2.3,5.3-6.4,8.2-6.7C43.5,93.3,44.6,94.3,44.8,95.7z"/>
			<path class="st16" d="M53.1,95.9c3.4-0.4,4.8,4.5,0.9,5.1C50.2,101.5,50.7,96.2,53.1,95.9z M56.1,103.8
				c0.2,1.7,1.6,11.2,1.8,12.6c0,0.1-0.1,0.2-0.2,0.2l-3.7,0.5c-0.1,0-0.2-0.1-0.2-0.1c-0.3-1.9-1-11.3-1.2-12.6
				c0-0.1,0-0.2,0.1-0.2c0.4-0.1,1.6-0.4,3.1-0.4C56,103.7,56.1,103.8,56.1,103.8z"/>
			<path class="st16" d="M80.5,99.6c-0.8,2.9-3.8,14.4-3.8,14.4l-5.4,0.7L64,100.1l5.5-0.7l6.6,13.4c0.4-1.7,1.7-6.9,2.3-9.2
				c0.7-2.6-1.3-3.2-0.8-5.1C78.2,96.8,81.2,96.7,80.5,99.6z"/>
			<path class="st16" d="M111.3,110.7c-0.1,0.9-0.6,3.5-3.3,4.2c-2.5,0.7-4.5,0-5.4-1.5c-0.1-0.2-0.4-0.2-0.6,0
				c-1.2,1.6-3.4,3.2-6.3,3.5c-4.5,0.5-6.2-2.9-6.2-5.8c0-3.4,3-5.6,5.3-6.7c2.7-1.3,5.7-2.1,5.7-3.7c0,0,0,0,0-0.1
				c-0.1-0.5-0.1-0.8-0.2-1.2c-0.4-2.4-2.1-2.9-3.9-2.3c-0.9,0.3-2.2,2.2-2.4,3.8c0,0.2-0.2,0.3-0.3,0.3c-0.5,0-1.5,0.1-2.7-0.2
				c-0.2,0-0.3-0.3-0.3-0.5c0.6-1.8,2-4.6,6-5.7c4.6-1.2,7.6,0.3,8.6,5.3c1.1,4.9,1.2,10.5,2.1,11.5c0.9,0.8,1.8-0.2,1.9-1.3
				c0-0.2,0.2-0.3,0.4-0.3l1.2,0.1C111.1,110.4,111.3,110.5,111.3,110.7z M101.8,109.8c-0.2-1.5-0.4-3.4-0.7-5.2
				c0-0.3-0.3-0.4-0.6-0.2c-0.4,0.3-1,0.7-1.7,1.1c-1.8,1.1-3.6,3.5-3.4,5c0.2,1.5,0.9,2.5,2.9,2.3c1.4-0.2,2.7-1.8,3.4-2.7
				C101.8,110,101.8,109.9,101.8,109.8z"/>
			<path class="st16" d="M129,116.2c-6.1,0.8-11.7-3.6-12.4-9.7c-0.8-6.1,3.6-11.7,9.7-12.4l0.3,2.5c-4.7,0.6-8.1,4.9-7.5,9.6
				s4.9,8.1,9.6,7.5L129,116.2z"/>
			<path class="st16" d="M136.2,95.9c3.4-0.4,4.8,4.5,0.9,5.1C133.3,101.5,133.9,96.2,136.2,95.9z M139.2,103.8
				c0.2,1.7,1.6,11.2,1.8,12.6c0,0.1-0.1,0.2-0.2,0.2l-3.7,0.5c-0.1,0-0.2-0.1-0.2-0.1c-0.3-1.9-1-11.3-1.2-12.6
				c0-0.1,0-0.2,0.1-0.2c0.4-0.1,1.6-0.4,3.1-0.4C139.1,103.7,139.2,103.8,139.2,103.8z"/>
			<path class="st16" d="M163.6,91.6l1.9,15.6c0.6,4.8-2.8,9.1-7.6,9.7c-4.8,0.6-9.1-2.8-9.7-7.6c-0.6-4.8,2.8-9.1,7.6-9.7
				c2-0.2,4,0.2,5.6,1.2l-1.1-8.8L163.6,91.6z M162.2,107.6c-0.4-2.9-3-5-6-4.7c-2.9,0.4-5,3.1-4.7,6c0.4,2.9,3.1,5,6,4.7
				C160.4,113.2,162.5,110.5,162.2,107.6z"/>
			<path class="st16" d="M195.1,110.7c-0.1,0.9-0.6,3.5-3.3,4.2c-2.5,0.7-4.5,0-5.4-1.5c-0.1-0.2-0.4-0.2-0.6,0
				c-1.2,1.6-3.4,3.2-6.3,3.5c-4.5,0.5-6.2-2.9-6.2-5.8c0-3.4,3-5.6,5.3-6.7c2.7-1.3,5.7-2.1,5.7-3.7c0,0,0,0,0-0.1
				c-0.1-0.5-0.1-0.8-0.2-1.2c-0.4-2.4-2.1-2.9-3.9-2.3c-0.9,0.3-2.2,2.2-2.4,3.8c0,0.2-0.2,0.3-0.3,0.3c-0.5,0-1.5,0.1-2.7-0.2
				c-0.2,0-0.3-0.3-0.3-0.5c0.6-1.8,2-4.6,6-5.7c4.6-1.2,7.6,0.3,8.6,5.3c1.1,4.9,1.2,10.5,2.1,11.5c0.9,0.8,1.8-0.2,1.9-1.3
				c0-0.2,0.2-0.3,0.4-0.3l1.2,0.1C195,110.4,195.1,110.5,195.1,110.7z M185.6,109.8c-0.2-1.5-0.4-3.4-0.7-5.2
				c0-0.3-0.3-0.4-0.6-0.2c-0.4,0.3-1,0.7-1.7,1.1c-1.8,1.1-3.6,3.5-3.4,5c0.2,1.5,0.9,2.5,2.9,2.3c1.4-0.2,2.7-1.8,3.4-2.7
				C185.6,110,185.6,109.9,185.6,109.8z"/>
			<path class="st16" d="M216,91.6l1.9,15.6c0.6,4.8-2.8,9.1-7.6,9.7c-4.8,0.6-9.1-2.8-9.7-7.6c-0.6-4.8,2.8-9.1,7.6-9.7
				c2-0.2,4,0.2,5.6,1.2l-1.1-8.8L216,91.6z M214.6,107.6c-0.4-2.9-3-5-6-4.7c-2.9,0.4-5,3.1-4.7,6c0.4,2.9,3.1,5,6,4.7
				C212.9,113.2,215,110.5,214.6,107.6z"/>
			<path class="st16" d="M226.8,106.7c-0.2,0-0.3,0.2-0.3,0.4c0.7,5.7,5.5,7.4,8.2,6.7c2.2-0.5,3.4-2.6,3.8-3.5
				c0.1-0.2,0.3-0.3,0.5-0.1l0.7,0.5c0.1,0.1,0.2,0.3,0.1,0.4c-0.4,0.8-1.7,3.2-5.1,4c-4.1,1-8.3-2-9.3-6.8
				c-1-4.8,1.6-10.1,6.7-10.8c5-0.7,7.6,2.3,8,6.2c0,0.2-0.1,0.3-0.3,0.4c-3.4,0.8-11.5,2.3-11.5,2.3L226.8,106.7z M226.4,105.1
				c0,0.2,0.2,0.4,0.4,0.4c2-0.4,6.8-1.4,11.6-2.3c0.2,0,0.3-0.3,0.3-0.5c-1.1-3.3-4.1-4.2-5.9-3.9
				C231.1,99,226.8,100.1,226.4,105.1z"/>
			<path class="st16" d="M278.4,106.9C278.4,106.9,278.4,106.9,278.4,106.9c-1.1,1.6-2.4,3-4,4.3c-0.8,0.6-1.6,1.2-2.4,1.7
				c-0.8,0.5-1.7,0.9-2.7,1.2c-0.9,0.3-1.9,0.5-3,0.3c-0.5-0.1-1-0.3-1.5-0.6c-0.4-0.3-0.7-0.8-0.9-1.3c-0.2-0.5-0.2-1-0.3-1.5
				c0,0,0,0,0,0c-0.2-0.1-0.4-0.3-0.4-0.6c0-0.3,0.1-0.6,0.4-0.8c0,0,0-0.1,0-0.1c0.1-0.5,0.1-1,0.3-1.5c0.1-0.5,0.3-0.9,0.4-1.4
				c0.3-0.9,0.7-1.8,1.2-2.7c0.5-0.8,1.1-1.7,1.8-2.4c0.4-0.4,0.7-0.7,1.2-1c0.5-0.3,1-0.5,1.6-0.5c0.3,0,0.7,0.1,1,0.3
				c0.3,0.2,0.5,0.5,0.7,0.8c0.3,0.6,0.3,1.1,0.3,1.7c-0.1,1.1-0.4,2-0.8,3c-0.4,0.9-1,1.8-1.7,2.5c-0.7,0.7-1.5,1.4-2.4,1.9
				c-0.8,0.4-1.7,0.7-2.7,0.9c0,0.4,0.1,0.9,0.2,1.3c0.1,0.4,0.4,0.8,0.7,1c0.3,0.3,0.7,0.4,1.1,0.5c0.9,0.1,1.8,0,2.7-0.3
				c0.9-0.3,1.7-0.7,2.5-1.1c0.8-0.5,1.6-1,2.3-1.6c1.5-1.2,2.7-2.6,3.8-4.1c0.1-0.2,0.3-0.2,0.5-0.1
				C278.5,106.5,278.5,106.7,278.4,106.9z M264.6,109.3c0.7-0.1,1.3-0.3,2-0.6c0.8-0.4,1.5-0.9,2.1-1.5c0.6-0.6,1.2-1.4,1.6-2.1
				c0.4-0.8,0.7-1.6,0.8-2.5c0-0.4,0-0.8-0.1-1.1c-0.1-0.3-0.3-0.4-0.7-0.4c-0.4,0-0.7,0.1-1.1,0.3c-0.4,0.2-0.7,0.5-1,0.8
				c-0.6,0.6-1.2,1.4-1.7,2.2c-0.5,0.8-0.9,1.6-1.2,2.5C265,107.6,264.7,108.5,264.6,109.3z M266.4,98c0.2-0.5,0.5-0.9,0.7-1.3
				c0.3-0.4,0.5-0.9,0.8-1.3c0.6-0.8,1.2-1.7,2-2.4c0.1-0.1,0.4-0.1,0.5,0c0.1,0.1,0.1,0.4,0,0.5c0,0,0,0,0,0l0,0
				c-0.7,0.6-1.4,1.4-1.9,2.2c-0.3,0.4-0.6,0.8-0.8,1.2c-0.3,0.4-0.5,0.9-0.8,1.3l0,0c-0.1,0.1-0.2,0.2-0.4,0.1
				C266.4,98.3,266.4,98.1,266.4,98z"/>
			<path class="st16" d="M26.4,157.5c-6.1,0.8-11.7-3.6-12.4-9.7s3.6-11.7,9.7-12.4l0.3,2.5c-4.7,0.6-8.1,4.9-7.5,9.6
				s4.9,8.1,9.6,7.5L26.4,157.5z"/>
			<path class="st16" d="M49.2,146.1c0.6,4.6-2.9,8.8-7.8,9.4s-9.2-2.6-9.8-7.2c-0.6-4.6,2.9-8.8,7.8-9.4
				C44.2,138.3,48.6,141.6,49.2,146.1z M46.7,146.4c-0.5-3.9-3.7-6.8-7.2-6.4c-3.5,0.4-5.9,4-5.4,7.9c0.5,3.9,3.7,6.8,7.2,6.4
				C44.7,153.9,47.2,150.4,46.7,146.4z"/>
			<path class="st16" d="M56.7,137.2c3.4-0.4,4.8,4.5,0.9,5.1C53.9,142.8,54.4,137.5,56.7,137.2z M59.7,145.2
				c0.2,1.7,1.6,11.2,1.8,12.6c0,0.1-0.1,0.2-0.2,0.2l-3.7,0.5c-0.1,0-0.2-0.1-0.2-0.1c-0.3-1.9-1-11.3-1.2-12.6
				c0-0.1,0-0.2,0.1-0.2c0.4-0.1,1.6-0.4,3.1-0.4C59.7,145,59.7,145.1,59.7,145.2z"/>
			<path class="st16" d="M77.6,160.8c-3.6,0.4-7-1-8.2-5.4c-0.1-0.2,0.1-0.4,0.2-0.4c2-0.6,4.5-1.1,5.4-1.3c0.2,0,0.4,0.1,0.4,0.3
				c0.1,0.6,0.3,1.8,1.4,1.7c1.5-0.1,1.4-2.1,0-3.6c-1.4-1.5-8-5.6-8.8-10.3c-0.7-4,2-7.5,5.9-8c3.8-0.5,6.6,2.7,7.1,5.1
				c0,0.2-0.1,0.4-0.3,0.4l-5.1,1c-0.2,0-0.4-0.1-0.4-0.3c-0.1-0.5-0.2-1.2-0.9-1.1c-0.7,0-1.4,1.5,1.7,3.7s6.5,3.7,7.4,8.7
				C84.4,156.3,81.3,160.3,77.6,160.8z"/>
			<path class="st16" d="M112.9,152.1c-0.1,0.9-0.6,3.5-3.3,4.2c-2.5,0.7-4.5,0-5.4-1.5c-0.1-0.2-0.4-0.2-0.6,0
				c-1.2,1.6-3.4,3.2-6.3,3.5c-4.5,0.5-6.2-2.9-6.2-5.8c0-3.4,3-5.6,5.3-6.7c2.7-1.3,5.7-2.1,5.7-3.7c0,0,0,0,0-0.1
				c-0.1-0.5-0.1-0.8-0.2-1.2c-0.4-2.4-2.1-2.9-3.9-2.3c-0.9,0.3-2.2,2.2-2.4,3.8c0,0.2-0.2,0.3-0.3,0.3c-0.5,0-1.5,0.1-2.7-0.2
				c-0.2,0-0.3-0.3-0.3-0.5c0.6-1.8,2-4.6,6-5.7c4.6-1.2,7.6,0.3,8.6,5.3c1.1,4.9,1.2,10.5,2.1,11.5c0.9,0.8,1.8-0.2,1.9-1.3
				c0-0.2,0.2-0.3,0.4-0.3l1.2,0.1C112.8,151.7,112.9,151.9,112.9,152.1z M103.4,151.1c-0.2-1.5-0.4-3.4-0.7-5.2
				c0-0.3-0.3-0.4-0.6-0.2c-0.4,0.3-1,0.7-1.7,1.1c-1.8,1.1-3.6,3.5-3.4,5c0.2,1.5,0.9,2.5,2.9,2.3c1.4-0.2,2.7-1.8,3.4-2.7
				C103.4,151.3,103.4,151.2,103.4,151.1z"/>
			<path class="st16" d="M151.3,143.3c0.1,5.6-2.5,9.2-7.3,9.8c-3.8,0.5-6.9-1.3-8.4-4.4c0.2,4.2,0.4,8.4,0.6,10.5
				c-1.7-0.4-1.7-0.4-1.7-0.4l-1.5-22.3l2-0.3c0,0,0.1,2.2,0.2,5.4c1.1-3.2,3.8-5.8,7.9-6.1C146.8,135.1,151.2,137.6,151.3,143.3z
				 M142.7,138.2c-1.8,0.2-5.9,2.8-5,7c0.9,4.2,2.6,5.1,6,4.7s4.7-3.5,4.4-6.2C147.9,140.9,146.2,137.8,142.7,138.2z"/>
			<path class="st16" d="M177.6,137.1c0.2,1.4-0.7,2.8-2.5,3c-2.2,0.3-2.5-1.6-4.4-1.4c-1.4,0.2-3.2,2.2-4.6,4.1
				c0.6,4.9,1.3,10.8,1.5,12c0.2,2,2.3,2.8,3.6,2.6l0.1,0.6l-10.5,1.3l-0.1-0.8c1.5-0.2,3.4-0.8,3.1-3.2s-1.4-11-1.7-13.8
				c-0.3-2.8-3.7-1.3-3.7-1.3l-0.1-0.5l7-3.8c0,0,0.3,2.5,0.7,5.6c1.7-2.3,5.3-6.4,8.2-6.7C176.3,134.6,177.4,135.7,177.6,137.1z"/>
			<path class="st16" d="M207.2,152.1c-0.1,0.9-0.6,3.5-3.3,4.2c-2.5,0.7-4.5,0-5.4-1.5c-0.1-0.2-0.4-0.2-0.6,0
				c-1.2,1.6-3.4,3.2-6.3,3.5c-4.5,0.5-6.2-2.9-6.2-5.8c0-3.4,3-5.6,5.3-6.7c2.7-1.3,5.7-2.1,5.7-3.7c0,0,0,0,0-0.1
				c-0.1-0.5-0.1-0.8-0.2-1.2c-0.4-2.4-2.1-2.9-3.9-2.3c-0.9,0.3-2.2,2.2-2.4,3.8c0,0.2-0.2,0.3-0.3,0.3c-0.5,0-1.5,0.1-2.7-0.2
				c-0.2,0-0.3-0.3-0.3-0.5c0.6-1.8,2-4.6,6-5.7c4.6-1.2,7.6,0.3,8.6,5.3c1.1,4.9,1.2,10.5,2.1,11.5c0.9,0.8,1.8-0.2,1.9-1.3
				c0-0.2,0.2-0.3,0.4-0.3l1.2,0.1C207.1,151.7,207.2,151.9,207.2,152.1z M197.8,151.1c-0.2-1.5-0.4-3.4-0.7-5.2
				c0-0.3-0.3-0.4-0.6-0.2c-0.4,0.3-1,0.7-1.7,1.1c-1.8,1.1-3.6,3.5-3.4,5c0.2,1.5,0.9,2.5,2.9,2.3c1.4-0.2,2.7-1.8,3.4-2.7
				C197.7,151.3,197.8,151.2,197.8,151.1z"/>
			<path class="st16" d="M236.7,160.8c-3.6,0.4-7-1-8.2-5.4c-0.1-0.2,0.1-0.4,0.2-0.4c2-0.6,4.5-1.1,5.4-1.3c0.2,0,0.4,0.1,0.4,0.3
				c0.1,0.6,0.3,1.8,1.4,1.7c1.5-0.1,1.4-2.1,0-3.6c-1.4-1.5-8-5.6-8.8-10.3c-0.7-4,2-7.5,5.9-8c3.8-0.5,6.6,2.7,7.1,5.1
				c0,0.2-0.1,0.4-0.3,0.4l-5.1,1c-0.2,0-0.4-0.1-0.4-0.3c-0.1-0.5-0.2-1.2-0.9-1.1c-0.7,0-1.4,1.5,1.7,3.7s6.5,3.7,7.4,8.7
				C243.5,156.3,240.4,160.3,236.7,160.8z"/>
			<path class="st16" d="M251.2,148c-0.2,0-0.3,0.2-0.3,0.4c0.7,5.7,5.5,7.4,8.2,6.7c2.2-0.5,3.4-2.6,3.8-3.5
				c0.1-0.2,0.3-0.3,0.5-0.1l0.7,0.5c0.1,0.1,0.2,0.3,0.1,0.4c-0.4,0.8-1.7,3.2-5.1,4c-4.1,1-8.3-2-9.3-6.8
				c-1-4.8,1.6-10.1,6.7-10.8c5-0.7,7.6,2.3,8,6.2c0,0.2-0.1,0.3-0.3,0.4c-3.4,0.8-11.5,2.3-11.5,2.3L251.2,148z M250.9,146.4
				c0,0.2,0.2,0.4,0.4,0.4c2-0.4,6.8-1.4,11.6-2.3c0.2,0,0.3-0.3,0.3-0.5c-1.1-3.3-4.1-4.2-5.9-3.9
				C255.6,140.3,251.3,141.5,250.9,146.4z"/>
			<path class="st16" d="M73.8,197.1c0.1,3.8-3.2,5.4-9.1,6.3c-5,0.7-9.7-0.8-10.9-1.3c-0.2-0.1-0.3-0.3-0.2-0.5l0.7-1.5
				c0.1-0.2,0.3-0.2,0.4-0.2c4.1,1.7,12.3,1.2,14.8,0c2.6-1.2,2.3-4.2-1.2-3.9c-2.8,0.3-7,1.3-8.5,1.6c-0.3,0.1-0.5-0.2-0.4-0.4
				l1.1-3.5c0.1-0.2-0.1-0.4-0.3-0.4c-2.7-0.5-4.7-2.3-4.8-6.2c-0.1-5.2,3.8-7.5,6.5-8c1.2-0.2,2.4-0.2,3.5,0.1c0.2,0,0.3,0,0.4-0.2
				l1-2.5c0.1-0.2,0.3-0.3,0.5-0.2l1.2,0.8c0.2,0.1,0.2,0.3,0.1,0.5l-1.4,2.1c-0.1,0.2-0.1,0.4,0.1,0.5c1.4,1.1,2.4,2.8,2.4,5.1
				c0.1,4.8-2.5,7.5-6.6,8c-0.1,0-0.2,0-0.3,0c-0.1,0-0.2,0.1-0.3,0.2l-0.4,0.9c-0.1,0.3,0.1,0.6,0.4,0.5c0.8-0.2,2.4-0.6,4.7-1.1
				C70.9,193.1,73.7,193.3,73.8,197.1z M64,190.3c2.3-0.4,3.2-3.3,2.9-5.3s-1.9-4.2-5-3.6c-1.7,0.3-4,3.2-3.6,5.9
				C58.8,189.9,61.8,190.8,64,190.3z"/>
			<path class="st16" d="M81.2,180.5c0.2,0,0.3,0.1,0.3,0.3c0,1.3,0.2,6.7,0.6,9.6c0.4,3.3,0.8,5.9,3.6,5.6c2.8-0.3,4.1-4.5,3.9-6.2
				c-0.2-1.7-0.2-3.9-0.8-8.8c0-0.2,0.1-0.3,0.2-0.3l1.9-0.3c0.2,0,0.3,0.1,0.3,0.3c0.1,1.3,0.6,6.5,1.2,10.7
				c0.6,4.5,1.2,5.2,2.9,5.5c0.2,0,0.3,0.2,0.2,0.4l-0.5,1.3c0,0.1-0.1,0.1-0.2,0.2c-1.1,0.4-3.4-0.4-4-2.8
				c-0.1-0.2-0.4-0.3-0.5-0.1c-0.9,1.3-2.6,2.9-5.6,3.3c-3.5,0.4-5.3-3.4-5.6-6.8c-0.2-2.9-0.7-9.9-0.7-11.5c0-0.2,0.1-0.3,0.3-0.3
				L81.2,180.5z"/>
			<path class="st16" d="M122.8,193.4c-0.1,0.9-0.6,3.5-3.3,4.2c-2.5,0.7-4.5,0-5.4-1.5c-0.1-0.2-0.4-0.2-0.6,0
				c-1.2,1.6-3.4,3.2-6.3,3.5c-4.5,0.5-6.2-2.9-6.2-5.8c0-3.4,3-5.6,5.3-6.7c2.7-1.3,5.7-2.1,5.7-3.7c0,0,0,0,0-0.1
				c-0.1-0.5-0.1-0.8-0.2-1.2c-0.4-2.4-2.1-2.9-3.9-2.3c-0.9,0.3-2.2,2.2-2.4,3.8c0,0.2-0.2,0.3-0.3,0.3c-0.5,0-1.5,0.1-2.7-0.2
				c-0.2,0-0.3-0.3-0.3-0.5c0.6-1.8,2-4.6,6-5.7c4.6-1.2,7.6,0.3,8.6,5.3c1.1,4.9,1.2,10.5,2.1,11.5c0.9,0.8,1.8-0.2,1.9-1.3
				c0-0.2,0.2-0.3,0.4-0.3l1.2,0.1C122.7,193,122.9,193.2,122.8,193.4z M113.4,192.5c-0.2-1.5-0.4-3.4-0.7-5.2
				c0-0.3-0.3-0.4-0.6-0.2c-0.4,0.3-1,0.7-1.7,1.1c-1.8,1.1-3.6,3.5-3.4,5c0.2,1.5,0.9,2.5,2.9,2.3c1.4-0.2,2.7-1.8,3.4-2.7
				C113.4,192.6,113.4,192.5,113.4,192.5z"/>
			<path class="st16" d="M146.4,178.4c0.2,1.4-0.7,2.8-2.5,3c-2.2,0.3-2.5-1.6-4.4-1.4c-1.4,0.2-3.2,2.2-4.6,4.1
				c0.6,4.9,1.3,10.8,1.5,12c0.2,2,2.3,2.8,3.6,2.6l0.1,0.6l-10.5,1.3l-0.1-0.8c1.5-0.2,3.4-0.8,3.1-3.2s-1.4-11-1.7-13.8
				c-0.3-2.8-3.7-1.3-3.7-1.3l-0.1-0.5l7-3.8c0,0,0.3,2.5,0.7,5.6c1.7-2.3,5.3-6.4,8.2-6.7C145.1,175.9,146.2,177,146.4,178.4z"/>
			<path class="st16" d="M169.4,174.2l1.9,15.6c0.6,4.8-2.8,9.1-7.6,9.7c-4.8,0.6-9.1-2.8-9.7-7.6c-0.6-4.8,2.8-9.1,7.6-9.7
				c2-0.2,4,0.2,5.6,1.2l-1.1-8.8L169.4,174.2z M168,190.2c-0.4-2.9-3-5-6-4.7c-2.9,0.4-5,3.1-4.7,6c0.4,2.9,3.1,5,6,4.7
				C166.3,195.8,168.4,193.2,168,190.2z"/>
			<path class="st16" d="M200.9,193.4c-0.1,0.9-0.6,3.5-3.3,4.2c-2.5,0.7-4.5,0-5.4-1.5c-0.1-0.2-0.4-0.2-0.6,0
				c-1.2,1.6-3.4,3.2-6.3,3.5c-4.5,0.5-6.2-2.9-6.2-5.8c0-3.4,3-5.6,5.3-6.7c2.7-1.3,5.7-2.1,5.7-3.7c0,0,0,0,0-0.1
				c-0.1-0.5-0.1-0.8-0.2-1.2c-0.4-2.4-2.1-2.9-3.9-2.3c-0.9,0.3-2.2,2.2-2.4,3.8c0,0.2-0.2,0.3-0.3,0.3c-0.5,0-1.5,0.1-2.7-0.2
				c-0.2,0-0.3-0.3-0.3-0.5c0.6-1.8,2-4.6,6-5.7c4.6-1.2,7.6,0.3,8.6,5.3c1.1,4.9,1.2,10.5,2.1,11.5c0.9,0.8,1.8-0.2,1.9-1.3
				c0-0.2,0.2-0.3,0.4-0.3l1.2,0.1C200.8,193,200.9,193.2,200.9,193.4z M191.4,192.5c-0.2-1.5-0.4-3.4-0.7-5.2
				c0-0.3-0.3-0.4-0.6-0.2c-0.4,0.3-1,0.7-1.7,1.1c-1.8,1.1-3.6,3.5-3.4,5c0.2,1.5,0.9,2.5,2.9,2.3c1.4-0.2,2.7-1.8,3.4-2.7
				C191.4,192.6,191.4,192.5,191.4,192.5z"/>
			<path class="st16" d="M224.4,178.4c0.2,1.4-0.7,2.8-2.5,3c-2.2,0.3-2.5-1.6-4.4-1.4c-1.4,0.2-3.2,2.2-4.6,4.1
				c0.6,4.9,1.3,10.8,1.5,12c0.2,2,2.3,2.8,3.6,2.6l0.1,0.6l-10.5,1.3l-0.1-0.8c1.5-0.2,3.4-0.8,3.1-3.2s-1.4-11-1.7-13.8
				c-0.3-2.8-3.7-1.3-3.7-1.3l-0.1-0.5l7-3.8c0,0,0.3,2.5,0.7,5.6c1.7-2.3,5.3-6.4,8.2-6.7C223.1,175.9,224.3,177,224.4,178.4z"/>
			<path class="st16" d="M47.7,215.6l1.9,15.6c0.6,4.8-2.8,9.1-7.6,9.7c-4.8,0.6-9.1-2.8-9.7-7.6c-0.6-4.8,2.8-9.1,7.6-9.7
				c2-0.2,4,0.2,5.6,1.2l-1.1-8.8L47.7,215.6z M46.4,231.5c-0.4-2.9-3-5-6-4.7c-2.9,0.4-5,3.1-4.7,6c0.4,2.9,3.1,5,6,4.7
				C44.6,237.2,46.7,234.5,46.4,231.5z"/>
			<path class="st16" d="M58.5,230.6c-0.2,0-0.3,0.2-0.3,0.4c0.7,5.7,5.5,7.4,8.2,6.7c2.2-0.5,3.4-2.6,3.8-3.5
				c0.1-0.2,0.3-0.3,0.5-0.1l0.7,0.5c0.1,0.1,0.2,0.3,0.1,0.4c-0.4,0.8-1.7,3.2-5.1,4c-4.1,1-8.3-2-9.3-6.8
				c-1-4.8,1.6-10.1,6.7-10.8c5-0.7,7.6,2.3,8,6.2c0,0.2-0.1,0.3-0.3,0.4c-3.4,0.8-11.5,2.3-11.5,2.3L58.5,230.6z M58.2,229.1
				c0,0.2,0.2,0.4,0.4,0.4c2-0.4,6.8-1.4,11.6-2.3c0.2,0,0.3-0.3,0.3-0.5c-1.1-3.3-4.1-4.2-5.9-3.9C62.9,223,58.6,224.1,58.2,229.1z
				"/>
			<path class="st16" d="M89.8,216c0.3,4.1-2.3,11.3-5,15.2c0.5-0.4,1.3-0.6,1.8-0.7c0.6,0,1.6,0.4,2.1,1.5c0.6,1.4,0.6,4-0.8,6.5
				c-0.8,1.3-2.2,2.2-3.2,2.3c-0.5,0.1-1-0.1-1.3-0.5c-0.8-0.9-1.1-3.1-0.9-6.6c-0.5,0.6-1.1,1.5-1.5,2.3l-0.6-0.7
				c0.6-1,1.4-1.9,2.2-2.8c0.2-2.1,0.5-4.5,1-7.4c1.2-6.6,3.4-11.7,5-11.6C89.3,213.7,89.7,214.5,89.8,216z M83.4,233
				c-0.4,4.6-0.2,6.6,0.4,7.2c0.2,0.2,0.5,0.4,0.8,0.3c0.8-0.1,1.6-1,2.2-2.2c1-1.7,1.6-4.2,0.8-6c-0.3-0.7-0.7-1-1.2-1
				C85.6,231.2,84.6,231.9,83.4,233z M88.6,214.4C88.5,214.4,88.5,214.4,88.6,214.4c-0.9,0.1-3,3.9-4.3,11c-0.5,2.6-0.6,4.7-0.8,6.5
				c3.1-3.1,6.2-11.2,5.9-15.7C89.2,215,88.7,214.4,88.6,214.4z"/>
			<path class="st16" d="M119.1,234.7c-0.1,0.9-0.6,3.5-3.3,4.2c-2.5,0.7-4.5,0-5.4-1.5c-0.1-0.2-0.4-0.2-0.6,0
				c-1.2,1.6-3.4,3.2-6.3,3.5c-4.5,0.5-6.2-2.9-6.2-5.8c0-3.4,3-5.6,5.3-6.7c2.7-1.3,5.7-2.1,5.7-3.7c0,0,0,0,0-0.1
				c-0.1-0.5-0.1-0.8-0.2-1.2c-0.4-2.4-2.1-2.9-3.9-2.3c-0.9,0.3-2.2,2.2-2.4,3.8c0,0.2-0.2,0.3-0.3,0.3c-0.5,0-1.5,0.1-2.7-0.2
				c-0.2,0-0.3-0.3-0.3-0.5c0.6-1.8,2-4.6,6-5.7c4.6-1.2,7.6,0.3,8.6,5.3c1.1,4.9,1.2,10.5,2.1,11.5c0.9,0.8,1.8-0.2,1.9-1.3
				c0-0.2,0.2-0.3,0.4-0.3l1.2,0.1C118.9,234.3,119.1,234.5,119.1,234.7z M109.6,233.8c-0.2-1.5-0.4-3.4-0.7-5.2
				c0-0.3-0.3-0.4-0.6-0.2c-0.4,0.3-1,0.7-1.7,1.1c-1.8,1.1-3.6,3.5-3.4,5c0.2,1.5,0.9,2.5,2.9,2.3c1.4-0.2,2.7-1.8,3.4-2.7
				C109.6,233.9,109.6,233.9,109.6,233.8z"/>
			<path class="st16" d="M125.3,219.9c3.4-0.4,4.8,4.5,0.9,5.1C122.4,225.5,123,220.2,125.3,219.9z M128.3,227.8
				c0.2,1.7,1.6,11.2,1.8,12.6c0,0.1-0.1,0.2-0.2,0.2l-3.7,0.5c-0.1,0-0.2-0.1-0.2-0.1c-0.3-1.9-1-11.3-1.2-12.6
				c0-0.1,0-0.2,0.1-0.2c0.4-0.1,1.6-0.4,3.1-0.4C128.2,227.7,128.3,227.7,128.3,227.8z"/>
			<path class="st16" d="M160.9,218.3C160.9,218.3,160.9,218.3,160.9,218.3c0.1,0.8-0.4,1.5-1.2,1.6c-0.8,0.1-1.5-0.4-1.5-1.2
				c-0.1-0.6,0.3-1.2,0.8-1.4c0,0,0,0,0,0c-0.3-0.1-0.7,0-1,0c-0.4,0.1-0.7,0.2-1.1,0.4c-0.7,0.3-1.3,0.8-1.8,1.4
				c-0.5,0.6-1,1.3-1.4,2c-0.8,1.4-1.4,2.9-1.9,4.5c-0.4,1.6-0.7,3.2-0.9,4.9c-0.2,1.6-0.1,3.3,0.3,4.8c0.2,0.7,0.5,1.5,1,2
				c0.4,0.6,1,1,1.7,1.2c0.7,0.2,1.4,0.2,2.1,0c0.7-0.2,1.3-0.5,1.9-1c0.5-0.5,0.9-1.2,1.1-1.9c0.1-0.4,0.2-0.8,0.3-1.1
				c0.1-0.3,0.1-0.7,0.1-1c0-0.1,0.1-0.2,0.2-0.2l0.8,0c0.1,0,0.2,0.1,0.2,0.2c0,0.8-0.1,1.7-0.4,2.5c-0.3,0.9-0.7,1.7-1.4,2.5
				c-0.7,0.7-1.6,1.2-2.5,1.5c-0.5,0.1-0.9,0.2-1.4,0.2c-0.5,0-1-0.1-1.5-0.2c-1-0.3-1.8-0.9-2.4-1.7c-0.6-0.8-1-1.6-1.2-2.5
				c-0.1-0.3-0.2-0.7-0.2-1c-0.1,0.4-0.3,0.8-0.4,1.1c-0.6,1.2-1.3,2.4-2.2,3.4c-0.9,1-2,1.9-3.4,2.4c-0.7,0.2-1.4,0.4-2.1,0.4
				c-0.7,0-1.4-0.1-2.2-0.3c-0.7-0.3-1.4-0.8-1.8-1.4c-0.5-0.6-0.7-1.4-0.7-2.1c-0.1-0.7,0-1.5,0.3-2.2c0.1-0.3,0.3-0.7,0.5-1
				c0.1-0.2,0.2-0.3,0.3-0.4c0.1-0.1,0.2-0.3,0.4-0.4c0.1-0.1,0.3-0.2,0.4-0.4c0,0,0,0,0,0c0.2-0.1,0.3-0.2,0.5-0.3
				c0.2-0.1,0.3-0.2,0.5-0.3c0,0,0,0,0,0c0.2-0.1,0.4-0.1,0.6-0.2c0.4-0.1,0.9,0,1.3,0.1c0.3,0.1,0.5,0.3,0.8,0.5
				c0.3,0.2,0.4,0.5,0.5,0.9c0.1,0.8-0.4,1.5-1.2,1.5c-0.8,0.1-1.5-0.4-1.5-1.2c0-0.1,0-0.2,0-0.2c0,0-0.1,0-0.1,0.1
				c-0.1,0.1-0.2,0.1-0.3,0.2c0,0,0,0,0,0c-0.1,0.1-0.2,0.2-0.3,0.3c-0.1,0.1-0.2,0.2-0.3,0.3c-0.1,0.1-0.2,0.2-0.2,0.3
				c-0.1,0.2-0.2,0.4-0.3,0.7c-0.2,0.5-0.2,1-0.2,1.5c0.1,0.5,0.2,1,0.5,1.4c0.3,0.4,0.6,0.7,1.1,0.8c0.4,0.2,1,0.2,1.5,0.2
				c0.6,0,1.1-0.1,1.6-0.3c1-0.4,1.9-1.1,2.6-2c0.7-0.9,1.3-1.9,1.8-2.9c0.9-2.1,1.4-4.5,1.2-6.8c-0.1-1.2-0.3-2.3-0.6-3.4
				c-0.3-1.1-0.9-2.1-1.6-2.9c-0.4-0.4-0.8-0.7-1.3-0.8c-0.5-0.2-1-0.2-1.5-0.2c-1.1,0.1-2.1,0.7-2.8,1.6c-0.7,0.9-1,2-1,3.2
				c0,0.6,0.1,1.1,0.3,1.7c0.2,0.5,0.5,1,0.9,1.3c0,0,0,0,0,0c0.2,0.1,0.4,0.3,0.7,0.3c0.1,0,0.1,0,0.2,0c0.1,0,0.1,0,0.2,0l0.2,0
				c0,0,0,0,0,0l0.2,0l0.1,0l0.1,0l0.2,0c0,0,0,0,0,0l0.2-0.1l0.1,0l0.1,0c0.3-0.1,0.5-0.2,0.7-0.4c0,0,0,0,0,0
				c0.4-0.3,0.8-0.8,1.1-1.2c0.1-0.2,0.3-0.5,0.3-0.8c0.1-0.2,0.1-0.4,0.1-0.6c0-0.1,0.1-0.2,0.2-0.2l0.3,0c0.1,0,0.2,0.1,0.1,0.2
				c0,0.5-0.2,1.9-1.7,3.2c0,0,0,0,0,0c-0.1,0.1-0.3,0.2-0.4,0.3l-0.2,0.1c0,0,0,0,0,0l-0.2,0.1l-0.1,0.1l-0.1,0l-0.2,0.1
				c0,0,0,0,0,0l-0.3,0l-0.1,0l-0.1,0l-0.3,0c0,0,0,0,0,0l-0.3,0c-0.1,0-0.2,0-0.3,0c-0.1,0-0.2,0-0.3-0.1c-0.4-0.1-0.7-0.2-1-0.4
				c-0.6-0.4-1-1-1.3-1.7c-0.3-0.6-0.4-1.3-0.4-2c0-0.7,0.1-1.3,0.2-2c0.2-0.7,0.5-1.3,0.9-1.9c0.4-0.6,0.9-1.1,1.5-1.4
				c0.6-0.4,1.3-0.6,2-0.7c0.7-0.1,1.4-0.1,2.1,0.1c0.7,0.2,1.3,0.6,1.9,1c1.1,0.9,1.8,2.2,2.3,3.4c0.1,0.3,0.2,0.6,0.3,1
				c0.1,0.3,0.2,0.6,0.2,1c0,0.1,0,0.1,0,0.2c0.1-0.3,0.2-0.7,0.3-1c0.5-1.7,1.2-3.3,2.1-4.8c0.5-0.7,1-1.4,1.6-2.1
				c0.6-0.7,1.4-1.2,2.3-1.6c0.4-0.2,0.9-0.3,1.4-0.4c0.5-0.1,1-0.1,1.5,0c0.3,0.1,0.5,0.2,0.7,0.3c0.2,0.1,0.5,0.3,0.6,0.6
				C160.8,217.5,160.9,217.9,160.9,218.3z"/>
			<path class="st16" d="M185,228.8c0.6,4.6-2.9,8.8-7.8,9.4s-9.2-2.6-9.8-7.2s2.9-8.8,7.8-9.4C180.1,221,184.4,224.2,185,228.8z
				 M182.5,229.1c-0.5-3.9-3.7-6.8-7.2-6.4c-3.5,0.4-5.9,4-5.4,7.9c0.5,3.9,3.7,6.8,7.2,6.4C180.6,236.6,183,233,182.5,229.1z"/>
			<path class="st16" d="M222.3,215.6l1.9,15.6c0.6,4.8-2.8,9.1-7.6,9.7c-4.8,0.6-9.1-2.8-9.7-7.6c-0.6-4.8,2.8-9.1,7.6-9.7
				c2-0.2,4,0.2,5.6,1.2L219,216L222.3,215.6z M220.9,231.5c-0.4-2.9-3-5-6-4.7c-2.9,0.4-5,3.1-4.7,6c0.4,2.9,3.1,5,6,4.7
				C219.2,237.2,221.3,234.5,220.9,231.5z"/>
			<path class="st16" d="M233,230.6c-0.2,0-0.3,0.2-0.3,0.4c0.7,5.7,5.5,7.4,8.2,6.7c2.2-0.5,3.4-2.6,3.8-3.5
				c0.1-0.2,0.3-0.3,0.5-0.1l0.7,0.5c0.1,0.1,0.2,0.3,0.1,0.4c-0.4,0.8-1.7,3.2-5.1,4c-4.1,1-8.3-2-9.3-6.8
				c-1-4.8,1.6-10.1,6.7-10.8c5-0.7,7.6,2.3,8,6.2c0,0.2-0.1,0.3-0.3,0.4c-3.4,0.8-11.5,2.3-11.5,2.3L233,230.6z M232.7,229.1
				c0,0.2,0.2,0.4,0.4,0.4c2-0.4,6.8-1.4,11.6-2.3c0.2,0,0.3-0.3,0.3-0.5c-1.1-3.3-4.1-4.2-5.9-3.9
				C237.4,223,233.1,224.1,232.7,229.1z"/>
			<path class="st16" d="M27.6,284.8c-3.6,0.4-7-1-8.2-5.4c-0.1-0.2,0.1-0.4,0.2-0.4c2-0.6,4.5-1.1,5.4-1.3c0.2,0,0.4,0.1,0.4,0.3
				c0.1,0.6,0.3,1.8,1.4,1.7c1.5-0.1,1.4-2.1,0-3.6c-1.4-1.5-8-5.6-8.8-10.3c-0.7-4,2-7.5,5.9-8c3.8-0.5,6.6,2.7,7.1,5.1
				c0,0.2-0.1,0.4-0.3,0.4l-5.1,1c-0.2,0-0.4-0.1-0.4-0.3c-0.1-0.5-0.2-1.2-0.9-1.1c-0.7,0-1.4,1.5,1.7,3.7s6.5,3.7,7.4,8.7
				C34.4,280.2,31.3,284.3,27.6,284.8z"/>
			<path class="st16" d="M42.1,272c-0.2,0-0.3,0.2-0.3,0.4c0.7,5.7,5.5,7.4,8.2,6.7c2.2-0.5,3.4-2.6,3.8-3.5
				c0.1-0.2,0.3-0.3,0.5-0.1l0.7,0.5c0.1,0.1,0.2,0.3,0.1,0.4c-0.4,0.8-1.7,3.2-5.1,4c-4.1,1-8.3-2-9.3-6.8
				c-1-4.8,1.6-10.1,6.7-10.8c5-0.7,7.6,2.3,8,6.2c0,0.2-0.1,0.3-0.3,0.4c-3.4,0.8-11.5,2.3-11.5,2.3L42.1,272z M41.8,270.4
				c0,0.2,0.2,0.4,0.4,0.4c2-0.4,6.8-1.4,11.6-2.3c0.2,0,0.3-0.3,0.3-0.5c-1.1-3.3-4.1-4.2-5.9-3.9
				C46.5,264.3,42.1,265.4,41.8,270.4z"/>
			<path class="st16" d="M81.4,259.3c0.2,1.7,0.5,6.1,0.6,7.3c0,0.2-0.1,0.3-0.2,0.4c-1.2,0.4-6.2,1.9-10.8,3.2
				c0.1,1.5,0.1,2.9,0.2,4.1c0.2,5.2,3.2,5.9,5.3,5.5c1.7-0.3,2.5-3.1,2.7-4.1c0-0.2,0.2-0.3,0.4-0.3l1.4,0.4c0.2,0,0.3,0.2,0.3,0.4
				c-0.2,1.1-1.3,4.9-4.7,5.3c-4,0.5-7.1-2.2-7.3-6.7c-0.1-1-0.1-2.5-0.1-4.1c-2.4,0.6-4.4,1.1-5.4,1.1c-0.2,0-0.3-0.1-0.3-0.2
				c-0.6-1.9-1-5.6-1.1-6.6c0-0.2,0.1-0.3,0.2-0.4c1.2-0.4,3.7-1.2,6.4-2c0-1.8-0.1-3.3-0.1-3.9c0-0.1,0.1-0.3,0.2-0.3L70,258
				c0.2-0.1,0.5,0.1,0.5,0.3c0,0.7,0.1,2,0.2,3.7c4.3-1.3,8.8-2.6,10.3-3C81.2,258.9,81.4,259.1,81.4,259.3z"/>
			<path class="st16" d="M91.8,272c-0.2,0-0.3,0.2-0.3,0.4c0.7,5.7,5.5,7.4,8.2,6.7c2.2-0.5,3.4-2.6,3.8-3.5
				c0.1-0.2,0.3-0.3,0.5-0.1l0.7,0.5c0.1,0.1,0.2,0.3,0.1,0.4c-0.4,0.8-1.7,3.2-5.1,4c-4.1,1-8.3-2-9.3-6.8
				c-1-4.8,1.6-10.1,6.7-10.8c5-0.7,7.6,2.3,8,6.2c0,0.2-0.1,0.3-0.3,0.4c-3.4,0.8-11.5,2.3-11.5,2.3L91.8,272z M91.5,270.4
				c0,0.2,0.2,0.4,0.4,0.4c2-0.4,6.8-1.4,11.6-2.3c0.2,0,0.3-0.3,0.3-0.5c-1.1-3.3-4.1-4.2-5.9-3.9
				C96.2,264.3,91.9,265.4,91.5,270.4z"/>
			<path class="st16" d="M140.5,281.5c-6.1,0.8-11.7-3.6-12.4-9.7c-0.8-6.1,3.6-11.7,9.7-12.4l0.3,2.5c-4.7,0.6-8.1,4.9-7.5,9.6
				s4.9,8.1,9.6,7.5L140.5,281.5z"/>
			<path class="st16" d="M163.6,270.5c-0.1,3.1-0.4,10.8-0.4,10.8l-3.1,0.4c0,0,0.3-7,0.4-9.7c0.1-1.9,0.7-5.2-2.7-4.7
				c-3.4,0.4-6.1,5.2-6.2,5.3l-0.4,10.2l-3.1,0.4l0.9-22.9l3.1-0.4l-0.5,12.2c1.9-3.3,4.9-6,8-6.3
				C162.6,265.4,163.7,267.4,163.6,270.5z"/>
			<path class="st16" d="M193.6,276c-0.1,0.9-0.6,3.5-3.3,4.2c-2.5,0.7-4.5,0-5.4-1.5c-0.1-0.2-0.4-0.2-0.6,0
				c-1.2,1.6-3.4,3.2-6.3,3.5c-4.5,0.5-6.2-2.9-6.2-5.8c0-3.4,3-5.6,5.3-6.7c2.7-1.3,5.7-2.1,5.7-3.7c0,0,0,0,0-0.1
				c-0.1-0.5-0.1-0.8-0.2-1.2c-0.4-2.4-2.1-2.9-3.9-2.3c-0.9,0.3-2.2,2.2-2.4,3.8c0,0.2-0.2,0.3-0.3,0.3c-0.5,0-1.5,0.1-2.7-0.2
				c-0.2,0-0.3-0.3-0.3-0.5c0.6-1.8,2-4.6,6-5.7c4.6-1.2,7.6,0.3,8.6,5.3c1.1,4.9,1.2,10.5,2.1,11.5c0.9,0.8,1.8-0.2,1.9-1.3
				c0-0.2,0.2-0.3,0.4-0.3l1.2,0.1C193.5,275.7,193.6,275.8,193.6,276z M184.1,275.1c-0.2-1.5-0.4-3.4-0.7-5.2
				c0-0.3-0.3-0.4-0.6-0.2c-0.4,0.3-1,0.7-1.7,1.1c-1.8,1.1-3.6,3.5-3.4,5c0.2,1.5,0.9,2.5,2.9,2.3c1.4-0.2,2.7-1.8,3.4-2.7
				C184.1,275.3,184.1,275.2,184.1,275.1z"/>
			<path class="st16" d="M214.6,264.9c-0.8,2.9-3.8,14.4-3.8,14.4l-5.4,0.7l-7.3-14.6l5.5-0.7l6.6,13.4c0.4-1.7,1.7-6.9,2.3-9.2
				c0.7-2.6-1.3-3.2-0.8-5.1C212.3,262.1,215.3,262,214.6,264.9z"/>
			<path class="st16" d="M224.6,272c-0.2,0-0.3,0.2-0.3,0.4c0.7,5.7,5.5,7.4,8.2,6.7c2.2-0.5,3.4-2.6,3.8-3.5
				c0.1-0.2,0.3-0.3,0.5-0.1l0.7,0.5c0.1,0.1,0.2,0.3,0.1,0.4c-0.4,0.8-1.7,3.2-5.1,4c-4.1,1-8.3-2-9.3-6.8
				c-1-4.8,1.6-10.1,6.7-10.8c5-0.7,7.6,2.3,8,6.2c0,0.2-0.1,0.3-0.3,0.4c-3.4,0.8-11.5,2.3-11.5,2.3L224.6,272z M224.3,270.4
				c0,0.2,0.2,0.4,0.4,0.4c2-0.4,6.8-1.4,11.6-2.3c0.2,0,0.3-0.3,0.3-0.5c-1.1-3.3-4.1-4.2-5.9-3.9
				C229,264.3,224.7,265.4,224.3,270.4z"/>
			<path class="st16" d="M254.9,284.8c-3.6,0.4-7-1-8.2-5.4c-0.1-0.2,0.1-0.4,0.2-0.4c2-0.6,4.5-1.1,5.4-1.3c0.2,0,0.4,0.1,0.4,0.3
				c0.1,0.6,0.3,1.8,1.4,1.7c1.5-0.1,1.4-2.1,0-3.6c-1.4-1.5-8-5.6-8.8-10.3c-0.7-4,2-7.5,5.9-8c3.8-0.5,6.6,2.7,7.1,5.1
				c0,0.2-0.1,0.4-0.3,0.4l-5.1,1c-0.2,0-0.4-0.1-0.4-0.3c-0.1-0.5-0.2-1.2-0.9-1.1c-0.7,0-1.4,1.5,1.7,3.7s6.5,3.7,7.4,8.7
				C261.7,280.2,258.6,284.3,254.9,284.8z"/>
		</g>
		<g>
			<path class="st1" d="M157.7,62c0,0.1-0.1,0.1-0.1,0.2l0,0c-0.5,0.6-1.1,1.3-1.8,1.8c-0.7,0.6-1.4,1.1-2.3,1.4
				c-0.8,0.4-1.8,0.5-2.7,0.5c-0.9,0-1.8-0.2-2.5-0.4c-1.6-0.5-2.9-1.3-4.2-2.1c-1.3-0.8-2.5-1.6-3.7-2.4c-1.2-0.8-2.5-1.6-3.8-2.2
				c-0.3-0.2-0.7-0.3-1-0.4c-0.7,0.8-1.3,1.6-2.1,2.4c-1,1.1-2.1,2.2-3.3,3.1c-0.6,0.5-1.2,0.9-1.9,1.3c-0.7,0.3-1.5,0.6-2.3,0.7
				c-0.8,0.1-1.7,0-2.4-0.5c-0.8-0.4-1.3-1.3-1.4-2.1c-0.1-0.8,0.1-1.7,0.4-2.4c0.4-0.7,0.9-1.4,1.4-1.9c0.6-0.5,1.2-1,1.9-1.4
				c0.7-0.4,1.4-0.7,2.1-0.9c1.5-0.5,3.1-0.6,4.6-0.4c0.7,0.1,1.4,0.2,2.1,0.4c0.9-1.3,1.7-2.7,2.5-4.1c0.7-1.3,1.5-2.5,2.2-3.8
				c0.7-1.3,1.4-2.6,2.1-3.9c0.7-1.3,1.3-2.6,1.8-3.9c0.6-1.3,1.1-2.7,1.5-4c0.4-1.4,0.8-2.8,1.1-4.1c0.3-1.4,0.5-2.8,0.4-4.2
				c0-1.4-0.3-2.7-0.9-3.7c-0.3-0.5-0.7-0.9-1.3-1.1c-0.5-0.3-1.1-0.4-1.8-0.4c-0.6,0-1.3,0-2,0.1c-0.7,0.1-1.3,0.3-2,0.5
				c-1.3,0.5-2.4,1.2-3.4,2.2c-2,1.9-3.3,4.6-4.1,7.3c-0.4,1.4-0.6,2.8-0.8,4.2c-0.1,1.4-0.1,2.9,0.2,4.2c0.1,0.7,0.3,1.3,0.6,1.8
				c0.1,0.2,0.3,0.4,0.5,0.5c0.1,0,0.2,0.1,0.2,0.1c0,0,0.1,0,0.1,0l0.1,0l0.1,0c1.2-0.1,2.2-0.9,3-2c0.8-1,1.3-2.3,1.5-3.6
				c0.1-0.6,0.2-1.3,0.1-1.9c0-0.6-0.2-1.2-0.5-1.5c-0.4-0.6-0.3-1.4,0.3-1.9c0.6-0.4,1.4-0.3,1.9,0.3c0,0.1,0.1,0.1,0.1,0.2l0,0
				c0.5,1,0.6,1.9,0.6,2.8c0,0.9-0.1,1.7-0.3,2.5c-0.2,0.8-0.5,1.6-0.9,2.3c-0.4,0.7-0.8,1.4-1.3,2.1c-0.5,0.6-1.2,1.2-1.9,1.7
				c-0.4,0.2-0.8,0.4-1.2,0.6c-0.4,0.1-0.9,0.2-1.3,0.3l-0.2,0c-0.1,0-0.1,0-0.2,0c-0.1,0-0.3,0-0.4-0.1c-0.3-0.1-0.6-0.2-0.8-0.3
				c-0.5-0.3-0.8-0.7-1-1.1c-0.4-0.8-0.6-1.6-0.8-2.4c-0.1-0.8-0.2-1.6-0.2-2.3c0-0.8,0-1.5,0.1-2.3c0.1-1.5,0.4-3,0.9-4.5
				c0.4-1.5,1-2.9,1.7-4.3c0.7-1.4,1.6-2.6,2.7-3.8c1.1-1.1,2.4-2.1,3.9-2.7c0.7-0.3,1.5-0.5,2.3-0.7c0.8-0.2,1.6-0.3,2.4-0.2
				c0.8,0,1.7,0.2,2.5,0.5c0.8,0.4,1.6,1,2.1,1.7c0.5,0.7,0.9,1.5,1.1,2.3c0.2,0.8,0.3,1.6,0.4,2.4c0.1,1.6-0.1,3.1-0.3,4.7
				c-0.3,1.5-0.6,3-1.1,4.4c-0.9,2.9-2.1,5.7-3.6,8.4c-0.7,1.3-1.5,2.6-2.3,3.9c-0.8,1.3-1.6,2.5-2.4,3.8c-0.8,1.2-1.7,2.4-2.6,3.6
				c0.2,0.1,0.5,0.2,0.7,0.3c1.4,0.6,2.7,1.3,4,2c1.3,0.7,2.6,1.5,3.9,2.1c1.3,0.7,2.6,1.2,3.9,1.5c1.3,0.3,2.5,0.2,3.4-0.4
				c1-0.5,1.8-1.5,2.5-2.6c0.5-0.8,1.5-1,2.3-0.6C157.9,60.2,158.2,61.2,157.7,62z M134.1,57.9c-0.5-0.2-1-0.3-1.5-0.4
				c-1.4-0.2-2.8-0.2-4.1,0.2c-0.7,0.2-1.3,0.5-1.9,0.8c-0.6,0.3-1.2,0.7-1.7,1.2c-0.5,0.5-1,1-1.3,1.6c-0.3,0.6-0.5,1.3-0.4,1.9
				c0.1,0.6,0.4,1.2,1,1.5c0.5,0.3,1.2,0.4,1.9,0.3c1.3-0.2,2.6-0.9,3.7-1.9c1.1-0.9,2.1-2,3-3.1C133.1,59.3,133.6,58.6,134.1,57.9z
				"/>
		</g>
	</g>
</g>
<g id="Layer_4">
</g>
<g id="Layer_3">
</g>
<g id="Layer_5">
</g>
<g id="default_x5F_grid" class="st102">
</g>
</svg>
