<?xml version="1.0" encoding="utf-8"?>
<!-- Generator: Adobe Illustrator 27.6.1, SVG Export Plug-In . SVG Version: 6.00 Build 0)  -->
<svg version="1.1" xmlns="http://www.w3.org/2000/svg" xmlns:xlink="http://www.w3.org/1999/xlink" x="0px" y="0px"
	 viewBox="0 0 309.9 347.7" style="enable-background:new 0 0 309.9 347.7;" xml:space="preserve">
<style type="text/css">
	.st0{fill:#FFD4F0;}
	.st1{fill:#E93032;}
	.st2{opacity:0.4984;}
	.st3{fill:#0033CC;}
	.st4{fill:#FFFFFF;}
	.st5{fill:#6380C5;}
	.st6{fill:#333333;}
	.st7{fill:#FFDD67;}
	.st8{fill:#664E27;}
	.st9{fill:#917524;}
	.st10{fill:none;stroke:#0033CB;stroke-width:34.4361;stroke-linecap:round;stroke-miterlimit:10;stroke-dasharray:0,65.5242,0,0;}
	.st11{opacity:0.5;enable-background:new    ;}
	.st12{fill:#494949;}
	.st13{fill:#EA3032;}
	.st14{fill:none;stroke:#FFFFFF;stroke-width:1.0081;stroke-miterlimit:10;}
	.st15{clip-path:url(#SVGID_00000147908571902010693360000003192945354849400733_);}
	.st16{opacity:0.36;fill:#E93032;}
	.st17{fill:none;stroke:#FFD4F0;stroke-width:5.0782;stroke-miterlimit:10;}
	.st18{enable-background:new    ;}
	.st19{clip-path:url(#SVGID_00000038372262032850045400000000733335279584052637_);}
	.st20{clip-path:url(#SVGID_00000020400922147688916550000013781899221336293248_);}
	.st21{clip-path:url(#SVGID_00000163048479711422785120000010194090692825572230_);fill:#E93032;}
	.st22{clip-path:url(#SVGID_00000114065264158820403060000001968282251850199949_);}
	.st23{clip-path:url(#SVGID_00000068640035885164878020000016005737052615916969_);}
	.st24{clip-path:url(#SVGID_00000094614121136945506170000001402523224163488642_);fill:#E93032;}
	.st25{clip-path:url(#SVGID_00000124120017969856510560000017837670596161504432_);}
	.st26{clip-path:url(#SVGID_00000065759896127559129140000005163330746308909469_);}
	.st27{clip-path:url(#SVGID_00000137125004810138176930000017844203758112103336_);}
	.st28{clip-path:url(#SVGID_00000128450746332673962820000004725655168210709125_);fill:#0033CC;}
	.st29{clip-path:url(#SVGID_00000128450746332673962820000004725655168210709125_);fill:#FFD4F0;}
	.st30{clip-path:url(#SVGID_00000058556471890322419550000014245968088691985287_);}
	.st31{clip-path:url(#SVGID_00000054239717914356691100000008246698225523489444_);}
	.st32{clip-path:url(#SVGID_00000021841835291326104530000000187896238235745453_);fill:#E93032;}
	.st33{clip-path:url(#SVGID_00000177474772961645717800000004970566453455985320_);}
	.st34{clip-path:url(#SVGID_00000088102136816584528230000003668047777416604092_);}
	.st35{clip-path:url(#SVGID_00000164498596844833288370000003634971948559046279_);fill:#E93032;}
	.st36{clip-path:url(#SVGID_00000183250673085012355490000008638295563556535205_);}
	.st37{clip-path:url(#SVGID_00000023266989094144629840000003958915884919945124_);}
	.st38{clip-path:url(#SVGID_00000101820901538086405170000004529090675848443781_);fill:#E93032;}
	.st39{clip-path:url(#SVGID_00000146461281366097679670000007112510376963634319_);}
	.st40{clip-path:url(#SVGID_00000149380436831839885940000018198979990193710008_);}
	.st41{clip-path:url(#SVGID_00000170999909273565132220000005523648292100234892_);fill:#E93032;}
	.st42{clip-path:url(#SVGID_00000065792822123896646790000013636376499333103017_);}
	.st43{clip-path:url(#SVGID_00000167358734878464605990000013528352975914535352_);}
	.st44{clip-path:url(#SVGID_00000031890859575778828040000006816810263223477912_);fill:#E93032;}
	.st45{clip-path:url(#SVGID_00000041268841074739520450000015121769231118670490_);}
	.st46{clip-path:url(#SVGID_00000070835720783711724080000005334960231247570601_);}
	.st47{clip-path:url(#SVGID_00000003063725252483075270000008298530678740120254_);fill:#E93032;}
	.st48{clip-path:url(#SVGID_00000145057933982002451370000003192670480778635435_);}
	.st49{clip-path:url(#SVGID_00000049200600199469441340000001823918796355020713_);}
	.st50{clip-path:url(#SVGID_00000123425596044231382760000017892675189992109486_);fill:#E93032;}
	.st51{clip-path:url(#SVGID_00000139255274997708933610000012961772771192083349_);}
	.st52{clip-path:url(#SVGID_00000057112576904442008620000011730752680803924668_);}
	.st53{clip-path:url(#SVGID_00000078024844489992665320000018037845040643386027_);fill:#E93032;}
	.st54{clip-path:url(#SVGID_00000008117155603742134060000017754337967452019360_);}
	.st55{clip-path:url(#SVGID_00000181066597527689066880000006292655897868259216_);}
	.st56{fill:none;stroke:#FFD4F0;stroke-width:1.019;stroke-miterlimit:10;}
	.st57{clip-path:url(#SVGID_00000135649647804937700500000003525391793129639333_);}
	.st58{clip-path:url(#SVGID_00000023983931401006628370000002708919918681868183_);}
	.st59{clip-path:url(#SVGID_00000183943648470566441760000016980641310946718082_);fill:#E93032;}
	.st60{clip-path:url(#SVGID_00000106136521076268422020000013759332978495195804_);}
	.st61{clip-path:url(#SVGID_00000049195226646191525480000002803109591736424123_);}
	.st62{clip-path:url(#SVGID_00000024691380989192295110000002191316011622186419_);fill:#E93032;}
	.st63{clip-path:url(#SVGID_00000037686074310288795600000004226157431337040045_);}
	.st64{clip-path:url(#SVGID_00000109736680299871946760000011706250338705048249_);}
	.st65{clip-path:url(#SVGID_00000170984943765622437440000018183942213131313822_);}
	.st66{clip-path:url(#SVGID_00000031179559449901237680000016743272383080791984_);fill:#0033CC;}
	.st67{clip-path:url(#SVGID_00000031179559449901237680000016743272383080791984_);fill:#FFD4F0;}
	.st68{clip-path:url(#SVGID_00000025415095982969334020000002362984052572073661_);}
	.st69{clip-path:url(#SVGID_00000027580209865418123970000016454538361209377928_);}
	.st70{clip-path:url(#SVGID_00000152949636175646954330000014665081523865250973_);fill:#E93032;}
	.st71{clip-path:url(#SVGID_00000123443166132986971370000016036346709054845852_);}
	.st72{clip-path:url(#SVGID_00000084490292673961774000000016101389865964772761_);}
	.st73{clip-path:url(#SVGID_00000150802022462340237850000007635266013708935814_);fill:#E93032;}
	.st74{clip-path:url(#SVGID_00000135682954341884823140000010710068951961781410_);}
	.st75{clip-path:url(#SVGID_00000168830240938038223870000010659906137434110653_);}
	.st76{clip-path:url(#SVGID_00000168797755670056925260000015810352144007333550_);fill:#E93032;}
	.st77{clip-path:url(#SVGID_00000057835864380928466730000006332348595300434075_);}
	.st78{clip-path:url(#SVGID_00000035510871049063920980000004780019807950221496_);}
	.st79{clip-path:url(#SVGID_00000034060956118046847190000008601148255354083730_);fill:#E93032;}
	.st80{clip-path:url(#SVGID_00000089537000500553334700000013944649646326096280_);}
	.st81{clip-path:url(#SVGID_00000137090261938834371760000016521410726211993003_);}
	.st82{clip-path:url(#SVGID_00000127013065593548323080000005652121004624836026_);fill:#E93032;}
	.st83{clip-path:url(#SVGID_00000059288866423268528020000018087974540933760670_);}
	.st84{clip-path:url(#SVGID_00000157287348110317004610000006197539648910323845_);}
	.st85{clip-path:url(#SVGID_00000045600446934264288850000008461538375798959007_);fill:#E93032;}
	.st86{clip-path:url(#SVGID_00000114060897140445548810000014209400678264990905_);}
	.st87{clip-path:url(#SVGID_00000149346174656001729830000007485103141611975828_);}
	.st88{clip-path:url(#SVGID_00000136373858571582782760000015435420979965419906_);fill:#E93032;}
	.st89{clip-path:url(#SVGID_00000018228546814172893200000013794104461245925030_);}
	.st90{clip-path:url(#SVGID_00000090979835075541619770000007963015534019055031_);}
	.st91{clip-path:url(#SVGID_00000169524813358764912680000004556240842076595369_);fill:#E93032;}
	.st92{clip-path:url(#SVGID_00000181791441156638553050000017328797206048904582_);}
	.st93{fill:#606060;}
	.st94{clip-path:url(#SVGID_00000071544004093907663060000000503252427116405392_);}
	.st95{clip-path:url(#SVGID_00000060716014151464732420000002858105537516056737_);}
	.st96{opacity:0.84;fill:#E93032;}
	.st97{opacity:0.84;}
	.st98{clip-path:url(#SVGID_00000065770211255212500740000007404051482987716511_);}
	.st99{fill:none;}
	.st100{clip-path:url(#SVGID_00000142170490061878475580000014195682960128907677_);}
	.st101{display:none;}
	.st102{display:inline;fill:#FFEFD9;}
	.st103{display:inline;opacity:0.46;fill:#FFEFD9;}
	.st104{display:inline;opacity:0.36;}
	.st105{opacity:0.36;}
</style>
<g id="artwork">
</g>
<g id="Layer_4">
</g>
<g id="Layer_3">
</g>
<g id="Layer_5">
	<polygon class="st16" points="248,28.6 264.6,0 264.1,32.7 293.3,15.9 275.8,44 309.9,43.4 280.1,59.3 309.9,75.2 275.8,74.7 
		293.3,102.7 264.1,85.9 264.6,118.6 248,90 231.5,118.6 232,85.9 202.7,102.7 220.3,74.7 186.2,75.2 216,59.3 186.2,43.4 220.3,44 
		202.7,15.9 232,32.7 231.5,0 	"/>
	<g>
		<g>
			<g class="st18">
				<defs>
					
						<rect id="SVGID_00000181802318480068053470000010585376772049013910_" x="16.3" y="86" transform="matrix(0.9945 -0.1045 0.1045 0.9945 -15.7978 17.5598)" class="st18" width="286.6" height="146.9"/>
				</defs>
				<clipPath id="SVGID_00000067951091057093676670000004910930102157301637_">
					<use xlink:href="#SVGID_00000181802318480068053470000010585376772049013910_"  style="overflow:visible;"/>
				</clipPath>
				<g style="clip-path:url(#SVGID_00000067951091057093676670000004910930102157301637_);">
					<g>
						<g>
							<g>
								<path class="st3" d="M34.7,115.6c-0.1,0-0.3,0-0.4,0l-5.3,0.3l-0.3-5.2c0-0.9,0.5-1.7,1.6-1.8c0,0,0.1,0,0.1,0l3.5-0.2
									c3.2-0.2,4.5,1.6,4.6,3.2C38.6,113.5,37.6,115.3,34.7,115.6 M11.5,101.2l0.5,8.7l3.8-0.2c1-0.1,1.6,0.8,1.7,1.6l1,18.8
									c0,0.8-0.6,1.4-1.4,1.5c0,0-0.1,0-0.1,0l-3.8,0.2l0.5,8.7l22.1-1.2l-0.5-8.7l-3.6,0.2c-1.1,0.1-1.8-0.6-1.9-1.6l-0.2-4.3
									l6-0.3c0.7,0,1.5-0.1,2.3-0.2c6.3-0.7,14.3-3.1,13.8-13c-0.6-11.2-11-11.8-17.4-11.4L11.5,101.2"/>
								<path class="st3" d="M65.6,119.7c-0.2-2.1,0.3-4.6,2.8-4.9c2.8-0.3,3.5,2.1,3.8,4.2L65.6,119.7 M67.9,108.5
									c-7.8,0.8-11.2,8.1-10.4,15.5c0.7,6.6,5.7,12.6,13.8,11.8c6.5-0.7,10.3-7,9.6-12.8l-6,0.6c0.1,2.7-1.6,5.6-4.7,5.9
									c-3,0.3-4.1-2.3-4.5-6.7l15-1.6l-0.1-0.9C79.9,113.2,75,107.8,67.9,108.5"/>
								<path class="st3" d="M94.9,105.7c-5.7,0.6-9.6,4.7-9.1,9.5c0.5,4.8,4.1,6.9,7.8,7.7c2.8,0.6,8.9,0.1,9.1,2.1
									c0.1,1.2-2.5,1.7-3.2,1.8c-3,0.3-5.4-0.7-6.7-3.2l-6.1,0.6l1,9.7l6.3-0.7l0-0.3c-0.1-0.7,0.4-1,0.8-1.1c0.2,0,0.3,0,0.4,0.1
									c1.8,0.8,3.5,0.9,5.7,0.7c4.8-0.5,9.5-4.2,8.9-9.3c-0.4-4.2-3.4-7.2-8.8-7.9c-2.5-0.4-7.8,0.1-7.9-1.5
									c-0.1-1.4,1.8-1.8,2.7-1.9c2.6-0.3,4.9,0.5,5.9,2.9c2.1-0.2,6-0.5,6-0.5l-1-9.8l-6.1,0.6l0,0.3c0.1,0.9-0.1,1.2-0.5,1.2
									c-0.3,0-0.5-0.1-0.7-0.2C98,105.6,96.4,105.5,94.9,105.7"/>
								<path class="st3" d="M127.4,123.2c-3.1,0.3-3.6-4.5-3.9-6.7c-0.3-3-0.6-7.1,2.4-7.4c3-0.3,3.5,3.7,3.9,6.8
									C130,118.1,130.4,122.9,127.4,123.2 M123.4,102.7c-7,0.7-9,8.6-8.4,14.6c0.7,6.9,4.7,13.4,10.9,12.8
									c2.4-0.2,4.6-2.3,5.1-3.5l0.4,3.9c0.1,0.8-0.2,1.6-1.1,1.7l-2.4,0.2l0.6,6.1l15-1.6l-0.6-6.1l-1.6,0.2
									c-1,0.1-1.7-0.4-1.8-1.2l-3-28.4l-4.2,0.4l-0.7,1.1c-0.5,0.7-0.9,0.9-1.4,1c-0.7,0.1-1.4-0.4-1.8-0.6
									C126.7,102.4,125.2,102.5,123.4,102.7"/>
								<path class="st3" d="M171.6,97.7L160,98.9l0.6,6.2l2.2-0.2c0.8-0.1,1.3,0.5,1.4,1.2l0.9,8.6c0.3,2.8-1.6,5.1-3.4,5.3
									c-1.3,0.1-2.6-0.9-2.9-3.7l-1.8-17l-11.8,1.2l0.6,6.2l2.2-0.2c0.9-0.1,1.5,0.4,1.6,1.1l1.3,12.3c0.5,5.1,4.4,7.2,8.2,6.8
									c2.7-0.3,5.4-1.8,6.7-4.4l0.4,3.5l11.5-1.2l-0.6-6.1l-1.9,0.2c-1,0.1-1.5-0.5-1.6-1.4L171.6,97.7"/>
								<path class="st3" d="M192,95.6l-11.6,1.2l0.6,6.2l2-0.2c0.9-0.1,1.5,0.4,1.6,1.1l1.3,11.9c0.1,0.8-0.2,1.6-1.1,1.7l-2.4,0.2
									l0.6,6.1l15.2-1.6l-0.6-6.1l-2.1,0.2c-0.9,0.1-1.5-0.6-1.5-1.4L192,95.6 M187.1,87.6c-2,0.2-3.4,2-3.2,4c0.2,2,2,3.4,4,3.2
									c2-0.2,3.4-2,3.2-4C190.8,88.8,189.1,87.4,187.1,87.6"/>
								<path class="st3" d="M210.9,93.5c-5.7,0.6-9.6,4.7-9.1,9.5c0.5,4.8,4.1,6.9,7.8,7.7c2.8,0.6,8.9,0.1,9.1,2.1
									c0.1,1.2-2.5,1.7-3.2,1.8c-3,0.3-5.4-0.7-6.7-3.2l-6.1,0.6l1,9.7l6.3-0.7l0-0.3c-0.1-0.7,0.4-1,0.8-1.1c0.2,0,0.3,0,0.4,0.1
									c1.8,0.8,3.5,0.9,5.7,0.7c4.8-0.5,9.5-4.2,8.9-9.3c-0.4-4.2-3.4-7.2-8.8-7.9c-2.5-0.4-7.8,0.1-7.9-1.5
									c-0.1-1.4,1.8-1.8,2.7-1.9c2.6-0.3,4.9,0.5,5.9,2.9c2.1-0.2,6-0.5,6-0.5l-1-9.8l-6.1,0.6l0,0.3c0.1,0.9-0.1,1.2-0.5,1.2
									c-0.3,0-0.5-0.1-0.7-0.2C214,93.4,212.3,93.3,210.9,93.5"/>
								<path class="st3" d="M241.7,111.8c-1.1,0.1-2.3-0.6-2.4-1.9c-0.2-1.8,2.2-2.5,3.4-3.2c1.7-1,2.8-2.2,2.8-2.2c0,0,0,0,0,0
									l0.3,2.6C245.8,109.3,243.8,111.6,241.7,111.8 M241.9,90.2c-6.2,0.6-11.5,3.4-10.8,9.3c0.2,2.4,1.7,3.9,4.6,3.6
									c2-0.2,3.4-1.9,3.2-4c-0.1-0.6-0.2-0.7-0.3-1c-0.1-1.1,1.4-1.8,2.3-1.9c1.4-0.2,3.3,0,3.5,1.4c0.2,1.8-2.8,3.5-4,4.2
									c-4.8,2.4-9.6,4-9,10.1c0.5,4.3,4,6.5,8.6,6c3.2-0.3,5.1-1.1,7.1-3.9c1.2,1.9,3.1,2.8,5.8,2.5c2.9-0.3,4.6-1.5,5.3-3.6
									c0.5-1.4,0.5-3,0.4-4.5c-0.1-0.9-0.2-1.7-0.3-2.5l-2.9,0.3l0.3,2.7c0.1,0.9-0.3,1.4-0.9,1.4c-0.3,0-0.7-0.1-0.8-0.8l-1.2-11
									C252.3,93,249.7,89.4,241.9,90.2"/>
								<path class="st3" d="M265.4,158.8c-2.8,0.3-3.4-4.1-3.7-6.2c-0.3-2.4-0.8-6.5,2.1-6.9c0,0,0,0,0,0c2.8-0.3,3.4,4.1,3.6,6.2
									C267.8,154.6,268.2,158.5,265.4,158.8C265.4,158.8,265.4,158.8,265.4,158.8 M272.3,131.1l-10.4,1.3l0.7,5.5l1.7-0.2
									c0,0,0,0,0,0c0.9-0.1,1.5,0.4,1.6,1.2l0.5,3.7c-0.7-1-3.4-2.4-5.5-2.2c0,0,0,0-0.1,0c-6.1,0.7-7.2,8.2-6.6,12.8
									c0.6,5.1,3.2,12.1,9.2,11.5c0,0,0.1,0,0.1,0c2.4-0.3,4-1.5,5.2-3.5l0.3,2.7l10.2-1.3l-0.7-5.5l-1.5,0.2c0,0,0,0,0,0
									c-0.8,0.1-1.5-0.3-1.6-1L272.3,131.1"/>
								<path class="st3" d="M289,147c-0.2-1.8,0.3-4.1,2.5-4.3c2.5-0.3,3.1,1.9,3.3,3.7L289,147 M291.1,137.1
									c-7,0.7-9.9,7.2-9.3,13.7c0.6,5.9,5.1,11.2,12.2,10.5c5.7-0.6,9.1-6.3,8.6-11.4l-5.3,0.6c0.1,2.4-1.4,5-4.1,5.3
									c-2.7,0.3-3.6-2-4-6l13.4-1.4l-0.1-0.8C301.8,141.2,297.4,136.4,291.1,137.1"/>
								<path class="st3" d="M106.5,196.1l-20.4,3.2l-1.4,10.4c-0.2-0.5-5.2-9.3-5.2-9.3l-20.7,3.3l1.4,8.8l4-0.6c0,0,0.1,0,0.1,0
									c1-0.1,1.6,0.6,1.8,1.5l3,18.7c0.1,0.9-0.3,1.8-1.3,1.9l-4,0.6l1.4,8.8l18.4-2.9l-1.4-8.8l-3.1,0.5c0,0-0.1,0-0.1,0
									c-0.9,0.1-1.6-0.5-1.7-1.2l-2.6-16.6l12.9,25.5l0.7-0.1l4.4-28.2l2.6,16.4c0.1,0.9-0.3,1.8-1.3,1.9l-3.2,0.5L92,239
									l20.8-3.3l-1.4-8.8l-3,0.5c0,0-0.1,0-0.1,0c-1,0.1-1.8-0.4-1.9-1.2l-3-18.9c-0.1-0.8,0.3-1.8,1.3-1.9l3.3-0.5L106.5,196.1"
									/>
								<path class="st3" d="M124.6,219.3c-0.2-2,0.3-4.6,2.8-4.9c2.8-0.3,3.5,2.1,3.8,4.2L124.6,219.3 M127,208.1
									c-7.8,0.8-11.2,8.1-10.4,15.5c0.7,6.6,5.7,12.6,13.8,11.8c6.5-0.7,10.3-7,9.6-12.8l-6,0.6c0.1,2.7-1.6,5.6-4.7,5.9
									c-3,0.3-4.1-2.3-4.5-6.7l15-1.6l-0.1-0.9C139,212.7,134,207.3,127,208.1"/>
								<path class="st3" d="M161.7,204.4c-2.6,0.3-4.3,2.2-5.6,4.6l-0.4-3.8l-11.6,1.2l0.6,6.2l2-0.2c0.9-0.1,1.5,0.4,1.6,1.1
									l1.3,11.9c0.1,0.9-0.2,1.6-1.3,1.7l-2.1,0.2l0.6,6.1l15.2-1.6l-0.6-6.1l-1.8,0.2c-1,0.1-1.7-0.5-1.8-1.4l-0.7-6.3
									c-0.4-3.6,0.2-6.3,2.2-6.6c1.6-0.2,1.4,1.2,1.8,2.3c0.6,1.7,2.5,2.7,4.2,2.5c2.8-0.3,4.3-3,4-5.7
									C168.8,206.9,165.5,204,161.7,204.4"/>
								<path class="st3" d="M186.1,201.9c-8.5,0.9-11.3,7.4-10.5,14.8c0.8,7.3,4.7,13.3,12.6,12.5c6.6-0.7,10.3-6.3,9.9-12.8
									l-6.3,0.7c0.2,2-0.8,5.5-3.6,5.8c-3.3,0.4-4-3.8-4.3-6.4c-0.3-3.1-0.6-7.9,3-8.2c1.4-0.1,2.4,0.1,2.5,1.3
									c0.1,0.7-0.2,1.2-0.1,1.9c0.2,2,2.1,3.3,4,3.1c3-0.3,4.1-2.1,3.9-4.6C196.6,205,191,201.3,186.1,201.9"/>
								<path class="st3" d="M214.4,220.5c-1.1,0.1-2.3-0.6-2.4-1.9c-0.2-1.8,2.2-2.5,3.4-3.2c1.7-1,2.8-2.2,2.8-2.2c0,0,0,0,0,0
									l0.3,2.6C218.5,218,216.5,220.2,214.4,220.5 M214.6,198.9c-6.1,0.6-11.5,3.4-10.8,9.3c0.2,2.4,1.7,3.9,4.6,3.6
									c2-0.2,3.4-1.9,3.2-4c-0.1-0.6-0.2-0.7-0.3-1c-0.1-1.1,1.4-1.7,2.3-1.8c1.4-0.2,3.3,0,3.5,1.4c0.2,1.9-2.8,3.5-4,4.2
									c-4.8,2.4-9.6,4-9,10.1c0.5,4.3,4,6.5,8.6,6c3.2-0.3,5.1-1.1,7.1-3.9c1.2,1.9,3.1,2.8,5.8,2.5c2.9-0.3,4.6-1.5,5.3-3.6
									c0.5-1.4,0.5-3,0.4-4.5c-0.1-0.9-0.2-1.7-0.3-2.5l-2.9,0.3l0.3,2.7c0.1,0.9-0.3,1.4-0.9,1.4c-0.3,0-0.7-0.1-0.8-0.8l-1.2-11
									C225,201.6,222.4,198,214.6,198.9"/>
								<path class="st3" d="M248.9,216.7c-3.2,0.3-3.8-4.6-4.1-7c-0.3-2.7-0.8-7.4,2.5-7.7c3.2-0.3,3.8,4.6,4,7
									C251.6,212,252,216.3,248.9,216.7 M257.1,185.6l-11.7,1.2l0.6,6.2l1.9-0.2c1-0.1,1.7,0.5,1.8,1.4l0.4,4.2
									c-0.7-1.1-3.8-2.8-6.2-2.5c-6.9,0.7-8.3,9.1-7.7,14.2c0.6,5.7,3.4,13.8,10.2,13.1c2.7-0.3,4.6-1.6,5.9-3.8l0.3,3.1l11.5-1.2
									l-0.6-6.1l-1.7,0.2c-1,0.1-1.7-0.4-1.8-1.2L257.1,185.6"/>
								<path class="st3" d="M282.7,213.1c-4.3,0.5-4.9-3.9-5.2-7.1c-0.4-3.9,0.1-7.4,3.7-7.8c3.6-0.4,4.8,2.9,5.2,6.8
									C286.7,208.2,287,212.7,282.7,213.1 M280.5,191.8c-7.9,0.8-12.8,7.8-12,15.2c0.7,7,7.1,13.1,14.9,12.3
									c7.8-0.8,12.8-8.1,12.1-15.1C294.7,196.8,288.4,191,280.5,191.8"/>
							</g>
						</g>
					</g>
				</g>
			</g>
		</g>
	</g>
	<path id="SVGID_x5F_00000164480900624643595680000009000962721232595132_x5F_" class="st99" d="M275.5,96
		c0,26.7-22.9,48.3-51.2,48.3S173,122.7,173,96s22.9-48.3,51.2-48.3S275.5,69.3,275.5,96z"/>
	<text>	<textPath  xlink:href="#SVGID_x5F_00000164480900624643595680000009000962721232595132_x5F_" startOffset="173.2434%">
<tspan  class="st1" style="font-family:'National2-Medium'; font-size:10px; letter-spacing:222.8;">  bsb</tspan><tspan  class="st1" style="font-family:'National2-Medium'; font-size:10px; letter-spacing:222.8;">, 2023</tspan>	</textPath>
</text>
	<g>
		<g>
			<g class="st18">
				<defs>
					
						<rect id="SVGID_00000098912272668310544780000000121127249429235119_" x="84.4" y="146.3" transform="matrix(0.9945 -0.1045 0.1045 0.9945 -16.1525 15.1926)" class="st18" width="105" height="30.7"/>
				</defs>
				<clipPath id="SVGID_00000053517091078135104350000012165890718549056914_">
					<use xlink:href="#SVGID_00000098912272668310544780000000121127249429235119_"  style="overflow:visible;"/>
				</clipPath>
				<g style="clip-path:url(#SVGID_00000053517091078135104350000012165890718549056914_);">
					<g>
						<g>
							<g>
								<path d="M86.6,153.9c-0.6,0.1-1.2,0.3-1.5,0.7c-0.4,0.4-0.5,0.8-0.5,1.4c0,0.3,0.1,0.5,0.2,0.7c0.1,0.2,0.3,0.3,0.5,0.5
									c0.1,0.1,0.3,0.1,0.5,0.2c0.2,0.1,0.5,0.1,0.9,0.1c0.5,0.1,0.9,0.1,1,0.2c0.2,0.1,0.3,0.2,0.3,0.4c0,0.2,0,0.4-0.2,0.5
									c-0.2,0.1-0.4,0.2-0.7,0.3c-0.3,0-0.6,0-0.8-0.2c-0.2-0.1-0.4-0.3-0.4-0.6l-1.2,0.4c0.1,0.5,0.4,0.8,0.9,1.1
									c0.4,0.2,1,0.3,1.6,0.2c0.7-0.1,1.2-0.3,1.6-0.7c0.4-0.4,0.5-0.8,0.5-1.4c0-0.3-0.1-0.5-0.2-0.7c-0.1-0.2-0.3-0.3-0.5-0.5
									c-0.1-0.1-0.3-0.1-0.5-0.2c-0.2-0.1-0.5-0.1-0.9-0.1c-0.5,0-0.9-0.1-1-0.2c-0.2-0.1-0.3-0.2-0.3-0.4c0-0.2,0-0.4,0.2-0.6
									c0.1-0.1,0.4-0.2,0.6-0.3c0.3,0,0.5,0,0.7,0.1c0.2,0.1,0.3,0.3,0.4,0.6l1.2-0.3c-0.1-0.5-0.4-0.9-0.8-1.1
									C87.8,153.9,87.2,153.8,86.6,153.9"/>
								<path d="M93.8,158.1c-0.4,0-0.8-0.1-1-0.4c-0.2-0.3-0.4-0.8-0.5-1.4c-0.1-0.6,0-1.1,0.2-1.5c0.2-0.3,0.5-0.5,0.9-0.6
									c0.4,0,0.8,0.1,1,0.4c0.2,0.3,0.4,0.8,0.5,1.4c0.1,0.6,0,1.1-0.2,1.5C94.5,157.8,94.2,158,93.8,158.1 M93.2,153.2
									c-0.8,0.1-1.4,0.4-1.9,1c-0.4,0.6-0.6,1.3-0.5,2.2c0.1,0.9,0.4,1.6,1,2.1c0.5,0.5,1.2,0.7,2,0.6c0.8-0.1,1.5-0.4,1.9-1
									c0.4-0.6,0.6-1.3,0.5-2.3c-0.1-0.9-0.4-1.6-1-2.1C94.8,153.3,94.1,153.1,93.2,153.2"/>
								<path d="M101.2,157.3c-0.4,0-0.7-0.1-0.9-0.3c-0.3-0.2-0.4-0.6-0.4-1.1l-0.1-0.7c0-0.5,0-0.9,0.2-1.2
									c0.2-0.3,0.5-0.5,0.8-0.5c0.4,0,0.8,0.1,1,0.4c0.3,0.3,0.4,0.7,0.5,1.4c0.1,0.6,0,1.1-0.2,1.5
									C101.9,157,101.6,157.2,101.2,157.3 M99.2,150.2l-1.4,0.1l0.9,8.1l1.1-0.1l0-1c0.1,0.3,0.4,0.6,0.7,0.8
									c0.3,0.2,0.7,0.2,1.1,0.2c0.7-0.1,1.3-0.4,1.7-1c0.4-0.6,0.5-1.3,0.4-2.2c-0.1-0.9-0.4-1.6-0.8-2.1
									c-0.5-0.5-1.1-0.7-1.8-0.6c-0.4,0-0.7,0.2-1,0.4c-0.3,0.2-0.5,0.5-0.5,0.9L99.2,150.2"/>
								<path d="M108.6,151.6c-0.4,0-0.8,0.2-1,0.5c-0.3,0.3-0.5,0.7-0.5,1.2l-0.3-1.4l-1.2,0.1l0.6,5.6l1.4-0.1l-0.3-2.7
									c-0.1-0.5,0-0.9,0.3-1.3c0.2-0.3,0.5-0.5,1-0.6c0.1,0,0.2,0,0.3,0c0.1,0,0.2,0,0.3,0l-0.1-1.4l-0.2,0L108.6,151.6"/>
								<path d="M112.1,153.7c0-0.5,0.1-0.8,0.3-1.1c0.2-0.3,0.5-0.4,0.9-0.5c0.3,0,0.6,0,0.8,0.2c0.2,0.2,0.3,0.5,0.4,0.8l0,0.2
									l0,0.1L112.1,153.7 M113.2,151.1c-0.8,0.1-1.4,0.4-1.9,1c-0.4,0.6-0.6,1.3-0.5,2.3c0.1,0.9,0.4,1.6,0.9,2.1
									c0.5,0.5,1.2,0.7,2,0.6c0.6-0.1,1.1-0.2,1.4-0.6c0.4-0.3,0.6-0.7,0.7-1.2l-1.2-0.3c0,0.3-0.2,0.5-0.3,0.7
									c-0.2,0.2-0.4,0.3-0.7,0.3c-0.4,0-0.7-0.1-1-0.3c-0.3-0.3-0.4-0.7-0.5-1.2l3.6-0.4c0-0.1,0-0.2,0-0.3c0-0.1,0-0.3,0-0.4
									c-0.1-0.7-0.3-1.3-0.8-1.7C114.5,151.2,113.9,151,113.2,151.1"/>
								<path d="M87.3,165.2l-1.4,0.1l0.6,5.7c0.1,0.5,0,0.9-0.2,1.1c-0.1,0.1-0.3,0.2-0.5,0.2c-0.1,0-0.3,0-0.5,0l0,1.1
									c0.3,0,0.6,0,0.8,0c0.5-0.1,0.9-0.2,1.2-0.5c0.5-0.4,0.7-1.1,0.6-2L87.3,165.2 M86.3,162.8c-0.2,0-0.4,0.1-0.6,0.3
									c-0.1,0.2-0.2,0.4-0.2,0.6c0,0.2,0.1,0.4,0.3,0.6c0.2,0.1,0.4,0.2,0.6,0.2c0.3,0,0.4-0.1,0.6-0.3c0.2-0.2,0.2-0.4,0.2-0.6
									c0-0.2-0.1-0.4-0.3-0.6C86.8,162.9,86.6,162.8,86.3,162.8"/>
								<path d="M92.6,169.5c-0.4,0-0.8-0.1-1-0.4c-0.3-0.3-0.4-0.8-0.5-1.4c-0.1-0.6,0-1.1,0.2-1.5c0.2-0.3,0.5-0.5,0.9-0.6
									c0.4,0,0.8,0.1,1,0.4c0.2,0.3,0.4,0.8,0.5,1.4c0.1,0.6,0,1.1-0.2,1.5C93.3,169.2,93,169.4,92.6,169.5 M92.1,164.6
									c-0.8,0.1-1.4,0.4-1.9,1c-0.4,0.6-0.6,1.3-0.5,2.2c0.1,0.9,0.4,1.6,1,2.1c0.5,0.5,1.2,0.7,2,0.6c0.8-0.1,1.5-0.4,1.9-1
									c0.4-0.6,0.6-1.3,0.5-2.2c-0.1-0.9-0.4-1.6-1-2.1C93.6,164.7,92.9,164.5,92.1,164.6"/>
								<path d="M99.6,171.1c-0.5,0-0.8,0-1.1-0.1c-0.3-0.1-0.4-0.3-0.5-0.6c0-0.2,0-0.4,0.2-0.5c0.1-0.1,0.3-0.2,0.6-0.2l1.6-0.2
									c0.3,0,0.5,0,0.7,0.1c0.2,0.1,0.2,0.2,0.3,0.4c0,0.3-0.1,0.5-0.4,0.7C100.6,170.9,100.2,171.1,99.6,171.1 M99.3,166.8
									c-0.3,0-0.6,0-0.8-0.2c-0.2-0.2-0.3-0.4-0.3-0.7c0-0.3,0-0.6,0.2-0.8c0.2-0.2,0.4-0.3,0.7-0.3c0.3,0,0.6,0,0.8,0.2
									c0.2,0.2,0.3,0.4,0.3,0.7c0,0.3,0,0.6-0.2,0.8C99.8,166.6,99.6,166.8,99.3,166.8 M100.9,163.2c0,0.2,0,0.4-0.1,0.6
									c0,0.2-0.1,0.3-0.2,0.4c-0.2-0.1-0.5-0.2-0.7-0.2c-0.3,0-0.6,0-0.9,0c-0.7,0.1-1.3,0.3-1.7,0.7c-0.4,0.4-0.6,0.9-0.5,1.5
									c0,0.4,0.2,0.7,0.4,0.9c0.2,0.3,0.5,0.5,0.8,0.6c-0.3,0.1-0.5,0.3-0.6,0.5c-0.2,0.2-0.2,0.4-0.2,0.7c0,0.2,0.1,0.4,0.3,0.6
									c0.2,0.2,0.3,0.3,0.6,0.3c-0.4,0.1-0.7,0.3-0.9,0.5c-0.2,0.2-0.3,0.5-0.3,0.8c0.1,0.5,0.3,0.8,0.8,1c0.5,0.2,1.2,0.3,2,0.2
									c0.9-0.1,1.7-0.4,2.2-0.8c0.5-0.4,0.8-0.9,0.7-1.6c-0.1-0.5-0.3-0.9-0.7-1.1c-0.4-0.2-0.9-0.3-1.6-0.2l-1.5,0.2
									c-0.2,0-0.3,0-0.4-0.1c-0.1,0-0.1-0.1-0.2-0.3c0-0.1,0-0.2,0.1-0.3c0.1-0.1,0.1-0.1,0.2-0.2c0.1,0,0.3,0,0.4,0
									c0.1,0,0.3,0,0.4,0c0.7-0.1,1.3-0.3,1.7-0.7c0.4-0.4,0.6-0.9,0.5-1.5c0-0.2-0.1-0.3-0.1-0.5c-0.1-0.2-0.1-0.3-0.3-0.4
									c0.3-0.1,0.5-0.2,0.6-0.4c0.2-0.2,0.3-0.4,0.3-0.7L100.9,163.2"/>
								<path d="M106.6,168c-0.4,0-0.8-0.1-1-0.4c-0.2-0.3-0.4-0.8-0.5-1.4c-0.1-0.6,0-1.1,0.2-1.5c0.2-0.3,0.5-0.5,0.9-0.6
									c0.4,0,0.8,0.1,1,0.4c0.3,0.3,0.4,0.8,0.5,1.4c0.1,0.6,0,1.1-0.2,1.5C107.3,167.8,107,168,106.6,168 M106.1,163.1
									c-0.8,0.1-1.4,0.4-1.9,1c-0.4,0.6-0.6,1.3-0.5,2.2c0.1,0.9,0.4,1.6,0.9,2.1c0.5,0.5,1.2,0.7,2,0.6c0.8-0.1,1.5-0.4,1.9-1
									c0.4-0.6,0.6-1.3,0.5-2.2c-0.1-0.9-0.4-1.6-1-2.1C107.6,163.2,106.9,163,106.1,163.1"/>
								<path d="M112.8,162.4c-0.7,0.1-1.2,0.3-1.5,0.7c-0.4,0.4-0.5,0.8-0.5,1.4c0,0.3,0.1,0.5,0.2,0.7c0.1,0.2,0.3,0.3,0.5,0.5
									c0.1,0.1,0.3,0.1,0.5,0.2c0.2,0.1,0.5,0.1,0.9,0.1c0.5,0.1,0.9,0.1,1,0.2c0.2,0.1,0.3,0.2,0.3,0.4c0,0.2,0,0.4-0.2,0.5
									c-0.2,0.1-0.4,0.2-0.7,0.3c-0.3,0-0.6,0-0.8-0.2c-0.2-0.1-0.4-0.3-0.4-0.6l-1.2,0.4c0.1,0.5,0.4,0.8,0.9,1.1
									c0.4,0.2,1,0.3,1.6,0.2c0.7-0.1,1.2-0.3,1.6-0.7c0.4-0.4,0.5-0.8,0.5-1.4c0-0.3-0.1-0.5-0.2-0.7c-0.1-0.2-0.3-0.3-0.5-0.5
									c-0.1-0.1-0.3-0.1-0.5-0.2c-0.2,0-0.5-0.1-0.9-0.1c-0.5,0-0.9-0.1-1-0.2c-0.2-0.1-0.3-0.2-0.3-0.4c0-0.2,0-0.4,0.2-0.6
									c0.1-0.1,0.4-0.2,0.6-0.3c0.3,0,0.5,0,0.7,0.1c0.2,0.1,0.3,0.3,0.3,0.6l1.2-0.3c-0.1-0.5-0.4-0.9-0.8-1.1
									C114,162.4,113.5,162.3,112.8,162.4"/>
								<path d="M118.2,166c-0.2,0-0.4,0.1-0.6,0.3c-0.1,0.2-0.2,0.4-0.2,0.6c0,0.2,0.1,0.4,0.3,0.5c0.2,0.1,0.3,0.2,0.5,0.2l0.1,0
									l0.1-0.1l0,0.1l0,0.1c0,0.3-0.1,0.5-0.3,0.8c-0.2,0.2-0.5,0.4-0.8,0.4l0.1,0.6c0.6-0.1,1.1-0.3,1.4-0.8
									c0.3-0.5,0.5-1,0.4-1.6c0-0.4-0.2-0.7-0.4-0.9C118.8,166,118.5,165.9,118.2,166"/>
								<path d="M127.7,165.8c-0.4,0-0.7-0.1-0.9-0.3c-0.3-0.2-0.4-0.6-0.5-1.1l-0.1-0.7c0-0.5,0-0.9,0.2-1.2
									c0.2-0.3,0.5-0.5,0.8-0.5c0.4,0,0.8,0.1,1,0.4c0.3,0.3,0.4,0.7,0.5,1.4c0.1,0.6,0,1.1-0.2,1.5
									C128.5,165.5,128.2,165.7,127.7,165.8 M125.8,158.7l-1.4,0.1l0.9,8.1l1.1-0.1l0.1-1c0.1,0.3,0.4,0.6,0.7,0.8
									c0.3,0.2,0.7,0.2,1.1,0.2c0.7-0.1,1.3-0.4,1.7-1c0.4-0.6,0.5-1.3,0.4-2.2c-0.1-0.9-0.4-1.6-0.8-2.1
									c-0.5-0.5-1.1-0.7-1.8-0.6c-0.4,0-0.7,0.2-1,0.4c-0.3,0.2-0.5,0.5-0.5,0.9L125.8,158.7"/>
								<path d="M135.4,160.1l-0.2,0c-0.4,0-0.8,0.2-1.1,0.5c-0.3,0.3-0.5,0.7-0.5,1.1l-0.3-1.4l-1.2,0.1l0.6,5.6l1.4-0.1l-0.3-2.7
									c-0.1-0.5,0-0.9,0.3-1.3c0.2-0.3,0.5-0.5,1-0.6c0.1,0,0.2,0,0.3,0c0.1,0,0.2,0,0.3,0l-0.1-1.4L135.4,160.1"/>
								<path d="M138.8,159.8l-1.4,0.1l0.6,5.6l1.4-0.1L138.8,159.8 M137.9,157.4c-0.3,0-0.4,0.1-0.6,0.3c-0.2,0.2-0.2,0.4-0.2,0.6
									c0,0.2,0.1,0.4,0.3,0.6c0.2,0.1,0.4,0.2,0.6,0.2c0.2,0,0.4-0.1,0.6-0.3c0.2-0.2,0.2-0.4,0.2-0.6c0-0.2-0.1-0.4-0.3-0.6
									C138.3,157.4,138.1,157.4,137.9,157.4"/>
								<path d="M144.4,159.1c-0.4,0-0.8,0.2-1.1,0.4c-0.3,0.2-0.5,0.6-0.6,1l-0.3-1.1l-1.1,0.1l0.6,5.6l1.4-0.1l-0.3-3.2
									c0-0.5,0-0.8,0.2-1.1c0.2-0.3,0.5-0.4,0.9-0.5c0.3,0,0.5,0,0.7,0.2c0.2,0.2,0.3,0.4,0.3,0.7l0.4,3.6l1.4-0.1l-0.4-3.9
									c-0.1-0.6-0.3-1-0.6-1.3C145.4,159.1,145,159,144.4,159.1"/>
								<path d="M151.5,163.2c-0.4,0-0.8-0.1-1-0.4c-0.3-0.3-0.4-0.7-0.5-1.3c-0.1-0.6,0-1.1,0.2-1.5c0.2-0.4,0.5-0.6,0.9-0.6
									c0.3,0,0.7,0.1,0.9,0.3c0.3,0.2,0.4,0.5,0.5,1l0.1,0.9c0.1,0.5,0,0.9-0.2,1.2C152.2,163,151.9,163.2,151.5,163.2
									 M150.7,158.4c-0.7,0.1-1.3,0.4-1.7,1c-0.4,0.6-0.5,1.4-0.4,2.3c0.1,0.9,0.4,1.5,0.9,2c0.5,0.5,1.1,0.7,1.7,0.6
									c0.4,0,0.8-0.2,1-0.4c0.3-0.2,0.5-0.5,0.5-0.9l0.3,3.2l1.4-0.1l-0.8-7.9l-1.1,0.1l-0.1,0.9c-0.2-0.3-0.4-0.5-0.7-0.7
									C151.4,158.5,151.1,158.4,150.7,158.4"/>
								<path d="M160.9,157.5l-1.4,0.1l0.3,3.2c0,0.5,0,0.9-0.2,1.1c-0.2,0.3-0.5,0.4-0.8,0.5c-0.3,0-0.5,0-0.7-0.2
									c-0.2-0.2-0.3-0.4-0.3-0.7l-0.4-3.7l-1.4,0.1l0.4,4c0.1,0.6,0.3,1,0.6,1.3c0.3,0.3,0.8,0.4,1.3,0.4c0.4,0,0.8-0.2,1.1-0.4
									c0.3-0.2,0.5-0.6,0.6-1l0.3,1l1.2-0.1L160.9,157.5"/>
								<path d="M164.6,159.4c0-0.5,0.1-0.8,0.3-1.1c0.2-0.3,0.5-0.4,0.9-0.5c0.3,0,0.6,0,0.8,0.2c0.2,0.2,0.3,0.5,0.4,0.8l0,0.2
									l0,0.1L164.6,159.4 M165.7,156.9c-0.8,0.1-1.4,0.4-1.9,1c-0.4,0.6-0.6,1.3-0.5,2.3c0.1,0.9,0.4,1.6,0.9,2.1
									c0.5,0.5,1.2,0.7,2,0.6c0.6-0.1,1.1-0.2,1.4-0.6c0.4-0.3,0.6-0.7,0.7-1.2l-1.2-0.2c0,0.3-0.2,0.5-0.3,0.7
									c-0.2,0.2-0.4,0.3-0.7,0.3c-0.4,0-0.8-0.1-1-0.3c-0.3-0.3-0.4-0.7-0.5-1.2l3.6-0.4c0-0.1,0-0.2,0-0.3c0-0.1,0-0.3,0-0.4
									c-0.1-0.7-0.3-1.3-0.8-1.7C167,156.9,166.4,156.8,165.7,156.9"/>
								<path d="M173,161c-0.4,0-0.8-0.1-1-0.4c-0.3-0.3-0.4-0.7-0.5-1.3c-0.1-0.6,0-1.1,0.2-1.5c0.2-0.4,0.5-0.6,0.9-0.6
									c0.3,0,0.7,0.1,0.9,0.3c0.3,0.2,0.4,0.5,0.5,1l0.1,0.9c0.1,0.5,0,0.9-0.2,1.2C173.7,160.8,173.4,160.9,173,161 M174.9,153.5
									l-1.4,0.1l0.3,3.2c-0.1-0.3-0.4-0.5-0.7-0.6c-0.3-0.1-0.7-0.2-1-0.1c-0.7,0.1-1.3,0.4-1.6,1c-0.4,0.6-0.5,1.4-0.4,2.3
									c0.1,0.9,0.4,1.5,0.9,2c0.5,0.5,1.1,0.7,1.7,0.6c0.4,0,0.8-0.2,1.1-0.4c0.3-0.2,0.5-0.6,0.6-0.9l0.3,1l1.2-0.1L174.9,153.5"
									/>
								<path d="M180.5,160.2c-0.4,0-0.8-0.1-1-0.4c-0.2-0.3-0.4-0.8-0.5-1.4c-0.1-0.6,0-1.1,0.2-1.5c0.2-0.3,0.5-0.5,0.9-0.6
									c0.4,0,0.8,0.1,1,0.4c0.2,0.3,0.4,0.8,0.5,1.4c0.1,0.6,0,1.1-0.2,1.5C181.2,160,180.9,160.2,180.5,160.2 M179.9,155.4
									c-0.8,0.1-1.4,0.4-1.9,1c-0.4,0.6-0.6,1.3-0.5,2.2c0.1,0.9,0.4,1.6,1,2.1c0.5,0.5,1.2,0.7,2,0.6c0.8-0.1,1.5-0.4,1.9-1
									c0.4-0.6,0.6-1.3,0.5-2.2c-0.1-0.9-0.4-1.6-1-2.1C181.4,155.5,180.8,155.3,179.9,155.4"/>
								<path d="M186.6,154.7c-0.7,0.1-1.2,0.3-1.5,0.7c-0.4,0.4-0.5,0.8-0.5,1.4c0,0.3,0.1,0.5,0.2,0.7c0.1,0.2,0.3,0.3,0.5,0.5
									c0.1,0.1,0.3,0.1,0.5,0.2c0.2,0.1,0.5,0.1,0.9,0.1c0.5,0.1,0.9,0.1,1,0.2c0.2,0.1,0.3,0.2,0.3,0.4c0,0.2,0,0.4-0.2,0.5
									c-0.2,0.1-0.4,0.2-0.7,0.3c-0.3,0-0.6,0-0.8-0.2c-0.2-0.1-0.4-0.3-0.4-0.6l-1.2,0.4c0.1,0.5,0.4,0.8,0.9,1.1
									c0.4,0.2,1,0.3,1.6,0.2c0.7-0.1,1.2-0.3,1.6-0.7c0.4-0.4,0.5-0.8,0.5-1.4c0-0.3-0.1-0.5-0.2-0.7c-0.1-0.2-0.3-0.3-0.5-0.5
									c-0.1-0.1-0.3-0.1-0.5-0.2c-0.2,0-0.5-0.1-0.9-0.1c-0.5,0-0.9-0.1-1-0.2c-0.2-0.1-0.3-0.2-0.3-0.4c0-0.2,0-0.4,0.2-0.6
									c0.1-0.1,0.4-0.2,0.6-0.3c0.3,0,0.5,0,0.7,0.1c0.2,0.1,0.3,0.3,0.3,0.6l1.2-0.3c-0.1-0.5-0.4-0.9-0.8-1.1
									C187.8,154.7,187.3,154.6,186.6,154.7"/>
								<path d="M88.3,178.7c0-0.5,0.1-0.8,0.3-1.1c0.2-0.3,0.5-0.4,0.8-0.5c0.3,0,0.6,0,0.8,0.2c0.2,0.2,0.3,0.5,0.4,0.8l0,0.2
									l0,0.1L88.3,178.7 M89.4,176.2c-0.8,0.1-1.4,0.4-1.9,1c-0.4,0.6-0.6,1.3-0.5,2.3c0.1,0.9,0.4,1.6,0.9,2.1
									c0.5,0.5,1.2,0.7,2,0.6c0.6-0.1,1.1-0.2,1.4-0.6c0.4-0.3,0.6-0.7,0.7-1.2l-1.2-0.2c0,0.3-0.2,0.5-0.3,0.7
									c-0.2,0.2-0.4,0.3-0.7,0.3c-0.4,0-0.7-0.1-1-0.3c-0.3-0.3-0.4-0.7-0.5-1.2l3.6-0.4c0-0.1,0-0.2,0-0.3c0-0.1,0-0.3,0-0.4
									c-0.1-0.7-0.3-1.3-0.8-1.7C90.7,176.3,90.1,176.1,89.4,176.2"/>
								<path d="M98.7,175.3l-1.4,0.1l0.6,5.6l1.4-0.1L98.7,175.3 M97.7,172.9c-0.3,0-0.4,0.1-0.6,0.3c-0.1,0.2-0.2,0.4-0.2,0.6
									c0,0.2,0.1,0.4,0.3,0.6c0.2,0.1,0.4,0.2,0.6,0.2c0.2,0,0.4-0.1,0.6-0.3c0.2-0.2,0.2-0.4,0.2-0.6c0-0.2-0.1-0.4-0.3-0.6
									C98.2,172.9,98,172.9,97.7,172.9"/>
								<path d="M104.3,174.6c-0.4,0-0.8,0.2-1.1,0.4c-0.3,0.2-0.5,0.6-0.6,1l-0.3-1.1l-1.1,0.1l0.6,5.6l1.4-0.1l-0.3-3.2
									c0-0.5,0-0.8,0.2-1.1c0.2-0.3,0.5-0.4,0.8-0.5c0.3,0,0.5,0,0.7,0.2c0.2,0.2,0.3,0.4,0.3,0.8l0.4,3.6l1.4-0.1l-0.4-3.9
									c-0.1-0.6-0.3-1-0.6-1.3C105.3,174.7,104.9,174.5,104.3,174.6"/>
								<path d="M110.5,171.5c-0.6,0.1-1.1,0.3-1.4,0.7c-0.3,0.4-0.5,1-0.4,1.6l0.1,0.5l-0.8,0.1l0.1,1l0.8-0.1l0.5,4.6l1.4-0.1
									l-0.5-4.6l1.3-0.1l-0.1-1l-1.3,0.1l0-0.5c0-0.3,0-0.6,0.1-0.8c0.1-0.2,0.3-0.3,0.6-0.3c0.2,0,0.3,0,0.4,0
									c0.1,0,0.2,0.1,0.4,0.2l0.2-1c-0.2-0.1-0.4-0.2-0.6-0.2C110.9,171.4,110.7,171.4,110.5,171.5"/>
								<path d="M115.5,178.4c-0.3,0-0.5,0-0.6-0.1c-0.2-0.1-0.3-0.3-0.3-0.5c0-0.3,0.1-0.5,0.3-0.7c0.2-0.2,0.6-0.3,1.1-0.4l0.2,0
									c0.1,0,0.2,0,0.3,0l0,0.4c0,0.4,0,0.7-0.2,0.9C116.1,178.2,115.9,178.4,115.5,178.4 M115.3,173.4c-0.6,0.1-1.1,0.3-1.5,0.6
									c-0.4,0.4-0.6,0.8-0.6,1.3l1.3,0.1c0-0.3,0-0.5,0.2-0.7c0.1-0.2,0.3-0.3,0.6-0.3c0.3,0,0.5,0,0.7,0.2
									c0.2,0.1,0.3,0.3,0.3,0.6l0.1,0.6c-0.1,0-0.2,0-0.3,0c-0.1,0-0.2,0-0.3,0c-0.9,0.1-1.5,0.3-2,0.7c-0.4,0.4-0.6,0.8-0.6,1.4
									c0.1,0.5,0.3,0.9,0.6,1.1c0.4,0.3,0.8,0.4,1.3,0.3c0.4,0,0.7-0.2,1-0.4c0.3-0.2,0.5-0.4,0.5-0.7l0.1,0.2l0.1,0.2
									c0.1,0.2,0.3,0.3,0.5,0.3c0.2,0.1,0.4,0.1,0.6,0.1c0.1,0,0.3,0,0.4-0.1c0.1-0.1,0.3-0.1,0.3-0.2l-0.2-0.9l-0.1,0.1l-0.2,0
									c-0.1,0-0.2,0-0.3-0.1c-0.1-0.1-0.1-0.2-0.1-0.3l-0.3-2.6c-0.1-0.6-0.3-1-0.7-1.3C116.6,173.5,116,173.4,115.3,173.4
									 M115.8,170.9l-1.3,0.1l-1,1.9l1-0.1l0.8-1.1l1,0.9l1-0.1L115.8,170.9"/>
								<path d="M123.3,172.6c-0.4,0-0.8,0.2-1.1,0.4c-0.3,0.2-0.5,0.6-0.6,1l-0.3-1.1l-1.1,0.1l0.6,5.6l1.4-0.1l-0.3-3.2
									c0-0.5,0-0.8,0.2-1.1c0.2-0.3,0.5-0.4,0.8-0.5c0.3,0,0.5,0,0.7,0.2c0.2,0.2,0.3,0.4,0.3,0.8l0.4,3.6l1.4-0.1l-0.4-3.9
									c-0.1-0.6-0.3-1-0.6-1.3C124.2,172.7,123.8,172.5,123.3,172.6"/>
								<path d="M129.7,171.9c-0.8,0.1-1.4,0.4-1.8,1c-0.4,0.6-0.6,1.3-0.5,2.2c0.1,0.9,0.4,1.6,0.9,2.1c0.5,0.5,1.2,0.7,2,0.6
									c0.6-0.1,1.1-0.3,1.4-0.6c0.4-0.4,0.6-0.8,0.6-1.4l-1.3-0.2c0,0.3-0.1,0.6-0.2,0.8c-0.2,0.2-0.4,0.3-0.7,0.4
									c-0.4,0-0.8-0.1-1-0.4c-0.3-0.3-0.4-0.8-0.5-1.4c-0.1-0.6,0-1.1,0.2-1.4c0.2-0.4,0.5-0.6,0.9-0.6c0.3,0,0.5,0,0.7,0.2
									c0.2,0.2,0.3,0.4,0.4,0.7l1.2-0.4c-0.1-0.5-0.4-1-0.8-1.3C130.9,172,130.3,171.9,129.7,171.9"/>
								<path d="M135.4,171.5l-1.4,0.1l0.6,5.6l1.4-0.1L135.4,171.5 M134.4,169.1c-0.2,0-0.4,0.1-0.6,0.3c-0.1,0.2-0.2,0.4-0.2,0.6
									c0,0.2,0.1,0.4,0.3,0.6c0.2,0.1,0.4,0.2,0.6,0.2c0.3,0,0.4-0.1,0.6-0.3c0.2-0.2,0.2-0.4,0.2-0.6c0-0.2-0.1-0.4-0.3-0.6
									C134.9,169.1,134.7,169,134.4,169.1"/>
								<path d="M140.2,175.8c-0.3,0-0.5,0-0.6-0.1c-0.2-0.1-0.3-0.3-0.3-0.5c0-0.3,0.1-0.5,0.3-0.7c0.2-0.2,0.6-0.3,1.1-0.4l0.2,0
									c0.1,0,0.2,0,0.3,0l0,0.4c0,0.4,0,0.7-0.2,0.9C140.8,175.6,140.5,175.8,140.2,175.8 M140,170.8c-0.6,0.1-1.1,0.3-1.5,0.6
									c-0.4,0.4-0.6,0.8-0.5,1.3l1.3,0.1c0-0.3,0-0.5,0.2-0.7c0.1-0.2,0.3-0.3,0.6-0.3c0.3,0,0.5,0,0.7,0.2
									c0.2,0.1,0.3,0.3,0.3,0.6l0.1,0.6c-0.1,0-0.2,0-0.3,0c-0.1,0-0.2,0-0.3,0c-0.9,0.1-1.5,0.3-2,0.7c-0.4,0.4-0.6,0.8-0.6,1.4
									c0.1,0.5,0.3,0.9,0.6,1.1c0.3,0.3,0.8,0.4,1.3,0.3c0.4,0,0.7-0.2,1-0.4c0.3-0.2,0.5-0.4,0.5-0.7l0.1,0.2l0.1,0.2
									c0.1,0.2,0.3,0.3,0.5,0.3c0.2,0.1,0.4,0.1,0.6,0.1c0.1,0,0.3,0,0.4-0.1c0.1-0.1,0.3-0.1,0.3-0.2l-0.2-0.9l-0.1,0.1l-0.2,0
									c-0.1,0-0.2,0-0.3-0.1c-0.1-0.1-0.1-0.2-0.1-0.3l-0.3-2.6c-0.1-0.6-0.3-1-0.7-1.3C141.2,170.9,140.7,170.8,140,170.8"/>
							</g>
						</g>
					</g>
				</g>
			</g>
		</g>
	</g>
	<path class="st96" d="M56.7,227l9.1-44.1L6.7,172.1L0,196.6l4.3,11.2l3.8,9.7l35.1,6.9L56.7,227L56.7,227L56.7,227L56.7,227z
		 M37.8,185.6c3.5,0.1,6.2,2.9,6.2,6.4c-0.1,3.5-2.9,6.2-6.4,6.2c-3.5-0.1-6.2-2.9-6.2-6.4C31.5,188.3,34.4,185.5,37.8,185.6z
		 M12.2,180.6c3.5,0.1,6.2,2.9,6.2,6.4c-0.1,3.5-2.9,6.2-6.4,6.2c-3.5-0.1-6.2-2.9-6.2-6.4C5.9,183.3,8.8,180.6,12.2,180.6z"/>
	<g class="st97">
		<g>
			<path class="st1" d="M260,139.1l-2.7-10.5l-25.7-14.8l-14.8,25.6l2.9,10.7l25.7,14.8l14.7-25.5l0.1-0.2L260,139.1z M229.7,152.9
				c-2.9,0-5.2-2.3-5.2-5.2c0-2.9,2.3-5.2,5.2-5.2c2.9,0,5.2,2.3,5.2,5.2C234.9,150.6,232.6,152.9,229.7,152.9z M231.8,134.6
				c0-2.9,2.3-5.2,5.2-5.2c2.9,0,5.2,2.3,5.2,5.2c0,2.9-2.3,5.2-5.2,5.2C234.1,139.8,231.8,137.5,231.8,134.6z M243.1,160.4
				c-2.9,0-5.2-2.3-5.2-5.2s2.3-5.2,5.2-5.2c2.9,0,5.2,2.3,5.2,5.2S246,160.4,243.1,160.4z M250.4,147.3c-2.9,0-5.2-2.3-5.2-5.2
				s2.3-5.2,5.2-5.2c2.9,0,5.2,2.3,5.2,5.2S253.2,147.3,250.4,147.3z"/>
		</g>
	</g>
	<path class="st96" d="M275.2,246.1c-7.3-2.1-14.9,2-17,9.3c-1.8,6,0.8,12.3,5.9,15.5l-39,62.8l47.4,14l-1-74.7
		c5.8-0.1,11.2-3.9,12.9-9.8C286.6,255.9,282.5,248.3,275.2,246.1z"/>
	<path class="st96" d="M135.2,29L135.2,29c-1.4-2.7-4.2-4.6-7.5-4.5c-2.4,0-4.6,1.1-6,2.7l0,0l-3.9-0.5c-1.3-2.9-4.2-4.8-7.7-4.8
		c-2.5,0-4.8,1.2-6.2,3l0,0l-2.4-0.3L99,24.2l0,0c-1-2.1-2.8-3.8-5.3-4.4c-3.3-0.9-6.6,0.3-8.6,2.7L81.2,22l0,0
		c-1-2-2.8-3.5-5.1-4.1c-3.2-0.9-6.4,0.2-8.4,2.5l0,0l-5.3-0.6L59,47.8l22.4,2.7c0.1-0.7,0.2-1.3,0.4-2c2.2-7.7,10-12.4,18-11.1
		c8,0.7,14.4,7.2,14.6,15.2c0,0.7,0,1.4-0.1,2.1l22.4,3l3.7-28L135.2,29z"/>
</g>
<g id="default_x5F_grid" class="st101">
</g>
</svg>
