<?xml version="1.0" encoding="utf-8"?>
<!-- Generator: Adobe Illustrator 27.6.1, SVG Export Plug-In . SVG Version: 6.00 Build 0)  -->
<svg version="1.1" xmlns="http://www.w3.org/2000/svg" xmlns:xlink="http://www.w3.org/1999/xlink" x="0px" y="0px"
	 viewBox="0 0 311.6 373.5" style="enable-background:new 0 0 311.6 373.5;" xml:space="preserve">
<style type="text/css">
	.st0{fill:#FFB4D9;}
	.st1{fill:#E93032;}
	.st2{opacity:0.4984;}
	.st3{fill:#333333;}
	.st4{fill:#FFDD67;}
	.st5{fill:#664E27;}
	.st6{fill:#917524;}
	.st7{fill:none;stroke:#0033CB;stroke-width:34.6968;stroke-linecap:round;stroke-miterlimit:10;stroke-dasharray:0,66.0203,0,0;}
	.st8{opacity:0.5;enable-background:new    ;}
	.st9{fill:#FFFFFF;}
	.st10{fill:#494949;}
	.st11{fill:none;stroke:#0033CB;stroke-width:34.7041;stroke-linecap:round;stroke-miterlimit:10;stroke-dasharray:0,66.0342,0,0;}
	.st12{fill:#0033CC;}
	.st13{fill:#6380C5;}
	.st14{fill:#606060;}
	.st15{opacity:0.36;fill:#E93032;}
	.st16{enable-background:new    ;}
	.st17{clip-path:url(#SVGID_00000170275440827040511130000017049204195729216667_);}
	.st18{clip-path:url(#SVGID_00000091730526996255060880000016996138512350192544_);}
	.st19{opacity:0.84;}
	.st20{opacity:0.84;fill:#E93032;}
	.st21{fill:#FFD5F1;}
	.st22{fill:#FF9FC9;}
	.st23{fill:none;stroke:#606060;stroke-width:2.2166;stroke-miterlimit:10;}
	.st24{fill:none;stroke:#606060;stroke-width:2.2166;stroke-miterlimit:10;stroke-dasharray:15.0957,15.0957;}
	.st25{fill:none;stroke:#3333C1;stroke-width:0.6206;stroke-miterlimit:10;}
	.st26{clip-path:url(#SVGID_00000111183411878527749800000010337920338935577765_);}
	.st27{fill:none;stroke:#000000;stroke-width:0.6206;stroke-miterlimit:10;}
	.st28{stroke:#000000;stroke-width:0.6206;stroke-miterlimit:10;}
	.st29{fill:none;stroke:#000000;stroke-width:11;stroke-linecap:round;stroke-miterlimit:10;stroke-dasharray:0,13.9227;}
	.st30{clip-path:url(#SVGID_00000015321050478303274520000013021629172682782894_);}
	.st31{clip-path:url(#SVGID_00000159466697331825857430000015688124287564265369_);}
	.st32{clip-path:url(#SVGID_00000174573586449707616810000012903814648212594576_);}
	.st33{clip-path:url(#SVGID_00000139999578171035031450000015885544934354961049_);}
	.st34{opacity:0.36;}
	.st35{clip-path:url(#SVGID_00000075859034013806595320000008026325918826202766_);}
	.st36{clip-path:url(#SVGID_00000019667126666887477010000005954265469486511017_);}
	.st37{opacity:0.36;clip-path:url(#SVGID_00000031903442182338785940000003988921119020843929_);}
	.st38{clip-path:url(#SVGID_00000033330080859506379180000016262230541800506501_);}
	.st39{clip-path:url(#SVGID_00000183231699898109204900000016417879272976953009_);}
	.st40{clip-path:url(#SVGID_00000037675804551667569900000006712392211968184765_);}
	.st41{clip-path:url(#SVGID_00000100357845377868064740000001415659704348814998_);}
	.st42{clip-path:url(#SVGID_00000154406262128908477950000014105818977998776977_);}
	.st43{clip-path:url(#SVGID_00000129164214110587669670000004779915838448113828_);}
	.st44{clip-path:url(#SVGID_00000145032952162066660850000015112944448779871901_);}
	.st45{fill:none;}
	.st46{clip-path:url(#SVGID_00000070825168498002884510000007906745006716420761_);}
	.st47{clip-path:url(#SVGID_00000170242646502559873460000007380000364418907812_);}
	.st48{clip-path:url(#SVGID_00000130609849070430147160000010292052923638352782_);}
	.st49{clip-path:url(#SVGID_00000091016624852264044230000001067395061539125691_);}
	.st50{display:none;}
	.st51{display:inline;opacity:0.36;}
	.st52{fill:none;stroke:#E93032;stroke-width:6;stroke-linecap:round;stroke-miterlimit:10;}
	.st53{fill:none;stroke:#E93032;stroke-width:6;stroke-linecap:round;stroke-miterlimit:10;stroke-dasharray:0,13.9684;}
	
		.st54{display:inline;opacity:0.36;fill:none;stroke:#E93032;stroke-width:6;stroke-linecap:round;stroke-miterlimit:10;stroke-dasharray:0,13.9227;}
	.st55{display:inline;opacity:0.36;fill:none;stroke:#E93032;stroke-miterlimit:10;}
	.st56{fill:none;stroke:#E93032;stroke-width:11;stroke-linecap:round;stroke-miterlimit:10;}
	.st57{fill:none;stroke:#E93032;stroke-width:11;stroke-linecap:round;stroke-miterlimit:10;stroke-dasharray:0,13.9683;}
</style>
<g id="Layer_1">
	<g>
		<g class="st34">
			<polygon class="st1" points="246.7,30.8 263.6,0 263.1,35.2 293,17.1 275.1,47.3 310,46.7 279.4,63.8 310,80.9 275.1,80.3 
				293,110.5 263.1,92.4 263.6,127.6 246.7,96.8 229.7,127.6 230.3,92.4 200.3,110.5 218.3,80.3 183.4,80.9 213.9,63.8 183.4,46.7 
				218.3,47.3 200.3,17.1 230.3,35.2 229.7,0 			"/>
		</g>
		<g>
			<g class="st16">
				<defs>
					
						<rect id="SVGID_00000049911964588132572800000015385577775944845969_" x="25.4" y="87.5" transform="matrix(0.9945 -0.1045 0.1045 0.9945 -15.5856 18.1329)" class="st16" width="279.6" height="140.6"/>
				</defs>
				<clipPath id="SVGID_00000126298915315309816830000006959288791763952016_">
					<use xlink:href="#SVGID_00000049911964588132572800000015385577775944845969_"  style="overflow:visible;"/>
				</clipPath>
				<g style="clip-path:url(#SVGID_00000126298915315309816830000006959288791763952016_);">
					<path class="st12" d="M40.6,114.9c-0.1,0-0.2,0-0.3,0l-4.5,0.2l-0.2-4.5c0-0.8,0.5-1.5,1.4-1.6c0,0,0.1,0,0.1,0l3-0.2
						c2.7-0.1,3.8,1.4,3.9,2.8C43.9,113.1,43,114.7,40.6,114.9 M20.6,102.3l0.4,7.6l3.3-0.2c0.9,0,1.4,0.7,1.4,1.4l0.9,16.5
						c0,0.7-0.5,1.3-1.2,1.4c0,0-0.1,0-0.1,0l-3.3,0.2l0.4,7.6l19-1l-0.4-7.6l-3.1,0.2c-1,0-1.6-0.6-1.6-1.4l-0.2-3.8l5.2-0.3
						c0.6,0,1.3-0.1,1.9-0.1c5.4-0.6,12.3-2.7,11.8-11.4c-0.5-9.8-9.5-10.3-14.9-10.1L20.6,102.3"/>
					<path class="st12" d="M86.7,100.3l-28.8,3l0.7,6.7l2.9-0.3c0.7-0.1,1.2,0.4,1.3,1l1.5,14.5c0.1,0.7-0.3,1.4-1.1,1.4l-2.9,0.3
						l0.7,6.7l28.8-3l-1.4-13.2l-6,0.6c0.4,3.5-1.9,6.8-4.9,7.1l-3.4,0.4c-0.7,0.1-1.2-0.4-1.3-1l-0.4-3.7l5.5-0.6l-0.8-7.2
						l-5.5,0.6l-0.4-3.6c-0.1-0.7,0.3-1.3,1-1.4l3.4-0.4c3-0.3,5.9,2.4,6.2,5.9l6-0.6L86.7,100.3"/>
					<path class="st12" d="M101.9,98.6c-6.5,0.7-10.4,4.7-9.7,11.1c0.5,4.3,3.6,6.8,8,7.7c4.2,0.9,10.3,0.2,10.5,2.7
						c0.2,1.6-2.2,1.9-3.4,2.1c-3.2,0.3-6.2-0.8-7.7-3.7l-6.4,0.7l1.2,11.1l6.8-0.7c0,0,0.6-0.7,1.4-0.8c0.3,0,0.6,0,1.1,0.1
						c1.2,0.3,2.6,0.3,3.9,0.2c6.4-0.7,11.5-3.9,10.8-10.9c-0.5-5.2-4.5-7.5-8.7-8.4c-4-0.8-9.7-0.2-9.9-2.2c-0.1-1,1.1-1.8,3.1-2
						c2.1-0.2,6.3,0.8,6.7,3.4l6.3-0.7l-1.1-10.7l-6.7,0.7c-0.1,0.2-0.3,0.6-1.1,0.6c-0.3,0-0.7,0-1.2,0
						C104.6,98.4,103.5,98.4,101.9,98.6"/>
					<path class="st12" d="M138.3,119.1c-1,0.1-1.9,0-2.8-0.4c-0.6-0.4-1-0.9-1.1-1.6c-0.2-1.6,1.3-2.7,2.7-2.8
						c1.9-0.2,3.4,0.9,4.9,2.3C141.3,118.3,139.9,118.9,138.3,119.1 M133,114.8c-0.3-1-0.5-2.3-0.7-3.8c-0.7-6.9,1.3-8.8,4.2-9.1
						c2.9-0.3,5.3,1.2,6,8l0.1,0.5c-1.5-0.7-2.9-1.1-4.1-1C134.6,109.9,133.6,112.8,133,114.8 M135.6,95
						c-8.2,0.9-14.2,8.3-13.3,16.9c1,9.5,8.3,14.6,16.6,13.8c3.2-0.3,6.1-1.5,8.3-3.4c1.5,1.3,3.2,2.3,5.2,2c4.1-0.4,4.7-4,4.3-8.1
						l-0.2-2.1l-2.3,0.2c0,0.4-0.1,1.9-1.2,2c-0.4,0-0.9-0.1-1.5-0.4c0.7-2.1,1-4.6,0.7-7.2C151.3,100.1,143.9,94.1,135.6,95"/>
					<path class="st12" d="M184.3,90l-13.4,1.4l0.7,6.7l2-0.2c0.9-0.1,1.4,0.4,1.5,1.2l1.3,12.6c0.3,2.7-1.4,3.3-3.1,3.5
						c-2.1,0.2-3.5,0-3.8-2.8l-1.3-12.8c-0.1-0.7,0.4-1.2,1.2-1.3l1.4-0.2l-0.7-6.7l-15.5,1.6l0.7,6.7l3-0.3c0.7-0.1,1.2,0.4,1.3,1
						l1.3,12.7c0.8,7.5,6.4,9.4,12.5,8.8c6.6-0.7,10.2-4.3,9.4-11.1l-1.3-12.6c-0.1-0.7,0.4-1.4,1.2-1.4l2.2-0.2L184.3,90"/>
					<path class="st12" d="M205.5,87.8l-16.7,1.8l0.7,6.7l2.9-0.3c0.7-0.1,1.2,0.4,1.3,1l1.5,14.5c0.1,0.7-0.3,1.4-1.1,1.4l-2.9,0.3
						l0.7,6.7l16.7-1.8l-0.7-6.7l-2.9,0.3c-0.7,0.1-1.2-0.4-1.3-1l-1.5-14.5c-0.1-0.7,0.3-1.3,1-1.4l2.9-0.3L205.5,87.8"/>
					<path class="st12" d="M220.7,86.1c-6.5,0.7-10.4,4.7-9.7,11.1c0.5,4.3,3.6,6.8,8,7.7c4.2,0.9,10.3,0.2,10.5,2.7
						c0.2,1.6-2.2,1.9-3.4,2.1c-3.2,0.3-6.2-0.8-7.7-3.7l-6.4,0.7l1.2,11.1l6.8-0.7c0,0,0.6-0.7,1.4-0.8c0.3,0,0.6,0,1.1,0.1
						c1.2,0.3,2.6,0.3,3.9,0.2c6.4-0.7,11.5-3.9,10.8-10.9c-0.5-5.2-4.5-7.5-8.7-8.4c-4-0.8-9.7-0.2-9.9-2.2c-0.1-1,1.1-1.8,3.1-2
						c2.1-0.2,6.3,0.8,6.7,3.4l6.3-0.7l-1.1-10.7l-6.7,0.7c-0.1,0.2-0.3,0.6-1.1,0.6c-0.3,0-0.7,0-1.2,0
						C223.4,86,222.3,85.9,220.7,86.1"/>
					<path class="st12" d="M254,98.8l1.3-5.1l2.3,4.7L254,98.8 M259,82.2l-7.8,0.8l-5.9,22.9c-0.2,0.9-0.5,1.7-1.5,1.8l-2,0.2
						l0.7,6.7l14.1-1.5l-0.7-6.7l-2.8,0.3c-0.4,0-0.8-0.4-0.9-0.8c0-0.1,0-0.2,0-0.4l0.3-1.1l7.7-0.8l0.5,1c0.1,0.2,0.1,0.3,0.1,0.4
						c0,0.5-0.2,0.9-0.7,0.9l-2.8,0.3l0.7,6.7l16.5-1.7l-0.7-6.7l-2.5,0.3c-0.9,0.1-1.3-0.4-1.9-1.6L259,82.2"/>
					<path class="st12" d="M266.8,155.1c-0.6,0.1-1.1-0.3-1.2-0.9l-1.4-11.6c-0.1-0.5,0.3-0.9,1-1c0.1,0,0.2,0,0.2,0
						c3.2-0.3,4.5,0.8,5.1,6.2C271.2,153.3,270.2,154.7,266.8,155.1C266.8,155.1,266.8,155.1,266.8,155.1 M266.3,136
						c-0.1,0-0.1,0-0.2,0l-12.7,1.6l0.7,5.4l2.2-0.3c0,0,0,0,0,0c0.5-0.1,1,0.3,1,0.8l1.4,11.6c0.1,0.6-0.2,1.1-0.8,1.2l-2.3,0.3
						l0.7,5.4l12.7-1.6c5-0.6,10.2-4.7,9.1-13.4C277.1,138.3,271.2,135.5,266.3,136"/>
					<path class="st12" d="M303.1,132.1l-23,2.4l0.6,5.4l2.3-0.2c0.5-0.1,1,0.3,1.1,0.8l1.2,11.6c0.1,0.6-0.2,1.1-0.8,1.1l-2.3,0.2
						l0.6,5.4l23-2.4l-1.1-10.6l-4.8,0.5c0.3,2.8-1.5,5.4-3.9,5.7l-2.7,0.3c-0.5,0.1-1-0.3-1-0.8l-0.3-3l4.4-0.5l-0.6-5.8l-4.4,0.5
						l-0.3-2.8c-0.1-0.5,0.2-1.1,0.8-1.1l2.7-0.3c2.4-0.3,4.7,1.9,5,4.7l4.8-0.5L303.1,132.1"/>
					<path class="st12" d="M94.3,199L77,201.8l-1.2,8.9c-0.2-0.4-4.5-8-4.5-8l-17.5,2.8l1.2,7.6l3.3-0.5c0,0,0.1,0,0.1,0
						c0.8-0.1,1.4,0.6,1.5,1.3l2.6,16.1c0.1,0.8-0.2,1.5-1.1,1.7l-3.3,0.5l1.2,7.6l15.6-2.5l-1.2-7.6l-2.6,0.4c0,0,0,0-0.1,0
						c-0.7,0.1-1.3-0.4-1.4-1.1l-2.3-14.3l11,22l0.6-0.1l3.6-24.3l2.2,14.2c0.1,0.8-0.2,1.5-1.1,1.7l-2.7,0.4l1.2,7.6l17.5-2.8
						l-1.2-7.6l-2.5,0.4c0,0-0.1,0-0.1,0c-0.8,0.1-1.5-0.3-1.6-1l-2.6-16.3c-0.1-0.7,0.2-1.5,1.1-1.7l2.8-0.4L94.3,199"/>
					<path class="st12" d="M129.4,200.5l-28.8,3l0.7,6.7l2.9-0.3c0.7-0.1,1.2,0.4,1.3,1l1.5,14.5c0.1,0.7-0.3,1.4-1,1.4l-2.9,0.3
						l0.7,6.7l28.8-3l-1.4-13.2l-6,0.6c0.4,3.5-1.9,6.8-4.9,7.1l-3.4,0.4c-0.7,0.1-1.2-0.4-1.3-1l-0.4-3.7l5.5-0.6l-0.8-7.2
						l-5.5,0.6l-0.4-3.6c-0.1-0.7,0.3-1.4,1-1.4l3.4-0.4c3-0.3,5.9,2.4,6.2,5.9l6-0.6L129.4,200.5"/>
					<path class="st12" d="M147.7,210.4l-0.4-3.9c-0.1-0.6,0.4-1.2,1-1.2l2.6-0.3c2.4-0.2,3.4,0.9,3.6,2.2c0.1,1.3-0.7,2.6-3,2.9
						L147.7,210.4 M152.8,198l-19,2l0.7,6.7l2.9-0.3c0.7-0.1,1.2,0.4,1.3,1l1.5,14.5c0.1,0.7-0.3,1.4-1,1.4l-2.9,0.3l0.7,6.7
						l16.7-1.8l-0.7-6.7l-2.7,0.3c-0.9,0.1-1.4-0.4-1.5-1.2l-0.4-3.8l0.3,0c0.5-0.1,3.5-0.3,4.6,0.8c2.3,2.3,1.3,6.3,4.2,8.6
						c1.6,1.4,3.5,1.4,5.3,1.2c4.5-0.5,6.5-3.5,6-7.8l-0.3-2.9l-2.8,0.3c0.1,1.1,0.3,2.6-0.7,2.7c-0.6,0.1-0.7-1-0.8-1.4
						c-0.2-1.8-1-3.6-2.7-4.7c-0.8-0.5-1.9-1-3.4-1.3c3.4-1.1,6.2-3.4,5.8-7.7C163.3,198.6,156.9,197.6,152.8,198"/>
					<path class="st12" d="M185.3,194.4c-9,0.9-13.5,9-12.6,17.1c0.9,9,7.7,14.5,15.8,13.6c8.3-0.9,12.8-6.3,11.9-14.8l-6.3,0.7
						c0.4,3.6-2,6.7-5.4,7.1c-1.5,0.2-5.6,0.1-6.4-7.9c-0.8-7.7,3.2-8.7,4.7-8.8c3.3-0.4,6.4,2.2,6.7,5.8l6.3-0.7l-1.4-13.4
						l-6.2,0.7c0,0.4-0.5,1.2-1.2,1.3c0,0-0.3,0-0.5,0C189.3,194.7,187.3,194.2,185.3,194.4"/>
					<path class="st12" d="M216.9,207.3l1.3-5.1l2.3,4.7L216.9,207.3 M221.9,190.8l-7.8,0.8l-5.9,22.9c-0.2,0.9-0.5,1.7-1.5,1.8
						l-2,0.2l0.7,6.7l14.1-1.5l-0.7-6.7l-2.8,0.3c-0.4,0-0.8-0.4-0.9-0.8c0-0.1,0-0.2,0-0.4l0.3-1.1l7.7-0.8l0.5,1
						c0.1,0.2,0.1,0.3,0.1,0.4c0,0.5-0.2,0.9-0.7,0.9l-2.8,0.3l0.7,6.7l16.5-1.7l-0.7-6.7l-2.5,0.3c-0.9,0.1-1.3-0.4-1.9-1.6
						L221.9,190.8"/>
					<path class="st12" d="M255.2,211.2c-0.9,0.1-1.4-0.4-1.5-1.2l-1.5-14.5c-0.1-0.6,0.4-1.2,1.2-1.3c4.3-0.5,5.8,1,6.6,7.9
						C260.7,209,259.5,210.7,255.2,211.2 M254.7,187.3l-15.9,1.7l0.7,6.7l2.8-0.3c0.7-0.1,1.2,0.4,1.3,1l1.5,14.5
						c0.1,0.7-0.3,1.4-1.1,1.4l-2.9,0.3l0.7,6.7l16-1.7c6.3-0.7,12.8-5.7,11.6-16.6C268.4,190.2,261,186.7,254.7,187.3"/>
					<path class="st12" d="M290.2,207.7c-4.4,0.5-5.5-3.5-6-8.1c-0.5-4.7-0.2-8.7,4.2-9.2c4.4-0.5,5.6,3.9,6,8.1
						C294.8,202.7,294.6,207.2,290.2,207.7 M287.6,183.7c-9.5,1-14,9-13.2,16.9c0.8,7.9,6.9,14.8,16.4,13.8c9.5-1,14-9,13.2-16.9
						C303.2,189.5,297.1,182.7,287.6,183.7"/>
				</g>
			</g>
		</g>
		<path id="SVGID_x5F_00000102504224831917289180000016655699930173961651_x5F_" class="st45" d="M282.6,94
			c0,27.5-22.2,49.8-49.6,49.8s-49.6-22.3-49.6-49.8s22.2-49.8,49.6-49.8S282.6,66.5,282.6,94z"/>
		<text>		<textPath  xlink:href="#SVGID_x5F_00000102504224831917289180000016655699930173961651_x5F_" startOffset="0%">
<tspan  class="st1" style="font-family:'National2-Medium'; font-size:9.6882px; letter-spacing:227.6;"> VV 00001</tspan>		</textPath>
</text>
		<g>
			<g class="st16">
				<defs>
					
						<rect id="SVGID_00000098939133761968852130000016585547349237607085_" x="85.4" y="144.6" transform="matrix(0.9945 -0.1045 0.1045 0.9945 -16.1322 15.8121)" class="st16" width="114.8" height="34.4"/>
				</defs>
				<clipPath id="SVGID_00000024723911203696914460000005536590480608854189_">
					<use xlink:href="#SVGID_00000098939133761968852130000016585547349237607085_"  style="overflow:visible;"/>
				</clipPath>
				<g style="clip-path:url(#SVGID_00000024723911203696914460000005536590480608854189_);">
					<path d="M87.8,152.9c-0.7,0.1-1.3,0.3-1.7,0.7c-0.4,0.4-0.6,0.9-0.5,1.5c0,0.3,0.1,0.6,0.2,0.8c0.1,0.2,0.3,0.4,0.5,0.5
						c0.1,0.1,0.3,0.1,0.5,0.2c0.2,0.1,0.5,0.1,0.9,0.2c0.6,0.1,1,0.2,1.1,0.3c0.2,0.1,0.3,0.3,0.3,0.5c0,0.3-0.1,0.5-0.2,0.6
						c-0.2,0.2-0.4,0.3-0.8,0.3c-0.3,0-0.6,0-0.9-0.2c-0.3-0.2-0.4-0.4-0.5-0.7l-1.3,0.5c0.2,0.5,0.5,0.9,1,1.2
						c0.5,0.3,1.1,0.3,1.8,0.3c0.8-0.1,1.4-0.3,1.8-0.7c0.4-0.4,0.6-0.9,0.5-1.5c0-0.3-0.1-0.6-0.2-0.8c-0.1-0.2-0.3-0.4-0.5-0.5
						c-0.2-0.1-0.3-0.2-0.5-0.2c-0.2-0.1-0.5-0.1-1-0.2c-0.6-0.1-1-0.1-1.1-0.2c-0.2-0.1-0.3-0.3-0.3-0.5c0-0.3,0-0.5,0.2-0.6
						c0.2-0.2,0.4-0.2,0.7-0.3c0.3,0,0.6,0,0.8,0.2c0.2,0.1,0.3,0.4,0.4,0.6l1.3-0.3c-0.1-0.6-0.4-1-0.9-1.2
						C89,152.9,88.5,152.8,87.8,152.9"/>
					<path d="M95.6,157.6c-0.5,0-0.8-0.1-1.1-0.4c-0.3-0.3-0.5-0.9-0.5-1.6c-0.1-0.7,0-1.3,0.2-1.6c0.2-0.4,0.5-0.6,1-0.6
						s0.8,0.1,1.1,0.4c0.3,0.3,0.5,0.9,0.5,1.6c0.1,0.7,0,1.3-0.2,1.6C96.4,157.3,96.1,157.5,95.6,157.6 M95.1,152.1
						c-0.9,0.1-1.6,0.5-2,1.1c-0.5,0.6-0.6,1.5-0.5,2.5c0.1,1,0.5,1.8,1,2.3c0.6,0.5,1.3,0.7,2.2,0.7c0.9-0.1,1.6-0.5,2.1-1.1
						c0.5-0.6,0.6-1.5,0.5-2.5c-0.1-1-0.5-1.8-1.1-2.3C96.7,152.3,96,152,95.1,152.1"/>
					<path d="M103.7,156.7c-0.4,0-0.7-0.1-1-0.3c-0.3-0.3-0.4-0.7-0.5-1.2l-0.1-0.8c-0.1-0.5,0-1,0.2-1.3c0.2-0.3,0.5-0.5,0.9-0.6
						c0.5,0,0.9,0.1,1.1,0.4c0.3,0.3,0.5,0.8,0.5,1.5c0.1,0.7,0,1.2-0.2,1.6C104.5,156.4,104.2,156.7,103.7,156.7 M101.6,148.8
						l-1.5,0.2l0.9,9l1.2-0.1l0.1-1.1c0.1,0.4,0.4,0.7,0.8,0.9c0.4,0.2,0.8,0.3,1.2,0.2c0.8-0.1,1.4-0.5,1.8-1.1
						c0.4-0.7,0.6-1.5,0.5-2.5c-0.1-1-0.4-1.8-0.9-2.3c-0.5-0.5-1.2-0.8-1.9-0.7c-0.4,0-0.8,0.2-1.1,0.5c-0.3,0.3-0.5,0.6-0.6,1
						L101.6,148.8"/>
					<path d="M111.9,150.4c-0.5,0-0.8,0.2-1.2,0.6c-0.3,0.3-0.5,0.8-0.6,1.3l-0.3-1.5l-1.3,0.1l0.7,6.3l1.5-0.2l-0.3-3
						c-0.1-0.6,0-1.1,0.3-1.4c0.3-0.4,0.6-0.6,1.1-0.6c0.1,0,0.2,0,0.3,0c0.1,0,0.2,0,0.3,0l-0.1-1.6l-0.2,0L111.9,150.4"/>
					<path d="M115.6,152.7c0-0.5,0.1-0.9,0.3-1.2c0.2-0.3,0.5-0.5,0.9-0.5c0.3,0,0.6,0.1,0.9,0.3c0.2,0.2,0.4,0.5,0.4,0.9l0,0.2
						l0,0.1L115.6,152.7 M116.8,149.9c-0.9,0.1-1.6,0.5-2,1.1c-0.5,0.7-0.6,1.5-0.5,2.5c0.1,1,0.4,1.8,1,2.3
						c0.6,0.5,1.3,0.7,2.2,0.6c0.6-0.1,1.2-0.3,1.6-0.6c0.4-0.4,0.7-0.8,0.8-1.4l-1.3-0.3c0,0.3-0.2,0.6-0.4,0.8
						c-0.2,0.2-0.4,0.3-0.8,0.3c-0.5,0-0.8-0.1-1.1-0.4c-0.3-0.3-0.5-0.7-0.6-1.3l3.9-0.4c0-0.1,0-0.2,0-0.4c0-0.2,0-0.3,0-0.5
						c-0.1-0.8-0.4-1.5-0.9-1.9C118.2,150,117.5,149.8,116.8,149.9"/>
					<path d="M88.6,165.6l-1.5,0.2l0.7,6.3c0.1,0.6,0,1-0.2,1.2c-0.1,0.1-0.3,0.2-0.5,0.2c-0.2,0-0.4,0-0.6,0l0,1.2
						c0.3,0,0.6,0.1,0.9,0c0.5-0.1,1-0.2,1.3-0.6c0.5-0.5,0.7-1.2,0.6-2.2L88.6,165.6 M87.5,163c-0.3,0-0.5,0.1-0.6,0.3
						c-0.2,0.2-0.2,0.4-0.2,0.7c0,0.3,0.1,0.5,0.3,0.6c0.2,0.2,0.4,0.2,0.7,0.2c0.3,0,0.5-0.1,0.7-0.3c0.2-0.2,0.2-0.4,0.2-0.7
						c0-0.3-0.1-0.5-0.3-0.6C88,163,87.8,162.9,87.5,163"/>
					<path d="M94.4,170.4c-0.5,0-0.8-0.1-1.1-0.4c-0.3-0.3-0.5-0.9-0.5-1.6c-0.1-0.7,0-1.3,0.2-1.6c0.2-0.4,0.5-0.6,1-0.6
						c0.5,0,0.8,0.1,1.1,0.4c0.3,0.3,0.5,0.9,0.5,1.6c0.1,0.7,0,1.3-0.2,1.6C95.2,170.1,94.8,170.3,94.4,170.4 M93.8,164.9
						c-0.9,0.1-1.6,0.5-2,1.1c-0.5,0.6-0.6,1.5-0.5,2.5c0.1,1,0.5,1.8,1.1,2.3s1.3,0.8,2.2,0.7c0.9-0.1,1.6-0.5,2-1.1
						c0.5-0.6,0.6-1.5,0.5-2.5c-0.1-1-0.5-1.8-1-2.3C95.4,165.1,94.7,164.8,93.8,164.9"/>
					<path d="M102.1,172.2c-0.5,0.1-0.9,0-1.2-0.1c-0.3-0.1-0.5-0.3-0.5-0.6c0-0.2,0-0.4,0.2-0.6c0.1-0.2,0.4-0.2,0.6-0.3l1.8-0.2
						c0.3,0,0.6,0,0.7,0.1c0.2,0.1,0.3,0.3,0.3,0.5c0,0.3-0.1,0.6-0.5,0.8C103.2,172,102.7,172.2,102.1,172.2 M101.7,167.4
						c-0.3,0-0.6,0-0.9-0.2c-0.2-0.2-0.3-0.5-0.4-0.8s0-0.6,0.2-0.9c0.2-0.2,0.4-0.3,0.8-0.4c0.3,0,0.6,0,0.9,0.2
						c0.2,0.2,0.3,0.5,0.4,0.8c0,0.4,0,0.7-0.2,0.9C102.3,167.2,102,167.4,101.7,167.4 M103.4,163.4c0,0.3,0,0.5-0.1,0.7
						c0,0.2-0.1,0.3-0.2,0.4c-0.2-0.1-0.5-0.2-0.8-0.3c-0.3,0-0.6-0.1-1,0c-0.8,0.1-1.4,0.3-1.8,0.8c-0.4,0.4-0.6,1-0.5,1.6
						c0,0.4,0.2,0.7,0.4,1c0.2,0.3,0.5,0.5,0.9,0.6c-0.3,0.1-0.5,0.3-0.7,0.5c-0.2,0.2-0.2,0.5-0.2,0.7c0,0.3,0.1,0.5,0.3,0.6
						c0.2,0.2,0.4,0.3,0.6,0.3c-0.4,0.1-0.7,0.3-1,0.5c-0.2,0.2-0.3,0.5-0.3,0.9c0.1,0.5,0.4,0.9,0.9,1.2c0.6,0.2,1.3,0.3,2.2,0.2
						c1-0.1,1.8-0.4,2.4-0.9c0.6-0.5,0.8-1,0.7-1.8c-0.1-0.6-0.3-1-0.7-1.3c-0.4-0.3-1-0.4-1.7-0.3l-1.7,0.2c-0.2,0-0.3,0-0.4-0.1
						c-0.1-0.1-0.2-0.2-0.2-0.3c0-0.1,0-0.2,0.1-0.3c0.1-0.1,0.1-0.2,0.3-0.2c0.1,0,0.3,0,0.4,0c0.1,0,0.3,0,0.4,0
						c0.8-0.1,1.4-0.3,1.8-0.8c0.4-0.4,0.6-1,0.5-1.6c0-0.2-0.1-0.4-0.1-0.6c-0.1-0.2-0.2-0.3-0.3-0.5c0.3-0.1,0.5-0.3,0.7-0.5
						c0.2-0.2,0.3-0.5,0.3-0.8L103.4,163.4"/>
					<path d="M109.6,168.8c-0.5,0-0.8-0.1-1.1-0.4c-0.3-0.3-0.5-0.9-0.5-1.6c-0.1-0.7,0-1.3,0.2-1.6c0.2-0.4,0.5-0.6,1-0.6
						c0.5,0,0.8,0.1,1.1,0.4c0.3,0.3,0.5,0.9,0.5,1.6c0.1,0.7,0,1.3-0.2,1.6C110.4,168.5,110.1,168.7,109.6,168.8 M109.1,163.3
						c-0.9,0.1-1.6,0.5-2,1.1c-0.5,0.6-0.6,1.5-0.5,2.5c0.1,1,0.5,1.8,1.1,2.3s1.3,0.8,2.2,0.7c0.9-0.1,1.6-0.5,2-1.1
						c0.5-0.6,0.6-1.5,0.5-2.5c-0.1-1-0.5-1.8-1-2.3C110.7,163.5,110,163.2,109.1,163.3"/>
					<path d="M116.4,162.6c-0.7,0.1-1.3,0.3-1.7,0.7c-0.4,0.4-0.6,0.9-0.5,1.5c0,0.3,0.1,0.6,0.2,0.8c0.1,0.2,0.3,0.4,0.5,0.5
						c0.1,0.1,0.3,0.1,0.5,0.2c0.2,0.1,0.5,0.1,0.9,0.2c0.6,0.1,1,0.2,1.1,0.3c0.2,0.1,0.3,0.3,0.3,0.5c0,0.3-0.1,0.4-0.2,0.6
						c-0.2,0.2-0.4,0.3-0.8,0.3c-0.3,0-0.6,0-0.9-0.2c-0.3-0.2-0.4-0.4-0.5-0.7l-1.3,0.5c0.2,0.5,0.5,0.9,1,1.2s1.1,0.3,1.8,0.3
						c0.8-0.1,1.4-0.3,1.8-0.7c0.4-0.4,0.6-0.9,0.5-1.5c0-0.3-0.1-0.6-0.2-0.8c-0.1-0.2-0.3-0.4-0.5-0.5c-0.2-0.1-0.3-0.2-0.5-0.2
						c-0.2,0-0.5-0.1-1-0.2c-0.6,0-1-0.1-1.1-0.2c-0.2-0.1-0.3-0.3-0.3-0.5c0-0.3,0-0.5,0.2-0.6c0.2-0.2,0.4-0.3,0.7-0.3
						c0.3,0,0.6,0,0.8,0.2c0.2,0.1,0.3,0.3,0.4,0.6l1.3-0.3c-0.1-0.6-0.4-1-0.9-1.2C117.7,162.6,117.1,162.5,116.4,162.6"/>
					<path d="M122.3,166.5c-0.3,0-0.5,0.1-0.6,0.3c-0.2,0.2-0.2,0.4-0.2,0.7c0,0.3,0.1,0.4,0.3,0.6c0.2,0.1,0.4,0.2,0.6,0.2l0.1,0
						l0.1-0.1l0,0.1l0,0.1c0,0.3-0.1,0.6-0.3,0.9c-0.2,0.3-0.5,0.4-0.9,0.5l0.1,0.7c0.7-0.1,1.2-0.3,1.5-0.8
						c0.4-0.5,0.5-1.1,0.4-1.8c0-0.4-0.2-0.7-0.4-1C123,166.6,122.7,166.5,122.3,166.5"/>
					<path d="M132.7,166.3c-0.4,0-0.7-0.1-1-0.4c-0.3-0.3-0.4-0.7-0.5-1.2l-0.1-0.8c-0.1-0.5,0-1,0.2-1.3c0.2-0.3,0.5-0.5,0.9-0.6
						c0.5,0,0.9,0.1,1.1,0.4c0.3,0.3,0.5,0.8,0.5,1.5c0.1,0.7,0,1.2-0.2,1.6C133.6,166.1,133.2,166.3,132.7,166.3 M130.6,158.5
						l-1.5,0.2l1,9l1.2-0.1l0.1-1.1c0.1,0.4,0.4,0.7,0.8,0.9c0.4,0.2,0.8,0.3,1.2,0.2c0.8-0.1,1.4-0.5,1.8-1.1
						c0.4-0.7,0.6-1.5,0.5-2.5c-0.1-1-0.4-1.8-0.9-2.3c-0.5-0.5-1.2-0.8-1.9-0.7c-0.4,0-0.8,0.2-1.1,0.5c-0.3,0.2-0.5,0.6-0.6,0.9
						L130.6,158.5"/>
					<path d="M140.9,160c-0.5,0-0.8,0.2-1.2,0.6c-0.3,0.3-0.5,0.8-0.6,1.3l-0.3-1.5l-1.3,0.1l0.7,6.3l1.5-0.2l-0.3-3
						c-0.1-0.6,0-1,0.3-1.4c0.3-0.4,0.6-0.6,1.1-0.6c0.1,0,0.2,0,0.3,0c0.1,0,0.2,0,0.3,0l-0.1-1.6l-0.2,0L140.9,160"/>
					<path d="M144.8,159.7l-1.5,0.2l0.7,6.3l1.5-0.2L144.8,159.7 M143.8,157c-0.3,0-0.5,0.1-0.6,0.3c-0.2,0.2-0.2,0.4-0.2,0.7
						c0,0.3,0.1,0.5,0.3,0.6c0.2,0.2,0.4,0.2,0.7,0.2s0.5-0.1,0.7-0.3c0.2-0.2,0.2-0.4,0.2-0.7s-0.2-0.5-0.3-0.6
						C144.3,157.1,144.1,157,143.8,157"/>
					<path d="M151,158.9c-0.5,0.1-0.9,0.2-1.2,0.5c-0.3,0.3-0.5,0.6-0.7,1.1l-0.3-1.2l-1.2,0.1l0.7,6.3l1.5-0.2l-0.4-3.5
						c-0.1-0.5,0-0.9,0.2-1.2c0.2-0.3,0.5-0.5,0.9-0.5c0.3,0,0.6,0,0.8,0.2c0.2,0.2,0.3,0.5,0.3,0.8l0.4,4l1.5-0.2l-0.5-4.4
						c-0.1-0.6-0.3-1.1-0.7-1.4C152.1,159,151.6,158.9,151,158.9"/>
					<path d="M158.7,163.6c-0.5,0-0.8-0.1-1.1-0.4c-0.3-0.3-0.5-0.8-0.5-1.4c-0.1-0.7,0-1.3,0.2-1.7c0.2-0.4,0.6-0.6,1-0.7
						c0.4,0,0.7,0.1,1,0.3c0.3,0.3,0.5,0.6,0.5,1.1l0.1,0.9c0.1,0.5,0,1-0.2,1.3C159.4,163.3,159.1,163.5,158.7,163.6 M157.8,158.2
						c-0.8,0.1-1.4,0.4-1.8,1.1c-0.4,0.7-0.5,1.5-0.4,2.6c0.1,1,0.4,1.7,0.9,2.2c0.5,0.5,1.2,0.8,1.9,0.7c0.5,0,0.8-0.2,1.1-0.4
						c0.3-0.2,0.5-0.6,0.6-1l0.4,3.6l1.5-0.2l-0.9-8.8l-1.2,0.1l-0.1,1c-0.2-0.3-0.4-0.6-0.8-0.8
						C158.6,158.2,158.2,158.2,157.8,158.2"/>
					<path d="M169,157.2l-1.5,0.2l0.4,3.6c0.1,0.5,0,0.9-0.2,1.3c-0.2,0.3-0.5,0.5-0.9,0.5c-0.3,0-0.6,0-0.8-0.2
						c-0.2-0.2-0.3-0.5-0.3-0.8l-0.4-4.1l-1.5,0.2l0.5,4.4c0.1,0.6,0.3,1.1,0.7,1.4c0.4,0.3,0.9,0.5,1.4,0.4
						c0.5-0.1,0.9-0.2,1.2-0.5c0.3-0.3,0.5-0.6,0.6-1.1l0.3,1.2l1.3-0.1L169,157.2"/>
					<path d="M173.1,159.4c0-0.5,0.1-0.9,0.3-1.2c0.2-0.3,0.5-0.5,0.9-0.5c0.3,0,0.6,0.1,0.9,0.3c0.2,0.2,0.4,0.5,0.4,0.9l0,0.2
						l0,0.1L173.1,159.4 M174.2,156.5c-0.9,0.1-1.6,0.5-2,1.1c-0.5,0.7-0.6,1.5-0.5,2.5c0.1,1,0.5,1.8,1,2.3
						c0.6,0.5,1.3,0.7,2.2,0.6c0.6-0.1,1.2-0.3,1.6-0.6c0.4-0.3,0.7-0.8,0.8-1.4l-1.3-0.3c0,0.3-0.2,0.6-0.3,0.8
						c-0.2,0.2-0.5,0.3-0.8,0.3c-0.4,0-0.8-0.1-1.1-0.4c-0.3-0.3-0.5-0.7-0.6-1.3l3.9-0.4c0-0.1,0-0.2,0-0.4c0-0.2,0-0.3,0-0.5
						c-0.1-0.8-0.4-1.5-0.9-1.9C175.7,156.6,175,156.4,174.2,156.5"/>
					<path d="M182.3,161.1c-0.5,0-0.8-0.1-1.1-0.4c-0.3-0.3-0.5-0.8-0.5-1.4c-0.1-0.7,0-1.3,0.2-1.7c0.2-0.4,0.5-0.6,1-0.7
						c0.4,0,0.7,0.1,1,0.3c0.3,0.3,0.5,0.6,0.5,1.1l0.1,0.9c0.1,0.5,0,1-0.3,1.3C183,160.8,182.7,161,182.3,161.1 M184.4,152.8
						l-1.5,0.2l0.4,3.6c-0.2-0.3-0.4-0.5-0.7-0.6c-0.3-0.1-0.7-0.2-1.1-0.1c-0.8,0.1-1.4,0.5-1.8,1.1c-0.4,0.7-0.5,1.5-0.4,2.6
						c0.1,1,0.4,1.7,0.9,2.2c0.5,0.5,1.2,0.8,1.9,0.7c0.5,0,0.9-0.2,1.2-0.5c0.3-0.3,0.5-0.6,0.6-1.1l0.3,1.2l1.3-0.1L184.4,152.8"
						/>
					<path d="M190.5,160.3c-0.5,0-0.8-0.1-1.1-0.4c-0.3-0.3-0.5-0.9-0.5-1.6c-0.1-0.7,0-1.3,0.2-1.6c0.2-0.4,0.5-0.6,1-0.6
						s0.8,0.1,1.1,0.4c0.3,0.3,0.5,0.9,0.5,1.6c0.1,0.7,0,1.3-0.2,1.6C191.3,160,190.9,160.2,190.5,160.3 M189.9,154.8
						c-0.9,0.1-1.6,0.5-2,1.1c-0.5,0.6-0.6,1.5-0.5,2.5c0.1,1,0.5,1.8,1,2.3c0.6,0.5,1.3,0.8,2.2,0.7c0.9-0.1,1.6-0.5,2.1-1.1
						c0.5-0.6,0.6-1.5,0.5-2.5c-0.1-1-0.5-1.8-1-2.3C191.5,155,190.8,154.7,189.9,154.8"/>
					<path d="M197.2,154.1c-0.7,0.1-1.3,0.3-1.7,0.7c-0.4,0.4-0.6,0.9-0.5,1.5c0,0.3,0.1,0.6,0.2,0.8c0.1,0.2,0.3,0.4,0.5,0.5
						c0.2,0.1,0.3,0.1,0.5,0.2c0.2,0.1,0.5,0.1,0.9,0.2c0.6,0.1,1,0.2,1.1,0.3c0.2,0.1,0.3,0.3,0.3,0.5c0,0.3,0,0.4-0.2,0.6
						c-0.2,0.2-0.4,0.3-0.8,0.3c-0.3,0-0.6,0-0.9-0.2c-0.3-0.2-0.4-0.4-0.5-0.7l-1.3,0.5c0.2,0.5,0.5,0.9,1,1.2
						c0.5,0.3,1.1,0.3,1.8,0.3c0.8-0.1,1.4-0.3,1.8-0.7c0.4-0.4,0.6-0.9,0.5-1.5c0-0.3-0.1-0.6-0.2-0.8c-0.1-0.2-0.3-0.4-0.5-0.5
						c-0.2-0.1-0.3-0.2-0.5-0.2c-0.2-0.1-0.5-0.1-1-0.2c-0.6,0-0.9-0.1-1.1-0.2c-0.2-0.1-0.3-0.3-0.3-0.5c0-0.3,0-0.5,0.2-0.6
						c0.2-0.2,0.4-0.3,0.7-0.3c0.3,0,0.6,0,0.8,0.2c0.2,0.1,0.3,0.3,0.4,0.6l1.3-0.3c-0.1-0.6-0.4-1-0.9-1.2
						C198.5,154.1,197.9,154,197.2,154.1"/>
					<path d="M89.7,180.8c0-0.5,0.1-0.9,0.3-1.2c0.2-0.3,0.5-0.5,0.9-0.5c0.3,0,0.6,0.1,0.9,0.3c0.2,0.2,0.4,0.5,0.4,0.9l0,0.2
						l0,0.1L89.7,180.8 M90.9,177.9c-0.9,0.1-1.6,0.5-2,1.1c-0.5,0.7-0.6,1.5-0.5,2.5c0.1,1,0.5,1.8,1,2.3c0.6,0.5,1.3,0.7,2.2,0.6
						c0.6-0.1,1.2-0.3,1.6-0.6c0.4-0.4,0.7-0.8,0.7-1.4l-1.3-0.3c0,0.3-0.2,0.6-0.4,0.8c-0.2,0.2-0.4,0.3-0.8,0.3
						c-0.4,0-0.8-0.1-1.1-0.4c-0.3-0.3-0.5-0.7-0.6-1.3l3.9-0.4c0-0.1,0-0.2,0-0.4c0-0.2,0-0.3,0-0.5c-0.1-0.8-0.4-1.5-0.9-1.9
						C92.3,178,91.6,177.8,90.9,177.9"/>
					<path d="M101.1,177l-1.5,0.2l0.7,6.3l1.5-0.2L101.1,177 M100,174.3c-0.3,0-0.5,0.1-0.6,0.3c-0.2,0.2-0.2,0.4-0.2,0.7
						c0,0.3,0.1,0.5,0.3,0.6c0.2,0.2,0.4,0.2,0.7,0.2c0.3,0,0.5-0.1,0.7-0.3c0.2-0.2,0.2-0.4,0.2-0.7c0-0.3-0.1-0.5-0.3-0.6
						C100.5,174.3,100.3,174.3,100,174.3"/>
					<path d="M107.2,176.2c-0.5,0.1-0.9,0.2-1.2,0.5c-0.3,0.3-0.5,0.6-0.6,1.1l-0.3-1.2l-1.2,0.1l0.7,6.3l1.5-0.2l-0.4-3.5
						c-0.1-0.5,0-0.9,0.2-1.2c0.2-0.3,0.5-0.5,0.9-0.5c0.3,0,0.6,0,0.8,0.2c0.2,0.2,0.3,0.5,0.3,0.8l0.4,4l1.5-0.2l-0.5-4.4
						c-0.1-0.6-0.3-1.1-0.7-1.4C108.3,176.3,107.8,176.1,107.2,176.2"/>
					<path d="M114,172.7c-0.7,0.1-1.2,0.3-1.6,0.8c-0.4,0.5-0.5,1.1-0.4,1.8l0.1,0.5l-0.8,0.1l0.1,1.1l0.8-0.1l0.5,5.1l1.5-0.2
						l-0.5-5.1l1.5-0.2l-0.1-1.1l-1.5,0.2l-0.1-0.5c0-0.4,0-0.7,0.2-0.9c0.1-0.2,0.4-0.4,0.7-0.4c0.2,0,0.3,0,0.4,0
						c0.1,0,0.3,0.1,0.4,0.2l0.2-1.2c-0.2-0.1-0.5-0.2-0.7-0.2C114.5,172.7,114.3,172.7,114,172.7"/>
					<path d="M119.5,180.5c-0.3,0-0.5,0-0.7-0.2c-0.2-0.1-0.3-0.3-0.3-0.6c0-0.3,0.1-0.6,0.3-0.8c0.3-0.2,0.7-0.3,1.2-0.4l0.2,0
						c0.1,0,0.2,0,0.3,0l0,0.4c0,0.4,0,0.8-0.2,1C120.1,180.3,119.8,180.5,119.5,180.5 M119.2,174.9c-0.7,0.1-1.3,0.3-1.7,0.7
						c-0.4,0.4-0.6,0.9-0.6,1.5l1.4,0.1c0-0.3,0-0.6,0.2-0.8c0.1-0.2,0.4-0.3,0.7-0.3c0.3,0,0.6,0,0.7,0.2c0.2,0.1,0.3,0.4,0.3,0.7
						l0.1,0.7c-0.1,0-0.2,0-0.3,0c-0.1,0-0.2,0-0.3,0c-0.9,0.1-1.7,0.4-2.1,0.8c-0.5,0.4-0.7,0.9-0.6,1.6c0.1,0.6,0.3,1,0.7,1.3
						c0.4,0.3,0.9,0.4,1.5,0.3c0.4,0,0.8-0.2,1.1-0.4c0.3-0.2,0.5-0.5,0.6-0.8l0.1,0.2l0.1,0.2c0.1,0.2,0.3,0.3,0.5,0.4
						s0.4,0.1,0.7,0.1c0.2,0,0.3-0.1,0.5-0.1c0.2-0.1,0.3-0.1,0.4-0.2l-0.2-1l-0.2,0.1l-0.2,0c-0.1,0-0.3,0-0.3-0.1
						c-0.1-0.1-0.1-0.2-0.1-0.4l-0.3-2.9c-0.1-0.7-0.3-1.2-0.7-1.5C120.6,175,120,174.9,119.2,174.9 M119.7,172.1l-1.5,0.2l-1.1,2.2
						l1.1-0.1l0.9-1.3l1.1,1l1.1-0.1L119.7,172.1"/>
					<path d="M127.9,174c-0.5,0-0.9,0.2-1.2,0.5c-0.3,0.3-0.5,0.6-0.7,1.1l-0.3-1.2l-1.2,0.1l0.7,6.3l1.5-0.2l-0.4-3.5
						c-0.1-0.5,0-0.9,0.2-1.2c0.2-0.3,0.5-0.5,0.9-0.5c0.3,0,0.6,0,0.8,0.2c0.2,0.2,0.3,0.5,0.3,0.8l0.4,4l1.5-0.2l-0.5-4.4
						c-0.1-0.6-0.3-1.1-0.7-1.4C129,174.1,128.5,174,127.9,174"/>
					<path d="M135,173.3c-0.9,0.1-1.6,0.5-2,1.1c-0.5,0.6-0.6,1.5-0.5,2.5c0.1,1,0.5,1.8,1,2.3c0.6,0.5,1.3,0.8,2.2,0.7
						c0.7-0.1,1.2-0.3,1.6-0.7c0.4-0.4,0.6-0.9,0.7-1.5l-1.4-0.2c0,0.4-0.1,0.7-0.3,0.9c-0.2,0.2-0.4,0.4-0.7,0.4
						c-0.5,0-0.8-0.1-1.1-0.4c-0.3-0.4-0.5-0.9-0.5-1.5c-0.1-0.7,0-1.2,0.2-1.6c0.2-0.4,0.5-0.6,1-0.7c0.3,0,0.6,0,0.8,0.2
						c0.2,0.2,0.4,0.5,0.4,0.8l1.3-0.4c-0.1-0.6-0.4-1.1-0.9-1.4C136.2,173.3,135.7,173.2,135,173.3"/>
					<path d="M141.2,172.8l-1.5,0.2l0.7,6.3l1.5-0.2L141.2,172.8 M140.1,170.1c-0.3,0-0.5,0.1-0.6,0.3c-0.2,0.2-0.2,0.4-0.2,0.7
						c0,0.3,0.1,0.5,0.3,0.6c0.2,0.2,0.4,0.2,0.7,0.2c0.3,0,0.5-0.1,0.7-0.3c0.2-0.2,0.2-0.4,0.2-0.7c0-0.3-0.1-0.5-0.3-0.6
						C140.6,170.1,140.4,170.1,140.1,170.1"/>
					<path d="M146.4,177.7c-0.3,0-0.5,0-0.7-0.2c-0.2-0.1-0.3-0.3-0.3-0.6c0-0.3,0.1-0.6,0.3-0.8c0.3-0.2,0.7-0.3,1.2-0.4l0.2,0
						c0.1,0,0.2,0,0.3,0l0,0.4c0,0.4,0,0.8-0.2,1C147.1,177.5,146.8,177.6,146.4,177.7 M146.2,172.1c-0.7,0.1-1.3,0.3-1.7,0.7
						c-0.4,0.4-0.6,0.9-0.6,1.5l1.4,0.1c0-0.3,0-0.6,0.2-0.8c0.1-0.2,0.4-0.3,0.7-0.3c0.3,0,0.6,0,0.7,0.2c0.2,0.1,0.3,0.4,0.3,0.7
						l0.1,0.7c-0.1,0-0.2,0-0.3,0c-0.1,0-0.2,0-0.3,0c-0.9,0.1-1.7,0.4-2.1,0.8c-0.5,0.4-0.7,0.9-0.6,1.6c0.1,0.6,0.3,1,0.7,1.3
						c0.4,0.3,0.9,0.4,1.5,0.3c0.4,0,0.8-0.2,1.1-0.4c0.3-0.2,0.5-0.5,0.6-0.8l0.1,0.2l0.1,0.2c0.1,0.2,0.3,0.3,0.5,0.4
						c0.2,0.1,0.4,0.1,0.7,0.1c0.2,0,0.3-0.1,0.5-0.1c0.2-0.1,0.3-0.1,0.4-0.2l-0.2-1.1l-0.2,0.1l-0.2,0c-0.2,0-0.3,0-0.3-0.1
						c-0.1-0.1-0.1-0.2-0.1-0.4l-0.3-2.9c-0.1-0.7-0.3-1.2-0.7-1.5C147.6,172.1,147,172,146.2,172.1"/>
				</g>
			</g>
		</g>
		<g class="st19">
			<path class="st1" d="M256.5,138.3l-2.7-10.9l-26.1-15.3l-15,26.4l2.9,11l26.1,15.2l14.9-26.2l0.1-0.2L256.5,138.3z M225.8,152.6
				c-2.9,0-5.3-2.4-5.3-5.4c0-2.9,2.4-5.3,5.3-5.3c2.9,0,5.3,2.4,5.3,5.3C231.1,150.2,228.7,152.6,225.8,152.6z M227.9,133.7
				c0-2.9,2.4-5.3,5.3-5.3c2.9,0,5.3,2.4,5.3,5.3c0,3-2.4,5.4-5.3,5.4C230.2,139,227.9,136.6,227.9,133.7z M239.3,160.3
				c-2.9,0-5.3-2.4-5.3-5.4c0-3,2.4-5.4,5.3-5.4c2.9,0,5.3,2.4,5.3,5.4C244.6,157.9,242.3,160.3,239.3,160.3z M246.7,146.7
				c-2.9,0-5.3-2.4-5.3-5.4s2.4-5.3,5.3-5.3c2.9,0,5.3,2.4,5.3,5.3S249.6,146.7,246.7,146.7z"/>
		</g>
		<g class="st19">
			<path class="st1" d="M267.3,249.2c-6.4-3.1-14-0.1-17.1,6.6c-2.5,5.6-1,12,3.2,15.7l-45.1,54.9l41.9,20.1l9.9-71.9
				c5.4,0.7,10.9-2.2,13.4-7.7C276.4,260.1,273.7,252.2,267.3,249.2z"/>
		</g>
		<g class="st19">
			<path class="st1" d="M120.7,23.5L120.7,23.5c-1.2-2.5-3.8-4.2-6.7-4.1c-2.1,0-4.1,1-5.4,2.5l0,0l-3.4-0.5
				c-1.1-2.6-3.8-4.4-6.8-4.4c-2.2,0-4.2,1.1-5.5,2.7l0,0l-2.2-0.3l-2.2-0.3l0,0c-0.9-1.9-2.5-3.4-4.7-4c-2.9-0.8-5.9,0.3-7.7,2.5
				l-3.4-0.4l0,0c-0.9-1.8-2.5-3.2-4.6-3.8c-2.8-0.8-5.7,0.2-7.5,2.3l0,0L56,15.1l-3.1,25.7l19.9,2.5c0.1-0.6,0.2-1.2,0.4-1.8
				c1.9-7.1,8.9-11.4,16-10.2c7.1,0.7,12.8,6.6,12.9,13.9c0,0.6,0,1.3-0.1,1.9l19.9,2.7l3.4-25.6L120.7,23.5z"/>
		</g>
		<g>
			<g class="st16">
				<defs>
					
						<rect id="SVGID_00000114765215274182399780000018146528749988169360_" x="7.4" y="36.3" transform="matrix(0.9945 -0.1045 0.1045 0.9945 -5.1404 4.2283)" class="st16" width="60.8" height="29.7"/>
				</defs>
				<clipPath id="SVGID_00000041980271698713270220000001274960576406789273_">
					<use xlink:href="#SVGID_00000114765215274182399780000018146528749988169360_"  style="overflow:visible;"/>
				</clipPath>
				<g style="clip-path:url(#SVGID_00000041980271698713270220000001274960576406789273_);">
					<path class="st12" d="M12.6,48.5c-0.3,0-0.6-0.2-0.6-0.5l-0.2-1.5l1.5-0.2c0.9-0.1,1.4,0.4,1.4,0.9c0.1,0.5-0.3,1-1.2,1.1
						L12.6,48.5 M11.5,43.7l-0.2-1.5c0-0.3,0.2-0.5,0.5-0.6l0.7-0.1c1-0.1,1.4,0.4,1.5,0.9c0.1,0.5-0.3,1-1.3,1.1L11.5,43.7
						 M13.2,38.8L6,39.6l0.3,2.7l1.2-0.1c0.3,0,0.5,0.2,0.5,0.4l0.6,5.9c0,0.2-0.2,0.5-0.4,0.5L7,49l0.3,2.7l7.6-0.8
						c1.6-0.2,4-1.1,3.7-3.7c-0.2-1.7-1.4-2.3-2.6-2.6c1.1-0.4,2-1.4,1.8-3C17.6,39.7,15.7,38.6,13.2,38.8"/>
					<path class="st12" d="M22.4,37.8c-2.6,0.3-4.2,1.9-3.9,4.4c0.2,1.7,1.4,2.7,3.2,3.1c1.7,0.4,4.1,0.1,4.2,1.1
						c0.1,0.6-0.9,0.8-1.4,0.8c-1.3,0.1-2.5-0.3-3.1-1.5L18.9,46l0.5,4.4l2.7-0.3c0,0,0.2-0.3,0.6-0.3c0.1,0,0.3,0,0.4,0
						c0.5,0.1,1,0.1,1.6,0.1c2.6-0.3,4.6-1.6,4.3-4.4c-0.2-2.1-1.8-3-3.5-3.3c-1.6-0.3-3.9-0.1-4-0.9c0-0.4,0.4-0.7,1.2-0.8
						c0.8-0.1,2.5,0.3,2.7,1.4l2.5-0.3l-0.5-4.3l-2.7,0.3c0,0.1-0.1,0.2-0.5,0.3c-0.1,0-0.3,0-0.5,0C23.5,37.8,23.1,37.8,22.4,37.8"
						/>
					<path class="st12" d="M35.2,46.1c-0.3,0-0.6-0.2-0.6-0.5l-0.2-1.5l1.5-0.2c1-0.1,1.4,0.4,1.4,0.9c0.1,0.5-0.3,1-1.2,1.1
						L35.2,46.1 M34.1,41.4L34,39.9c0-0.3,0.2-0.5,0.5-0.6l0.7-0.1c0.9-0.1,1.4,0.4,1.5,0.9s-0.3,1-1.3,1.1L34.1,41.4 M35.8,36.5
						l-7.2,0.8l0.3,2.7l1.2-0.1c0.3,0,0.5,0.2,0.5,0.4l0.6,5.9c0,0.2-0.2,0.5-0.4,0.5l-1.2,0.1l0.3,2.7l7.6-0.8
						c1.6-0.2,4-1.1,3.7-3.7c-0.2-1.7-1.4-2.3-2.6-2.6c1.1-0.4,2-1.4,1.8-3C40.2,37.3,38.3,36.2,35.8,36.5"/>
					<path class="st12" d="M43,45.3c-0.7,0.1-1.2,0.7-1.1,1.5c0.1,0.6,0.5,1.1,1.1,1.2c-0.1,0.5-0.9,1.4-0.9,1.4l0,0.4
						c1.2-0.6,2.4-2.3,2.3-3.3C44.4,45.8,43.8,45.3,43,45.3"/>
					<path class="st12" d="M53.4,52.1c-2.3,0.2-4.4,1.3-4.1,4.1c0.1,0.9,0.7,1.9,1.7,1.8c0.9-0.1,1.5-0.8,1.4-1.7
						c-0.1-0.5-0.3-0.6-0.3-0.9c0-0.5,0.6-0.8,1-0.8c0.9-0.1,1.6,0.5,1.7,1.3c0.2,2.3-5.3,2.7-4.8,7.3c0.1,0.6,0.2,1.2,0.6,1.7
						l1.3-0.1c0-0.1-0.1-0.2-0.1-0.3c-0.1-0.5,0.3-0.7,0.8-0.7c1.3-0.1,2,0.8,3.8,0.6c2.7-0.3,2.9-1.8,2.6-4.3l-0.1-0.9l-1.3,0.1
						c0.1,1.1-0.2,1.7-1.1,1.8c-0.7,0.1-1.5-0.2-2.2-0.1c-1.2,0.1-2.5,0.7-2.8,2.2l-0.1-0.3c-0.1-0.9,0.9-1.8,1.7-2.2
						c1.8-1,5.8-1.5,5.4-5.2C58.2,52.7,56.2,51.8,53.4,52.1"/>
					<path class="st12" d="M63.8,51c-2.3,0.2-4.5,1.5-4.2,4.1c0.1,0.9,0.6,1.9,1.7,1.8c0.7-0.1,1.4-0.7,1.3-1.5
						c-0.1-0.8-0.3-0.8-0.3-1.1c0-0.4,0.7-0.8,1-0.8c0.8-0.1,1.5,0.2,1.6,1.2c0.1,1.1-0.7,1.8-1.6,1.9l0.1,1.3
						c0.9-0.1,1.8,0.5,1.9,1.6c0.1,0.9-0.6,1.4-1.4,1.5c-0.4,0-1.1-0.1-1.2-0.6c0-0.4,0.2-0.4,0.1-1.2c-0.1-0.8-0.9-1.3-1.6-1.2
						c-1.2,0.1-1.5,1.2-1.4,2.1c0.3,2.6,2.8,3.3,5.1,3.1c2.2-0.2,4.4-1.4,4.1-3.7c-0.2-1.6-1.1-2.3-2.5-2.6c1.4-0.6,2.1-1.5,1.9-3.1
						C68.4,51.5,66.1,50.8,63.8,51"/>
				</g>
			</g>
		</g>
		<g class="st19">
			<path class="st1" d="M59.3,224.6l9.5-45.5L7,168l-7,25.3l4.5,11.5l4,10l36.7,7.1L59.3,224.6L59.3,224.6L59.3,224.6L59.3,224.6z
				 M39.5,182c3.6,0.1,6.5,3,6.4,6.6c-0.1,3.6-3.1,6.4-6.7,6.3c-3.6-0.1-6.5-3-6.4-6.6C32.9,184.7,35.9,181.9,39.5,182z M12.8,176.9
				c3.6,0.1,6.5,3,6.4,6.6c-0.1,3.6-3.1,6.4-6.7,6.3c-3.6-0.1-6.5-3-6.4-6.6C6.2,179.6,9.2,176.8,12.8,176.9z"/>
		</g>
		<g>
			<g class="st16">
				<defs>
					
						<rect id="SVGID_00000147913431444219950990000007402089119066466709_" x="266.7" y="337.5" transform="matrix(0.9945 -0.1045 0.1045 0.9945 -34.3772 31.4109)" class="st16" width="31.5" height="12.3"/>
				</defs>
				<clipPath id="SVGID_00000164471465656658570720000007473420200220186252_">
					<use xlink:href="#SVGID_00000147913431444219950990000007402089119066466709_"  style="overflow:visible;"/>
				</clipPath>
				<g style="clip-path:url(#SVGID_00000164471465656658570720000007473420200220186252_);">
					<path class="st12" d="M266.9,339.2l0,6.4l2.4,0c0,0,0,0,0.1-0.1c0.1-0.1,0.1-0.2,0.2-0.3s0.2-0.2,0.4-0.3s0.3-0.1,0.5-0.2
						c0.2,0,0.4,0,0.6,0.1s0.4,0.2,0.6,0.3c0.2,0.1,0.4,0.3,0.5,0.5c0.1,0.2,0.2,0.5,0.2,0.8c0,0.2,0,0.4,0,0.6s0,0.5-0.1,0.7
						c-0.1,0.2-0.2,0.4-0.4,0.6s-0.4,0.3-0.7,0.3c-0.1,0-0.2,0-0.4,0c-0.1,0-0.3,0-0.5-0.1c-0.1,0-0.3-0.1-0.4-0.2s-0.2-0.2-0.2-0.3
						c0-0.1,0-0.1,0-0.2c0-0.1,0-0.1,0-0.2c0-0.1,0-0.2,0-0.3c0-0.1,0-0.2,0-0.3s-0.1-0.3-0.1-0.4s-0.2-0.3-0.3-0.4
						c-0.1-0.1-0.3-0.2-0.5-0.3c-0.2-0.1-0.4-0.1-0.6-0.1c-0.1,0-0.3,0.1-0.5,0.2c-0.2,0.1-0.3,0.2-0.5,0.4s-0.3,0.4-0.3,0.6
						c-0.1,0.2-0.1,0.5-0.1,0.9c0.1,0.5,0.2,1,0.5,1.4c0.3,0.4,0.6,0.7,1.1,1c0.4,0.3,0.9,0.5,1.5,0.6c0.6,0.1,1.2,0.1,1.8,0.1
						c0.7-0.1,1.3-0.2,1.8-0.5c0.5-0.3,1-0.6,1.4-1c0.4-0.4,0.7-0.9,0.9-1.5s0.2-1.2,0.2-1.8c0-0.4-0.2-0.8-0.4-1.2
						c-0.2-0.4-0.5-0.8-0.9-1.2s-0.8-0.6-1.4-0.8c-0.5-0.2-1.1-0.3-1.8-0.2c-0.4,0-0.7,0.1-1,0.2c-0.3,0.1-0.5,0.2-0.7,0.4
						s-0.4,0.3-0.5,0.4s-0.2,0.2-0.3,0.3l0-1.8c0,0,0.1,0,0.2,0c0.1,0,0.3,0,0.6,0.1c0.2,0,0.5,0,0.7,0c0.2,0,0.5,0,0.6,0
						c0.3,0,0.6-0.1,1-0.3c0.4-0.2,0.8-0.4,1.1-0.7s0.7-0.7,0.9-1.2c0.2-0.5,0.4-1.1,0.4-1.8c-0.1,0.1-0.4,0.1-0.7,0.2
						c-0.3,0.1-0.6,0.2-1,0.2c-0.4,0.1-0.7,0.1-1.1,0.2c-0.4,0.1-0.7,0.1-1.1,0.1c-0.4,0-0.8,0.1-1.2,0.1s-0.7,0-1,0s-0.6,0-0.9,0
						S267.2,339.2,266.9,339.2"/>
					<polyline class="st12" points="279.5,344.7 276.8,345 277,347.4 279.8,347.1 279.5,344.7 					"/>
					<path class="st12" d="M284.6,337.3l-2.5,0.3c0,0.1,0,0.2,0,0.3c0,0.1-0.1,0.2-0.2,0.3c-0.1,0.1-0.2,0.2-0.4,0.3
						c-0.2,0.1-0.4,0.1-0.7,0.2l-1.1,0.1l0.3,2.6l1.6-0.2l0.6,5.5c0,0.1,0,0.1,0,0.2c0,0.1,0,0.1-0.1,0.2c0,0-0.1,0.1-0.1,0.1
						s-0.1,0-0.2,0.1l-1.2,0.1l0.3,2.7l6.7-0.7l-0.3-2.7l-1.2,0.1c-0.1,0-0.1,0-0.2,0c0,0-0.1,0-0.1-0.1s-0.1-0.1-0.1-0.1
						s0-0.1,0-0.1L284.6,337.3"/>
					<path class="st12" d="M293.4,346.4c-0.3,0-0.6,0-0.8-0.2c-0.2-0.2-0.3-0.4-0.5-0.7s-0.2-0.7-0.3-1.2c-0.1-0.5-0.1-1-0.2-1.5
						s-0.1-1.1-0.1-1.5c0-0.5,0-0.9,0-1.2c0-0.3,0.1-0.6,0.3-0.8c0.2-0.2,0.4-0.3,0.7-0.4c0.3,0,0.6,0,0.8,0.2
						c0.2,0.2,0.3,0.4,0.5,0.7c0.1,0.3,0.2,0.7,0.3,1.2c0.1,0.5,0.1,1,0.2,1.5c0.1,0.6,0.1,1.1,0.1,1.5c0,0.5,0,0.9,0,1.2
						s-0.1,0.6-0.3,0.8C294,346.2,293.8,346.3,293.4,346.4 M292.4,336.4c-0.8,0.1-1.5,0.3-2.1,0.7s-1.1,0.8-1.5,1.4
						c-0.4,0.6-0.6,1.3-0.8,2s-0.2,1.6-0.1,2.6c0.1,0.9,0.3,1.8,0.6,2.5c0.3,0.7,0.7,1.3,1.2,1.8c0.5,0.5,1.1,0.8,1.7,1.1
						s1.4,0.3,2.2,0.2c0.8-0.1,1.5-0.3,2.2-0.7c0.6-0.3,1.1-0.8,1.5-1.4c0.4-0.6,0.6-1.3,0.8-2c0.1-0.8,0.2-1.6,0.1-2.6
						c-0.1-1-0.3-1.8-0.6-2.5c-0.3-0.7-0.7-1.3-1.2-1.8c-0.5-0.5-1.1-0.8-1.7-1.1C294,336.4,293.2,336.3,292.4,336.4"/>
				</g>
			</g>
		</g>
		<g>
			<g class="st16">
				<defs>
					
						<rect id="SVGID_00000145053246540393825040000002281524650735470730_" x="230.8" y="359.5" transform="matrix(0.9945 -0.1045 0.1045 0.9945 -36.8532 27.979)" class="st16" width="35.4" height="12.2"/>
				</defs>
				<clipPath id="SVGID_00000122715562273441554960000003064520471242599054_">
					<use xlink:href="#SVGID_00000145053246540393825040000002281524650735470730_"  style="overflow:visible;"/>
				</clipPath>
				<g style="clip-path:url(#SVGID_00000122715562273441554960000003064520471242599054_);">
					<path class="st12" d="M244.6,359.9l-6.1,0.6l-0.6,3.1c0,0-0.1-0.2-0.3-0.5c-0.1-0.3-0.3-0.6-0.5-1c-0.2-0.4-0.3-0.7-0.5-1
						s-0.2-0.4-0.2-0.4l-6.2,0.7l0.3,2.7l1.2-0.1c0.1,0,0.1,0,0.2,0c0.1,0,0.1,0.1,0.2,0.1s0.1,0.1,0.1,0.2c0,0.1,0,0.1,0.1,0.2
						l0.6,5.7c0,0.1,0,0.1,0,0.2c0,0.1,0,0.1-0.1,0.2c0,0.1-0.1,0.1-0.1,0.1c-0.1,0-0.1,0.1-0.2,0.1l-1.2,0.1l0.3,2.7l5.5-0.6
						l-0.3-2.7l-0.9,0.1c-0.1,0-0.1,0-0.2,0s-0.1,0-0.2-0.1c0,0-0.1-0.1-0.1-0.1c0-0.1,0-0.1-0.1-0.2l-0.5-5.1l3.5,8l0.2,0l1.7-8.5
						l0.5,5c0,0.1,0,0.1,0,0.2c0,0.1,0,0.1-0.1,0.2s-0.1,0.1-0.1,0.1c-0.1,0-0.1,0.1-0.2,0.1l-0.9,0.1l0.3,2.7l6.2-0.7l-0.3-2.7
						l-0.9,0.1c-0.1,0-0.2,0-0.2,0c-0.1,0-0.1,0-0.2-0.1s-0.1-0.1-0.1-0.1c0-0.1-0.1-0.1-0.1-0.2l-0.6-5.8c0-0.1,0-0.1,0-0.2
						c0-0.1,0-0.1,0.1-0.2c0-0.1,0.1-0.1,0.1-0.1s0.1-0.1,0.2-0.1l1-0.1L244.6,359.9"/>
					<path class="st12" d="M251.8,359.1l-6.7,0.7l0.3,2.7l1.2-0.1c0.1,0,0.1,0,0.2,0c0.1,0,0.1,0,0.2,0.1c0,0,0.1,0.1,0.1,0.1
						c0,0.1,0,0.1,0.1,0.2l0.6,5.8c0,0.1,0,0.1,0,0.2c0,0.1,0,0.1-0.1,0.2c0,0.1-0.1,0.1-0.1,0.1s-0.1,0.1-0.2,0.1l-1.2,0.1l0.3,2.7
						l6.7-0.7l-0.3-2.7l-1.2,0.1c-0.1,0-0.1,0-0.2,0s-0.1,0-0.2-0.1c0,0-0.1-0.1-0.1-0.1c0-0.1,0-0.1-0.1-0.2l-0.6-5.8
						c0-0.1,0-0.1,0-0.2c0-0.1,0-0.1,0.1-0.2c0-0.1,0.1-0.1,0.1-0.1s0.1-0.1,0.2-0.1l1.2-0.1L251.8,359.1"/>
					<path class="st12" d="M265.5,357.7l-5.8,0.6l0.3,2.7l1.1-0.1c0.1,0,0.1,0,0.2,0c0.1,0,0.1,0.1,0.2,0.1s0.1,0.1,0.1,0.2
						c0,0.1,0,0.1,0.1,0.2l0.3,3.2l-4.6-6l-5.1,0.5l0.3,2.7l1.2-0.1c0.1,0,0.1,0,0.2,0s0.1,0,0.2,0.1s0.1,0.1,0.1,0.1s0,0.1,0.1,0.2
						l0.6,5.8c0,0.1,0,0.1,0,0.2c0,0.1,0,0.1-0.1,0.2c0,0.1-0.1,0.1-0.1,0.1c-0.1,0-0.1,0.1-0.2,0.1l-1.2,0.1l0.3,2.7l5.9-0.6
						l-0.3-2.7l-1.2,0.1c-0.1,0-0.2,0-0.2,0c-0.1,0-0.1,0-0.2-0.1c-0.1,0-0.1-0.1-0.1-0.1c0-0.1-0.1-0.1-0.1-0.2l-0.4-3.9l5.1,6.6
						l3.1-0.3l-0.9-9c0-0.1,0-0.1,0-0.2c0-0.1,0-0.1,0.1-0.2c0,0,0.1-0.1,0.1-0.1c0.1,0,0.1,0,0.2-0.1l1-0.1L265.5,357.7"/>
				</g>
			</g>
		</g>
	</g>
</g>
<g id="Layer_5">
</g>
<g id="Layer_2" class="st50">
</g>
<g id="Layer_3" class="st50">
</g>
<g id="Layer_4" class="st50">
</g>
</svg>
